%TF.GenerationSoftware,KiCad,Pcbnew,9.0.0*%
%TF.CreationDate,2025-07-08T22:51:07+02:00*%
%TF.ProjectId,RTC Tester,52544320-5465-4737-9465-722e6b696361,rev?*%
%TF.SameCoordinates,Original*%
%TF.FileFunction,Copper,L2,Bot*%
%TF.FilePolarity,Positive*%
%FSLAX46Y46*%
G04 Gerber Fmt 4.6, Leading zero omitted, Abs format (unit mm)*
G04 Created by KiCad (PCBNEW 9.0.0) date 2025-07-08 22:51:07*
%MOMM*%
%LPD*%
G01*
G04 APERTURE LIST*
%TA.AperFunction,ComponentPad*%
%ADD10C,1.600000*%
%TD*%
%TA.AperFunction,ComponentPad*%
%ADD11O,1.600000X1.600000*%
%TD*%
%TA.AperFunction,ComponentPad*%
%ADD12C,1.498600*%
%TD*%
%TA.AperFunction,ComponentPad*%
%ADD13R,1.600000X1.600000*%
%TD*%
%TA.AperFunction,Conductor*%
%ADD14C,0.200000*%
%TD*%
G04 APERTURE END LIST*
D10*
%TO.P,R1,1*%
%TO.N,+5V*%
X98552000Y-97865700D03*
D11*
%TO.P,R1,2*%
%TO.N,Net-(A1-A4)*%
X98552000Y-87705700D03*
%TD*%
D12*
%TO.P,IC1,*%
%TO.N,*%
X129032000Y-107696000D03*
X131572000Y-107696000D03*
X134112000Y-107696000D03*
X136652000Y-107696000D03*
X129032000Y-100076000D03*
X131572000Y-100076000D03*
X134112000Y-100076000D03*
X136652000Y-100076000D03*
%TO.P,IC1,1,OSCI*%
%TO.N,unconnected-(IC1-OSCI-Pad1)*%
X118872000Y-107696000D03*
%TO.P,IC1,2,OSCO*%
%TO.N,unconnected-(IC1-OSCO-Pad2)*%
X121412000Y-107696000D03*
%TO.P,IC1,3,A0*%
%TO.N,unconnected-(IC1-A0-Pad3)*%
X123952000Y-107696000D03*
%TO.P,IC1,4,VSS*%
%TO.N,GND*%
X126492000Y-107696000D03*
%TO.P,IC1,5,SDA*%
%TO.N,Net-(A1-A4)*%
X126492000Y-100076000D03*
%TO.P,IC1,6,SCL*%
%TO.N,Net-(A1-A5)*%
X123952000Y-100076000D03*
%TO.P,IC1,7,~{INT}*%
%TO.N,unconnected-(IC1-~{INT}-Pad7)*%
X121412000Y-100076000D03*
%TO.P,IC1,8,VDD*%
%TO.N,+5V*%
X118872000Y-100076000D03*
%TD*%
D13*
%TO.P,A1,1,D1/TX*%
%TO.N,unconnected-(A1-D1{slash}TX-Pad1)*%
X139954000Y-65024000D03*
D11*
%TO.P,A1,2,D0/RX*%
%TO.N,unconnected-(A1-D0{slash}RX-Pad2)*%
X137414000Y-65024000D03*
%TO.P,A1,3,~{RESET}*%
%TO.N,unconnected-(A1-~{RESET}-Pad3)*%
X134874001Y-65024000D03*
%TO.P,A1,4,GND*%
%TO.N,GND*%
X132334000Y-65024000D03*
%TO.P,A1,5,D2*%
%TO.N,unconnected-(A1-D2-Pad5)*%
X129794000Y-65024000D03*
%TO.P,A1,6,D3*%
%TO.N,unconnected-(A1-D3-Pad6)*%
X127254000Y-65024000D03*
%TO.P,A1,7,D4*%
%TO.N,unconnected-(A1-D4-Pad7)*%
X124714000Y-65024000D03*
%TO.P,A1,8,D5*%
%TO.N,unconnected-(A1-D5-Pad8)*%
X122173999Y-65024000D03*
%TO.P,A1,9,D6*%
%TO.N,unconnected-(A1-D6-Pad9)*%
X119634000Y-65024000D03*
%TO.P,A1,10,D7*%
%TO.N,unconnected-(A1-D7-Pad10)*%
X117094000Y-65024000D03*
%TO.P,A1,11,D8*%
%TO.N,unconnected-(A1-D8-Pad11)*%
X114554000Y-65024000D03*
%TO.P,A1,12,D9*%
%TO.N,unconnected-(A1-D9-Pad12)*%
X112014001Y-65024000D03*
%TO.P,A1,13,D10*%
%TO.N,unconnected-(A1-D10-Pad13)*%
X109474000Y-65024000D03*
%TO.P,A1,14,D11*%
%TO.N,unconnected-(A1-D11-Pad14)*%
X106934000Y-65024000D03*
%TO.P,A1,15,D12*%
%TO.N,unconnected-(A1-D12-Pad15)*%
X104394000Y-65024000D03*
%TO.P,A1,16,D13*%
%TO.N,unconnected-(A1-D13-Pad16)*%
X104394000Y-80264000D03*
%TO.P,A1,17,3V3*%
%TO.N,unconnected-(A1-3V3-Pad17)*%
X106934000Y-80264000D03*
%TO.P,A1,18,AREF*%
%TO.N,unconnected-(A1-AREF-Pad18)*%
X109474000Y-80264000D03*
%TO.P,A1,19,A0*%
%TO.N,unconnected-(A1-A0-Pad19)*%
X112014000Y-80264000D03*
%TO.P,A1,20,A1*%
%TO.N,unconnected-(A1-A1-Pad20)*%
X114554000Y-80264000D03*
%TO.P,A1,21,A2*%
%TO.N,unconnected-(A1-A2-Pad21)*%
X117094000Y-80264000D03*
%TO.P,A1,22,A3*%
%TO.N,unconnected-(A1-A3-Pad22)*%
X119634000Y-80264000D03*
%TO.P,A1,23,A4*%
%TO.N,Net-(A1-A4)*%
X122174000Y-80264000D03*
%TO.P,A1,24,A5*%
%TO.N,Net-(A1-A5)*%
X124714000Y-80264000D03*
%TO.P,A1,25,A6*%
%TO.N,unconnected-(A1-A6-Pad25)*%
X127254000Y-80264000D03*
%TO.P,A1,26,A7*%
%TO.N,unconnected-(A1-A7-Pad26)*%
X129794000Y-80264000D03*
%TO.P,A1,27,+5V*%
%TO.N,+5V*%
X132334000Y-80264000D03*
%TO.P,A1,28,~{RESET}*%
%TO.N,unconnected-(A1-~{RESET}-Pad28)*%
X134874000Y-80264000D03*
%TO.P,A1,29,GND*%
%TO.N,GND*%
X137414000Y-80264000D03*
%TO.P,A1,30,VIN*%
%TO.N,unconnected-(A1-VIN-Pad30)*%
X139954000Y-80264000D03*
%TD*%
D10*
%TO.P,R2,1*%
%TO.N,Net-(A1-A5)*%
X102870000Y-87630000D03*
D11*
%TO.P,R2,2*%
%TO.N,+5V*%
X102870000Y-97790000D03*
%TD*%
D14*
%TO.N,+5V*%
X120362400Y-101566400D02*
X118872000Y-100076000D01*
X126533900Y-101566400D02*
X120362400Y-101566400D01*
X127762000Y-100338300D02*
X126533900Y-101566400D01*
X127762000Y-85937700D02*
X127762000Y-100338300D01*
X132334000Y-81365700D02*
X127762000Y-85937700D01*
X132334000Y-80264000D02*
X132334000Y-81365700D01*
%TO.N,Net-(A1-A4)*%
X122630500Y-81822200D02*
X122174000Y-81365700D01*
X122630500Y-100296800D02*
X122630500Y-81822200D01*
X123481500Y-101147800D02*
X122630500Y-100296800D01*
X125420200Y-101147800D02*
X123481500Y-101147800D01*
X126492000Y-100076000D02*
X125420200Y-101147800D01*
X122174000Y-80264000D02*
X122174000Y-81365700D01*
%TO.N,Net-(A1-A5)*%
X124714000Y-99314000D02*
X123952000Y-100076000D01*
X124714000Y-80264000D02*
X124714000Y-99314000D01*
%TD*%
%TA.AperFunction,Conductor*%
%TO.N,GND*%
G36*
X145992121Y-60210502D02*
G01*
X146038614Y-60264158D01*
X146050000Y-60316500D01*
X146050000Y-115673500D01*
X146029998Y-115741621D01*
X145976342Y-115788114D01*
X145924000Y-115799500D01*
X96646000Y-115799500D01*
X96577879Y-115779498D01*
X96531386Y-115725842D01*
X96520000Y-115673500D01*
X96520000Y-107602450D01*
X117922200Y-107602450D01*
X117922200Y-107602453D01*
X117922200Y-107789547D01*
X117958700Y-107973047D01*
X118030298Y-108145899D01*
X118134242Y-108301462D01*
X118266538Y-108433758D01*
X118422101Y-108537702D01*
X118594953Y-108609300D01*
X118778453Y-108645800D01*
X118778454Y-108645800D01*
X118965546Y-108645800D01*
X118965547Y-108645800D01*
X119149047Y-108609300D01*
X119321899Y-108537702D01*
X119477462Y-108433758D01*
X119609758Y-108301462D01*
X119713702Y-108145899D01*
X119785300Y-107973047D01*
X119821800Y-107789547D01*
X119821800Y-107602453D01*
X119821799Y-107602450D01*
X120462200Y-107602450D01*
X120462200Y-107602453D01*
X120462200Y-107789547D01*
X120498700Y-107973047D01*
X120570298Y-108145899D01*
X120674242Y-108301462D01*
X120806538Y-108433758D01*
X120962101Y-108537702D01*
X121134953Y-108609300D01*
X121318453Y-108645800D01*
X121318454Y-108645800D01*
X121505546Y-108645800D01*
X121505547Y-108645800D01*
X121689047Y-108609300D01*
X121861899Y-108537702D01*
X122017462Y-108433758D01*
X122149758Y-108301462D01*
X122253702Y-108145899D01*
X122325300Y-107973047D01*
X122361800Y-107789547D01*
X122361800Y-107602453D01*
X122361799Y-107602450D01*
X123002200Y-107602450D01*
X123002200Y-107602453D01*
X123002200Y-107789547D01*
X123038700Y-107973047D01*
X123110298Y-108145899D01*
X123214242Y-108301462D01*
X123346538Y-108433758D01*
X123502101Y-108537702D01*
X123674953Y-108609300D01*
X123858453Y-108645800D01*
X123858454Y-108645800D01*
X124045546Y-108645800D01*
X124045547Y-108645800D01*
X124229047Y-108609300D01*
X124401899Y-108537702D01*
X124557462Y-108433758D01*
X124689758Y-108301462D01*
X124793702Y-108145899D01*
X124865300Y-107973047D01*
X124901800Y-107789547D01*
X124901800Y-107607046D01*
X125361700Y-107607046D01*
X125361700Y-107784953D01*
X125389533Y-107960684D01*
X125444508Y-108129880D01*
X125444511Y-108129886D01*
X125525280Y-108288404D01*
X125525281Y-108288405D01*
X125569425Y-108349165D01*
X126030804Y-107887785D01*
X126095661Y-108000121D01*
X126187879Y-108092339D01*
X126300212Y-108157194D01*
X125838833Y-108618573D01*
X125838833Y-108618574D01*
X125899590Y-108662716D01*
X126058113Y-108743488D01*
X126058119Y-108743491D01*
X126227317Y-108798466D01*
X126227313Y-108798466D01*
X126403046Y-108826300D01*
X126580954Y-108826300D01*
X126756684Y-108798466D01*
X126925880Y-108743491D01*
X126925886Y-108743488D01*
X127084405Y-108662718D01*
X127145165Y-108618573D01*
X127145165Y-108618572D01*
X126683787Y-108157194D01*
X126796121Y-108092339D01*
X126888339Y-108000121D01*
X126953194Y-107887787D01*
X127414572Y-108349165D01*
X127414573Y-108349165D01*
X127458718Y-108288405D01*
X127539488Y-108129886D01*
X127539491Y-108129880D01*
X127594466Y-107960684D01*
X127622300Y-107784953D01*
X127622300Y-107607046D01*
X127621572Y-107602450D01*
X128082200Y-107602450D01*
X128082200Y-107602453D01*
X128082200Y-107789547D01*
X128118700Y-107973047D01*
X128190298Y-108145899D01*
X128294242Y-108301462D01*
X128426538Y-108433758D01*
X128582101Y-108537702D01*
X128754953Y-108609300D01*
X128938453Y-108645800D01*
X128938454Y-108645800D01*
X129125546Y-108645800D01*
X129125547Y-108645800D01*
X129309047Y-108609300D01*
X129481899Y-108537702D01*
X129637462Y-108433758D01*
X129769758Y-108301462D01*
X129873702Y-108145899D01*
X129945300Y-107973047D01*
X129981800Y-107789547D01*
X129981800Y-107602453D01*
X129981799Y-107602450D01*
X130622200Y-107602450D01*
X130622200Y-107602453D01*
X130622200Y-107789547D01*
X130658700Y-107973047D01*
X130730298Y-108145899D01*
X130834242Y-108301462D01*
X130966538Y-108433758D01*
X131122101Y-108537702D01*
X131294953Y-108609300D01*
X131478453Y-108645800D01*
X131478454Y-108645800D01*
X131665546Y-108645800D01*
X131665547Y-108645800D01*
X131849047Y-108609300D01*
X132021899Y-108537702D01*
X132177462Y-108433758D01*
X132309758Y-108301462D01*
X132413702Y-108145899D01*
X132485300Y-107973047D01*
X132521800Y-107789547D01*
X132521800Y-107602453D01*
X132521799Y-107602450D01*
X133162200Y-107602450D01*
X133162200Y-107602453D01*
X133162200Y-107789547D01*
X133198700Y-107973047D01*
X133270298Y-108145899D01*
X133374242Y-108301462D01*
X133506538Y-108433758D01*
X133662101Y-108537702D01*
X133834953Y-108609300D01*
X134018453Y-108645800D01*
X134018454Y-108645800D01*
X134205546Y-108645800D01*
X134205547Y-108645800D01*
X134389047Y-108609300D01*
X134561899Y-108537702D01*
X134717462Y-108433758D01*
X134849758Y-108301462D01*
X134953702Y-108145899D01*
X135025300Y-107973047D01*
X135061800Y-107789547D01*
X135061800Y-107602453D01*
X135061799Y-107602450D01*
X135702200Y-107602450D01*
X135702200Y-107602453D01*
X135702200Y-107789547D01*
X135738700Y-107973047D01*
X135810298Y-108145899D01*
X135914242Y-108301462D01*
X136046538Y-108433758D01*
X136202101Y-108537702D01*
X136374953Y-108609300D01*
X136558453Y-108645800D01*
X136558454Y-108645800D01*
X136745546Y-108645800D01*
X136745547Y-108645800D01*
X136929047Y-108609300D01*
X137101899Y-108537702D01*
X137257462Y-108433758D01*
X137389758Y-108301462D01*
X137493702Y-108145899D01*
X137565300Y-107973047D01*
X137601800Y-107789547D01*
X137601800Y-107602453D01*
X137565300Y-107418953D01*
X137493702Y-107246101D01*
X137389758Y-107090538D01*
X137257462Y-106958242D01*
X137101899Y-106854298D01*
X136929047Y-106782700D01*
X136882413Y-106773424D01*
X136745549Y-106746200D01*
X136745547Y-106746200D01*
X136558453Y-106746200D01*
X136558450Y-106746200D01*
X136374952Y-106782700D01*
X136374947Y-106782702D01*
X136202101Y-106854298D01*
X136046542Y-106958239D01*
X136046535Y-106958244D01*
X135914244Y-107090535D01*
X135914239Y-107090542D01*
X135810298Y-107246101D01*
X135738702Y-107418947D01*
X135738700Y-107418952D01*
X135702200Y-107602450D01*
X135061799Y-107602450D01*
X135025300Y-107418953D01*
X134953702Y-107246101D01*
X134849758Y-107090538D01*
X134717462Y-106958242D01*
X134561899Y-106854298D01*
X134389047Y-106782700D01*
X134342413Y-106773424D01*
X134205549Y-106746200D01*
X134205547Y-106746200D01*
X134018453Y-106746200D01*
X134018450Y-106746200D01*
X133834952Y-106782700D01*
X133834947Y-106782702D01*
X133662101Y-106854298D01*
X133506542Y-106958239D01*
X133506535Y-106958244D01*
X133374244Y-107090535D01*
X133374239Y-107090542D01*
X133270298Y-107246101D01*
X133198702Y-107418947D01*
X133198700Y-107418952D01*
X133162200Y-107602450D01*
X132521799Y-107602450D01*
X132485300Y-107418953D01*
X132413702Y-107246101D01*
X132309758Y-107090538D01*
X132177462Y-106958242D01*
X132021899Y-106854298D01*
X131849047Y-106782700D01*
X131802413Y-106773424D01*
X131665549Y-106746200D01*
X131665547Y-106746200D01*
X131478453Y-106746200D01*
X131478450Y-106746200D01*
X131294952Y-106782700D01*
X131294947Y-106782702D01*
X131122101Y-106854298D01*
X130966542Y-106958239D01*
X130966535Y-106958244D01*
X130834244Y-107090535D01*
X130834239Y-107090542D01*
X130730298Y-107246101D01*
X130658702Y-107418947D01*
X130658700Y-107418952D01*
X130622200Y-107602450D01*
X129981799Y-107602450D01*
X129945300Y-107418953D01*
X129873702Y-107246101D01*
X129769758Y-107090538D01*
X129637462Y-106958242D01*
X129481899Y-106854298D01*
X129309047Y-106782700D01*
X129262413Y-106773424D01*
X129125549Y-106746200D01*
X129125547Y-106746200D01*
X128938453Y-106746200D01*
X128938450Y-106746200D01*
X128754952Y-106782700D01*
X128754947Y-106782702D01*
X128582101Y-106854298D01*
X128426542Y-106958239D01*
X128426535Y-106958244D01*
X128294244Y-107090535D01*
X128294239Y-107090542D01*
X128190298Y-107246101D01*
X128118702Y-107418947D01*
X128118700Y-107418952D01*
X128082200Y-107602450D01*
X127621572Y-107602450D01*
X127594466Y-107431315D01*
X127539491Y-107262119D01*
X127539488Y-107262113D01*
X127458716Y-107103590D01*
X127414574Y-107042833D01*
X127414573Y-107042833D01*
X126953194Y-107504212D01*
X126888339Y-107391879D01*
X126796121Y-107299661D01*
X126683785Y-107234804D01*
X127145165Y-106773425D01*
X127084405Y-106729281D01*
X127084404Y-106729280D01*
X126925886Y-106648511D01*
X126925880Y-106648508D01*
X126756682Y-106593533D01*
X126756686Y-106593533D01*
X126580954Y-106565700D01*
X126403046Y-106565700D01*
X126227315Y-106593533D01*
X126058119Y-106648508D01*
X126058113Y-106648511D01*
X125899590Y-106729283D01*
X125838833Y-106773424D01*
X126300213Y-107234804D01*
X126187879Y-107299661D01*
X126095661Y-107391879D01*
X126030804Y-107504213D01*
X125569424Y-107042833D01*
X125525283Y-107103590D01*
X125444511Y-107262113D01*
X125444508Y-107262119D01*
X125389533Y-107431315D01*
X125361700Y-107607046D01*
X124901800Y-107607046D01*
X124901800Y-107602453D01*
X124865300Y-107418953D01*
X124793702Y-107246101D01*
X124689758Y-107090538D01*
X124557462Y-106958242D01*
X124557458Y-106958239D01*
X124557453Y-106958235D01*
X124509576Y-106926245D01*
X124509524Y-106926211D01*
X124401899Y-106854298D01*
X124229047Y-106782700D01*
X124182413Y-106773424D01*
X124045549Y-106746200D01*
X124045547Y-106746200D01*
X123858453Y-106746200D01*
X123858450Y-106746200D01*
X123674952Y-106782700D01*
X123674947Y-106782702D01*
X123502101Y-106854298D01*
X123346542Y-106958239D01*
X123346535Y-106958244D01*
X123214244Y-107090535D01*
X123214239Y-107090542D01*
X123110298Y-107246101D01*
X123038702Y-107418947D01*
X123038700Y-107418952D01*
X123002200Y-107602450D01*
X122361799Y-107602450D01*
X122325300Y-107418953D01*
X122253702Y-107246101D01*
X122149758Y-107090538D01*
X122017462Y-106958242D01*
X121861899Y-106854298D01*
X121689047Y-106782700D01*
X121642413Y-106773424D01*
X121505549Y-106746200D01*
X121505547Y-106746200D01*
X121318453Y-106746200D01*
X121318450Y-106746200D01*
X121134952Y-106782700D01*
X121134947Y-106782702D01*
X120962101Y-106854298D01*
X120806542Y-106958239D01*
X120806535Y-106958244D01*
X120674244Y-107090535D01*
X120674239Y-107090542D01*
X120570298Y-107246101D01*
X120498702Y-107418947D01*
X120498700Y-107418952D01*
X120462200Y-107602450D01*
X119821799Y-107602450D01*
X119785300Y-107418953D01*
X119713702Y-107246101D01*
X119609758Y-107090538D01*
X119477462Y-106958242D01*
X119321899Y-106854298D01*
X119149047Y-106782700D01*
X119102413Y-106773424D01*
X118965549Y-106746200D01*
X118965547Y-106746200D01*
X118778453Y-106746200D01*
X118778450Y-106746200D01*
X118594952Y-106782700D01*
X118594947Y-106782702D01*
X118422101Y-106854298D01*
X118266542Y-106958239D01*
X118266535Y-106958244D01*
X118134244Y-107090535D01*
X118134239Y-107090542D01*
X118030298Y-107246101D01*
X117958702Y-107418947D01*
X117958700Y-107418952D01*
X117922200Y-107602450D01*
X96520000Y-107602450D01*
X96520000Y-99982450D01*
X117922200Y-99982450D01*
X117922200Y-100169549D01*
X117947897Y-100298738D01*
X117958700Y-100353047D01*
X118030298Y-100525899D01*
X118134242Y-100681462D01*
X118266538Y-100813758D01*
X118422101Y-100917702D01*
X118594953Y-100989300D01*
X118778453Y-101025800D01*
X118778454Y-101025800D01*
X118965546Y-101025800D01*
X118965547Y-101025800D01*
X119149047Y-100989300D01*
X119220663Y-100959634D01*
X119291253Y-100952045D01*
X119354740Y-100983824D01*
X119357977Y-100986948D01*
X120121940Y-101750911D01*
X120177889Y-101806860D01*
X120246411Y-101846421D01*
X120246413Y-101846421D01*
X120246414Y-101846422D01*
X120322834Y-101866899D01*
X120322838Y-101866900D01*
X126573462Y-101866900D01*
X126649889Y-101846421D01*
X126718411Y-101806860D01*
X126774360Y-101750911D01*
X128002460Y-100522811D01*
X128005261Y-100520010D01*
X128067573Y-100485984D01*
X128138388Y-100491049D01*
X128195224Y-100533596D01*
X128199114Y-100539093D01*
X128294242Y-100681462D01*
X128426538Y-100813758D01*
X128582101Y-100917702D01*
X128754953Y-100989300D01*
X128938453Y-101025800D01*
X128938454Y-101025800D01*
X129125546Y-101025800D01*
X129125547Y-101025800D01*
X129309047Y-100989300D01*
X129481899Y-100917702D01*
X129637462Y-100813758D01*
X129769758Y-100681462D01*
X129873702Y-100525899D01*
X129945300Y-100353047D01*
X129981800Y-100169547D01*
X129981800Y-99982453D01*
X129981799Y-99982450D01*
X130622200Y-99982450D01*
X130622200Y-100169549D01*
X130647897Y-100298738D01*
X130658700Y-100353047D01*
X130730298Y-100525899D01*
X130834242Y-100681462D01*
X130966538Y-100813758D01*
X131122101Y-100917702D01*
X131294953Y-100989300D01*
X131478453Y-101025800D01*
X131478454Y-101025800D01*
X131665546Y-101025800D01*
X131665547Y-101025800D01*
X131849047Y-100989300D01*
X132021899Y-100917702D01*
X132177462Y-100813758D01*
X132309758Y-100681462D01*
X132413702Y-100525899D01*
X132485300Y-100353047D01*
X132521800Y-100169547D01*
X132521800Y-99982453D01*
X132521799Y-99982450D01*
X133162200Y-99982450D01*
X133162200Y-100169549D01*
X133187897Y-100298738D01*
X133198700Y-100353047D01*
X133270298Y-100525899D01*
X133374242Y-100681462D01*
X133506538Y-100813758D01*
X133662101Y-100917702D01*
X133834953Y-100989300D01*
X134018453Y-101025800D01*
X134018454Y-101025800D01*
X134205546Y-101025800D01*
X134205547Y-101025800D01*
X134389047Y-100989300D01*
X134561899Y-100917702D01*
X134717462Y-100813758D01*
X134849758Y-100681462D01*
X134953702Y-100525899D01*
X135025300Y-100353047D01*
X135061800Y-100169547D01*
X135061800Y-99982453D01*
X135061799Y-99982450D01*
X135702200Y-99982450D01*
X135702200Y-100169549D01*
X135727897Y-100298738D01*
X135738700Y-100353047D01*
X135810298Y-100525899D01*
X135914242Y-100681462D01*
X136046538Y-100813758D01*
X136202101Y-100917702D01*
X136374953Y-100989300D01*
X136558453Y-101025800D01*
X136558454Y-101025800D01*
X136745546Y-101025800D01*
X136745547Y-101025800D01*
X136929047Y-100989300D01*
X137101899Y-100917702D01*
X137257462Y-100813758D01*
X137389758Y-100681462D01*
X137493702Y-100525899D01*
X137565300Y-100353047D01*
X137601800Y-100169547D01*
X137601800Y-99982453D01*
X137565300Y-99798953D01*
X137493702Y-99626101D01*
X137389758Y-99470538D01*
X137257462Y-99338242D01*
X137101899Y-99234298D01*
X136929047Y-99162700D01*
X136745549Y-99126200D01*
X136745547Y-99126200D01*
X136558453Y-99126200D01*
X136558450Y-99126200D01*
X136374952Y-99162700D01*
X136374947Y-99162702D01*
X136202101Y-99234298D01*
X136046542Y-99338239D01*
X136046535Y-99338244D01*
X135914244Y-99470535D01*
X135914239Y-99470542D01*
X135810298Y-99626101D01*
X135738702Y-99798947D01*
X135738700Y-99798952D01*
X135702200Y-99982450D01*
X135061799Y-99982450D01*
X135025300Y-99798953D01*
X134953702Y-99626101D01*
X134849758Y-99470538D01*
X134717462Y-99338242D01*
X134561899Y-99234298D01*
X134389047Y-99162700D01*
X134205549Y-99126200D01*
X134205547Y-99126200D01*
X134018453Y-99126200D01*
X134018450Y-99126200D01*
X133834952Y-99162700D01*
X133834947Y-99162702D01*
X133662101Y-99234298D01*
X133506542Y-99338239D01*
X133506535Y-99338244D01*
X133374244Y-99470535D01*
X133374239Y-99470542D01*
X133270298Y-99626101D01*
X133198702Y-99798947D01*
X133198700Y-99798952D01*
X133162200Y-99982450D01*
X132521799Y-99982450D01*
X132485300Y-99798953D01*
X132413702Y-99626101D01*
X132309758Y-99470538D01*
X132177462Y-99338242D01*
X132021899Y-99234298D01*
X131849047Y-99162700D01*
X131665549Y-99126200D01*
X131665547Y-99126200D01*
X131478453Y-99126200D01*
X131478450Y-99126200D01*
X131294952Y-99162700D01*
X131294947Y-99162702D01*
X131122101Y-99234298D01*
X130966542Y-99338239D01*
X130966535Y-99338244D01*
X130834244Y-99470535D01*
X130834239Y-99470542D01*
X130730298Y-99626101D01*
X130658702Y-99798947D01*
X130658700Y-99798952D01*
X130622200Y-99982450D01*
X129981799Y-99982450D01*
X129945300Y-99798953D01*
X129873702Y-99626101D01*
X129769758Y-99470538D01*
X129637462Y-99338242D01*
X129481899Y-99234298D01*
X129309047Y-99162700D01*
X129125549Y-99126200D01*
X129125547Y-99126200D01*
X128938453Y-99126200D01*
X128938450Y-99126200D01*
X128754952Y-99162700D01*
X128754947Y-99162702D01*
X128582101Y-99234298D01*
X128426542Y-99338239D01*
X128426535Y-99338244D01*
X128294244Y-99470535D01*
X128294239Y-99470542D01*
X128293265Y-99472000D01*
X128292556Y-99472591D01*
X128290311Y-99475328D01*
X128289792Y-99474902D01*
X128238788Y-99517528D01*
X128168345Y-99526376D01*
X128104301Y-99495734D01*
X128066990Y-99435333D01*
X128062500Y-99401998D01*
X128062500Y-86114361D01*
X128082502Y-86046240D01*
X128099405Y-86025266D01*
X132574454Y-81550217D01*
X132574460Y-81550211D01*
X132590921Y-81521700D01*
X132614021Y-81481689D01*
X132634500Y-81405262D01*
X132634500Y-81306651D01*
X132654502Y-81238530D01*
X132708158Y-81192037D01*
X132712241Y-81190260D01*
X132807914Y-81150632D01*
X132971782Y-81041139D01*
X133111139Y-80901782D01*
X133220632Y-80737914D01*
X133296051Y-80555835D01*
X133334500Y-80362541D01*
X133334500Y-80165459D01*
X133334499Y-80165455D01*
X133873500Y-80165455D01*
X133873500Y-80362544D01*
X133891792Y-80454500D01*
X133911949Y-80555835D01*
X133987368Y-80737914D01*
X134096861Y-80901782D01*
X134236218Y-81041139D01*
X134400086Y-81150632D01*
X134582165Y-81226051D01*
X134775459Y-81264500D01*
X134972541Y-81264500D01*
X135165835Y-81226051D01*
X135347914Y-81150632D01*
X135511782Y-81041139D01*
X135651139Y-80901782D01*
X135760632Y-80737914D01*
X135836051Y-80555835D01*
X135874500Y-80362541D01*
X135874500Y-80165459D01*
X135856208Y-80073500D01*
X136248451Y-80073500D01*
X136947407Y-80073500D01*
X136914000Y-80198174D01*
X136914000Y-80329826D01*
X136947407Y-80454500D01*
X136248451Y-80454500D01*
X136262081Y-80540556D01*
X136319522Y-80717342D01*
X136319525Y-80717348D01*
X136403920Y-80882981D01*
X136513185Y-81033372D01*
X136644627Y-81164814D01*
X136795018Y-81274079D01*
X136960651Y-81358474D01*
X136960657Y-81358477D01*
X137137443Y-81415918D01*
X137223500Y-81429548D01*
X137223500Y-80730593D01*
X137348174Y-80764000D01*
X137479826Y-80764000D01*
X137604500Y-80730593D01*
X137604500Y-81429548D01*
X137690556Y-81415918D01*
X137867342Y-81358477D01*
X137867348Y-81358474D01*
X138032981Y-81274079D01*
X138183372Y-81164814D01*
X138314814Y-81033372D01*
X138424079Y-80882981D01*
X138508474Y-80717348D01*
X138508477Y-80717342D01*
X138565918Y-80540556D01*
X138579549Y-80454500D01*
X137880593Y-80454500D01*
X137914000Y-80329826D01*
X137914000Y-80198174D01*
X137905233Y-80165455D01*
X138953500Y-80165455D01*
X138953500Y-80362544D01*
X138971792Y-80454500D01*
X138991949Y-80555835D01*
X139067368Y-80737914D01*
X139176861Y-80901782D01*
X139316218Y-81041139D01*
X139480086Y-81150632D01*
X139662165Y-81226051D01*
X139855459Y-81264500D01*
X140052541Y-81264500D01*
X140245835Y-81226051D01*
X140427914Y-81150632D01*
X140591782Y-81041139D01*
X140731139Y-80901782D01*
X140840632Y-80737914D01*
X140916051Y-80555835D01*
X140954500Y-80362541D01*
X140954500Y-80165459D01*
X140916051Y-79972165D01*
X140840632Y-79790086D01*
X140731139Y-79626218D01*
X140591782Y-79486861D01*
X140427914Y-79377368D01*
X140393673Y-79363185D01*
X140245838Y-79301950D01*
X140245835Y-79301949D01*
X140052544Y-79263500D01*
X140052541Y-79263500D01*
X139855459Y-79263500D01*
X139855455Y-79263500D01*
X139662164Y-79301949D01*
X139662161Y-79301950D01*
X139480085Y-79377368D01*
X139316222Y-79486858D01*
X139316215Y-79486863D01*
X139176863Y-79626215D01*
X139176858Y-79626222D01*
X139067368Y-79790085D01*
X138991950Y-79972161D01*
X138991949Y-79972164D01*
X138953500Y-80165455D01*
X137905233Y-80165455D01*
X137880593Y-80073500D01*
X138579548Y-80073500D01*
X138565918Y-79987443D01*
X138508477Y-79810657D01*
X138508474Y-79810651D01*
X138424079Y-79645018D01*
X138314814Y-79494627D01*
X138183372Y-79363185D01*
X138032981Y-79253920D01*
X137867348Y-79169525D01*
X137867342Y-79169522D01*
X137690557Y-79112081D01*
X137604500Y-79098450D01*
X137604500Y-79797406D01*
X137479826Y-79764000D01*
X137348174Y-79764000D01*
X137223500Y-79797406D01*
X137223500Y-79098450D01*
X137137442Y-79112081D01*
X136960657Y-79169522D01*
X136960651Y-79169525D01*
X136795018Y-79253920D01*
X136644627Y-79363185D01*
X136513185Y-79494627D01*
X136403920Y-79645018D01*
X136319525Y-79810651D01*
X136319522Y-79810657D01*
X136262081Y-79987443D01*
X136248451Y-80073500D01*
X135856208Y-80073500D01*
X135836051Y-79972165D01*
X135760632Y-79790086D01*
X135651139Y-79626218D01*
X135511782Y-79486861D01*
X135347914Y-79377368D01*
X135313673Y-79363185D01*
X135165838Y-79301950D01*
X135165835Y-79301949D01*
X134972544Y-79263500D01*
X134972541Y-79263500D01*
X134775459Y-79263500D01*
X134775455Y-79263500D01*
X134582164Y-79301949D01*
X134582161Y-79301950D01*
X134400085Y-79377368D01*
X134236222Y-79486858D01*
X134236215Y-79486863D01*
X134096863Y-79626215D01*
X134096858Y-79626222D01*
X133987368Y-79790085D01*
X133911950Y-79972161D01*
X133911949Y-79972164D01*
X133873500Y-80165455D01*
X133334499Y-80165455D01*
X133296051Y-79972165D01*
X133220632Y-79790086D01*
X133111139Y-79626218D01*
X132971782Y-79486861D01*
X132807914Y-79377368D01*
X132773673Y-79363185D01*
X132625838Y-79301950D01*
X132625835Y-79301949D01*
X132432544Y-79263500D01*
X132432541Y-79263500D01*
X132235459Y-79263500D01*
X132235455Y-79263500D01*
X132042164Y-79301949D01*
X132042161Y-79301950D01*
X131860085Y-79377368D01*
X131696222Y-79486858D01*
X131696215Y-79486863D01*
X131556863Y-79626215D01*
X131556858Y-79626222D01*
X131447368Y-79790085D01*
X131371950Y-79972161D01*
X131371949Y-79972164D01*
X131333500Y-80165455D01*
X131333500Y-80362544D01*
X131351792Y-80454500D01*
X131371949Y-80555835D01*
X131447368Y-80737914D01*
X131556861Y-80901782D01*
X131696218Y-81041139D01*
X131860086Y-81150632D01*
X131872553Y-81155795D01*
X131927833Y-81200343D01*
X131950254Y-81267706D01*
X131932696Y-81336498D01*
X131913429Y-81361299D01*
X127577489Y-85697240D01*
X127549515Y-85725214D01*
X127521541Y-85753187D01*
X127521539Y-85753190D01*
X127481977Y-85821714D01*
X127461500Y-85898134D01*
X127461500Y-99401998D01*
X127441498Y-99470119D01*
X127387842Y-99516612D01*
X127317568Y-99526716D01*
X127252988Y-99497222D01*
X127230735Y-99472000D01*
X127230272Y-99471308D01*
X127229758Y-99470538D01*
X127097462Y-99338242D01*
X126941899Y-99234298D01*
X126769047Y-99162700D01*
X126585549Y-99126200D01*
X126585547Y-99126200D01*
X126398453Y-99126200D01*
X126398450Y-99126200D01*
X126214952Y-99162700D01*
X126214947Y-99162702D01*
X126042101Y-99234298D01*
X125886542Y-99338239D01*
X125886535Y-99338244D01*
X125754244Y-99470535D01*
X125754239Y-99470542D01*
X125650298Y-99626101D01*
X125578702Y-99798947D01*
X125578700Y-99798952D01*
X125542200Y-99982450D01*
X125542200Y-100169549D01*
X125578700Y-100353047D01*
X125578702Y-100353052D01*
X125608364Y-100424663D01*
X125615953Y-100495253D01*
X125584174Y-100558740D01*
X125581051Y-100561976D01*
X125332634Y-100810395D01*
X125270322Y-100844420D01*
X125243538Y-100847300D01*
X124814678Y-100847300D01*
X124746557Y-100827298D01*
X124700064Y-100773642D01*
X124689960Y-100703368D01*
X124709913Y-100651298D01*
X124711636Y-100648719D01*
X124793702Y-100525899D01*
X124865300Y-100353047D01*
X124901800Y-100169547D01*
X124901800Y-99982453D01*
X124865300Y-99798953D01*
X124835633Y-99727333D01*
X124828045Y-99656746D01*
X124859824Y-99593259D01*
X124862909Y-99590060D01*
X124954460Y-99498511D01*
X124994022Y-99429988D01*
X125014500Y-99353562D01*
X125014500Y-99274438D01*
X125014500Y-81306651D01*
X125034502Y-81238530D01*
X125088158Y-81192037D01*
X125092241Y-81190260D01*
X125187914Y-81150632D01*
X125351782Y-81041139D01*
X125491139Y-80901782D01*
X125600632Y-80737914D01*
X125676051Y-80555835D01*
X125714500Y-80362541D01*
X125714500Y-80165459D01*
X125714499Y-80165455D01*
X126253500Y-80165455D01*
X126253500Y-80362544D01*
X126271792Y-80454500D01*
X126291949Y-80555835D01*
X126367368Y-80737914D01*
X126476861Y-80901782D01*
X126616218Y-81041139D01*
X126780086Y-81150632D01*
X126962165Y-81226051D01*
X127155459Y-81264500D01*
X127352541Y-81264500D01*
X127545835Y-81226051D01*
X127727914Y-81150632D01*
X127891782Y-81041139D01*
X128031139Y-80901782D01*
X128140632Y-80737914D01*
X128216051Y-80555835D01*
X128254500Y-80362541D01*
X128254500Y-80165459D01*
X128254499Y-80165455D01*
X128793500Y-80165455D01*
X128793500Y-80362544D01*
X128811792Y-80454500D01*
X128831949Y-80555835D01*
X128907368Y-80737914D01*
X129016861Y-80901782D01*
X129156218Y-81041139D01*
X129320086Y-81150632D01*
X129502165Y-81226051D01*
X129695459Y-81264500D01*
X129892541Y-81264500D01*
X130085835Y-81226051D01*
X130267914Y-81150632D01*
X130431782Y-81041139D01*
X130571139Y-80901782D01*
X130680632Y-80737914D01*
X130756051Y-80555835D01*
X130794500Y-80362541D01*
X130794500Y-80165459D01*
X130756051Y-79972165D01*
X130680632Y-79790086D01*
X130571139Y-79626218D01*
X130431782Y-79486861D01*
X130267914Y-79377368D01*
X130233673Y-79363185D01*
X130085838Y-79301950D01*
X130085835Y-79301949D01*
X129892544Y-79263500D01*
X129892541Y-79263500D01*
X129695459Y-79263500D01*
X129695455Y-79263500D01*
X129502164Y-79301949D01*
X129502161Y-79301950D01*
X129320085Y-79377368D01*
X129156222Y-79486858D01*
X129156215Y-79486863D01*
X129016863Y-79626215D01*
X129016858Y-79626222D01*
X128907368Y-79790085D01*
X128831950Y-79972161D01*
X128831949Y-79972164D01*
X128793500Y-80165455D01*
X128254499Y-80165455D01*
X128216051Y-79972165D01*
X128140632Y-79790086D01*
X128031139Y-79626218D01*
X127891782Y-79486861D01*
X127727914Y-79377368D01*
X127693673Y-79363185D01*
X127545838Y-79301950D01*
X127545835Y-79301949D01*
X127352544Y-79263500D01*
X127352541Y-79263500D01*
X127155459Y-79263500D01*
X127155455Y-79263500D01*
X126962164Y-79301949D01*
X126962161Y-79301950D01*
X126780085Y-79377368D01*
X126616222Y-79486858D01*
X126616215Y-79486863D01*
X126476863Y-79626215D01*
X126476858Y-79626222D01*
X126367368Y-79790085D01*
X126291950Y-79972161D01*
X126291949Y-79972164D01*
X126253500Y-80165455D01*
X125714499Y-80165455D01*
X125676051Y-79972165D01*
X125600632Y-79790086D01*
X125491139Y-79626218D01*
X125351782Y-79486861D01*
X125187914Y-79377368D01*
X125153673Y-79363185D01*
X125005838Y-79301950D01*
X125005835Y-79301949D01*
X124812544Y-79263500D01*
X124812541Y-79263500D01*
X124615459Y-79263500D01*
X124615455Y-79263500D01*
X124422164Y-79301949D01*
X124422161Y-79301950D01*
X124240085Y-79377368D01*
X124076222Y-79486858D01*
X124076215Y-79486863D01*
X123936863Y-79626215D01*
X123936858Y-79626222D01*
X123827368Y-79790085D01*
X123751950Y-79972161D01*
X123751949Y-79972164D01*
X123713500Y-80165455D01*
X123713500Y-80362544D01*
X123731792Y-80454500D01*
X123751949Y-80555835D01*
X123827368Y-80737914D01*
X123936861Y-80901782D01*
X124076218Y-81041139D01*
X124240086Y-81150632D01*
X124335719Y-81190243D01*
X124390998Y-81234789D01*
X124413420Y-81302152D01*
X124413500Y-81306651D01*
X124413500Y-99050530D01*
X124393498Y-99118651D01*
X124339842Y-99165144D01*
X124269568Y-99175248D01*
X124239284Y-99166940D01*
X124229052Y-99162702D01*
X124229047Y-99162700D01*
X124045549Y-99126200D01*
X124045547Y-99126200D01*
X123858453Y-99126200D01*
X123858450Y-99126200D01*
X123674952Y-99162700D01*
X123674947Y-99162702D01*
X123502101Y-99234298D01*
X123346542Y-99338239D01*
X123346535Y-99338244D01*
X123214244Y-99470535D01*
X123214239Y-99470542D01*
X123161765Y-99549075D01*
X123107288Y-99594603D01*
X123036845Y-99603451D01*
X122972801Y-99572809D01*
X122935489Y-99512408D01*
X122931000Y-99479073D01*
X122931000Y-81782638D01*
X122930999Y-81782634D01*
X122910522Y-81706214D01*
X122910521Y-81706213D01*
X122910521Y-81706211D01*
X122870960Y-81637689D01*
X122815011Y-81581740D01*
X122594570Y-81361299D01*
X122560544Y-81298987D01*
X122565609Y-81228172D01*
X122608156Y-81171336D01*
X122635442Y-81155797D01*
X122647914Y-81150632D01*
X122811782Y-81041139D01*
X122951139Y-80901782D01*
X123060632Y-80737914D01*
X123136051Y-80555835D01*
X123174500Y-80362541D01*
X123174500Y-80165459D01*
X123136051Y-79972165D01*
X123060632Y-79790086D01*
X122951139Y-79626218D01*
X122811782Y-79486861D01*
X122647914Y-79377368D01*
X122613673Y-79363185D01*
X122465838Y-79301950D01*
X122465835Y-79301949D01*
X122272544Y-79263500D01*
X122272541Y-79263500D01*
X122075459Y-79263500D01*
X122075455Y-79263500D01*
X121882164Y-79301949D01*
X121882161Y-79301950D01*
X121700085Y-79377368D01*
X121536222Y-79486858D01*
X121536215Y-79486863D01*
X121396863Y-79626215D01*
X121396858Y-79626222D01*
X121287368Y-79790085D01*
X121211950Y-79972161D01*
X121211949Y-79972164D01*
X121173500Y-80165455D01*
X121173500Y-80362544D01*
X121191792Y-80454500D01*
X121211949Y-80555835D01*
X121287368Y-80737914D01*
X121396861Y-80901782D01*
X121536218Y-81041139D01*
X121700086Y-81150632D01*
X121795719Y-81190243D01*
X121850998Y-81234789D01*
X121873420Y-81302152D01*
X121873500Y-81306651D01*
X121873500Y-81405265D01*
X121893978Y-81481687D01*
X121893979Y-81481689D01*
X121917079Y-81521700D01*
X121933537Y-81550207D01*
X121933539Y-81550209D01*
X121933540Y-81550211D01*
X122293096Y-81909767D01*
X122327120Y-81972078D01*
X122330000Y-81998861D01*
X122330000Y-99346590D01*
X122309998Y-99414711D01*
X122256342Y-99461204D01*
X122186068Y-99471308D01*
X122121488Y-99441814D01*
X122114905Y-99435685D01*
X122017464Y-99338244D01*
X122017462Y-99338242D01*
X121861899Y-99234298D01*
X121689047Y-99162700D01*
X121505549Y-99126200D01*
X121505547Y-99126200D01*
X121318453Y-99126200D01*
X121318450Y-99126200D01*
X121134952Y-99162700D01*
X121134947Y-99162702D01*
X120962101Y-99234298D01*
X120806542Y-99338239D01*
X120806535Y-99338244D01*
X120674244Y-99470535D01*
X120674239Y-99470542D01*
X120570298Y-99626101D01*
X120498702Y-99798947D01*
X120498700Y-99798952D01*
X120462200Y-99982450D01*
X120462200Y-100169549D01*
X120487897Y-100298738D01*
X120498700Y-100353047D01*
X120570298Y-100525899D01*
X120674242Y-100681462D01*
X120806538Y-100813758D01*
X120962101Y-100917702D01*
X121134953Y-100989300D01*
X121238583Y-101009913D01*
X121270798Y-101016321D01*
X121333707Y-101049229D01*
X121368839Y-101110924D01*
X121365039Y-101181819D01*
X121323513Y-101239405D01*
X121257446Y-101265399D01*
X121246216Y-101265900D01*
X120539061Y-101265900D01*
X120470940Y-101245898D01*
X120449966Y-101228995D01*
X119782948Y-100561977D01*
X119748922Y-100499665D01*
X119753987Y-100428850D01*
X119755635Y-100424663D01*
X119785300Y-100353047D01*
X119821800Y-100169547D01*
X119821800Y-99982453D01*
X119785300Y-99798953D01*
X119713702Y-99626101D01*
X119609758Y-99470538D01*
X119477462Y-99338242D01*
X119321899Y-99234298D01*
X119149047Y-99162700D01*
X118965549Y-99126200D01*
X118965547Y-99126200D01*
X118778453Y-99126200D01*
X118778450Y-99126200D01*
X118594952Y-99162700D01*
X118594947Y-99162702D01*
X118422101Y-99234298D01*
X118266542Y-99338239D01*
X118266535Y-99338244D01*
X118134244Y-99470535D01*
X118134239Y-99470542D01*
X118030298Y-99626101D01*
X117958702Y-99798947D01*
X117958700Y-99798952D01*
X117922200Y-99982450D01*
X96520000Y-99982450D01*
X96520000Y-97767155D01*
X97551500Y-97767155D01*
X97551500Y-97964244D01*
X97574891Y-98081835D01*
X97589949Y-98157535D01*
X97665368Y-98339614D01*
X97774861Y-98503482D01*
X97914218Y-98642839D01*
X98078086Y-98752332D01*
X98260165Y-98827751D01*
X98453459Y-98866200D01*
X98650541Y-98866200D01*
X98843835Y-98827751D01*
X99025914Y-98752332D01*
X99189782Y-98642839D01*
X99329139Y-98503482D01*
X99438632Y-98339614D01*
X99514051Y-98157535D01*
X99552500Y-97964241D01*
X99552500Y-97767159D01*
X99537441Y-97691455D01*
X101869500Y-97691455D01*
X101869500Y-97888544D01*
X101884558Y-97964244D01*
X101907949Y-98081835D01*
X101983368Y-98263914D01*
X102092861Y-98427782D01*
X102232218Y-98567139D01*
X102396086Y-98676632D01*
X102578165Y-98752051D01*
X102771459Y-98790500D01*
X102968541Y-98790500D01*
X103161835Y-98752051D01*
X103343914Y-98676632D01*
X103507782Y-98567139D01*
X103647139Y-98427782D01*
X103756632Y-98263914D01*
X103832051Y-98081835D01*
X103870500Y-97888541D01*
X103870500Y-97691459D01*
X103832051Y-97498165D01*
X103756632Y-97316086D01*
X103647139Y-97152218D01*
X103507782Y-97012861D01*
X103343914Y-96903368D01*
X103251768Y-96865200D01*
X103161838Y-96827950D01*
X103161835Y-96827949D01*
X102968544Y-96789500D01*
X102968541Y-96789500D01*
X102771459Y-96789500D01*
X102771455Y-96789500D01*
X102578164Y-96827949D01*
X102578161Y-96827950D01*
X102396085Y-96903368D01*
X102232222Y-97012858D01*
X102232215Y-97012863D01*
X102092863Y-97152215D01*
X102092858Y-97152222D01*
X101983368Y-97316085D01*
X101907950Y-97498161D01*
X101907949Y-97498164D01*
X101869500Y-97691455D01*
X99537441Y-97691455D01*
X99532117Y-97664692D01*
X99514051Y-97573865D01*
X99438632Y-97391786D01*
X99329139Y-97227918D01*
X99189782Y-97088561D01*
X99025914Y-96979068D01*
X98843838Y-96903650D01*
X98843835Y-96903649D01*
X98650544Y-96865200D01*
X98650541Y-96865200D01*
X98453459Y-96865200D01*
X98453455Y-96865200D01*
X98260164Y-96903649D01*
X98260161Y-96903650D01*
X98078085Y-96979068D01*
X97914222Y-97088558D01*
X97914215Y-97088563D01*
X97774863Y-97227915D01*
X97774858Y-97227922D01*
X97665368Y-97391785D01*
X97589950Y-97573861D01*
X97589949Y-97573864D01*
X97551500Y-97767155D01*
X96520000Y-97767155D01*
X96520000Y-87607155D01*
X97551500Y-87607155D01*
X97551500Y-87804244D01*
X97574891Y-87921835D01*
X97589949Y-87997535D01*
X97665368Y-88179614D01*
X97774861Y-88343482D01*
X97914218Y-88482839D01*
X98078086Y-88592332D01*
X98260165Y-88667751D01*
X98453459Y-88706200D01*
X98650541Y-88706200D01*
X98843835Y-88667751D01*
X99025914Y-88592332D01*
X99189782Y-88482839D01*
X99329139Y-88343482D01*
X99438632Y-88179614D01*
X99514051Y-87997535D01*
X99552500Y-87804241D01*
X99552500Y-87607159D01*
X99537441Y-87531455D01*
X101869500Y-87531455D01*
X101869500Y-87728544D01*
X101884558Y-87804244D01*
X101907949Y-87921835D01*
X101983368Y-88103914D01*
X102092861Y-88267782D01*
X102232218Y-88407139D01*
X102396086Y-88516632D01*
X102578165Y-88592051D01*
X102771459Y-88630500D01*
X102968541Y-88630500D01*
X103161835Y-88592051D01*
X103343914Y-88516632D01*
X103507782Y-88407139D01*
X103647139Y-88267782D01*
X103756632Y-88103914D01*
X103832051Y-87921835D01*
X103870500Y-87728541D01*
X103870500Y-87531459D01*
X103832051Y-87338165D01*
X103756632Y-87156086D01*
X103647139Y-86992218D01*
X103507782Y-86852861D01*
X103343914Y-86743368D01*
X103251768Y-86705200D01*
X103161838Y-86667950D01*
X103161835Y-86667949D01*
X102968544Y-86629500D01*
X102968541Y-86629500D01*
X102771459Y-86629500D01*
X102771455Y-86629500D01*
X102578164Y-86667949D01*
X102578161Y-86667950D01*
X102396085Y-86743368D01*
X102232222Y-86852858D01*
X102232215Y-86852863D01*
X102092863Y-86992215D01*
X102092858Y-86992222D01*
X101983368Y-87156085D01*
X101907950Y-87338161D01*
X101907949Y-87338164D01*
X101869500Y-87531455D01*
X99537441Y-87531455D01*
X99532117Y-87504692D01*
X99514051Y-87413865D01*
X99438632Y-87231786D01*
X99329139Y-87067918D01*
X99189782Y-86928561D01*
X99025914Y-86819068D01*
X98843838Y-86743650D01*
X98843835Y-86743649D01*
X98650544Y-86705200D01*
X98650541Y-86705200D01*
X98453459Y-86705200D01*
X98453455Y-86705200D01*
X98260164Y-86743649D01*
X98260161Y-86743650D01*
X98078085Y-86819068D01*
X97914222Y-86928558D01*
X97914215Y-86928563D01*
X97774863Y-87067915D01*
X97774858Y-87067922D01*
X97665368Y-87231785D01*
X97589950Y-87413861D01*
X97589949Y-87413864D01*
X97551500Y-87607155D01*
X96520000Y-87607155D01*
X96520000Y-80165455D01*
X103393500Y-80165455D01*
X103393500Y-80362544D01*
X103411792Y-80454500D01*
X103431949Y-80555835D01*
X103507368Y-80737914D01*
X103616861Y-80901782D01*
X103756218Y-81041139D01*
X103920086Y-81150632D01*
X104102165Y-81226051D01*
X104295459Y-81264500D01*
X104492541Y-81264500D01*
X104685835Y-81226051D01*
X104867914Y-81150632D01*
X105031782Y-81041139D01*
X105171139Y-80901782D01*
X105280632Y-80737914D01*
X105356051Y-80555835D01*
X105394500Y-80362541D01*
X105394500Y-80165459D01*
X105394499Y-80165455D01*
X105933500Y-80165455D01*
X105933500Y-80362544D01*
X105951792Y-80454500D01*
X105971949Y-80555835D01*
X106047368Y-80737914D01*
X106156861Y-80901782D01*
X106296218Y-81041139D01*
X106460086Y-81150632D01*
X106642165Y-81226051D01*
X106835459Y-81264500D01*
X107032541Y-81264500D01*
X107225835Y-81226051D01*
X107407914Y-81150632D01*
X107571782Y-81041139D01*
X107711139Y-80901782D01*
X107820632Y-80737914D01*
X107896051Y-80555835D01*
X107934500Y-80362541D01*
X107934500Y-80165459D01*
X107934499Y-80165455D01*
X108473500Y-80165455D01*
X108473500Y-80362544D01*
X108491792Y-80454500D01*
X108511949Y-80555835D01*
X108587368Y-80737914D01*
X108696861Y-80901782D01*
X108836218Y-81041139D01*
X109000086Y-81150632D01*
X109182165Y-81226051D01*
X109375459Y-81264500D01*
X109572541Y-81264500D01*
X109765835Y-81226051D01*
X109947914Y-81150632D01*
X110111782Y-81041139D01*
X110251139Y-80901782D01*
X110360632Y-80737914D01*
X110436051Y-80555835D01*
X110474500Y-80362541D01*
X110474500Y-80165459D01*
X110474499Y-80165455D01*
X111013500Y-80165455D01*
X111013500Y-80362544D01*
X111031792Y-80454500D01*
X111051949Y-80555835D01*
X111127368Y-80737914D01*
X111236861Y-80901782D01*
X111376218Y-81041139D01*
X111540086Y-81150632D01*
X111722165Y-81226051D01*
X111915459Y-81264500D01*
X112112541Y-81264500D01*
X112305835Y-81226051D01*
X112487914Y-81150632D01*
X112651782Y-81041139D01*
X112791139Y-80901782D01*
X112900632Y-80737914D01*
X112976051Y-80555835D01*
X113014500Y-80362541D01*
X113014500Y-80165459D01*
X113014499Y-80165455D01*
X113553500Y-80165455D01*
X113553500Y-80362544D01*
X113571792Y-80454500D01*
X113591949Y-80555835D01*
X113667368Y-80737914D01*
X113776861Y-80901782D01*
X113916218Y-81041139D01*
X114080086Y-81150632D01*
X114262165Y-81226051D01*
X114455459Y-81264500D01*
X114652541Y-81264500D01*
X114845835Y-81226051D01*
X115027914Y-81150632D01*
X115191782Y-81041139D01*
X115331139Y-80901782D01*
X115440632Y-80737914D01*
X115516051Y-80555835D01*
X115554500Y-80362541D01*
X115554500Y-80165459D01*
X115554499Y-80165455D01*
X116093500Y-80165455D01*
X116093500Y-80362544D01*
X116111792Y-80454500D01*
X116131949Y-80555835D01*
X116207368Y-80737914D01*
X116316861Y-80901782D01*
X116456218Y-81041139D01*
X116620086Y-81150632D01*
X116802165Y-81226051D01*
X116995459Y-81264500D01*
X117192541Y-81264500D01*
X117385835Y-81226051D01*
X117567914Y-81150632D01*
X117731782Y-81041139D01*
X117871139Y-80901782D01*
X117980632Y-80737914D01*
X118056051Y-80555835D01*
X118094500Y-80362541D01*
X118094500Y-80165459D01*
X118094499Y-80165455D01*
X118633500Y-80165455D01*
X118633500Y-80362544D01*
X118651792Y-80454500D01*
X118671949Y-80555835D01*
X118747368Y-80737914D01*
X118856861Y-80901782D01*
X118996218Y-81041139D01*
X119160086Y-81150632D01*
X119342165Y-81226051D01*
X119535459Y-81264500D01*
X119732541Y-81264500D01*
X119925835Y-81226051D01*
X120107914Y-81150632D01*
X120271782Y-81041139D01*
X120411139Y-80901782D01*
X120520632Y-80737914D01*
X120596051Y-80555835D01*
X120634500Y-80362541D01*
X120634500Y-80165459D01*
X120596051Y-79972165D01*
X120520632Y-79790086D01*
X120411139Y-79626218D01*
X120271782Y-79486861D01*
X120107914Y-79377368D01*
X120073673Y-79363185D01*
X119925838Y-79301950D01*
X119925835Y-79301949D01*
X119732544Y-79263500D01*
X119732541Y-79263500D01*
X119535459Y-79263500D01*
X119535455Y-79263500D01*
X119342164Y-79301949D01*
X119342161Y-79301950D01*
X119160085Y-79377368D01*
X118996222Y-79486858D01*
X118996215Y-79486863D01*
X118856863Y-79626215D01*
X118856858Y-79626222D01*
X118747368Y-79790085D01*
X118671950Y-79972161D01*
X118671949Y-79972164D01*
X118633500Y-80165455D01*
X118094499Y-80165455D01*
X118056051Y-79972165D01*
X117980632Y-79790086D01*
X117871139Y-79626218D01*
X117731782Y-79486861D01*
X117567914Y-79377368D01*
X117533673Y-79363185D01*
X117385838Y-79301950D01*
X117385835Y-79301949D01*
X117192544Y-79263500D01*
X117192541Y-79263500D01*
X116995459Y-79263500D01*
X116995455Y-79263500D01*
X116802164Y-79301949D01*
X116802161Y-79301950D01*
X116620085Y-79377368D01*
X116456222Y-79486858D01*
X116456215Y-79486863D01*
X116316863Y-79626215D01*
X116316858Y-79626222D01*
X116207368Y-79790085D01*
X116131950Y-79972161D01*
X116131949Y-79972164D01*
X116093500Y-80165455D01*
X115554499Y-80165455D01*
X115516051Y-79972165D01*
X115440632Y-79790086D01*
X115331139Y-79626218D01*
X115191782Y-79486861D01*
X115027914Y-79377368D01*
X114993673Y-79363185D01*
X114845838Y-79301950D01*
X114845835Y-79301949D01*
X114652544Y-79263500D01*
X114652541Y-79263500D01*
X114455459Y-79263500D01*
X114455455Y-79263500D01*
X114262164Y-79301949D01*
X114262161Y-79301950D01*
X114080085Y-79377368D01*
X113916222Y-79486858D01*
X113916215Y-79486863D01*
X113776863Y-79626215D01*
X113776858Y-79626222D01*
X113667368Y-79790085D01*
X113591950Y-79972161D01*
X113591949Y-79972164D01*
X113553500Y-80165455D01*
X113014499Y-80165455D01*
X112976051Y-79972165D01*
X112900632Y-79790086D01*
X112791139Y-79626218D01*
X112651782Y-79486861D01*
X112487914Y-79377368D01*
X112453673Y-79363185D01*
X112305838Y-79301950D01*
X112305835Y-79301949D01*
X112112544Y-79263500D01*
X112112541Y-79263500D01*
X111915459Y-79263500D01*
X111915455Y-79263500D01*
X111722164Y-79301949D01*
X111722161Y-79301950D01*
X111540085Y-79377368D01*
X111376222Y-79486858D01*
X111376215Y-79486863D01*
X111236863Y-79626215D01*
X111236858Y-79626222D01*
X111127368Y-79790085D01*
X111051950Y-79972161D01*
X111051949Y-79972164D01*
X111013500Y-80165455D01*
X110474499Y-80165455D01*
X110436051Y-79972165D01*
X110360632Y-79790086D01*
X110251139Y-79626218D01*
X110111782Y-79486861D01*
X109947914Y-79377368D01*
X109913673Y-79363185D01*
X109765838Y-79301950D01*
X109765835Y-79301949D01*
X109572544Y-79263500D01*
X109572541Y-79263500D01*
X109375459Y-79263500D01*
X109375455Y-79263500D01*
X109182164Y-79301949D01*
X109182161Y-79301950D01*
X109000085Y-79377368D01*
X108836222Y-79486858D01*
X108836215Y-79486863D01*
X108696863Y-79626215D01*
X108696858Y-79626222D01*
X108587368Y-79790085D01*
X108511950Y-79972161D01*
X108511949Y-79972164D01*
X108473500Y-80165455D01*
X107934499Y-80165455D01*
X107896051Y-79972165D01*
X107820632Y-79790086D01*
X107711139Y-79626218D01*
X107571782Y-79486861D01*
X107407914Y-79377368D01*
X107373673Y-79363185D01*
X107225838Y-79301950D01*
X107225835Y-79301949D01*
X107032544Y-79263500D01*
X107032541Y-79263500D01*
X106835459Y-79263500D01*
X106835455Y-79263500D01*
X106642164Y-79301949D01*
X106642161Y-79301950D01*
X106460085Y-79377368D01*
X106296222Y-79486858D01*
X106296215Y-79486863D01*
X106156863Y-79626215D01*
X106156858Y-79626222D01*
X106047368Y-79790085D01*
X105971950Y-79972161D01*
X105971949Y-79972164D01*
X105933500Y-80165455D01*
X105394499Y-80165455D01*
X105356051Y-79972165D01*
X105280632Y-79790086D01*
X105171139Y-79626218D01*
X105031782Y-79486861D01*
X104867914Y-79377368D01*
X104833673Y-79363185D01*
X104685838Y-79301950D01*
X104685835Y-79301949D01*
X104492544Y-79263500D01*
X104492541Y-79263500D01*
X104295459Y-79263500D01*
X104295455Y-79263500D01*
X104102164Y-79301949D01*
X104102161Y-79301950D01*
X103920085Y-79377368D01*
X103756222Y-79486858D01*
X103756215Y-79486863D01*
X103616863Y-79626215D01*
X103616858Y-79626222D01*
X103507368Y-79790085D01*
X103431950Y-79972161D01*
X103431949Y-79972164D01*
X103393500Y-80165455D01*
X96520000Y-80165455D01*
X96520000Y-64925455D01*
X103393500Y-64925455D01*
X103393500Y-65122544D01*
X103411792Y-65214500D01*
X103431949Y-65315835D01*
X103507368Y-65497914D01*
X103616861Y-65661782D01*
X103756218Y-65801139D01*
X103920086Y-65910632D01*
X104102165Y-65986051D01*
X104295459Y-66024500D01*
X104492541Y-66024500D01*
X104685835Y-65986051D01*
X104867914Y-65910632D01*
X105031782Y-65801139D01*
X105171139Y-65661782D01*
X105280632Y-65497914D01*
X105356051Y-65315835D01*
X105394500Y-65122541D01*
X105394500Y-64925459D01*
X105394499Y-64925455D01*
X105933500Y-64925455D01*
X105933500Y-65122544D01*
X105951792Y-65214500D01*
X105971949Y-65315835D01*
X106047368Y-65497914D01*
X106156861Y-65661782D01*
X106296218Y-65801139D01*
X106460086Y-65910632D01*
X106642165Y-65986051D01*
X106835459Y-66024500D01*
X107032541Y-66024500D01*
X107225835Y-65986051D01*
X107407914Y-65910632D01*
X107571782Y-65801139D01*
X107711139Y-65661782D01*
X107820632Y-65497914D01*
X107896051Y-65315835D01*
X107934500Y-65122541D01*
X107934500Y-64925459D01*
X107934499Y-64925455D01*
X108473500Y-64925455D01*
X108473500Y-65122544D01*
X108491792Y-65214500D01*
X108511949Y-65315835D01*
X108587368Y-65497914D01*
X108696861Y-65661782D01*
X108836218Y-65801139D01*
X109000086Y-65910632D01*
X109182165Y-65986051D01*
X109375459Y-66024500D01*
X109572541Y-66024500D01*
X109765835Y-65986051D01*
X109947914Y-65910632D01*
X110111782Y-65801139D01*
X110251139Y-65661782D01*
X110360632Y-65497914D01*
X110436051Y-65315835D01*
X110474500Y-65122541D01*
X110474500Y-64925459D01*
X110474499Y-64925455D01*
X111013501Y-64925455D01*
X111013501Y-65122544D01*
X111031793Y-65214500D01*
X111051950Y-65315835D01*
X111127369Y-65497914D01*
X111236862Y-65661782D01*
X111376219Y-65801139D01*
X111540087Y-65910632D01*
X111722166Y-65986051D01*
X111915460Y-66024500D01*
X112112542Y-66024500D01*
X112305836Y-65986051D01*
X112487915Y-65910632D01*
X112651783Y-65801139D01*
X112791140Y-65661782D01*
X112900633Y-65497914D01*
X112976052Y-65315835D01*
X113014501Y-65122541D01*
X113014501Y-64925459D01*
X113014500Y-64925455D01*
X113553500Y-64925455D01*
X113553500Y-65122544D01*
X113571792Y-65214500D01*
X113591949Y-65315835D01*
X113667368Y-65497914D01*
X113776861Y-65661782D01*
X113916218Y-65801139D01*
X114080086Y-65910632D01*
X114262165Y-65986051D01*
X114455459Y-66024500D01*
X114652541Y-66024500D01*
X114845835Y-65986051D01*
X115027914Y-65910632D01*
X115191782Y-65801139D01*
X115331139Y-65661782D01*
X115440632Y-65497914D01*
X115516051Y-65315835D01*
X115554500Y-65122541D01*
X115554500Y-64925459D01*
X115554499Y-64925455D01*
X116093500Y-64925455D01*
X116093500Y-65122544D01*
X116111792Y-65214500D01*
X116131949Y-65315835D01*
X116207368Y-65497914D01*
X116316861Y-65661782D01*
X116456218Y-65801139D01*
X116620086Y-65910632D01*
X116802165Y-65986051D01*
X116995459Y-66024500D01*
X117192541Y-66024500D01*
X117385835Y-65986051D01*
X117567914Y-65910632D01*
X117731782Y-65801139D01*
X117871139Y-65661782D01*
X117980632Y-65497914D01*
X118056051Y-65315835D01*
X118094500Y-65122541D01*
X118094500Y-64925459D01*
X118094499Y-64925455D01*
X118633500Y-64925455D01*
X118633500Y-65122544D01*
X118651792Y-65214500D01*
X118671949Y-65315835D01*
X118747368Y-65497914D01*
X118856861Y-65661782D01*
X118996218Y-65801139D01*
X119160086Y-65910632D01*
X119342165Y-65986051D01*
X119535459Y-66024500D01*
X119732541Y-66024500D01*
X119925835Y-65986051D01*
X120107914Y-65910632D01*
X120271782Y-65801139D01*
X120411139Y-65661782D01*
X120520632Y-65497914D01*
X120596051Y-65315835D01*
X120634500Y-65122541D01*
X120634500Y-64925459D01*
X120634499Y-64925455D01*
X121173499Y-64925455D01*
X121173499Y-65122544D01*
X121191791Y-65214500D01*
X121211948Y-65315835D01*
X121287367Y-65497914D01*
X121396860Y-65661782D01*
X121536217Y-65801139D01*
X121700085Y-65910632D01*
X121882164Y-65986051D01*
X122075458Y-66024500D01*
X122272540Y-66024500D01*
X122465834Y-65986051D01*
X122647913Y-65910632D01*
X122811781Y-65801139D01*
X122951138Y-65661782D01*
X123060631Y-65497914D01*
X123136050Y-65315835D01*
X123174499Y-65122541D01*
X123174499Y-64925459D01*
X123174498Y-64925455D01*
X123713500Y-64925455D01*
X123713500Y-65122544D01*
X123731792Y-65214500D01*
X123751949Y-65315835D01*
X123827368Y-65497914D01*
X123936861Y-65661782D01*
X124076218Y-65801139D01*
X124240086Y-65910632D01*
X124422165Y-65986051D01*
X124615459Y-66024500D01*
X124812541Y-66024500D01*
X125005835Y-65986051D01*
X125187914Y-65910632D01*
X125351782Y-65801139D01*
X125491139Y-65661782D01*
X125600632Y-65497914D01*
X125676051Y-65315835D01*
X125714500Y-65122541D01*
X125714500Y-64925459D01*
X125714499Y-64925455D01*
X126253500Y-64925455D01*
X126253500Y-65122544D01*
X126271792Y-65214500D01*
X126291949Y-65315835D01*
X126367368Y-65497914D01*
X126476861Y-65661782D01*
X126616218Y-65801139D01*
X126780086Y-65910632D01*
X126962165Y-65986051D01*
X127155459Y-66024500D01*
X127352541Y-66024500D01*
X127545835Y-65986051D01*
X127727914Y-65910632D01*
X127891782Y-65801139D01*
X128031139Y-65661782D01*
X128140632Y-65497914D01*
X128216051Y-65315835D01*
X128254500Y-65122541D01*
X128254500Y-64925459D01*
X128254499Y-64925455D01*
X128793500Y-64925455D01*
X128793500Y-65122544D01*
X128811792Y-65214500D01*
X128831949Y-65315835D01*
X128907368Y-65497914D01*
X129016861Y-65661782D01*
X129156218Y-65801139D01*
X129320086Y-65910632D01*
X129502165Y-65986051D01*
X129695459Y-66024500D01*
X129892541Y-66024500D01*
X130085835Y-65986051D01*
X130267914Y-65910632D01*
X130431782Y-65801139D01*
X130571139Y-65661782D01*
X130680632Y-65497914D01*
X130756051Y-65315835D01*
X130794500Y-65122541D01*
X130794500Y-64925459D01*
X130776208Y-64833500D01*
X131168451Y-64833500D01*
X131867407Y-64833500D01*
X131834000Y-64958174D01*
X131834000Y-65089826D01*
X131867407Y-65214500D01*
X131168451Y-65214500D01*
X131182081Y-65300556D01*
X131239522Y-65477342D01*
X131239525Y-65477348D01*
X131323920Y-65642981D01*
X131433185Y-65793372D01*
X131564627Y-65924814D01*
X131715018Y-66034079D01*
X131880651Y-66118474D01*
X131880657Y-66118477D01*
X132057443Y-66175918D01*
X132143500Y-66189548D01*
X132143500Y-65490593D01*
X132268174Y-65524000D01*
X132399826Y-65524000D01*
X132524500Y-65490593D01*
X132524500Y-66189548D01*
X132610556Y-66175918D01*
X132787342Y-66118477D01*
X132787348Y-66118474D01*
X132952981Y-66034079D01*
X133103372Y-65924814D01*
X133234814Y-65793372D01*
X133344079Y-65642981D01*
X133428474Y-65477348D01*
X133428477Y-65477342D01*
X133485918Y-65300556D01*
X133499549Y-65214500D01*
X132800593Y-65214500D01*
X132834000Y-65089826D01*
X132834000Y-64958174D01*
X132825233Y-64925455D01*
X133873501Y-64925455D01*
X133873501Y-65122544D01*
X133891793Y-65214500D01*
X133911950Y-65315835D01*
X133987369Y-65497914D01*
X134096862Y-65661782D01*
X134236219Y-65801139D01*
X134400087Y-65910632D01*
X134582166Y-65986051D01*
X134775460Y-66024500D01*
X134972542Y-66024500D01*
X135165836Y-65986051D01*
X135347915Y-65910632D01*
X135511783Y-65801139D01*
X135651140Y-65661782D01*
X135760633Y-65497914D01*
X135836052Y-65315835D01*
X135874501Y-65122541D01*
X135874501Y-64925459D01*
X135874500Y-64925455D01*
X136413500Y-64925455D01*
X136413500Y-65122544D01*
X136431792Y-65214500D01*
X136451949Y-65315835D01*
X136527368Y-65497914D01*
X136636861Y-65661782D01*
X136776218Y-65801139D01*
X136940086Y-65910632D01*
X137122165Y-65986051D01*
X137315459Y-66024500D01*
X137512541Y-66024500D01*
X137705835Y-65986051D01*
X137887914Y-65910632D01*
X138051782Y-65801139D01*
X138191139Y-65661782D01*
X138300632Y-65497914D01*
X138376051Y-65315835D01*
X138414500Y-65122541D01*
X138414500Y-64925459D01*
X138376051Y-64732165D01*
X138300632Y-64550086D01*
X138191139Y-64386218D01*
X138051782Y-64246861D01*
X137988009Y-64204249D01*
X138953500Y-64204249D01*
X138953500Y-64204252D01*
X138953500Y-65843748D01*
X138965133Y-65902231D01*
X139009448Y-65968552D01*
X139075769Y-66012867D01*
X139134252Y-66024500D01*
X139134253Y-66024500D01*
X140773747Y-66024500D01*
X140773748Y-66024500D01*
X140832231Y-66012867D01*
X140898552Y-65968552D01*
X140942867Y-65902231D01*
X140954500Y-65843748D01*
X140954500Y-64204252D01*
X140942867Y-64145769D01*
X140898552Y-64079448D01*
X140832231Y-64035133D01*
X140832228Y-64035132D01*
X140773750Y-64023500D01*
X140773748Y-64023500D01*
X139134252Y-64023500D01*
X139134249Y-64023500D01*
X139075771Y-64035132D01*
X139075768Y-64035133D01*
X139009448Y-64079448D01*
X138965133Y-64145768D01*
X138965132Y-64145771D01*
X138953500Y-64204249D01*
X137988009Y-64204249D01*
X137887914Y-64137368D01*
X137748082Y-64079448D01*
X137705838Y-64061950D01*
X137705835Y-64061949D01*
X137512544Y-64023500D01*
X137512541Y-64023500D01*
X137315459Y-64023500D01*
X137315455Y-64023500D01*
X137122164Y-64061949D01*
X137122161Y-64061950D01*
X136940085Y-64137368D01*
X136776222Y-64246858D01*
X136776215Y-64246863D01*
X136636863Y-64386215D01*
X136636858Y-64386222D01*
X136527368Y-64550085D01*
X136451950Y-64732161D01*
X136451949Y-64732164D01*
X136413500Y-64925455D01*
X135874500Y-64925455D01*
X135836052Y-64732165D01*
X135760633Y-64550086D01*
X135651140Y-64386218D01*
X135511783Y-64246861D01*
X135347915Y-64137368D01*
X135208083Y-64079448D01*
X135165839Y-64061950D01*
X135165836Y-64061949D01*
X134972545Y-64023500D01*
X134972542Y-64023500D01*
X134775460Y-64023500D01*
X134775456Y-64023500D01*
X134582165Y-64061949D01*
X134582162Y-64061950D01*
X134400086Y-64137368D01*
X134236223Y-64246858D01*
X134236216Y-64246863D01*
X134096864Y-64386215D01*
X134096859Y-64386222D01*
X133987369Y-64550085D01*
X133911951Y-64732161D01*
X133911950Y-64732164D01*
X133873501Y-64925455D01*
X132825233Y-64925455D01*
X132800593Y-64833500D01*
X133499548Y-64833500D01*
X133485918Y-64747443D01*
X133428477Y-64570657D01*
X133428474Y-64570651D01*
X133344079Y-64405018D01*
X133234814Y-64254627D01*
X133103372Y-64123185D01*
X132952981Y-64013920D01*
X132787348Y-63929525D01*
X132787342Y-63929522D01*
X132610557Y-63872081D01*
X132524500Y-63858450D01*
X132524500Y-64557406D01*
X132399826Y-64524000D01*
X132268174Y-64524000D01*
X132143500Y-64557406D01*
X132143500Y-63858450D01*
X132057442Y-63872081D01*
X131880657Y-63929522D01*
X131880651Y-63929525D01*
X131715018Y-64013920D01*
X131564627Y-64123185D01*
X131433185Y-64254627D01*
X131323920Y-64405018D01*
X131239525Y-64570651D01*
X131239522Y-64570657D01*
X131182081Y-64747443D01*
X131168451Y-64833500D01*
X130776208Y-64833500D01*
X130756051Y-64732165D01*
X130680632Y-64550086D01*
X130571139Y-64386218D01*
X130431782Y-64246861D01*
X130267914Y-64137368D01*
X130128082Y-64079448D01*
X130085838Y-64061950D01*
X130085835Y-64061949D01*
X129892544Y-64023500D01*
X129892541Y-64023500D01*
X129695459Y-64023500D01*
X129695455Y-64023500D01*
X129502164Y-64061949D01*
X129502161Y-64061950D01*
X129320085Y-64137368D01*
X129156222Y-64246858D01*
X129156215Y-64246863D01*
X129016863Y-64386215D01*
X129016858Y-64386222D01*
X128907368Y-64550085D01*
X128831950Y-64732161D01*
X128831949Y-64732164D01*
X128793500Y-64925455D01*
X128254499Y-64925455D01*
X128216051Y-64732165D01*
X128140632Y-64550086D01*
X128031139Y-64386218D01*
X127891782Y-64246861D01*
X127727914Y-64137368D01*
X127588082Y-64079448D01*
X127545838Y-64061950D01*
X127545835Y-64061949D01*
X127352544Y-64023500D01*
X127352541Y-64023500D01*
X127155459Y-64023500D01*
X127155455Y-64023500D01*
X126962164Y-64061949D01*
X126962161Y-64061950D01*
X126780085Y-64137368D01*
X126616222Y-64246858D01*
X126616215Y-64246863D01*
X126476863Y-64386215D01*
X126476858Y-64386222D01*
X126367368Y-64550085D01*
X126291950Y-64732161D01*
X126291949Y-64732164D01*
X126253500Y-64925455D01*
X125714499Y-64925455D01*
X125676051Y-64732165D01*
X125600632Y-64550086D01*
X125491139Y-64386218D01*
X125351782Y-64246861D01*
X125187914Y-64137368D01*
X125048082Y-64079448D01*
X125005838Y-64061950D01*
X125005835Y-64061949D01*
X124812544Y-64023500D01*
X124812541Y-64023500D01*
X124615459Y-64023500D01*
X124615455Y-64023500D01*
X124422164Y-64061949D01*
X124422161Y-64061950D01*
X124240085Y-64137368D01*
X124076222Y-64246858D01*
X124076215Y-64246863D01*
X123936863Y-64386215D01*
X123936858Y-64386222D01*
X123827368Y-64550085D01*
X123751950Y-64732161D01*
X123751949Y-64732164D01*
X123713500Y-64925455D01*
X123174498Y-64925455D01*
X123136050Y-64732165D01*
X123060631Y-64550086D01*
X122951138Y-64386218D01*
X122811781Y-64246861D01*
X122647913Y-64137368D01*
X122508081Y-64079448D01*
X122465837Y-64061950D01*
X122465834Y-64061949D01*
X122272543Y-64023500D01*
X122272540Y-64023500D01*
X122075458Y-64023500D01*
X122075454Y-64023500D01*
X121882163Y-64061949D01*
X121882160Y-64061950D01*
X121700084Y-64137368D01*
X121536221Y-64246858D01*
X121536214Y-64246863D01*
X121396862Y-64386215D01*
X121396857Y-64386222D01*
X121287367Y-64550085D01*
X121211949Y-64732161D01*
X121211948Y-64732164D01*
X121173499Y-64925455D01*
X120634499Y-64925455D01*
X120596051Y-64732165D01*
X120520632Y-64550086D01*
X120411139Y-64386218D01*
X120271782Y-64246861D01*
X120107914Y-64137368D01*
X119968082Y-64079448D01*
X119925838Y-64061950D01*
X119925835Y-64061949D01*
X119732544Y-64023500D01*
X119732541Y-64023500D01*
X119535459Y-64023500D01*
X119535455Y-64023500D01*
X119342164Y-64061949D01*
X119342161Y-64061950D01*
X119160085Y-64137368D01*
X118996222Y-64246858D01*
X118996215Y-64246863D01*
X118856863Y-64386215D01*
X118856858Y-64386222D01*
X118747368Y-64550085D01*
X118671950Y-64732161D01*
X118671949Y-64732164D01*
X118633500Y-64925455D01*
X118094499Y-64925455D01*
X118056051Y-64732165D01*
X117980632Y-64550086D01*
X117871139Y-64386218D01*
X117731782Y-64246861D01*
X117567914Y-64137368D01*
X117428082Y-64079448D01*
X117385838Y-64061950D01*
X117385835Y-64061949D01*
X117192544Y-64023500D01*
X117192541Y-64023500D01*
X116995459Y-64023500D01*
X116995455Y-64023500D01*
X116802164Y-64061949D01*
X116802161Y-64061950D01*
X116620085Y-64137368D01*
X116456222Y-64246858D01*
X116456215Y-64246863D01*
X116316863Y-64386215D01*
X116316858Y-64386222D01*
X116207368Y-64550085D01*
X116131950Y-64732161D01*
X116131949Y-64732164D01*
X116093500Y-64925455D01*
X115554499Y-64925455D01*
X115516051Y-64732165D01*
X115440632Y-64550086D01*
X115331139Y-64386218D01*
X115191782Y-64246861D01*
X115027914Y-64137368D01*
X114888082Y-64079448D01*
X114845838Y-64061950D01*
X114845835Y-64061949D01*
X114652544Y-64023500D01*
X114652541Y-64023500D01*
X114455459Y-64023500D01*
X114455455Y-64023500D01*
X114262164Y-64061949D01*
X114262161Y-64061950D01*
X114080085Y-64137368D01*
X113916222Y-64246858D01*
X113916215Y-64246863D01*
X113776863Y-64386215D01*
X113776858Y-64386222D01*
X113667368Y-64550085D01*
X113591950Y-64732161D01*
X113591949Y-64732164D01*
X113553500Y-64925455D01*
X113014500Y-64925455D01*
X112976052Y-64732165D01*
X112900633Y-64550086D01*
X112791140Y-64386218D01*
X112651783Y-64246861D01*
X112487915Y-64137368D01*
X112348083Y-64079448D01*
X112305839Y-64061950D01*
X112305836Y-64061949D01*
X112112545Y-64023500D01*
X112112542Y-64023500D01*
X111915460Y-64023500D01*
X111915456Y-64023500D01*
X111722165Y-64061949D01*
X111722162Y-64061950D01*
X111540086Y-64137368D01*
X111376223Y-64246858D01*
X111376216Y-64246863D01*
X111236864Y-64386215D01*
X111236859Y-64386222D01*
X111127369Y-64550085D01*
X111051951Y-64732161D01*
X111051950Y-64732164D01*
X111013501Y-64925455D01*
X110474499Y-64925455D01*
X110436051Y-64732165D01*
X110360632Y-64550086D01*
X110251139Y-64386218D01*
X110111782Y-64246861D01*
X109947914Y-64137368D01*
X109808082Y-64079448D01*
X109765838Y-64061950D01*
X109765835Y-64061949D01*
X109572544Y-64023500D01*
X109572541Y-64023500D01*
X109375459Y-64023500D01*
X109375455Y-64023500D01*
X109182164Y-64061949D01*
X109182161Y-64061950D01*
X109000085Y-64137368D01*
X108836222Y-64246858D01*
X108836215Y-64246863D01*
X108696863Y-64386215D01*
X108696858Y-64386222D01*
X108587368Y-64550085D01*
X108511950Y-64732161D01*
X108511949Y-64732164D01*
X108473500Y-64925455D01*
X107934499Y-64925455D01*
X107896051Y-64732165D01*
X107820632Y-64550086D01*
X107711139Y-64386218D01*
X107571782Y-64246861D01*
X107407914Y-64137368D01*
X107268082Y-64079448D01*
X107225838Y-64061950D01*
X107225835Y-64061949D01*
X107032544Y-64023500D01*
X107032541Y-64023500D01*
X106835459Y-64023500D01*
X106835455Y-64023500D01*
X106642164Y-64061949D01*
X106642161Y-64061950D01*
X106460085Y-64137368D01*
X106296222Y-64246858D01*
X106296215Y-64246863D01*
X106156863Y-64386215D01*
X106156858Y-64386222D01*
X106047368Y-64550085D01*
X105971950Y-64732161D01*
X105971949Y-64732164D01*
X105933500Y-64925455D01*
X105394499Y-64925455D01*
X105356051Y-64732165D01*
X105280632Y-64550086D01*
X105171139Y-64386218D01*
X105031782Y-64246861D01*
X104867914Y-64137368D01*
X104728082Y-64079448D01*
X104685838Y-64061950D01*
X104685835Y-64061949D01*
X104492544Y-64023500D01*
X104492541Y-64023500D01*
X104295459Y-64023500D01*
X104295455Y-64023500D01*
X104102164Y-64061949D01*
X104102161Y-64061950D01*
X103920085Y-64137368D01*
X103756222Y-64246858D01*
X103756215Y-64246863D01*
X103616863Y-64386215D01*
X103616858Y-64386222D01*
X103507368Y-64550085D01*
X103431950Y-64732161D01*
X103431949Y-64732164D01*
X103393500Y-64925455D01*
X96520000Y-64925455D01*
X96520000Y-60316500D01*
X96540002Y-60248379D01*
X96593658Y-60201886D01*
X96646000Y-60190500D01*
X145924000Y-60190500D01*
X145992121Y-60210502D01*
G37*
%TD.AperFunction*%
%TD*%
M02*
