%TF.GenerationSoftware,KiCad,Pcbnew,9.0.0*%
%TF.CreationDate,2025-07-08T22:51:07+02:00*%
%TF.ProjectId,RTC Tester,52544320-5465-4737-9465-722e6b696361,rev?*%
%TF.SameCoordinates,Original*%
%TF.FileFunction,Legend,Top*%
%TF.FilePolarity,Positive*%
%FSLAX46Y46*%
G04 Gerber Fmt 4.6, Leading zero omitted, Abs format (unit mm)*
G04 Created by KiCad (PCBNEW 9.0.0) date 2025-07-08 22:51:07*
%MOMM*%
%LPD*%
G01*
G04 APERTURE LIST*
%ADD10C,0.150000*%
%ADD11C,0.120000*%
%ADD12C,0.152400*%
%ADD13C,0.508000*%
G04 APERTURE END LIST*
D10*
X96636818Y-92952366D02*
X96160627Y-93285699D01*
X96636818Y-93523794D02*
X95636818Y-93523794D01*
X95636818Y-93523794D02*
X95636818Y-93142842D01*
X95636818Y-93142842D02*
X95684437Y-93047604D01*
X95684437Y-93047604D02*
X95732056Y-92999985D01*
X95732056Y-92999985D02*
X95827294Y-92952366D01*
X95827294Y-92952366D02*
X95970151Y-92952366D01*
X95970151Y-92952366D02*
X96065389Y-92999985D01*
X96065389Y-92999985D02*
X96113008Y-93047604D01*
X96113008Y-93047604D02*
X96160627Y-93142842D01*
X96160627Y-93142842D02*
X96160627Y-93523794D01*
X96636818Y-91999985D02*
X96636818Y-92571413D01*
X96636818Y-92285699D02*
X95636818Y-92285699D01*
X95636818Y-92285699D02*
X95779675Y-92380937D01*
X95779675Y-92380937D02*
X95874913Y-92476175D01*
X95874913Y-92476175D02*
X95922532Y-92571413D01*
X150622095Y-107506819D02*
X150622095Y-106506819D01*
X150622095Y-106983009D02*
X151193523Y-106983009D01*
X151193523Y-107506819D02*
X151193523Y-106506819D01*
X151574476Y-106506819D02*
X152193523Y-106506819D01*
X152193523Y-106506819D02*
X151860190Y-106887771D01*
X151860190Y-106887771D02*
X152003047Y-106887771D01*
X152003047Y-106887771D02*
X152098285Y-106935390D01*
X152098285Y-106935390D02*
X152145904Y-106983009D01*
X152145904Y-106983009D02*
X152193523Y-107078247D01*
X152193523Y-107078247D02*
X152193523Y-107316342D01*
X152193523Y-107316342D02*
X152145904Y-107411580D01*
X152145904Y-107411580D02*
X152098285Y-107459200D01*
X152098285Y-107459200D02*
X152003047Y-107506819D01*
X152003047Y-107506819D02*
X151717333Y-107506819D01*
X151717333Y-107506819D02*
X151622095Y-107459200D01*
X151622095Y-107459200D02*
X151574476Y-107411580D01*
X128216819Y-104862189D02*
X127216819Y-104862189D01*
X128121580Y-103814571D02*
X128169200Y-103862190D01*
X128169200Y-103862190D02*
X128216819Y-104005047D01*
X128216819Y-104005047D02*
X128216819Y-104100285D01*
X128216819Y-104100285D02*
X128169200Y-104243142D01*
X128169200Y-104243142D02*
X128073961Y-104338380D01*
X128073961Y-104338380D02*
X127978723Y-104385999D01*
X127978723Y-104385999D02*
X127788247Y-104433618D01*
X127788247Y-104433618D02*
X127645390Y-104433618D01*
X127645390Y-104433618D02*
X127454914Y-104385999D01*
X127454914Y-104385999D02*
X127359676Y-104338380D01*
X127359676Y-104338380D02*
X127264438Y-104243142D01*
X127264438Y-104243142D02*
X127216819Y-104100285D01*
X127216819Y-104100285D02*
X127216819Y-104005047D01*
X127216819Y-104005047D02*
X127264438Y-103862190D01*
X127264438Y-103862190D02*
X127312057Y-103814571D01*
X128216819Y-102862190D02*
X128216819Y-103433618D01*
X128216819Y-103147904D02*
X127216819Y-103147904D01*
X127216819Y-103147904D02*
X127359676Y-103243142D01*
X127359676Y-103243142D02*
X127454914Y-103338380D01*
X127454914Y-103338380D02*
X127502533Y-103433618D01*
X145203104Y-73358285D02*
X145203104Y-72882095D01*
X145488819Y-73453523D02*
X144488819Y-73120190D01*
X144488819Y-73120190D02*
X145488819Y-72786857D01*
X145488819Y-71929714D02*
X145488819Y-72501142D01*
X145488819Y-72215428D02*
X144488819Y-72215428D01*
X144488819Y-72215428D02*
X144631676Y-72310666D01*
X144631676Y-72310666D02*
X144726914Y-72405904D01*
X144726914Y-72405904D02*
X144774533Y-72501142D01*
X104939180Y-71382095D02*
X104129657Y-71382095D01*
X104129657Y-71382095D02*
X104034419Y-71429714D01*
X104034419Y-71429714D02*
X103986800Y-71477333D01*
X103986800Y-71477333D02*
X103939180Y-71572571D01*
X103939180Y-71572571D02*
X103939180Y-71763047D01*
X103939180Y-71763047D02*
X103986800Y-71858285D01*
X103986800Y-71858285D02*
X104034419Y-71905904D01*
X104034419Y-71905904D02*
X104129657Y-71953523D01*
X104129657Y-71953523D02*
X104939180Y-71953523D01*
X103986800Y-72382095D02*
X103939180Y-72524952D01*
X103939180Y-72524952D02*
X103939180Y-72763047D01*
X103939180Y-72763047D02*
X103986800Y-72858285D01*
X103986800Y-72858285D02*
X104034419Y-72905904D01*
X104034419Y-72905904D02*
X104129657Y-72953523D01*
X104129657Y-72953523D02*
X104224895Y-72953523D01*
X104224895Y-72953523D02*
X104320133Y-72905904D01*
X104320133Y-72905904D02*
X104367752Y-72858285D01*
X104367752Y-72858285D02*
X104415371Y-72763047D01*
X104415371Y-72763047D02*
X104462990Y-72572571D01*
X104462990Y-72572571D02*
X104510609Y-72477333D01*
X104510609Y-72477333D02*
X104558228Y-72429714D01*
X104558228Y-72429714D02*
X104653466Y-72382095D01*
X104653466Y-72382095D02*
X104748704Y-72382095D01*
X104748704Y-72382095D02*
X104843942Y-72429714D01*
X104843942Y-72429714D02*
X104891561Y-72477333D01*
X104891561Y-72477333D02*
X104939180Y-72572571D01*
X104939180Y-72572571D02*
X104939180Y-72810666D01*
X104939180Y-72810666D02*
X104891561Y-72953523D01*
X104462990Y-73715428D02*
X104415371Y-73858285D01*
X104415371Y-73858285D02*
X104367752Y-73905904D01*
X104367752Y-73905904D02*
X104272514Y-73953523D01*
X104272514Y-73953523D02*
X104129657Y-73953523D01*
X104129657Y-73953523D02*
X104034419Y-73905904D01*
X104034419Y-73905904D02*
X103986800Y-73858285D01*
X103986800Y-73858285D02*
X103939180Y-73763047D01*
X103939180Y-73763047D02*
X103939180Y-73382095D01*
X103939180Y-73382095D02*
X104939180Y-73382095D01*
X104939180Y-73382095D02*
X104939180Y-73715428D01*
X104939180Y-73715428D02*
X104891561Y-73810666D01*
X104891561Y-73810666D02*
X104843942Y-73858285D01*
X104843942Y-73858285D02*
X104748704Y-73905904D01*
X104748704Y-73905904D02*
X104653466Y-73905904D01*
X104653466Y-73905904D02*
X104558228Y-73858285D01*
X104558228Y-73858285D02*
X104510609Y-73810666D01*
X104510609Y-73810666D02*
X104462990Y-73715428D01*
X104462990Y-73715428D02*
X104462990Y-73382095D01*
X105694820Y-92876666D02*
X105218629Y-93209999D01*
X105694820Y-93448094D02*
X104694820Y-93448094D01*
X104694820Y-93448094D02*
X104694820Y-93067142D01*
X104694820Y-93067142D02*
X104742439Y-92971904D01*
X104742439Y-92971904D02*
X104790058Y-92924285D01*
X104790058Y-92924285D02*
X104885296Y-92876666D01*
X104885296Y-92876666D02*
X105028153Y-92876666D01*
X105028153Y-92876666D02*
X105123391Y-92924285D01*
X105123391Y-92924285D02*
X105171010Y-92971904D01*
X105171010Y-92971904D02*
X105218629Y-93067142D01*
X105218629Y-93067142D02*
X105218629Y-93448094D01*
X104790058Y-92495713D02*
X104742439Y-92448094D01*
X104742439Y-92448094D02*
X104694820Y-92352856D01*
X104694820Y-92352856D02*
X104694820Y-92114761D01*
X104694820Y-92114761D02*
X104742439Y-92019523D01*
X104742439Y-92019523D02*
X104790058Y-91971904D01*
X104790058Y-91971904D02*
X104885296Y-91924285D01*
X104885296Y-91924285D02*
X104980534Y-91924285D01*
X104980534Y-91924285D02*
X105123391Y-91971904D01*
X105123391Y-91971904D02*
X105694820Y-92543332D01*
X105694820Y-92543332D02*
X105694820Y-91924285D01*
X91186095Y-107506819D02*
X91186095Y-106506819D01*
X91186095Y-106983009D02*
X91757523Y-106983009D01*
X91757523Y-107506819D02*
X91757523Y-106506819D01*
X92662285Y-106840152D02*
X92662285Y-107506819D01*
X92424190Y-106459200D02*
X92186095Y-107173485D01*
X92186095Y-107173485D02*
X92805142Y-107173485D01*
D11*
%TO.C,R1*%
X97182000Y-89515700D02*
X97182000Y-96055700D01*
X97182000Y-96055700D02*
X99922000Y-96055700D01*
X98552000Y-88745700D02*
X98552000Y-89515699D01*
X98552000Y-96825700D02*
X98552000Y-96055700D01*
X99922000Y-89515700D02*
X97182000Y-89515700D01*
X99922000Y-96055700D02*
X99922000Y-89515700D01*
D12*
%TO.C,IC1*%
X108245001Y-96253300D02*
X108245001Y-111518700D01*
X108245001Y-111518700D02*
X143805001Y-111518700D01*
X143805001Y-96253300D02*
X108245001Y-96253300D01*
X143805001Y-111518700D02*
X143805001Y-96253300D01*
D13*
X119253000Y-113296700D02*
G75*
G02*
X118491000Y-113296700I-381000J0D01*
G01*
X118491000Y-113296700D02*
G75*
G02*
X119253000Y-113296700I381000J0D01*
G01*
D11*
%TO.C,A1*%
X97914000Y-68704000D02*
X108334001Y-68704000D01*
X97914000Y-76583999D02*
X97914000Y-68704000D01*
X100454000Y-81664000D02*
X100454001Y-76584000D01*
X100454000Y-81664000D02*
X143894000Y-81664000D01*
X100454001Y-63624000D02*
X100454000Y-68704000D01*
X103124000Y-66294000D02*
X103124000Y-63624000D01*
X103124000Y-78994000D02*
X103124000Y-81664000D01*
X108334000Y-76584000D02*
X97914000Y-76583999D01*
X108334001Y-68704000D02*
X108334000Y-76584000D01*
X138684000Y-63624000D02*
X100454001Y-63624000D01*
X138684000Y-66294000D02*
X103124000Y-66294000D01*
X138684000Y-66294000D02*
X138684000Y-63624000D01*
X138684000Y-66294000D02*
X141224000Y-66294000D01*
X141224000Y-66294000D02*
X141224000Y-63624000D01*
X141224000Y-78994000D02*
X103124000Y-78994000D01*
X141224000Y-78994000D02*
X141224000Y-81664000D01*
X143894000Y-63624000D02*
X141224000Y-63624000D01*
X143894000Y-81664000D02*
X143894000Y-63624000D01*
%TO.C,R2*%
X101500000Y-89440000D02*
X101500000Y-95980000D01*
X101500000Y-95980000D02*
X104240000Y-95980000D01*
X102870000Y-88670000D02*
X102870000Y-89440000D01*
X102870000Y-96750000D02*
X102870000Y-95980001D01*
X104240000Y-89440000D02*
X101500000Y-89440000D01*
X104240000Y-95980000D02*
X104240000Y-89440000D01*
%TD*%
M02*
