M48
; DRILL file {KiCad 9.0.0} date 2025-07-08T22:51:09+0200
; FORMAT={-:-/ absolute / metric / decimal}
; #@! TF.CreationDate,2025-07-08T22:51:09+02:00
; #@! TF.GenerationSoftware,Kicad,Pcbnew,9.0.0
; #@! TF.FileFunction,Plated,1,2,PTH
FMAT,2
METRIC
; #@! TA.AperFunction,Plated,PTH,ComponentDrill
T1C0.800
; #@! TA.AperFunction,Plated,PTH,ComponentDrill
T2C0.991
; #@! TA.AperFunction,Plated,PTH,ComponentDrill
T3C1.000
%
G90
G05
T1
X98.552Y-87.706
X98.552Y-97.866
X102.87Y-87.63
X102.87Y-97.79
T2
X118.872Y-100.076
X118.872Y-107.696
X121.412Y-100.076
X121.412Y-107.696
X123.952Y-100.076
X123.952Y-107.696
X126.492Y-100.076
X126.492Y-107.696
X129.032Y-100.076
X129.032Y-107.696
X131.572Y-100.076
X131.572Y-107.696
X134.112Y-100.076
X134.112Y-107.696
X136.652Y-100.076
X136.652Y-107.696
T3
X104.394Y-65.024
X104.394Y-80.264
X106.934Y-65.024
X106.934Y-80.264
X109.474Y-65.024
X109.474Y-80.264
X112.014Y-80.264
X112.014Y-65.024
X114.554Y-65.024
X114.554Y-80.264
X117.094Y-65.024
X117.094Y-80.264
X119.634Y-65.024
X119.634Y-80.264
X122.174Y-65.024
X122.174Y-80.264
X124.714Y-65.024
X124.714Y-80.264
X127.254Y-65.024
X127.254Y-80.264
X129.794Y-65.024
X129.794Y-80.264
X132.334Y-65.024
X132.334Y-80.264
X134.874Y-80.264
X134.874Y-65.024
X137.414Y-65.024
X137.414Y-80.264
X139.954Y-65.024
X139.954Y-80.264
M30
