%TF.GenerationSoftware,KiCad,Pcbnew,10.0.1*%
%TF.CreationDate,2026-08-31T16:03:19+02:00*%
%TF.ProjectId,QL_Minerva_MK2,514c5f4d-696e-4657-9276-615f4d4b322e,0.0*%
%TF.SameCoordinates,Original*%
%TF.FileFunction,Soldermask,Bot*%
%TF.FilePolarity,Negative*%
%FSLAX46Y46*%
G04 Gerber Fmt 4.6, Leading zero omitted, Abs format (unit mm)*
G04 Created by KiCad (PCBNEW 10.0.1) date 2026-08-31 16:03:19*
%MOMM*%
%LPD*%
G01*
G04 APERTURE LIST*
G04 Aperture macros list*
%AMRoundRect*
0 Rectangle with rounded corners*
0 $1 Rounding radius*
0 $2 $3 $4 $5 $6 $7 $8 $9 X,Y pos of 4 corners*
0 Add a 4 corners polygon primitive as box body*
4,1,4,$2,$3,$4,$5,$6,$7,$8,$9,$2,$3,0*
0 Add four circle primitives for the rounded corners*
1,1,$1+$1,$2,$3*
1,1,$1+$1,$4,$5*
1,1,$1+$1,$6,$7*
1,1,$1+$1,$8,$9*
0 Add four rect primitives between the rounded corners*
20,1,$1+$1,$2,$3,$4,$5,0*
20,1,$1+$1,$4,$5,$6,$7,0*
20,1,$1+$1,$6,$7,$8,$9,0*
20,1,$1+$1,$8,$9,$2,$3,0*%
G04 Aperture macros list end*
%ADD10RoundRect,0.250000X-0.475000X0.250000X-0.475000X-0.250000X0.475000X-0.250000X0.475000X0.250000X0*%
%ADD11RoundRect,0.250000X-0.550000X-0.550000X0.550000X-0.550000X0.550000X0.550000X-0.550000X0.550000X0*%
%ADD12C,1.600000*%
%ADD13C,2.404000*%
%ADD14RoundRect,0.250000X-0.550000X0.550000X-0.550000X-0.550000X0.550000X-0.550000X0.550000X0.550000X0*%
%ADD15RoundRect,0.225000X0.250000X-0.225000X0.250000X0.225000X-0.250000X0.225000X-0.250000X-0.225000X0*%
%ADD16R,0.800000X1.000000*%
%ADD17C,0.900000*%
%ADD18R,1.500000X0.700000*%
%ADD19RoundRect,0.225000X-0.017678X0.335876X-0.335876X0.017678X0.017678X-0.335876X0.335876X-0.017678X0*%
%ADD20RoundRect,0.225000X-0.335876X-0.017678X-0.017678X-0.335876X0.335876X0.017678X0.017678X0.335876X0*%
G04 APERTURE END LIST*
D10*
%TO.C,C5*%
X94910000Y-64090001D03*
X94910000Y-65989999D03*
%TD*%
D11*
%TO.C,U1*%
X82610000Y-64835000D03*
D12*
X82610000Y-67375000D03*
X82610000Y-69915000D03*
X82610000Y-72455000D03*
X82610000Y-74995000D03*
X82610000Y-77535000D03*
X82610000Y-80075000D03*
X82610000Y-82615000D03*
X82610000Y-85155000D03*
X82610000Y-87695000D03*
X82610000Y-90235000D03*
X82610000Y-92775000D03*
X82610000Y-95315000D03*
X82610000Y-97855000D03*
X97850000Y-97855000D03*
X97850000Y-95315000D03*
X97850000Y-92775000D03*
X97850000Y-90235000D03*
X97850000Y-87695000D03*
X97850000Y-85155000D03*
X97850000Y-82615000D03*
X97850000Y-80075000D03*
X97850000Y-77535000D03*
X97850000Y-74995000D03*
X97850000Y-72455000D03*
X97850000Y-69915000D03*
X97850000Y-67375000D03*
X97850000Y-64835000D03*
%TD*%
D13*
%TO.C,J1*%
X84865000Y-96550000D03*
X95485000Y-96550000D03*
%TD*%
D14*
%TO.C,U3*%
X93942747Y-70054155D03*
D12*
X91402747Y-70054155D03*
X88862748Y-70054155D03*
X86322747Y-70054155D03*
X86322747Y-77674155D03*
X88862747Y-77674155D03*
X91402747Y-77674155D03*
X93942747Y-77674155D03*
%TD*%
D15*
%TO.C,C1*%
X73200000Y-82225000D03*
X73200000Y-80675000D03*
%TD*%
D16*
%TO.C,SW1*%
X57244000Y-74770000D03*
X59454000Y-74770000D03*
D17*
X58344000Y-72620000D03*
X58344000Y-69620000D03*
D16*
X57244000Y-67470000D03*
X59454000Y-67470000D03*
D18*
X60104000Y-73370000D03*
X60104000Y-70370000D03*
X60104000Y-68870000D03*
%TD*%
D19*
%TO.C,C3*%
X91868008Y-82421992D03*
X90771992Y-83518008D03*
%TD*%
D15*
%TO.C,C4*%
X93950000Y-75315000D03*
X93950000Y-73765000D03*
%TD*%
D20*
%TO.C,C2*%
X72101992Y-71301992D03*
X73198008Y-72398008D03*
%TD*%
M02*
