%TF.GenerationSoftware,KiCad,Pcbnew,10.0.1*%
%TF.CreationDate,2026-08-31T16:03:19+02:00*%
%TF.ProjectId,QL_Minerva_MK2,514c5f4d-696e-4657-9276-615f4d4b322e,0.0*%
%TF.SameCoordinates,Original*%
%TF.FileFunction,Legend,Top*%
%TF.FilePolarity,Positive*%
%FSLAX46Y46*%
G04 Gerber Fmt 4.6, Leading zero omitted, Abs format (unit mm)*
G04 Created by KiCad (PCBNEW 10.0.1) date 2026-08-31 16:03:19*
%MOMM*%
%LPD*%
G01*
G04 APERTURE LIST*
%ADD10C,0.250000*%
%ADD11C,0.200000*%
%ADD12C,0.125000*%
%ADD13C,0.254000*%
%ADD14C,0.150000*%
%ADD15C,0.120000*%
%ADD16C,0.100000*%
%ADD17C,0.000000*%
%ADD18C,0.152400*%
%ADD19C,0.127000*%
G04 APERTURE END LIST*
D10*
G36*
X82911400Y-102480000D02*
G01*
X82744705Y-102480000D01*
X82568483Y-101982477D01*
X82568483Y-101886001D01*
X82725593Y-101886001D01*
X82725593Y-101546015D01*
X82524092Y-101546015D01*
X82524092Y-102480000D01*
X82364235Y-102480000D01*
X82364235Y-101409239D01*
X82788424Y-101409239D01*
X82833310Y-101415373D01*
X82861699Y-101431318D01*
X82878572Y-101456399D01*
X82884778Y-101493930D01*
X82884778Y-101906823D01*
X82879174Y-101942767D01*
X82864020Y-101966987D01*
X82838982Y-101982660D01*
X82807624Y-101988647D01*
X82735118Y-101991514D01*
X82911400Y-102480000D01*
G37*
G36*
X83473525Y-101549923D02*
G01*
X83297304Y-101549923D01*
X83297304Y-102480000D01*
X83138119Y-102480000D01*
X83138119Y-101549923D01*
X82961898Y-101549923D01*
X82961898Y-101409239D01*
X83473525Y-101409239D01*
X83473525Y-101549923D01*
G37*
G36*
X84081140Y-102395308D02*
G01*
X84074889Y-102432735D01*
X84057848Y-102457823D01*
X84029072Y-102473827D01*
X83983443Y-102480000D01*
X83650113Y-102480000D01*
X83606002Y-102473904D01*
X83578019Y-102458025D01*
X83561321Y-102432951D01*
X83555163Y-102395308D01*
X83555163Y-101493930D01*
X83561321Y-101456288D01*
X83578019Y-101431214D01*
X83606002Y-101415334D01*
X83650113Y-101409239D01*
X83983443Y-101409239D01*
X84029072Y-101415411D01*
X84057848Y-101431416D01*
X84074889Y-101456503D01*
X84081140Y-101493930D01*
X84081140Y-101760949D01*
X83921955Y-101760949D01*
X83921955Y-101546015D01*
X83715020Y-101546015D01*
X83715020Y-102343224D01*
X83921955Y-102343224D01*
X83921955Y-102120474D01*
X84081140Y-102120474D01*
X84081140Y-102395308D01*
G37*
G36*
X84755312Y-102077487D02*
G01*
X84546973Y-102077487D01*
X84546973Y-102280697D01*
X84401465Y-102280697D01*
X84401465Y-102077487D01*
X84193126Y-102077487D01*
X84193126Y-101944619D01*
X84401465Y-101944619D01*
X84401465Y-101741409D01*
X84546973Y-101741409D01*
X84546973Y-101944619D01*
X84755312Y-101944619D01*
X84755312Y-102077487D01*
G37*
G36*
X85032711Y-102480000D02*
G01*
X84872854Y-102480000D01*
X84872854Y-101409239D01*
X85032711Y-101409239D01*
X85032711Y-102480000D01*
G37*
G36*
X85665300Y-101714237D02*
G01*
X85661842Y-101747162D01*
X85650729Y-101784173D01*
X85630434Y-101826284D01*
X85336732Y-102339316D01*
X85663956Y-102339316D01*
X85663956Y-102480000D01*
X85145490Y-102480000D01*
X85145490Y-102380348D01*
X85507519Y-101743668D01*
X85507519Y-101546015D01*
X85312857Y-101546015D01*
X85312857Y-101745317D01*
X85156420Y-101745317D01*
X85156420Y-101493930D01*
X85162671Y-101456503D01*
X85179712Y-101431416D01*
X85208489Y-101415411D01*
X85254117Y-101409239D01*
X85567663Y-101409239D01*
X85613258Y-101415409D01*
X85642017Y-101431411D01*
X85659050Y-101456499D01*
X85665300Y-101493930D01*
X85665300Y-101714237D01*
G37*
G36*
X86305704Y-102395308D02*
G01*
X86299453Y-102432735D01*
X86282412Y-102457823D01*
X86253635Y-102473827D01*
X86208007Y-102480000D01*
X85874677Y-102480000D01*
X85830566Y-102473904D01*
X85802582Y-102458025D01*
X85785885Y-102432951D01*
X85779727Y-102395308D01*
X85779727Y-101493930D01*
X85785885Y-101456288D01*
X85802582Y-101431214D01*
X85830566Y-101415334D01*
X85874677Y-101409239D01*
X86208007Y-101409239D01*
X86253635Y-101415411D01*
X86282412Y-101431416D01*
X86299453Y-101456503D01*
X86305704Y-101493930D01*
X86305704Y-101760949D01*
X86146519Y-101760949D01*
X86146519Y-101546015D01*
X85939584Y-101546015D01*
X85939584Y-102343224D01*
X86146519Y-102343224D01*
X86146519Y-102120474D01*
X86305704Y-102120474D01*
X86305704Y-102395308D01*
G37*
D11*
G36*
X88011891Y-102485000D02*
G01*
X87771360Y-102485000D01*
X87947508Y-101425963D01*
X88001144Y-101192711D01*
X87604200Y-102281789D01*
X87476901Y-102281789D01*
X87440949Y-101192711D01*
X87417208Y-101425963D01*
X87241060Y-102485000D01*
X87000530Y-102485000D01*
X87356734Y-100343478D01*
X87592965Y-100343478D01*
X87659790Y-101522561D01*
X87650118Y-101619281D01*
X87672588Y-101522561D01*
X88131863Y-100343478D01*
X88368094Y-100343478D01*
X88011891Y-102485000D01*
G37*
G36*
X88492951Y-102485000D02*
G01*
X88242749Y-102485000D01*
X88598953Y-100343478D01*
X88849155Y-100343478D01*
X88492951Y-102485000D01*
G37*
G36*
X89555212Y-102485000D02*
G01*
X89336078Y-102485000D01*
X89159441Y-101137145D01*
X89149574Y-101291751D01*
X88951151Y-102485000D01*
X88707494Y-102485000D01*
X89063698Y-100343478D01*
X89282833Y-100343478D01*
X89464061Y-101663977D01*
X89467049Y-101570732D01*
X89473831Y-101509371D01*
X89667759Y-100343478D01*
X89911416Y-100343478D01*
X89555212Y-102485000D01*
G37*
G36*
X90473565Y-102485000D02*
G01*
X89779818Y-102485000D01*
X90136022Y-100343478D01*
X90823419Y-100343478D01*
X90776622Y-100624846D01*
X90339427Y-100624846D01*
X90235380Y-101250108D01*
X90611709Y-101250108D01*
X90566280Y-101523660D01*
X90189951Y-101523660D01*
X90076817Y-102203632D01*
X90520362Y-102203632D01*
X90473565Y-102485000D01*
G37*
G36*
X91520879Y-102485000D02*
G01*
X91260027Y-102485000D01*
X91149727Y-101489954D01*
X91181772Y-101297002D01*
X91427676Y-101297002D01*
X91540809Y-100617030D01*
X91225443Y-100617030D01*
X90914766Y-102485000D01*
X90664563Y-102485000D01*
X91020767Y-100343478D01*
X91684619Y-100343478D01*
X91753252Y-100355930D01*
X91791624Y-100387133D01*
X91809800Y-100436197D01*
X91807229Y-100512861D01*
X91669965Y-101338646D01*
X91649508Y-101409860D01*
X91617480Y-101458886D01*
X91572951Y-101490321D01*
X91521287Y-101502374D01*
X91407452Y-101508028D01*
X91520879Y-102485000D01*
G37*
G36*
X92885219Y-100343478D02*
G01*
X92208276Y-102485000D01*
X91959246Y-102485000D01*
X91995785Y-100343478D01*
X92246964Y-100343478D01*
X92190202Y-101809790D01*
X92166168Y-101992972D01*
X92203000Y-101809790D01*
X92635115Y-100343478D01*
X92885219Y-100343478D01*
G37*
G36*
X93539692Y-102485000D02*
G01*
X93291737Y-102485000D01*
X93309030Y-102078579D01*
X92995812Y-102078579D01*
X92877892Y-102485000D01*
X92631011Y-102485000D01*
X92631891Y-102479504D01*
X92846385Y-101805027D01*
X93074459Y-101805027D01*
X93319288Y-101805027D01*
X93357878Y-100839780D01*
X93074459Y-101805027D01*
X92846385Y-101805027D01*
X93311179Y-100343478D01*
X93574180Y-100343478D01*
X93539692Y-102485000D01*
G37*
G36*
X95174263Y-102485000D02*
G01*
X94933733Y-102485000D01*
X95109881Y-101425963D01*
X95163517Y-101192711D01*
X94766573Y-102281789D01*
X94639274Y-102281789D01*
X94603321Y-101192711D01*
X94579581Y-101425963D01*
X94403433Y-102485000D01*
X94162903Y-102485000D01*
X94519106Y-100343478D01*
X94755338Y-100343478D01*
X94822163Y-101522561D01*
X94812491Y-101619281D01*
X94834961Y-101522561D01*
X95294235Y-100343478D01*
X95530467Y-100343478D01*
X95174263Y-102485000D01*
G37*
G36*
X96244438Y-102485000D02*
G01*
X95968541Y-102485000D01*
X95809392Y-101533429D01*
X95651123Y-102485000D01*
X95400921Y-102485000D01*
X95757124Y-100343478D01*
X96007327Y-100343478D01*
X95855994Y-101253405D01*
X96285177Y-100343478D01*
X96558925Y-100343478D01*
X96556385Y-100358499D01*
X96046699Y-101379068D01*
X96244438Y-102485000D01*
G37*
G36*
X97405764Y-100953475D02*
G01*
X97376824Y-101054116D01*
X97314026Y-101177568D01*
X96683684Y-102203632D01*
X97195812Y-102203632D01*
X97149016Y-102485000D01*
X96337543Y-102485000D01*
X96370662Y-102285697D01*
X97149113Y-101012337D01*
X97214863Y-100617030D01*
X96910146Y-100617030D01*
X96843810Y-101015635D01*
X96598981Y-101015635D01*
X96682609Y-100512861D01*
X96704834Y-100438083D01*
X96740646Y-100387115D01*
X96791762Y-100355260D01*
X96863740Y-100343478D01*
X97354473Y-100343478D01*
X97424190Y-100356005D01*
X97463097Y-100387330D01*
X97481506Y-100436404D01*
X97479036Y-100512861D01*
X97405764Y-100953475D01*
G37*
D12*
X86056666Y-79974809D02*
X85890000Y-79736714D01*
X85770952Y-79974809D02*
X85770952Y-79474809D01*
X85770952Y-79474809D02*
X85961428Y-79474809D01*
X85961428Y-79474809D02*
X86009047Y-79498619D01*
X86009047Y-79498619D02*
X86032857Y-79522428D01*
X86032857Y-79522428D02*
X86056666Y-79570047D01*
X86056666Y-79570047D02*
X86056666Y-79641476D01*
X86056666Y-79641476D02*
X86032857Y-79689095D01*
X86032857Y-79689095D02*
X86009047Y-79712904D01*
X86009047Y-79712904D02*
X85961428Y-79736714D01*
X85961428Y-79736714D02*
X85770952Y-79736714D01*
X86532857Y-79974809D02*
X86247143Y-79974809D01*
X86390000Y-79974809D02*
X86390000Y-79474809D01*
X86390000Y-79474809D02*
X86342381Y-79546238D01*
X86342381Y-79546238D02*
X86294762Y-79593857D01*
X86294762Y-79593857D02*
X86247143Y-79617666D01*
D13*
X60054319Y-71523332D02*
X60961462Y-71523332D01*
X60961462Y-71523332D02*
X61142890Y-71583809D01*
X61142890Y-71583809D02*
X61263843Y-71704761D01*
X61263843Y-71704761D02*
X61324319Y-71886190D01*
X61324319Y-71886190D02*
X61324319Y-72007142D01*
X60175271Y-70979047D02*
X60114795Y-70918571D01*
X60114795Y-70918571D02*
X60054319Y-70797618D01*
X60054319Y-70797618D02*
X60054319Y-70495237D01*
X60054319Y-70495237D02*
X60114795Y-70374285D01*
X60114795Y-70374285D02*
X60175271Y-70313809D01*
X60175271Y-70313809D02*
X60296223Y-70253332D01*
X60296223Y-70253332D02*
X60417176Y-70253332D01*
X60417176Y-70253332D02*
X60598604Y-70313809D01*
X60598604Y-70313809D02*
X61324319Y-71039523D01*
X61324319Y-71039523D02*
X61324319Y-70253332D01*
D14*
X71113095Y-90729819D02*
X71113095Y-91539342D01*
X71113095Y-91539342D02*
X71160714Y-91634580D01*
X71160714Y-91634580D02*
X71208333Y-91682200D01*
X71208333Y-91682200D02*
X71303571Y-91729819D01*
X71303571Y-91729819D02*
X71494047Y-91729819D01*
X71494047Y-91729819D02*
X71589285Y-91682200D01*
X71589285Y-91682200D02*
X71636904Y-91634580D01*
X71636904Y-91634580D02*
X71684523Y-91539342D01*
X71684523Y-91539342D02*
X71684523Y-90729819D01*
X72589285Y-90729819D02*
X72398809Y-90729819D01*
X72398809Y-90729819D02*
X72303571Y-90777438D01*
X72303571Y-90777438D02*
X72255952Y-90825057D01*
X72255952Y-90825057D02*
X72160714Y-90967914D01*
X72160714Y-90967914D02*
X72113095Y-91158390D01*
X72113095Y-91158390D02*
X72113095Y-91539342D01*
X72113095Y-91539342D02*
X72160714Y-91634580D01*
X72160714Y-91634580D02*
X72208333Y-91682200D01*
X72208333Y-91682200D02*
X72303571Y-91729819D01*
X72303571Y-91729819D02*
X72494047Y-91729819D01*
X72494047Y-91729819D02*
X72589285Y-91682200D01*
X72589285Y-91682200D02*
X72636904Y-91634580D01*
X72636904Y-91634580D02*
X72684523Y-91539342D01*
X72684523Y-91539342D02*
X72684523Y-91301247D01*
X72684523Y-91301247D02*
X72636904Y-91206009D01*
X72636904Y-91206009D02*
X72589285Y-91158390D01*
X72589285Y-91158390D02*
X72494047Y-91110771D01*
X72494047Y-91110771D02*
X72303571Y-91110771D01*
X72303571Y-91110771D02*
X72208333Y-91158390D01*
X72208333Y-91158390D02*
X72160714Y-91206009D01*
X72160714Y-91206009D02*
X72113095Y-91301247D01*
X71875000Y-82779619D02*
X71875000Y-83017714D01*
X71636905Y-82922476D02*
X71875000Y-83017714D01*
X71875000Y-83017714D02*
X72113095Y-82922476D01*
X71732143Y-83208190D02*
X71875000Y-83017714D01*
X71875000Y-83017714D02*
X72017857Y-83208190D01*
X71875000Y-82779619D02*
X71875000Y-83017714D01*
X71636905Y-82922476D02*
X71875000Y-83017714D01*
X71875000Y-83017714D02*
X72113095Y-82922476D01*
X71732143Y-83208190D02*
X71875000Y-83017714D01*
X71875000Y-83017714D02*
X72017857Y-83208190D01*
X95564819Y-67638094D02*
X94564819Y-67638094D01*
X94564819Y-67638094D02*
X94564819Y-67399999D01*
X94564819Y-67399999D02*
X94612438Y-67257142D01*
X94612438Y-67257142D02*
X94707676Y-67161904D01*
X94707676Y-67161904D02*
X94802914Y-67114285D01*
X94802914Y-67114285D02*
X94993390Y-67066666D01*
X94993390Y-67066666D02*
X95136247Y-67066666D01*
X95136247Y-67066666D02*
X95326723Y-67114285D01*
X95326723Y-67114285D02*
X95421961Y-67161904D01*
X95421961Y-67161904D02*
X95517200Y-67257142D01*
X95517200Y-67257142D02*
X95564819Y-67399999D01*
X95564819Y-67399999D02*
X95564819Y-67638094D01*
X95564819Y-66114285D02*
X95564819Y-66685713D01*
X95564819Y-66399999D02*
X94564819Y-66399999D01*
X94564819Y-66399999D02*
X94707676Y-66495237D01*
X94707676Y-66495237D02*
X94802914Y-66590475D01*
X94802914Y-66590475D02*
X94850533Y-66685713D01*
X72479819Y-72361904D02*
X73289342Y-72361904D01*
X73289342Y-72361904D02*
X73384580Y-72314285D01*
X73384580Y-72314285D02*
X73432200Y-72266666D01*
X73432200Y-72266666D02*
X73479819Y-72171428D01*
X73479819Y-72171428D02*
X73479819Y-71980952D01*
X73479819Y-71980952D02*
X73432200Y-71885714D01*
X73432200Y-71885714D02*
X73384580Y-71838095D01*
X73384580Y-71838095D02*
X73289342Y-71790476D01*
X73289342Y-71790476D02*
X72479819Y-71790476D01*
X72813152Y-70885714D02*
X73479819Y-70885714D01*
X72432200Y-71123809D02*
X73146485Y-71361904D01*
X73146485Y-71361904D02*
X73146485Y-70742857D01*
D13*
X89232380Y-85964318D02*
X89232380Y-86992413D01*
X89232380Y-86992413D02*
X89292857Y-87113365D01*
X89292857Y-87113365D02*
X89353333Y-87173842D01*
X89353333Y-87173842D02*
X89474285Y-87234318D01*
X89474285Y-87234318D02*
X89716190Y-87234318D01*
X89716190Y-87234318D02*
X89837142Y-87173842D01*
X89837142Y-87173842D02*
X89897619Y-87113365D01*
X89897619Y-87113365D02*
X89958095Y-86992413D01*
X89958095Y-86992413D02*
X89958095Y-85964318D01*
X91167618Y-85964318D02*
X90562856Y-85964318D01*
X90562856Y-85964318D02*
X90502380Y-86569080D01*
X90502380Y-86569080D02*
X90562856Y-86508603D01*
X90562856Y-86508603D02*
X90683809Y-86448127D01*
X90683809Y-86448127D02*
X90986190Y-86448127D01*
X90986190Y-86448127D02*
X91107142Y-86508603D01*
X91107142Y-86508603D02*
X91167618Y-86569080D01*
X91167618Y-86569080D02*
X91228095Y-86690032D01*
X91228095Y-86690032D02*
X91228095Y-86992413D01*
X91228095Y-86992413D02*
X91167618Y-87113365D01*
X91167618Y-87113365D02*
X91107142Y-87173842D01*
X91107142Y-87173842D02*
X90986190Y-87234318D01*
X90986190Y-87234318D02*
X90683809Y-87234318D01*
X90683809Y-87234318D02*
X90562856Y-87173842D01*
X90562856Y-87173842D02*
X90502380Y-87113365D01*
D14*
X92164403Y-67324002D02*
X92613406Y-67324002D01*
X91670500Y-67638304D02*
X92164403Y-67324002D01*
X92164403Y-67324002D02*
X91670500Y-67009700D01*
X92613406Y-66201495D02*
X92613406Y-66740298D01*
X92613406Y-66470897D02*
X91670500Y-66470897D01*
X91670500Y-66470897D02*
X91805201Y-66560697D01*
X91805201Y-66560697D02*
X91895001Y-66650498D01*
X91895001Y-66650498D02*
X91939902Y-66740298D01*
X89624819Y-74421904D02*
X90434342Y-74421904D01*
X90434342Y-74421904D02*
X90529580Y-74374285D01*
X90529580Y-74374285D02*
X90577200Y-74326666D01*
X90577200Y-74326666D02*
X90624819Y-74231428D01*
X90624819Y-74231428D02*
X90624819Y-74040952D01*
X90624819Y-74040952D02*
X90577200Y-73945714D01*
X90577200Y-73945714D02*
X90529580Y-73898095D01*
X90529580Y-73898095D02*
X90434342Y-73850476D01*
X90434342Y-73850476D02*
X89624819Y-73850476D01*
X89624819Y-73469523D02*
X89624819Y-72850476D01*
X89624819Y-72850476D02*
X90005771Y-73183809D01*
X90005771Y-73183809D02*
X90005771Y-73040952D01*
X90005771Y-73040952D02*
X90053390Y-72945714D01*
X90053390Y-72945714D02*
X90101009Y-72898095D01*
X90101009Y-72898095D02*
X90196247Y-72850476D01*
X90196247Y-72850476D02*
X90434342Y-72850476D01*
X90434342Y-72850476D02*
X90529580Y-72898095D01*
X90529580Y-72898095D02*
X90577200Y-72945714D01*
X90577200Y-72945714D02*
X90624819Y-73040952D01*
X90624819Y-73040952D02*
X90624819Y-73326666D01*
X90624819Y-73326666D02*
X90577200Y-73421904D01*
X90577200Y-73421904D02*
X90529580Y-73469523D01*
D12*
X89256666Y-79949809D02*
X89090000Y-79711714D01*
X88970952Y-79949809D02*
X88970952Y-79449809D01*
X88970952Y-79449809D02*
X89161428Y-79449809D01*
X89161428Y-79449809D02*
X89209047Y-79473619D01*
X89209047Y-79473619D02*
X89232857Y-79497428D01*
X89232857Y-79497428D02*
X89256666Y-79545047D01*
X89256666Y-79545047D02*
X89256666Y-79616476D01*
X89256666Y-79616476D02*
X89232857Y-79664095D01*
X89232857Y-79664095D02*
X89209047Y-79687904D01*
X89209047Y-79687904D02*
X89161428Y-79711714D01*
X89161428Y-79711714D02*
X88970952Y-79711714D01*
X89447143Y-79497428D02*
X89470952Y-79473619D01*
X89470952Y-79473619D02*
X89518571Y-79449809D01*
X89518571Y-79449809D02*
X89637619Y-79449809D01*
X89637619Y-79449809D02*
X89685238Y-79473619D01*
X89685238Y-79473619D02*
X89709047Y-79497428D01*
X89709047Y-79497428D02*
X89732857Y-79545047D01*
X89732857Y-79545047D02*
X89732857Y-79592666D01*
X89732857Y-79592666D02*
X89709047Y-79664095D01*
X89709047Y-79664095D02*
X89423333Y-79949809D01*
X89423333Y-79949809D02*
X89732857Y-79949809D01*
D14*
X86693333Y-67184580D02*
X86645714Y-67232200D01*
X86645714Y-67232200D02*
X86502857Y-67279819D01*
X86502857Y-67279819D02*
X86407619Y-67279819D01*
X86407619Y-67279819D02*
X86264762Y-67232200D01*
X86264762Y-67232200D02*
X86169524Y-67136961D01*
X86169524Y-67136961D02*
X86121905Y-67041723D01*
X86121905Y-67041723D02*
X86074286Y-66851247D01*
X86074286Y-66851247D02*
X86074286Y-66708390D01*
X86074286Y-66708390D02*
X86121905Y-66517914D01*
X86121905Y-66517914D02*
X86169524Y-66422676D01*
X86169524Y-66422676D02*
X86264762Y-66327438D01*
X86264762Y-66327438D02*
X86407619Y-66279819D01*
X86407619Y-66279819D02*
X86502857Y-66279819D01*
X86502857Y-66279819D02*
X86645714Y-66327438D01*
X86645714Y-66327438D02*
X86693333Y-66375057D01*
X87312381Y-66279819D02*
X87407619Y-66279819D01*
X87407619Y-66279819D02*
X87502857Y-66327438D01*
X87502857Y-66327438D02*
X87550476Y-66375057D01*
X87550476Y-66375057D02*
X87598095Y-66470295D01*
X87598095Y-66470295D02*
X87645714Y-66660771D01*
X87645714Y-66660771D02*
X87645714Y-66898866D01*
X87645714Y-66898866D02*
X87598095Y-67089342D01*
X87598095Y-67089342D02*
X87550476Y-67184580D01*
X87550476Y-67184580D02*
X87502857Y-67232200D01*
X87502857Y-67232200D02*
X87407619Y-67279819D01*
X87407619Y-67279819D02*
X87312381Y-67279819D01*
X87312381Y-67279819D02*
X87217143Y-67232200D01*
X87217143Y-67232200D02*
X87169524Y-67184580D01*
X87169524Y-67184580D02*
X87121905Y-67089342D01*
X87121905Y-67089342D02*
X87074286Y-66898866D01*
X87074286Y-66898866D02*
X87074286Y-66660771D01*
X87074286Y-66660771D02*
X87121905Y-66470295D01*
X87121905Y-66470295D02*
X87169524Y-66375057D01*
X87169524Y-66375057D02*
X87217143Y-66327438D01*
X87217143Y-66327438D02*
X87312381Y-66279819D01*
%TO.C,R1*%
D15*
X86412258Y-79152500D02*
X85937742Y-79152500D01*
X86412258Y-80197500D02*
X85937742Y-80197500D01*
%TO.C,U1*%
X83770000Y-63505000D02*
X83770000Y-99185000D01*
X83770000Y-99185000D02*
X96690000Y-99185000D01*
X89230000Y-63505000D02*
X83770000Y-63505000D01*
X96690000Y-63505000D02*
X91230000Y-63505000D01*
X96690000Y-99185000D02*
X96690000Y-63505000D01*
X91230000Y-63505000D02*
G75*
G02*
X89230000Y-63505000I-1000000J0D01*
G01*
%TO.C,J2*%
D16*
X57850001Y-65600000D02*
X57850001Y-76600000D01*
X57850001Y-76600000D02*
X58050001Y-76600000D01*
X58050001Y-65600000D02*
X57850001Y-65600000D01*
X62050001Y-65600000D02*
X61750001Y-65600000D01*
X62050001Y-67800001D02*
X62050001Y-65600000D01*
X62050001Y-74399999D02*
X62050001Y-76600000D01*
X62050001Y-76600000D02*
X61750001Y-76600000D01*
D11*
D17*
X64050001Y-68500000D02*
X64050000Y-68500000D01*
X64050000Y-68500000D01*
X64050000Y-68500000D01*
X64050000Y-68500000D01*
X64050000Y-68500000D01*
X64050000Y-68500000D01*
X64050000Y-68500000D01*
X64050000Y-68499999D01*
X64050000Y-68499999D01*
X64050000Y-68499999D01*
X64050000Y-68499999D01*
X64050000Y-68499999D01*
X64050001Y-68499999D01*
X64050001Y-68499999D01*
X64050001Y-68499999D01*
X64050001Y-68499999D01*
X64050001Y-68499999D01*
X64050001Y-68499999D01*
X64050001Y-68499999D01*
X64050001Y-68499999D01*
X64050001Y-68499999D01*
X64050001Y-68499999D01*
X64050001Y-68499999D01*
X64050001Y-68499999D01*
X64050002Y-68499999D01*
X64050002Y-68499999D01*
X64050002Y-68499999D01*
X64050002Y-68499999D01*
X64050002Y-68499999D01*
X64050002Y-68499999D01*
X64050002Y-68500000D01*
X64050002Y-68500000D01*
X64050002Y-68500000D01*
X64050002Y-68500000D01*
X64050002Y-68500000D01*
X64050002Y-68500000D01*
X64050002Y-68500000D01*
X64050001Y-68500000D01*
X64050001Y-68500000D02*
X64050002Y-68500000D01*
X64050002Y-68500000D01*
X64050002Y-68500000D01*
X64050002Y-68500000D01*
X64050002Y-68500000D01*
X64050002Y-68500000D01*
X64050002Y-68500001D01*
X64050002Y-68500001D01*
X64050002Y-68500001D01*
X64050002Y-68500001D01*
X64050002Y-68500001D01*
X64050002Y-68500001D01*
X64050002Y-68500001D01*
X64050001Y-68500001D01*
X64050001Y-68500001D01*
X64050001Y-68500001D01*
X64050001Y-68500001D01*
X64050001Y-68500001D01*
X64050001Y-68500001D01*
X64050001Y-68500001D01*
X64050001Y-68500001D01*
X64050001Y-68500001D01*
X64050001Y-68500001D01*
X64050001Y-68500001D01*
X64050001Y-68500001D01*
X64050000Y-68500001D01*
X64050000Y-68500001D01*
X64050000Y-68500001D01*
X64050000Y-68500001D01*
X64050000Y-68500001D01*
X64050000Y-68500001D01*
X64050000Y-68500000D01*
X64050000Y-68500000D01*
X64050000Y-68500000D01*
X64050000Y-68500000D01*
X64050000Y-68500000D01*
X64050000Y-68500000D01*
X64050001Y-68500000D01*
D11*
D17*
X64050001Y-68700000D02*
X64050000Y-68700000D01*
X64050000Y-68700000D01*
X64050000Y-68700000D01*
X64050000Y-68700000D01*
X64050000Y-68700000D01*
X64050000Y-68700000D01*
X64050000Y-68700000D01*
X64050000Y-68699999D01*
X64050000Y-68699999D01*
X64050000Y-68699999D01*
X64050000Y-68699999D01*
X64050000Y-68699999D01*
X64050001Y-68699999D01*
X64050001Y-68699999D01*
X64050001Y-68699999D01*
X64050001Y-68699999D01*
X64050001Y-68699999D01*
X64050001Y-68699999D01*
X64050001Y-68699999D01*
X64050001Y-68699999D01*
X64050001Y-68699999D01*
X64050001Y-68699999D01*
X64050001Y-68699999D01*
X64050001Y-68699999D01*
X64050002Y-68699999D01*
X64050002Y-68699999D01*
X64050002Y-68699999D01*
X64050002Y-68699999D01*
X64050002Y-68699999D01*
X64050002Y-68699999D01*
X64050002Y-68700000D01*
X64050002Y-68700000D01*
X64050002Y-68700000D01*
X64050002Y-68700000D01*
X64050002Y-68700000D01*
X64050002Y-68700000D01*
X64050002Y-68700000D01*
X64050001Y-68700000D01*
X64050001Y-68700000D02*
X64050002Y-68700000D01*
X64050002Y-68700000D01*
X64050002Y-68700000D01*
X64050002Y-68700000D01*
X64050002Y-68700000D01*
X64050002Y-68700000D01*
X64050002Y-68700001D01*
X64050002Y-68700001D01*
X64050002Y-68700001D01*
X64050002Y-68700001D01*
X64050002Y-68700001D01*
X64050002Y-68700001D01*
X64050002Y-68700001D01*
X64050001Y-68700001D01*
X64050001Y-68700001D01*
X64050001Y-68700001D01*
X64050001Y-68700001D01*
X64050001Y-68700001D01*
X64050001Y-68700001D01*
X64050001Y-68700001D01*
X64050001Y-68700001D01*
X64050001Y-68700001D01*
X64050001Y-68700001D01*
X64050001Y-68700001D01*
X64050001Y-68700001D01*
X64050000Y-68700001D01*
X64050000Y-68700001D01*
X64050000Y-68700001D01*
X64050000Y-68700001D01*
X64050000Y-68700001D01*
X64050000Y-68700001D01*
X64050000Y-68700000D01*
X64050000Y-68700000D01*
X64050000Y-68700000D01*
X64050000Y-68700000D01*
X64050000Y-68700000D01*
X64050000Y-68700000D01*
X64050001Y-68700000D01*
D11*
X64050001Y-68500000D02*
G75*
G02*
X64050001Y-68700000I0J-100000D01*
G01*
X64050001Y-68700000D02*
G75*
G02*
X64050001Y-68500000I0J100000D01*
G01*
%TO.C,U6*%
D18*
X62667500Y-80772100D02*
X62667500Y-101777900D01*
X62667500Y-101777900D02*
X81082500Y-101777900D01*
X81082500Y-80772100D02*
X62667500Y-80772100D01*
X81082500Y-101777900D02*
X81082500Y-80772100D01*
%TO.C,D1*%
D15*
X94135000Y-64640000D02*
X94135000Y-68300000D01*
X96035000Y-64640000D02*
X94135000Y-64640000D01*
X96035000Y-64640000D02*
X96035000Y-68300000D01*
%TO.C,U4*%
X65000000Y-63675000D02*
X65000000Y-70650000D01*
X65000000Y-72650000D02*
X65000000Y-78625000D01*
X65000000Y-78625000D02*
X66000000Y-79625000D01*
X66000000Y-79625000D02*
X80950000Y-79625000D01*
D16*
X67810000Y-66485000D02*
X69460000Y-66485000D01*
X67810000Y-68135000D02*
X67810000Y-66485000D01*
X67810000Y-75165000D02*
X67810000Y-75665000D01*
X67810000Y-75665000D02*
X68960000Y-76815000D01*
X68960000Y-76815000D02*
X69460000Y-76815000D01*
X78140000Y-66485000D02*
X76490000Y-66485000D01*
X78140000Y-68135000D02*
X78140000Y-66485000D01*
X78140000Y-75165000D02*
X78140000Y-76815000D01*
X78140000Y-76815000D02*
X76490000Y-76815000D01*
D15*
X80950000Y-63675000D02*
X65000000Y-63675000D01*
X80950000Y-79625000D02*
X80950000Y-63675000D01*
%TO.C,U5*%
D11*
X85725000Y-81515000D02*
X87550000Y-81515000D01*
X87900000Y-81560000D02*
X92500000Y-81560000D01*
X87900000Y-91760000D02*
X87900000Y-81560000D01*
X92500000Y-81560000D02*
X92500000Y-91760000D01*
X92500000Y-91760000D02*
X87900000Y-91760000D01*
%TO.C,Y1*%
D19*
X91335000Y-67425000D02*
X91335000Y-66425000D01*
X92935000Y-67425000D02*
X92935000Y-66425000D01*
%TO.C,U3*%
D15*
X84992747Y-71214155D02*
X84992747Y-76514155D01*
X84992747Y-76514155D02*
X95272747Y-76514155D01*
X95272747Y-71214155D02*
X84992747Y-71214155D01*
X95272747Y-72864155D02*
X95272747Y-71214155D01*
X95272747Y-76514155D02*
X95272747Y-74864156D01*
X95272747Y-74864156D02*
G75*
G02*
X95272747Y-72864156I1J1000000D01*
G01*
%TO.C,R2*%
X89612258Y-79152500D02*
X89137742Y-79152500D01*
X89612258Y-80197500D02*
X89137742Y-80197500D01*
%TO.C,C0*%
D18*
X84485100Y-65097800D02*
X84485100Y-66111050D01*
X84485100Y-67538950D02*
X84485100Y-68552200D01*
X84485100Y-68552200D02*
X89234900Y-68552200D01*
X89234900Y-65097800D02*
X84485100Y-65097800D01*
X89234900Y-66085650D02*
X89234900Y-65097800D01*
X89234900Y-68552200D02*
X89234900Y-67564350D01*
%TO.C,D2*%
D11*
X94074750Y-79025000D02*
X92374750Y-79025000D01*
X94924750Y-80325000D02*
X92374750Y-80325000D01*
%TD*%
M02*
