M48
; DRILL file KiCad 10.0.1 date 2026-08-31T16:03:15
; FORMAT={-:-/ absolute / metric / decimal}
; #@! TF.CreationDate,2026-08-31T16:03:15+02:00
; #@! TF.GenerationSoftware,Kicad,Pcbnew,10.0.1
; #@! TF.FileFunction,Plated,1,2,PTH
FMAT,2
METRIC
; #@! TA.AperFunction,Plated,PTH,ViaDrill
T1C0.400
; #@! TA.AperFunction,Plated,PTH,ComponentDrill
T2C0.800
; #@! TA.AperFunction,Plated,PTH,ComponentDrill
T3C1.800
; #@! TA.AperFunction,Plated,PTH,ComponentDrill
T4C1.900
%
G90
G05
T1
X57.658Y-64.77
X58.42Y-68.326
X58.42Y-71.12
X59.65Y-78.8
X59.75Y-63.325
X60.104Y-68.87
X60.104Y-70.37
X60.96Y-74.5
X62.278Y-74.628
X62.85Y-68.6
X62.85Y-71.1
X62.85Y-73.6
X62.85Y-69.85
X62.85Y-72.35
X63.5Y-66.802
X63.754Y-63.375
X63.825Y-96.775
X63.85Y-86.5
X63.875Y-82.475
X63.9Y-90.25
X63.9Y-93.725
X63.9Y-99.1
X64.8Y-69.5
X64.85Y-95.125
X65.4Y-100.975
X65.786Y-66.04
X65.786Y-68.834
X66.175Y-63.325
X66.225Y-75.925
X66.25Y-84.975
X66.363Y-86.195
X66.363Y-87.465
X66.363Y-88.735
X66.363Y-90.005
X66.363Y-91.275
X66.363Y-92.545
X66.363Y-96.355
X66.575Y-70.38
X66.909Y-71.882
X67.31Y-77.65
X67.7Y-65.975
X68.025Y-81.7
X68.065Y-98.057
X68.175Y-95.1
X68.25Y-101.05
X68.825Y-86.425
X68.875Y-75.725
X68.922Y-69.11
X68.922Y-70.38
X68.922Y-71.65
X68.922Y-74.19
X69.1Y-79.125
X69.335Y-98.057
X69.525Y-88.95
X70.358Y-63.246
X70.358Y-65.875
X70.435Y-67.597
X70.575Y-77.5
X70.605Y-98.057
X70.625Y-93.815
X71.575Y-101.075
X71.65Y-81.7
X71.705Y-67.597
X71.705Y-75.703
X71.8Y-86.48
X72.766Y-93.089
X72.975Y-75.703
X73.145Y-82.25
X73.198Y-72.398
X73.727Y-92.813
X73.914Y-69.85
X74.0Y-79.075
X74.245Y-75.703
X74.25Y-77.55
X74.325Y-65.875
X74.415Y-84.493
X74.422Y-63.246
X74.975Y-101.075
X75.25Y-69.8
X75.25Y-73.425
X75.3Y-93.425
X75.325Y-96.225
X76.85Y-82.8
X77.028Y-72.92
X77.028Y-74.19
X77.05Y-75.925
X77.075Y-81.7
X77.55Y-65.875
X78.175Y-79.7
X78.45Y-101.125
X78.575Y-67.2
X78.876Y-86.049
X78.901Y-69.65
X79.2Y-89.925
X79.225Y-92.5
X79.502Y-71.882
X79.6Y-79.0
X79.6Y-80.65
X79.85Y-72.975
X80.175Y-63.375
X80.35Y-67.725
X80.675Y-83.8
X82.65Y-63.35
X82.875Y-101.05
X83.775Y-86.375
X83.826Y-84.425
X83.885Y-75.711
X84.35Y-88.175
X84.45Y-91.325
X84.766Y-89.084
X84.95Y-81.7
X85.75Y-93.176
X86.125Y-72.879
X86.638Y-84.755
X86.638Y-86.025
X86.638Y-91.105
X86.725Y-101.15
X86.825Y-98.05
X86.875Y-95.425
X87.376Y-76.454
X87.884Y-73.406
X88.625Y-66.825
X89.2Y-83.0
X90.0Y-101.125
X90.678Y-75.781
X90.772Y-83.518
X90.825Y-89.025
X91.43Y-73.8
X91.868Y-82.422
X92.063Y-79.675
X92.135Y-68.175
X93.003Y-93.037
X93.275Y-101.15
X93.686Y-88.489
X93.762Y-83.485
X93.762Y-86.025
X93.762Y-87.295
X93.762Y-89.835
X93.95Y-73.765
X93.95Y-75.315
X94.93Y-64.15
X95.798Y-77.923
X95.875Y-101.2
X97.9Y-63.375
T2
X82.61Y-64.835
X82.61Y-67.375
X82.61Y-69.915
X82.61Y-72.455
X82.61Y-74.995
X82.61Y-77.535
X82.61Y-80.075
X82.61Y-82.615
X82.61Y-85.155
X82.61Y-87.695
X82.61Y-90.235
X82.61Y-92.775
X82.61Y-95.315
X82.61Y-97.855
X86.323Y-70.054
X86.323Y-77.674
X88.863Y-77.674
X88.863Y-70.054
X91.403Y-70.054
X91.403Y-77.674
X93.943Y-70.054
X93.943Y-77.674
X97.85Y-64.835
X97.85Y-67.375
X97.85Y-69.915
X97.85Y-72.455
X97.85Y-74.995
X97.85Y-77.535
X97.85Y-80.075
X97.85Y-82.615
X97.85Y-85.155
X97.85Y-87.695
X97.85Y-90.235
X97.85Y-92.775
X97.85Y-95.315
X97.85Y-97.855
T3
X95.485Y-96.55
T4
X84.865Y-96.55
M30
