%TF.GenerationSoftware,KiCad,Pcbnew,10.0.1*%
%TF.CreationDate,2026-08-30T17:34:36+02:00*%
%TF.ProjectId,QL_Minerva_MK2,514c5f4d-696e-4657-9276-615f4d4b322e,0.0*%
%TF.SameCoordinates,Original*%
%TF.FileFunction,Copper,L1,Top*%
%TF.FilePolarity,Positive*%
%FSLAX46Y46*%
G04 Gerber Fmt 4.6, Leading zero omitted, Abs format (unit mm)*
G04 Created by KiCad (PCBNEW 10.0.1) date 2026-08-30 17:34:36*
%MOMM*%
%LPD*%
G01*
G04 APERTURE LIST*
G04 Aperture macros list*
%AMRoundRect*
0 Rectangle with rounded corners*
0 $1 Rounding radius*
0 $2 $3 $4 $5 $6 $7 $8 $9 X,Y pos of 4 corners*
0 Add a 4 corners polygon primitive as box body*
4,1,4,$2,$3,$4,$5,$6,$7,$8,$9,$2,$3,0*
0 Add four circle primitives for the rounded corners*
1,1,$1+$1,$2,$3*
1,1,$1+$1,$4,$5*
1,1,$1+$1,$6,$7*
1,1,$1+$1,$8,$9*
0 Add four rect primitives between the rounded corners*
20,1,$1+$1,$2,$3,$4,$5,0*
20,1,$1+$1,$4,$5,$6,$7,0*
20,1,$1+$1,$6,$7,$8,$9,0*
20,1,$1+$1,$8,$9,$2,$3,0*%
G04 Aperture macros list end*
%TA.AperFunction,SMDPad,CuDef*%
%ADD10RoundRect,0.200000X0.200000X0.275000X-0.200000X0.275000X-0.200000X-0.275000X0.200000X-0.275000X0*%
%TD*%
%TA.AperFunction,ComponentPad*%
%ADD11RoundRect,0.250000X-0.550000X-0.550000X0.550000X-0.550000X0.550000X0.550000X-0.550000X0.550000X0*%
%TD*%
%TA.AperFunction,ComponentPad*%
%ADD12C,1.600000*%
%TD*%
%TA.AperFunction,SMDPad,CuDef*%
%ADD13R,1.600000X0.800000*%
%TD*%
%TA.AperFunction,SMDPad,CuDef*%
%ADD14R,3.000000X2.100000*%
%TD*%
%TA.AperFunction,SMDPad,CuDef*%
%ADD15R,0.762000X1.778000*%
%TD*%
%TA.AperFunction,SMDPad,CuDef*%
%ADD16R,1.778000X0.762000*%
%TD*%
%TA.AperFunction,ComponentPad*%
%ADD17C,2.200000*%
%TD*%
%TA.AperFunction,SMDPad,CuDef*%
%ADD18R,4.000000X4.000000*%
%TD*%
%TA.AperFunction,SMDPad,CuDef*%
%ADD19R,1.200000X1.200000*%
%TD*%
%TA.AperFunction,SMDPad,CuDef*%
%ADD20R,1.925000X0.700000*%
%TD*%
%TA.AperFunction,SMDPad,CuDef*%
%ADD21R,0.700000X1.925000*%
%TD*%
%TA.AperFunction,SMDPad,CuDef*%
%ADD22R,1.825000X0.700000*%
%TD*%
%TA.AperFunction,SMDPad,CuDef*%
%ADD23R,1.800000X1.000000*%
%TD*%
%TA.AperFunction,ComponentPad*%
%ADD24RoundRect,0.250000X-0.550000X0.550000X-0.550000X-0.550000X0.550000X-0.550000X0.550000X0.550000X0*%
%TD*%
%TA.AperFunction,SMDPad,CuDef*%
%ADD25R,1.500000X0.812800*%
%TD*%
%TA.AperFunction,SMDPad,CuDef*%
%ADD26R,1.500000X0.863600*%
%TD*%
%TA.AperFunction,SMDPad,CuDef*%
%ADD27R,1.075000X0.500000*%
%TD*%
%TA.AperFunction,ViaPad*%
%ADD28C,0.800000*%
%TD*%
%TA.AperFunction,Conductor*%
%ADD29C,0.250000*%
%TD*%
%TA.AperFunction,Conductor*%
%ADD30C,0.500000*%
%TD*%
G04 APERTURE END LIST*
D10*
%TO.P,R1,1*%
%TO.N,+5V*%
X87000000Y-79675000D03*
%TO.P,R1,2*%
%TO.N,/SDA*%
X85350000Y-79675000D03*
%TD*%
D11*
%TO.P,U1,1,A15_1*%
%TO.N,+5V*%
X82610000Y-64835000D03*
D12*
%TO.P,U1,2,A12_2*%
%TO.N,/A12*%
X82610000Y-67375000D03*
%TO.P,U1,3,A7_3*%
%TO.N,/A7*%
X82610000Y-69915000D03*
%TO.P,U1,4,A6_4*%
%TO.N,/A6*%
X82610000Y-72455000D03*
%TO.P,U1,5,A5_5*%
%TO.N,/A5*%
X82610000Y-74995000D03*
%TO.P,U1,6,A4_6*%
%TO.N,/A4*%
X82610000Y-77535000D03*
%TO.P,U1,7,A3_7*%
%TO.N,/A3*%
X82610000Y-80075000D03*
%TO.P,U1,8,A2_8*%
%TO.N,/A2*%
X82610000Y-82615000D03*
%TO.P,U1,9,A1_9*%
%TO.N,/A1*%
X82610000Y-85155000D03*
%TO.P,U1,10,A0_10*%
%TO.N,/A0*%
X82610000Y-87695000D03*
%TO.P,U1,11,D0_11*%
%TO.N,/D0*%
X82610000Y-90235000D03*
%TO.P,U1,12,D1_12*%
%TO.N,/D1*%
X82610000Y-92775000D03*
%TO.P,U1,13,D2_13*%
%TO.N,/D2*%
X82610000Y-95315000D03*
%TO.P,U1,14,GND_14*%
%TO.N,GND*%
X82610000Y-97855000D03*
%TO.P,U1,15,D3_15*%
%TO.N,/D3*%
X97850000Y-97855000D03*
%TO.P,U1,16,D4_16*%
%TO.N,/D4*%
X97850000Y-95315000D03*
%TO.P,U1,17,D5_17*%
%TO.N,/D5*%
X97850000Y-92775000D03*
%TO.P,U1,18,D6_18*%
%TO.N,/D6*%
X97850000Y-90235000D03*
%TO.P,U1,19,D7_19*%
%TO.N,/D7*%
X97850000Y-87695000D03*
%TO.P,U1,20,~{CE}_20*%
%TO.N,/A15*%
X97850000Y-85155000D03*
%TO.P,U1,21,A10_21*%
%TO.N,/A10*%
X97850000Y-82615000D03*
%TO.P,U1,22,~{OE/Vpp}_22*%
%TO.N,/QL_ROMOE*%
X97850000Y-80075000D03*
%TO.P,U1,23,A11_23*%
%TO.N,/A11*%
X97850000Y-77535000D03*
%TO.P,U1,24,A9_24*%
%TO.N,/A9*%
X97850000Y-74995000D03*
%TO.P,U1,25,A8_25*%
%TO.N,/A8*%
X97850000Y-72455000D03*
%TO.P,U1,26,A13_26*%
%TO.N,/A13*%
X97850000Y-69915000D03*
%TO.P,U1,27,A14_27*%
%TO.N,/A14*%
X97850000Y-67375000D03*
%TO.P,U1,28,VCC_28*%
%TO.N,+5V*%
X97850000Y-64835000D03*
%TD*%
D13*
%TO.P,J2,1,Pin_1_1*%
%TO.N,/SDA*%
X62850000Y-68600000D03*
%TO.P,J2,2,Pin_2_2*%
%TO.N,/SCL*%
X62850001Y-69850000D03*
%TO.P,J2,3,Pin_3_3*%
%TO.N,GND*%
X62850000Y-71100000D03*
%TO.P,J2,4,Pin_4_4*%
%TO.N,+5V*%
X62850001Y-72350000D03*
%TO.P,J2,5,Pin_5_5*%
%TO.N,/K*%
X62850000Y-73600000D03*
D14*
%TO.P,J2,MP1*%
%TO.N,N/C*%
X59950001Y-66050000D03*
%TO.P,J2,MP2*%
X59950001Y-76150000D03*
%TD*%
D15*
%TO.P,U6,1,NC_1*%
%TO.N,unconnected-(U6-NC-Pad1)*%
X71875000Y-84493200D03*
%TO.P,U6,2,A15_2*%
%TO.N,/A15*%
X70605000Y-84493200D03*
%TO.P,U6,3,A12_3*%
%TO.N,/A12*%
X69335000Y-84493200D03*
%TO.P,U6,4,A7_4*%
%TO.N,/A7*%
X68065000Y-84493200D03*
D16*
%TO.P,U6,5,A6_5*%
%TO.N,/A6*%
X66363200Y-86195000D03*
%TO.P,U6,6,A5_6*%
%TO.N,/A5*%
X66363200Y-87465000D03*
%TO.P,U6,7,A4_7*%
%TO.N,/A4*%
X66363200Y-88735000D03*
%TO.P,U6,8,A3_8*%
%TO.N,/A3*%
X66363200Y-90005000D03*
%TO.P,U6,9,A2_9*%
%TO.N,/A2*%
X66363200Y-91275000D03*
%TO.P,U6,10,A1_10*%
%TO.N,/A1*%
X66363200Y-92545000D03*
%TO.P,U6,11,A0_11*%
%TO.N,/A0*%
X66363200Y-93815000D03*
%TO.P,U6,12,NC_12*%
%TO.N,unconnected-(U6-NC-Pad12)*%
X66363200Y-95085000D03*
%TO.P,U6,13,O0_13*%
%TO.N,/D0*%
X66363200Y-96355000D03*
D15*
%TO.P,U6,14,O1_14*%
%TO.N,/D1*%
X68065000Y-98056800D03*
%TO.P,U6,15,O2_15*%
%TO.N,/D2*%
X69335000Y-98056800D03*
%TO.P,U6,16,GND_16*%
%TO.N,GND*%
X70605000Y-98056800D03*
%TO.P,U6,17,NC_17*%
%TO.N,unconnected-(U6-NC-Pad17)*%
X71875000Y-98056800D03*
%TO.P,U6,18,O3_18*%
%TO.N,/D3*%
X73145000Y-98056800D03*
%TO.P,U6,19,O4_19*%
%TO.N,/D4*%
X74415000Y-98056800D03*
%TO.P,U6,20,O5_20*%
%TO.N,/D5*%
X75685000Y-98056800D03*
D16*
%TO.P,U6,21,O6_21*%
%TO.N,/D6*%
X77386800Y-96355000D03*
%TO.P,U6,22,O7_22*%
%TO.N,/D7*%
X77386800Y-95085000D03*
%TO.P,U6,23,~{CE}_23*%
%TO.N,GND*%
X77386800Y-93815000D03*
%TO.P,U6,24,A10_24*%
%TO.N,/A10*%
X77386800Y-92545000D03*
%TO.P,U6,25,~{OE}/VPP_25*%
%TO.N,/IC_ROMOE*%
X77386800Y-91275000D03*
%TO.P,U6,26,NC_26*%
%TO.N,unconnected-(U6-NC-Pad26)*%
X77386800Y-90005000D03*
%TO.P,U6,27,A11_27*%
%TO.N,/A11*%
X77386800Y-88735000D03*
%TO.P,U6,28,A9_28*%
%TO.N,/A9*%
X77386800Y-87465000D03*
%TO.P,U6,29,A8_29*%
%TO.N,/A8*%
X77386800Y-86195000D03*
D15*
%TO.P,U6,30,A13_30*%
%TO.N,/A13*%
X75685000Y-84493200D03*
%TO.P,U6,31,A14_31*%
%TO.N,/A14*%
X74415000Y-84493200D03*
%TO.P,U6,32,VCC_32*%
%TO.N,+5V*%
X73145000Y-84493200D03*
%TD*%
D17*
%TO.P,J1,1,Pin_1_1*%
%TO.N,Net-(D2-A)*%
X84865000Y-96550000D03*
X95485000Y-96550000D03*
D18*
%TO.P,J1,2,Pin_2_2*%
%TO.N,GND*%
X90175000Y-96550000D03*
%TD*%
D19*
%TO.P,D1,1,K_1*%
%TO.N,/K*%
X95085000Y-65500001D03*
%TO.P,D1,2,A_2*%
%TO.N,+5V*%
X95085000Y-68299999D03*
%TD*%
D20*
%TO.P,U4,1,I1/CLK_1*%
%TO.N,/A15*%
X68922500Y-71650000D03*
%TO.P,U4,2,I2_2*%
%TO.N,/A14*%
X68922500Y-72920000D03*
%TO.P,U4,3,I3_3*%
%TO.N,/QL_ROMOE*%
X68922500Y-74190000D03*
D21*
%TO.P,U4,4,I4_4*%
%TO.N,/A5*%
X70435000Y-75702500D03*
%TO.P,U4,5,I5_5*%
%TO.N,/A4*%
X71705000Y-75702500D03*
%TO.P,U4,6,I6_6*%
%TO.N,Net-(SW1-B)*%
X72975000Y-75702500D03*
%TO.P,U4,7,I7_7*%
%TO.N,+5V*%
X74245000Y-75702500D03*
%TO.P,U4,8,I8_8*%
%TO.N,/A1*%
X75515000Y-75702500D03*
D20*
%TO.P,U4,9,I9_9*%
%TO.N,/A0*%
X77027500Y-74190000D03*
%TO.P,U4,10,GND_10*%
%TO.N,GND*%
X77027500Y-72920000D03*
%TO.P,U4,11,I10/~{OE}_11*%
%TO.N,/DECODE*%
X77027500Y-71650000D03*
%TO.P,U4,12,IO8_12*%
%TO.N,/D0*%
X77027500Y-70380000D03*
%TO.P,U4,13,IO7_13*%
%TO.N,unconnected-(U4-IO7-Pad13)*%
X77027500Y-69110000D03*
D21*
%TO.P,U4,14,IO6_14*%
%TO.N,unconnected-(U4-IO6-Pad14)*%
X75515000Y-67597500D03*
%TO.P,U4,15,IO5_15*%
%TO.N,unconnected-(U4-IO5-Pad15)*%
X74245000Y-67597500D03*
%TO.P,U4,16,IO4_16*%
%TO.N,unconnected-(U4-IO4-Pad16)*%
X72975000Y-67597500D03*
%TO.P,U4,17,I03_17*%
%TO.N,/SDA*%
X71705000Y-67597500D03*
%TO.P,U4,18,IO2_18*%
%TO.N,/SCL*%
X70435000Y-67597500D03*
D20*
%TO.P,U4,19,IO1_19*%
%TO.N,/IC_ROMOE*%
X68922500Y-69110000D03*
%TO.P,U4,20,VCC_20*%
%TO.N,+5V*%
X68922500Y-70380000D03*
%TD*%
D22*
%TO.P,U5,1*%
%TO.N,/A12*%
X86638000Y-82215000D03*
%TO.P,U5,2*%
%TO.N,/A7*%
X86638000Y-83485000D03*
%TO.P,U5,3*%
%TO.N,/A6*%
X86638000Y-84755000D03*
%TO.P,U5,4*%
%TO.N,/A3*%
X86638000Y-86025000D03*
%TO.P,U5,5*%
%TO.N,/A2*%
X86638000Y-87295000D03*
%TO.P,U5,6*%
%TO.N,+5V*%
X86638000Y-88565000D03*
%TO.P,U5,7*%
X86638000Y-89835000D03*
%TO.P,U5,8,GND_8*%
%TO.N,GND*%
X86638000Y-91105000D03*
%TO.P,U5,9*%
%TO.N,/DECODE*%
X93762000Y-91105000D03*
%TO.P,U5,10*%
%TO.N,/A15*%
X93762000Y-89835000D03*
%TO.P,U5,11*%
%TO.N,/A10*%
X93762000Y-88565000D03*
%TO.P,U5,12*%
%TO.N,/A11*%
X93762000Y-87295000D03*
%TO.P,U5,13*%
%TO.N,/A9*%
X93762000Y-86025000D03*
%TO.P,U5,14*%
%TO.N,/A8*%
X93762000Y-84755000D03*
%TO.P,U5,15*%
%TO.N,/A13*%
X93762000Y-83485000D03*
%TO.P,U5,16,VCC_16*%
%TO.N,+5V*%
X93762000Y-82215000D03*
%TD*%
D23*
%TO.P,Y1,1,1_1*%
%TO.N,Net-(U3-OSCI)*%
X92135000Y-68174999D03*
%TO.P,Y1,2,2_2*%
%TO.N,Net-(U3-OSCO)*%
X92135000Y-65675001D03*
%TD*%
D24*
%TO.P,U3,1,OSCI_1*%
%TO.N,Net-(U3-OSCI)*%
X93942747Y-70054155D03*
D12*
%TO.P,U3,2,OSCO_2*%
%TO.N,Net-(U3-OSCO)*%
X91402747Y-70054155D03*
%TO.P,U3,3,A0_3*%
%TO.N,GND*%
X88862748Y-70054155D03*
%TO.P,U3,4,Vss_4*%
X86322747Y-70054155D03*
%TO.P,U3,5,SDA_5*%
%TO.N,/SDA*%
X86322747Y-77674155D03*
%TO.P,U3,6,SCL_6*%
%TO.N,/SCL*%
X88862747Y-77674155D03*
%TO.P,U3,7,~{INT}_7*%
%TO.N,unconnected-(U3-~{INT}-Pad7)*%
X91402747Y-77674155D03*
%TO.P,U3,8,Vdd_8*%
%TO.N,/K*%
X93942747Y-77674155D03*
%TD*%
D10*
%TO.P,R2,1*%
%TO.N,+5V*%
X90200000Y-79675000D03*
%TO.P,R2,2*%
%TO.N,/SCL*%
X88550000Y-79675000D03*
%TD*%
D25*
%TO.P,C0,1*%
%TO.N,/K*%
X85000000Y-66825000D03*
D26*
%TO.P,C0,2*%
%TO.N,Net-(U3-OSCI)*%
X88700000Y-66825000D03*
%TD*%
D27*
%TO.P,D2,1,K_1*%
%TO.N,/K*%
X94386750Y-79675000D03*
%TO.P,D2,2,A_2*%
%TO.N,Net-(D2-A)*%
X92062750Y-79675000D03*
%TD*%
D28*
%TO.N,+5V*%
X74245000Y-75702500D03*
X62850001Y-72350000D03*
X73145000Y-82250000D03*
X89200000Y-83000000D03*
X60104000Y-68870000D03*
X91430000Y-73800000D03*
X66575000Y-70380000D03*
X68922500Y-70380000D03*
X90678000Y-75781000D03*
X91868008Y-82421992D03*
%TO.N,/SDA*%
X71705000Y-67597500D03*
X86124653Y-72879347D03*
X62850000Y-68600000D03*
%TO.N,/A12*%
X84950153Y-81699847D03*
X83885000Y-75710671D03*
%TO.N,/A7*%
X69100000Y-79125000D03*
X74000000Y-79075000D03*
X79600000Y-79000000D03*
X79850000Y-72975000D03*
%TO.N,/A6*%
X86638000Y-84755000D03*
X66363200Y-86195000D03*
%TO.N,/A5*%
X68875000Y-75725000D03*
X66363200Y-87465000D03*
X68825000Y-86425000D03*
X66250000Y-84975000D03*
X66225000Y-75925000D03*
%TO.N,/A4*%
X74250000Y-77550000D03*
X71705000Y-75702500D03*
X66363200Y-88735000D03*
%TO.N,/A3*%
X86638000Y-86025000D03*
X66363200Y-90005000D03*
%TO.N,/A2*%
X66363200Y-91275000D03*
%TO.N,/A1*%
X79600000Y-80650000D03*
X66363200Y-92545000D03*
X78875799Y-86048895D03*
X77050000Y-75925000D03*
%TO.N,/A0*%
X78175000Y-79700000D03*
X77027500Y-74190000D03*
X69525000Y-88950000D03*
X70625000Y-93815000D03*
X76850000Y-82800000D03*
%TO.N,/D0*%
X80350000Y-67725000D03*
X62278000Y-74628000D03*
X66363200Y-96355000D03*
%TO.N,/D1*%
X68065000Y-98056800D03*
%TO.N,/D2*%
X69335000Y-98056800D03*
%TO.N,GND*%
X79225000Y-92500000D03*
X68025000Y-81700000D03*
X77550000Y-65875000D03*
X77027500Y-72920000D03*
X74422000Y-63246000D03*
X57658000Y-64770000D03*
X86638000Y-91105000D03*
X95875000Y-101200000D03*
X71800000Y-86480000D03*
X73914000Y-69850000D03*
X65400000Y-100975000D03*
X63825000Y-96775000D03*
X87376000Y-76454000D03*
X74975000Y-101075000D03*
X78450000Y-101125000D03*
X58420000Y-68326000D03*
X79502000Y-71882000D03*
X79200000Y-89925000D03*
X93950000Y-73765000D03*
X63900000Y-90250000D03*
X66175000Y-63325000D03*
X80175000Y-63375000D03*
X62850000Y-71100000D03*
X71650000Y-81700000D03*
X63754000Y-63375000D03*
X82875000Y-101050000D03*
X63850000Y-86500000D03*
X68250000Y-101050000D03*
X63900000Y-93725000D03*
X63900000Y-99100000D03*
X71575000Y-101075000D03*
X70358000Y-63246000D03*
X70358000Y-65875000D03*
X93275000Y-101150000D03*
X73198008Y-72398008D03*
X90000000Y-101125000D03*
X70605000Y-98056800D03*
X87884000Y-73406000D03*
X90771992Y-83518008D03*
X74325000Y-65875000D03*
X63500000Y-66802000D03*
X59750000Y-63325000D03*
X65786000Y-66040000D03*
X65786000Y-68834000D03*
X82650000Y-63350000D03*
X86725000Y-101150000D03*
X77075000Y-81700000D03*
X97900000Y-63375000D03*
X59650000Y-78800000D03*
X58420000Y-71120000D03*
X63875000Y-82475000D03*
%TO.N,/D7*%
X84450000Y-91325000D03*
X93002958Y-93036991D03*
%TO.N,/A15*%
X66909000Y-71882000D03*
X93762000Y-89835000D03*
X67310000Y-77650000D03*
X72765724Y-93088534D03*
X68922500Y-71650000D03*
X70575000Y-77500000D03*
%TO.N,/A10*%
X84350000Y-88175000D03*
X93685847Y-88488847D03*
%TO.N,/QL_ROMOE*%
X68922500Y-74190000D03*
%TO.N,/A11*%
X93762000Y-87295000D03*
X83775000Y-86375000D03*
%TO.N,/A9*%
X83826000Y-84425000D03*
X93762000Y-86025000D03*
%TO.N,/A8*%
X95798442Y-77923442D03*
X86875000Y-95425000D03*
X84765761Y-89084476D03*
X75325000Y-96225000D03*
X90825000Y-89025000D03*
X85750000Y-93176000D03*
X73726929Y-92812689D03*
X75300000Y-93425000D03*
X86825000Y-98050000D03*
%TO.N,/A13*%
X93762000Y-83485000D03*
X80675000Y-83800000D03*
%TO.N,/A14*%
X74415000Y-84493200D03*
X78901416Y-69649999D03*
X75250000Y-73425000D03*
X75250000Y-69800000D03*
X78575000Y-67200000D03*
%TO.N,/SCL*%
X70435000Y-67597500D03*
X62850001Y-69850000D03*
%TO.N,/K*%
X67700000Y-65975000D03*
X62850000Y-73600000D03*
X93950000Y-75315000D03*
%TO.N,/IC_ROMOE*%
X68175000Y-95100000D03*
X64850000Y-95125000D03*
X68922500Y-69110000D03*
X64800000Y-69500000D03*
%TO.N,Net-(D2-A)*%
X92062750Y-79675000D03*
%TO.N,Net-(SW1-B)*%
X60960000Y-74499998D03*
X72975000Y-75702500D03*
X60104000Y-70370000D03*
%TO.N,Net-(U3-OSCI)*%
X92135000Y-68174999D03*
X88625300Y-66825000D03*
%TD*%
%TO.N,+5V*%
D29*
X90047000Y-80772000D02*
X90200000Y-80619000D01*
X87376000Y-80772000D02*
X87000000Y-80396000D01*
X88925000Y-88100000D02*
X88925000Y-83275000D01*
X93450845Y-71179155D02*
X94737847Y-71179155D01*
D30*
X68761413Y-64099000D02*
X68761412Y-64099000D01*
D29*
X91440000Y-73785000D02*
X91440000Y-73190000D01*
X88925000Y-83275000D02*
X89200000Y-83000000D01*
X91870000Y-82420000D02*
X93557000Y-82420000D01*
X90200000Y-79675000D02*
X90200000Y-76259000D01*
X95067747Y-69982253D02*
X95085000Y-69965000D01*
X95067747Y-70849255D02*
X95067747Y-69982253D01*
X90222000Y-80772000D02*
X90047000Y-80772000D01*
X66575000Y-65700000D02*
X67440000Y-64835000D01*
D30*
X83409999Y-64035001D02*
X97050001Y-64035001D01*
X68085412Y-64775000D02*
X68761413Y-64099000D01*
D29*
X73145000Y-77628280D02*
X74245000Y-76528280D01*
X86653000Y-88550000D02*
X88475000Y-88550000D01*
D30*
X67500000Y-64775000D02*
X68085412Y-64775000D01*
X67440000Y-64835000D02*
X67500000Y-64775000D01*
D29*
X91868008Y-82418008D02*
X90222000Y-80772000D01*
X94737847Y-71179155D02*
X95067747Y-70849255D01*
D30*
X68761412Y-64099000D02*
X78988588Y-64099000D01*
D29*
X61214000Y-69980000D02*
X60104000Y-68870000D01*
X61800001Y-72350000D02*
X61214000Y-71763999D01*
X95085000Y-69965000D02*
X95085000Y-68299999D01*
X90200000Y-76259000D02*
X90678000Y-75781000D01*
X87000000Y-80396000D02*
X87000000Y-79675000D01*
X91440000Y-73190000D02*
X93450845Y-71179155D01*
D30*
X82610000Y-64835000D02*
X83409999Y-64035001D01*
D29*
X61214000Y-71763999D02*
X61214000Y-69980000D01*
X90047000Y-80772000D02*
X87376000Y-80772000D01*
X90200000Y-80619000D02*
X90200000Y-79675000D01*
X88475000Y-88550000D02*
X88925000Y-88100000D01*
X91868008Y-82421992D02*
X91870000Y-82420000D01*
X86638000Y-88565000D02*
X86638000Y-89835000D01*
X73145000Y-82250000D02*
X73145000Y-77628280D01*
X66575000Y-70380000D02*
X66575000Y-65700000D01*
X73145000Y-84493200D02*
X73145000Y-82250000D01*
X95085000Y-67840000D02*
X97850000Y-65075000D01*
D30*
X78988588Y-64099000D02*
X79664588Y-64775000D01*
X79664588Y-64775000D02*
X82550000Y-64775000D01*
X97050001Y-64035001D02*
X97850000Y-64835000D01*
D29*
X91868008Y-82421992D02*
X91868008Y-82418008D01*
X62850001Y-72350000D02*
X61800001Y-72350000D01*
%TO.N,/SDA*%
X86322747Y-73077441D02*
X86322747Y-77674155D01*
X86124653Y-72879347D02*
X86322747Y-73077441D01*
X85350000Y-78646902D02*
X86322747Y-77674155D01*
X85350000Y-79675000D02*
X85350000Y-78646902D01*
%TO.N,/A12*%
X67634000Y-67041000D02*
X67974000Y-66701000D01*
X68426000Y-66249000D02*
X69549000Y-65126000D01*
X86638000Y-82215000D02*
X85465306Y-82215000D01*
X69900000Y-83278200D02*
X69900000Y-78750000D01*
X69549000Y-65126000D02*
X78563190Y-65126000D01*
X85465306Y-82215000D02*
X84950153Y-81699847D01*
X68426000Y-66275720D02*
X68426000Y-66249000D01*
X84159000Y-70791000D02*
X84575000Y-70375000D01*
X78563190Y-65126000D02*
X79863190Y-66426000D01*
X67634000Y-76484000D02*
X67634000Y-67041000D01*
X69335000Y-84493200D02*
X69898000Y-83930200D01*
X67974000Y-66701000D02*
X68000720Y-66701000D01*
X79863190Y-66426000D02*
X81661000Y-66426000D01*
X68000720Y-66701000D02*
X68426000Y-66275720D01*
X69898000Y-83930200D02*
X69898000Y-83278200D01*
X84575000Y-69340000D02*
X82610000Y-67375000D01*
X69898000Y-83278200D02*
X69900000Y-83278200D01*
X83885000Y-75710671D02*
X84159000Y-75436671D01*
X84159000Y-75436671D02*
X84159000Y-70791000D01*
X81661000Y-66426000D02*
X82610000Y-67375000D01*
X69900000Y-78750000D02*
X67634000Y-76484000D01*
X84575000Y-70375000D02*
X84575000Y-69340000D01*
%TO.N,/A7*%
X69399000Y-79424000D02*
X69100000Y-79125000D01*
X79600000Y-79050000D02*
X81925000Y-81375000D01*
X79850000Y-72675000D02*
X82610000Y-69915000D01*
X81925000Y-81375000D02*
X83600000Y-81375000D01*
X79850000Y-72975000D02*
X79850000Y-72675000D01*
X78575000Y-78025000D02*
X75050000Y-78025000D01*
X69399000Y-82426000D02*
X69399000Y-79424000D01*
X79550000Y-79000000D02*
X78575000Y-78025000D01*
X85710000Y-83485000D02*
X86638000Y-83485000D01*
X79600000Y-79000000D02*
X79600000Y-79050000D01*
X75050000Y-78025000D02*
X74000000Y-79075000D01*
X68065000Y-83760000D02*
X69399000Y-82426000D01*
X83600000Y-81375000D02*
X85710000Y-83485000D01*
X79600000Y-79000000D02*
X79550000Y-79000000D01*
%TO.N,/A5*%
X68897500Y-75702500D02*
X68875000Y-75725000D01*
X68825000Y-87225000D02*
X68585000Y-87465000D01*
X68825000Y-86425000D02*
X68825000Y-87225000D01*
X70435000Y-75702500D02*
X68897500Y-75702500D01*
X68585000Y-87465000D02*
X66363200Y-87465000D01*
X66225000Y-75925000D02*
X66225000Y-84950000D01*
X66225000Y-84950000D02*
X66250000Y-84975000D01*
%TO.N,/A4*%
X74265000Y-77535000D02*
X82610000Y-77535000D01*
X74250000Y-77550000D02*
X74265000Y-77535000D01*
%TO.N,/A2*%
X84065000Y-82615000D02*
X82610000Y-82615000D01*
X84551000Y-83101000D02*
X84065000Y-82615000D01*
X84551000Y-85676000D02*
X84551000Y-83101000D01*
X86170000Y-87295000D02*
X84551000Y-85676000D01*
%TO.N,/A1*%
X75515000Y-75702500D02*
X76827500Y-75702500D01*
X81450000Y-81600000D02*
X80500000Y-80650000D01*
X79734938Y-85799847D02*
X81450000Y-84084785D01*
X81450000Y-84084785D02*
X81450000Y-81600000D01*
X76827500Y-75702500D02*
X77050000Y-75925000D01*
X80500000Y-80650000D02*
X79600000Y-80650000D01*
X79124848Y-85799847D02*
X79734938Y-85799847D01*
X78875799Y-86048895D02*
X79124848Y-85799847D01*
%TO.N,/A0*%
X69475000Y-89000000D02*
X69475000Y-90675000D01*
X69525000Y-88950000D02*
X69475000Y-89000000D01*
X69475000Y-90675000D02*
X70625000Y-91825000D01*
X77375000Y-82800000D02*
X78175000Y-82000000D01*
X70625000Y-91825000D02*
X70625000Y-93815000D01*
X76850000Y-82800000D02*
X77375000Y-82800000D01*
X66498200Y-93950000D02*
X70490000Y-93950000D01*
X70490000Y-93950000D02*
X70625000Y-93815000D01*
X78175000Y-82000000D02*
X78175000Y-79700000D01*
%TO.N,/D0*%
X62900000Y-94201720D02*
X65053280Y-96355000D01*
X65053280Y-96355000D02*
X66363200Y-96355000D01*
X80350000Y-67725000D02*
X80350000Y-69226720D01*
X62900000Y-75250000D02*
X62900000Y-94201720D01*
X79050720Y-70526000D02*
X77173500Y-70526000D01*
X80350000Y-69226720D02*
X79050720Y-70526000D01*
X62278000Y-74628000D02*
X62900000Y-75250000D01*
%TO.N,GND*%
X58124001Y-68030001D02*
X58420000Y-68326000D01*
X59423001Y-63375000D02*
X58124001Y-64674000D01*
X74100000Y-81700000D02*
X77075000Y-81700000D01*
X87884000Y-73406000D02*
X87884000Y-75946000D01*
X58124001Y-64674000D02*
X58124001Y-68030001D01*
X65786000Y-68834000D02*
X65786000Y-66040000D01*
X63500000Y-66802000D02*
X63500000Y-66158000D01*
X73198008Y-72398008D02*
X73198008Y-72391992D01*
X59398001Y-78800000D02*
X59650000Y-78800000D01*
X63754000Y-63375000D02*
X59423001Y-63375000D01*
X73198008Y-72391992D02*
X73914000Y-71676000D01*
X63754000Y-65904000D02*
X63754000Y-63375000D01*
X87884000Y-75946000D02*
X87376000Y-76454000D01*
X73914000Y-71676000D02*
X73914000Y-69850000D01*
X66175000Y-63325000D02*
X65786000Y-63714000D01*
X65786000Y-63714000D02*
X65786000Y-66040000D01*
X63500000Y-66158000D02*
X63754000Y-65904000D01*
%TO.N,/D3*%
X74604000Y-100001000D02*
X95199000Y-100001000D01*
X95199000Y-100001000D02*
X97345000Y-97855000D01*
X73145000Y-98056800D02*
X73145000Y-98920000D01*
X74601810Y-100003190D02*
X74604000Y-100001000D01*
X74228190Y-100003190D02*
X74601810Y-100003190D01*
X73145000Y-98920000D02*
X74228190Y-100003190D01*
%TO.N,/D4*%
X93476000Y-98624000D02*
X93800000Y-98300000D01*
X93476000Y-98636810D02*
X93476000Y-98624000D01*
X74415000Y-98056800D02*
X74415000Y-99174190D01*
X94050000Y-94500000D02*
X97035000Y-94500000D01*
X92680810Y-99432000D02*
X93476000Y-98636810D01*
X97035000Y-94500000D02*
X97850000Y-95315000D01*
X74775000Y-99550000D02*
X92550000Y-99550000D01*
X93800000Y-94750000D02*
X94050000Y-94500000D01*
X92550000Y-99550000D02*
X92668000Y-99432000D01*
X74775000Y-99534190D02*
X74775000Y-99550000D01*
X92668000Y-99432000D02*
X92680810Y-99432000D01*
X74415000Y-99174190D02*
X74775000Y-99534190D01*
X93800000Y-98300000D02*
X93800000Y-94750000D01*
%TO.N,/D5*%
X92481190Y-98981000D02*
X92494000Y-98981000D01*
X93649000Y-94049000D02*
X96576000Y-94049000D01*
X92363190Y-99099000D02*
X92481190Y-98981000D01*
X75685000Y-98056800D02*
X76727200Y-99099000D01*
X93025000Y-98437190D02*
X93349000Y-98113190D01*
X76727200Y-99099000D02*
X92363190Y-99099000D01*
X93649000Y-94076000D02*
X93649000Y-94049000D01*
X96576000Y-94049000D02*
X97850000Y-92775000D01*
X93349000Y-98113190D02*
X93349000Y-94376000D01*
X92494000Y-98981000D02*
X93025000Y-98450000D01*
X93349000Y-94376000D02*
X93649000Y-94076000D01*
X93025000Y-98450000D02*
X93025000Y-98437190D01*
%TO.N,/D6*%
X93198000Y-93862190D02*
X93462190Y-93598000D01*
X79020000Y-96355000D02*
X81474000Y-93901000D01*
X93186190Y-93901000D02*
X93198000Y-93889190D01*
X81474000Y-93901000D02*
X93186190Y-93901000D01*
X93198000Y-93889190D02*
X93198000Y-93862190D01*
X93462190Y-93598000D02*
X94127000Y-93598000D01*
X94127000Y-93598000D02*
X97490000Y-90235000D01*
X77386800Y-96355000D02*
X79020000Y-96355000D01*
%TO.N,/D7*%
X93853000Y-93147000D02*
X96350000Y-90650000D01*
X96350000Y-90650000D02*
X96350000Y-89925000D01*
X78419595Y-95085000D02*
X82143595Y-91361000D01*
X93125000Y-93175000D02*
X93247380Y-93175000D01*
X96350000Y-89925000D02*
X97850000Y-88425000D01*
X82143595Y-91361000D02*
X84414000Y-91361000D01*
X93275380Y-93147000D02*
X93853000Y-93147000D01*
X93247380Y-93175000D02*
X93275380Y-93147000D01*
X84414000Y-91361000D02*
X84450000Y-91325000D01*
X77386800Y-95085000D02*
X78419595Y-95085000D01*
X93002958Y-93036991D02*
X93002958Y-93052958D01*
X93002958Y-93052958D02*
X93125000Y-93175000D01*
X97850000Y-88425000D02*
X97850000Y-87695000D01*
%TO.N,/A15*%
X66951000Y-77291000D02*
X67310000Y-77650000D01*
X94406500Y-89835000D02*
X95150000Y-89091500D01*
X72765724Y-93088534D02*
X72613534Y-93088534D01*
X66951000Y-71924000D02*
X66951000Y-77291000D01*
X95150000Y-88675000D02*
X97850000Y-85975000D01*
X70600000Y-77525000D02*
X70575000Y-77500000D01*
X70605000Y-91080000D02*
X70605000Y-84493200D01*
X97850000Y-85975000D02*
X97850000Y-85155000D01*
X66909000Y-71882000D02*
X66951000Y-71924000D01*
X95150000Y-89091500D02*
X95150000Y-88675000D01*
X70600000Y-84488200D02*
X70600000Y-77525000D01*
X72613534Y-93088534D02*
X70605000Y-91080000D01*
%TO.N,/A10*%
X81450000Y-89000000D02*
X77905000Y-92545000D01*
X94560000Y-88565000D02*
X96464750Y-86660250D01*
X83525000Y-89000000D02*
X81450000Y-89000000D01*
X84350000Y-88175000D02*
X83525000Y-89000000D01*
X96464750Y-84000250D02*
X97850000Y-82615000D01*
X93997190Y-88565000D02*
X94560000Y-88565000D01*
X96464750Y-86660250D02*
X96464750Y-84000250D01*
%TO.N,/A11*%
X96650000Y-83177190D02*
X96650000Y-78735000D01*
X95105000Y-87295000D02*
X96013750Y-86386250D01*
X96013750Y-86386250D02*
X96013750Y-83813440D01*
X80475000Y-86375000D02*
X78115000Y-88735000D01*
X96013750Y-83813440D02*
X96650000Y-83177190D01*
X93762000Y-87295000D02*
X95105000Y-87295000D01*
X83775000Y-86375000D02*
X80475000Y-86375000D01*
X96650000Y-78735000D02*
X97850000Y-77535000D01*
%TO.N,/A9*%
X83826000Y-84301000D02*
X83375000Y-83850000D01*
X83375000Y-83850000D02*
X82425000Y-83850000D01*
X96199000Y-78548190D02*
X96575000Y-78172190D01*
X82350000Y-83925000D02*
X82247595Y-83925000D01*
X95562750Y-85637250D02*
X95562750Y-83626630D01*
X96199000Y-82990380D02*
X96199000Y-78548190D01*
X83826000Y-84425000D02*
X83826000Y-84301000D01*
X78707595Y-87465000D02*
X77386800Y-87465000D01*
X96575000Y-76270000D02*
X97850000Y-74995000D01*
X95562750Y-83626630D02*
X96199000Y-82990380D01*
X93762000Y-86025000D02*
X95175000Y-86025000D01*
X95175000Y-86025000D02*
X95562750Y-85637250D01*
X82247595Y-83925000D02*
X78707595Y-87465000D01*
X96575000Y-78172190D02*
X96575000Y-76270000D01*
X82425000Y-83850000D02*
X82350000Y-83925000D01*
%TO.N,/A8*%
X73726929Y-92812689D02*
X74124501Y-92812689D01*
X90825000Y-86372500D02*
X90825000Y-89025000D01*
X75950000Y-90987190D02*
X75950000Y-86440000D01*
X85176000Y-90726000D02*
X84775000Y-90325000D01*
X76195000Y-86195000D02*
X77386800Y-86195000D01*
X75325000Y-93450000D02*
X75325000Y-96225000D01*
X95700000Y-78100000D02*
X95798442Y-78001558D01*
X95798442Y-78001558D02*
X95798442Y-77923442D01*
X95700000Y-82825000D02*
X95700000Y-78100000D01*
X74124501Y-92812689D02*
X75950000Y-90987190D01*
X85176000Y-91625720D02*
X85176000Y-90726000D01*
X84775000Y-89093715D02*
X84765761Y-89084476D01*
X92442500Y-84755000D02*
X90825000Y-86372500D01*
X92912000Y-84755000D02*
X92442500Y-84755000D01*
X85175000Y-91626720D02*
X85176000Y-91625720D01*
X94619750Y-84755000D02*
X95111750Y-84263000D01*
X86875000Y-95425000D02*
X86875000Y-98000000D01*
X92912250Y-84755000D02*
X94619750Y-84755000D01*
X84775000Y-90325000D02*
X84775000Y-89093715D01*
X75950000Y-86440000D02*
X76195000Y-86195000D01*
X85175000Y-92601000D02*
X85175000Y-91626720D01*
X95111750Y-83413250D02*
X95700000Y-82825000D01*
X85750000Y-93176000D02*
X85175000Y-92601000D01*
X75300000Y-93425000D02*
X75325000Y-93450000D01*
X86875000Y-98000000D02*
X86825000Y-98050000D01*
X95111750Y-84263000D02*
X95111750Y-83413250D01*
%TO.N,/A13*%
X79335080Y-84493200D02*
X79341880Y-84500000D01*
X75685000Y-84493200D02*
X79335080Y-84493200D01*
X79975000Y-84500000D02*
X80675000Y-83800000D01*
X79341880Y-84500000D02*
X79975000Y-84500000D01*
%TO.N,/A14*%
X79250000Y-67875000D02*
X79250000Y-69300000D01*
X75250000Y-73425000D02*
X75610000Y-73065000D01*
X78901416Y-69648584D02*
X78901416Y-69649999D01*
X68922500Y-72920000D02*
X69482500Y-73480000D01*
X79250000Y-69300000D02*
X78901416Y-69648584D01*
X75195000Y-73480000D02*
X75250000Y-73425000D01*
X69482500Y-73480000D02*
X75195000Y-73480000D01*
X78575000Y-67200000D02*
X79250000Y-67875000D01*
X75610000Y-73065000D02*
X75610000Y-70160000D01*
X75610000Y-70160000D02*
X75250000Y-69800000D01*
%TO.N,/SCL*%
X88862747Y-79362253D02*
X88862747Y-77674155D01*
X88550000Y-79675000D02*
X88862747Y-79362253D01*
%TO.N,/K*%
X85094700Y-66919700D02*
X85094700Y-68019192D01*
X89662000Y-74549810D02*
X90073190Y-74961000D01*
X78750000Y-64675000D02*
X69000000Y-64675000D01*
X94386750Y-79675000D02*
X93942747Y-79230997D01*
X93942747Y-79230997D02*
X93942747Y-77674155D01*
X86003663Y-68928155D02*
X86789152Y-68928155D01*
X87630000Y-69769003D02*
X87630000Y-71374000D01*
X80050000Y-65975000D02*
X78750000Y-64675000D01*
X86789152Y-68928155D02*
X87630000Y-69769003D01*
X85876507Y-64849001D02*
X94434000Y-64849001D01*
X87630000Y-71374000D02*
X89662000Y-73406000D01*
X85000000Y-66825000D02*
X84150000Y-65975000D01*
X94434000Y-64849001D02*
X95085000Y-65500001D01*
X69000000Y-64675000D02*
X67700000Y-65975000D01*
X89662000Y-73406000D02*
X89662000Y-74549810D01*
X90073190Y-74961000D02*
X91229592Y-74961000D01*
X85094700Y-66730300D02*
X85094700Y-65630808D01*
X93942747Y-75322253D02*
X93950000Y-75315000D01*
X84150000Y-65975000D02*
X80050000Y-65975000D01*
X91229592Y-74961000D02*
X93942747Y-77674155D01*
X93942747Y-77674155D02*
X93942747Y-75322253D01*
X85094700Y-68019192D02*
X86003663Y-68928155D01*
X85094700Y-65630808D02*
X85876507Y-64849001D01*
%TO.N,/IC_ROMOE*%
X64800000Y-69500000D02*
X64800000Y-95075000D01*
X76300000Y-91275000D02*
X72475000Y-95100000D01*
X64850000Y-95125000D02*
X64850000Y-95100000D01*
X72475000Y-95100000D02*
X68175000Y-95100000D01*
X64800000Y-95075000D02*
X64850000Y-95125000D01*
X77386800Y-91275000D02*
X76300000Y-91275000D01*
%TO.N,Net-(SW1-B)*%
X60104000Y-70370000D02*
X59944000Y-70530000D01*
X59944000Y-70530000D02*
X59944000Y-73483998D01*
X59944000Y-73483998D02*
X60960000Y-74499998D01*
%TO.N,/DECODE*%
X89925000Y-90700000D02*
X89925000Y-81700000D01*
X79125000Y-76325000D02*
X78500000Y-75700000D01*
X85577513Y-81280000D02*
X84754013Y-80456500D01*
X93762000Y-91105000D02*
X90330000Y-91105000D01*
X90330000Y-91105000D02*
X89925000Y-90700000D01*
X84012500Y-80456500D02*
X84012500Y-76837500D01*
X78500000Y-75700000D02*
X78500000Y-71875000D01*
X78275000Y-71650000D02*
X77027500Y-71650000D01*
X84012500Y-76837500D02*
X83500000Y-76325000D01*
X83500000Y-76325000D02*
X79125000Y-76325000D01*
X84754013Y-80456500D02*
X84012500Y-80456500D01*
X89505000Y-81280000D02*
X85577513Y-81280000D01*
X89925000Y-81700000D02*
X89505000Y-81280000D01*
X78500000Y-71875000D02*
X78275000Y-71650000D01*
%TO.N,Net-(U3-OSCO)*%
X90350000Y-66000000D02*
X90674999Y-65675001D01*
X90932000Y-69596000D02*
X90350000Y-69014000D01*
X90674999Y-65675001D02*
X92135000Y-65675001D01*
X90350000Y-69014000D02*
X90350000Y-66000000D01*
%TD*%
%TA.AperFunction,Conductor*%
%TO.N,GND*%
G36*
X81868510Y-89345502D02*
G01*
X81915003Y-89399158D01*
X81925107Y-89469432D01*
X81895613Y-89534012D01*
X81889484Y-89540595D01*
X81832863Y-89597215D01*
X81832858Y-89597222D01*
X81723368Y-89761085D01*
X81647950Y-89943161D01*
X81647949Y-89943164D01*
X81609500Y-90136455D01*
X81609500Y-90333544D01*
X81647949Y-90526835D01*
X81647950Y-90526838D01*
X81679115Y-90602078D01*
X81723368Y-90708914D01*
X81832861Y-90872782D01*
X81879845Y-90919766D01*
X81913078Y-90952999D01*
X81947103Y-91015312D01*
X81942037Y-91086127D01*
X81913077Y-91131189D01*
X78871895Y-94172372D01*
X78809583Y-94206398D01*
X78738768Y-94201333D01*
X78681932Y-94158786D01*
X78657121Y-94092266D01*
X78656800Y-94083277D01*
X78656800Y-94005500D01*
X76116800Y-94005500D01*
X76116800Y-94232159D01*
X76127590Y-94306216D01*
X76127591Y-94306218D01*
X76183435Y-94420450D01*
X76183436Y-94420452D01*
X76274553Y-94511569D01*
X76308579Y-94573881D01*
X76309037Y-94625246D01*
X76297300Y-94684249D01*
X76297300Y-95485750D01*
X76308932Y-95544228D01*
X76308933Y-95544231D01*
X76353247Y-95610551D01*
X76360258Y-95615236D01*
X76405785Y-95669714D01*
X76414631Y-95740157D01*
X76383989Y-95804201D01*
X76360258Y-95824764D01*
X76353247Y-95829448D01*
X76308933Y-95895768D01*
X76308932Y-95895771D01*
X76297300Y-95954249D01*
X76297300Y-96755750D01*
X76305583Y-96797393D01*
X76308933Y-96814231D01*
X76353248Y-96880552D01*
X76419569Y-96924867D01*
X76478052Y-96936500D01*
X76478053Y-96936500D01*
X78295547Y-96936500D01*
X78295548Y-96936500D01*
X78354031Y-96924867D01*
X78420352Y-96880552D01*
X78464667Y-96814231D01*
X78474138Y-96766613D01*
X78480827Y-96752510D01*
X78494490Y-96737193D01*
X78504004Y-96719008D01*
X78517641Y-96711242D01*
X78528089Y-96699531D01*
X78547863Y-96694033D01*
X78565699Y-96683877D01*
X78594674Y-96680500D01*
X79062851Y-96680500D01*
X79062853Y-96680500D01*
X79145639Y-96658318D01*
X79219862Y-96615465D01*
X81571922Y-94263405D01*
X81634234Y-94229380D01*
X81661017Y-94226500D01*
X82022837Y-94226500D01*
X82090958Y-94246502D01*
X82137451Y-94300158D01*
X82147555Y-94370432D01*
X82118061Y-94435012D01*
X82092839Y-94457265D01*
X81972221Y-94537858D01*
X81972215Y-94537863D01*
X81832863Y-94677215D01*
X81832858Y-94677222D01*
X81723368Y-94841085D01*
X81647950Y-95023161D01*
X81647949Y-95023164D01*
X81609500Y-95216455D01*
X81609500Y-95413544D01*
X81647949Y-95606835D01*
X81647950Y-95606838D01*
X81683091Y-95691677D01*
X81723368Y-95788914D01*
X81832861Y-95952782D01*
X81972218Y-96092139D01*
X82136086Y-96201632D01*
X82318165Y-96277051D01*
X82511459Y-96315500D01*
X82708541Y-96315500D01*
X82901835Y-96277051D01*
X83083914Y-96201632D01*
X83247782Y-96092139D01*
X83387139Y-95952782D01*
X83496632Y-95788914D01*
X83572051Y-95606835D01*
X83610500Y-95413541D01*
X83610500Y-95216459D01*
X83572051Y-95023165D01*
X83496632Y-94841086D01*
X83387139Y-94677218D01*
X83247782Y-94537861D01*
X83191551Y-94500289D01*
X83127161Y-94457265D01*
X83081634Y-94402789D01*
X83072785Y-94332345D01*
X83103426Y-94268301D01*
X83163828Y-94230990D01*
X83197163Y-94226500D01*
X87707210Y-94226500D01*
X87775331Y-94246502D01*
X87821824Y-94300158D01*
X87831928Y-94370432D01*
X87820407Y-94407840D01*
X87804790Y-94439783D01*
X87794000Y-94513840D01*
X87794000Y-96359500D01*
X92556000Y-96359500D01*
X92556000Y-94513848D01*
X92555999Y-94513840D01*
X92545209Y-94439783D01*
X92529593Y-94407840D01*
X92517644Y-94337856D01*
X92545428Y-94272521D01*
X92604123Y-94232580D01*
X92642790Y-94226500D01*
X92897500Y-94226500D01*
X92965621Y-94246502D01*
X93012114Y-94300158D01*
X93023500Y-94352500D01*
X93023500Y-97926173D01*
X93003498Y-97994294D01*
X92986595Y-98015268D01*
X92771095Y-98230768D01*
X92708783Y-98264794D01*
X92637968Y-98259729D01*
X92581132Y-98217182D01*
X92556321Y-98150662D01*
X92556000Y-98141673D01*
X92556000Y-96740500D01*
X87794000Y-96740500D01*
X87794000Y-98586159D01*
X87800291Y-98629334D01*
X87790319Y-98699627D01*
X87743927Y-98753370D01*
X87675844Y-98773500D01*
X87243101Y-98773500D01*
X87174980Y-98753498D01*
X87128487Y-98699842D01*
X87118383Y-98629568D01*
X87147877Y-98564988D01*
X87180100Y-98538381D01*
X87193716Y-98530520D01*
X87305520Y-98418716D01*
X87357367Y-98328914D01*
X87384575Y-98281788D01*
X87384575Y-98281787D01*
X87384577Y-98281784D01*
X87425500Y-98129057D01*
X87425500Y-97970943D01*
X87384577Y-97818216D01*
X87384575Y-97818213D01*
X87384575Y-97818211D01*
X87305522Y-97681287D01*
X87305514Y-97681277D01*
X87237405Y-97613168D01*
X87203379Y-97550856D01*
X87200500Y-97524073D01*
X87200500Y-96000817D01*
X87220502Y-95932696D01*
X87239053Y-95912536D01*
X87237877Y-95911360D01*
X87355514Y-95793722D01*
X87355520Y-95793716D01*
X87395048Y-95725250D01*
X87434575Y-95656788D01*
X87434575Y-95656787D01*
X87434577Y-95656784D01*
X87475500Y-95504057D01*
X87475500Y-95345943D01*
X87434577Y-95193216D01*
X87434575Y-95193213D01*
X87434575Y-95193211D01*
X87355522Y-95056287D01*
X87355514Y-95056277D01*
X87243722Y-94944485D01*
X87243712Y-94944477D01*
X87106788Y-94865424D01*
X87088743Y-94860589D01*
X86954057Y-94824500D01*
X86795943Y-94824500D01*
X86702470Y-94849545D01*
X86643211Y-94865424D01*
X86506287Y-94944477D01*
X86506277Y-94944485D01*
X86394485Y-95056277D01*
X86394477Y-95056287D01*
X86315424Y-95193211D01*
X86315423Y-95193216D01*
X86274500Y-95345943D01*
X86274500Y-95504057D01*
X86284074Y-95539786D01*
X86315424Y-95656788D01*
X86394477Y-95793712D01*
X86394485Y-95793722D01*
X86512123Y-95911360D01*
X86509664Y-95913818D01*
X86542061Y-95958164D01*
X86549500Y-96000817D01*
X86549500Y-97442915D01*
X86529498Y-97511036D01*
X86486501Y-97552033D01*
X86456290Y-97569475D01*
X86456277Y-97569485D01*
X86344485Y-97681277D01*
X86344477Y-97681287D01*
X86265424Y-97818211D01*
X86255567Y-97855000D01*
X86224500Y-97970943D01*
X86224500Y-98129057D01*
X86236832Y-98175080D01*
X86265424Y-98281788D01*
X86344477Y-98418712D01*
X86344485Y-98418722D01*
X86456277Y-98530514D01*
X86456284Y-98530520D01*
X86469900Y-98538381D01*
X86518893Y-98589764D01*
X86532328Y-98659478D01*
X86505941Y-98725389D01*
X86448109Y-98766570D01*
X86406899Y-98773500D01*
X83649756Y-98773500D01*
X83581635Y-98753498D01*
X83535142Y-98699842D01*
X83525038Y-98629568D01*
X83547820Y-98573439D01*
X83620079Y-98473982D01*
X83704474Y-98308348D01*
X83704477Y-98308342D01*
X83761918Y-98131557D01*
X83791000Y-97947943D01*
X83791000Y-97762056D01*
X83767566Y-97614102D01*
X83776666Y-97543691D01*
X83822387Y-97489377D01*
X83890215Y-97468404D01*
X83958615Y-97487431D01*
X83981110Y-97505296D01*
X84017779Y-97541965D01*
X84110588Y-97609394D01*
X84183390Y-97662287D01*
X84365781Y-97755220D01*
X84560466Y-97818477D01*
X84762648Y-97850500D01*
X84762651Y-97850500D01*
X84967349Y-97850500D01*
X84967352Y-97850500D01*
X85169534Y-97818477D01*
X85364219Y-97755220D01*
X85546610Y-97662287D01*
X85712219Y-97541966D01*
X85856966Y-97397219D01*
X85977287Y-97231610D01*
X86070220Y-97049219D01*
X86133477Y-96854534D01*
X86165500Y-96652352D01*
X86165500Y-96447648D01*
X86133477Y-96245466D01*
X86070220Y-96050781D01*
X85977287Y-95868390D01*
X85968492Y-95856284D01*
X85856965Y-95702779D01*
X85712220Y-95558034D01*
X85546612Y-95437714D01*
X85539791Y-95434239D01*
X85364219Y-95344780D01*
X85364216Y-95344779D01*
X85364214Y-95344778D01*
X85169538Y-95281524D01*
X85169536Y-95281523D01*
X85169534Y-95281523D01*
X84967352Y-95249500D01*
X84762648Y-95249500D01*
X84560466Y-95281523D01*
X84560464Y-95281523D01*
X84560461Y-95281524D01*
X84365785Y-95344778D01*
X84365779Y-95344781D01*
X84183387Y-95437714D01*
X84017779Y-95558034D01*
X83873034Y-95702779D01*
X83752714Y-95868387D01*
X83659781Y-96050779D01*
X83659778Y-96050785D01*
X83596524Y-96245461D01*
X83596523Y-96245464D01*
X83596523Y-96245466D01*
X83564500Y-96447648D01*
X83564500Y-96652352D01*
X83596349Y-96853434D01*
X83596524Y-96854538D01*
X83642679Y-96996588D01*
X83644707Y-97067555D01*
X83608044Y-97128353D01*
X83604127Y-97130278D01*
X82993530Y-97740874D01*
X82982741Y-97700606D01*
X82930080Y-97609394D01*
X82855606Y-97534920D01*
X82764394Y-97482259D01*
X82724123Y-97471468D01*
X83299462Y-96896128D01*
X83228978Y-96844918D01*
X83063348Y-96760525D01*
X83063342Y-96760522D01*
X82886557Y-96703081D01*
X82702944Y-96674000D01*
X82517056Y-96674000D01*
X82333442Y-96703081D01*
X82156657Y-96760522D01*
X82156651Y-96760525D01*
X81991017Y-96844920D01*
X81920536Y-96896127D01*
X81920536Y-96896129D01*
X82495875Y-97471468D01*
X82455606Y-97482259D01*
X82364394Y-97534920D01*
X82289920Y-97609394D01*
X82237259Y-97700606D01*
X82226468Y-97740877D01*
X81651128Y-97165536D01*
X81651127Y-97165536D01*
X81599920Y-97236017D01*
X81515525Y-97401651D01*
X81515522Y-97401657D01*
X81458081Y-97578442D01*
X81429000Y-97762056D01*
X81429000Y-97947943D01*
X81458081Y-98131557D01*
X81515522Y-98308342D01*
X81515525Y-98308348D01*
X81599920Y-98473982D01*
X81672180Y-98573439D01*
X81696038Y-98640307D01*
X81679958Y-98709458D01*
X81629044Y-98758938D01*
X81570244Y-98773500D01*
X76914217Y-98773500D01*
X76846096Y-98753498D01*
X76825122Y-98736595D01*
X76303405Y-98214878D01*
X76269379Y-98152566D01*
X76266500Y-98125783D01*
X76266500Y-97148053D01*
X76266499Y-97148049D01*
X76262964Y-97130278D01*
X76254867Y-97089569D01*
X76210552Y-97023248D01*
X76144231Y-96978933D01*
X76127393Y-96975583D01*
X76085750Y-96967300D01*
X76085748Y-96967300D01*
X75710538Y-96967300D01*
X75642417Y-96947298D01*
X75595924Y-96893642D01*
X75585820Y-96823368D01*
X75615314Y-96758788D01*
X75647538Y-96732181D01*
X75683805Y-96711242D01*
X75693716Y-96705520D01*
X75805520Y-96593716D01*
X75884577Y-96456784D01*
X75925500Y-96304057D01*
X75925500Y-96145943D01*
X75884577Y-95993216D01*
X75884575Y-95993213D01*
X75884575Y-95993211D01*
X75805522Y-95856287D01*
X75805514Y-95856277D01*
X75687877Y-95738640D01*
X75690317Y-95736199D01*
X75657882Y-95691677D01*
X75650500Y-95649182D01*
X75650500Y-93975927D01*
X75670502Y-93907806D01*
X75687405Y-93886832D01*
X75780514Y-93793722D01*
X75780520Y-93793716D01*
X75859577Y-93656784D01*
X75869094Y-93621264D01*
X75906044Y-93560644D01*
X75969905Y-93529623D01*
X76040399Y-93538051D01*
X76095147Y-93583254D01*
X76104353Y-93612054D01*
X76116799Y-93624500D01*
X78656800Y-93624500D01*
X78656800Y-93397848D01*
X78656799Y-93397840D01*
X78646009Y-93323783D01*
X78646008Y-93323781D01*
X78590164Y-93209549D01*
X78590163Y-93209547D01*
X78499046Y-93118430D01*
X78465020Y-93056118D01*
X78464563Y-93004751D01*
X78464666Y-93004232D01*
X78464667Y-93004231D01*
X78476300Y-92945748D01*
X78476300Y-92486217D01*
X78496302Y-92418096D01*
X78513205Y-92397122D01*
X81547922Y-89362405D01*
X81575290Y-89347460D01*
X81601519Y-89330604D01*
X81607817Y-89329698D01*
X81610234Y-89328379D01*
X81637017Y-89325500D01*
X81800389Y-89325500D01*
X81868510Y-89345502D01*
G37*
%TD.AperFunction*%
%TA.AperFunction,Conductor*%
G36*
X68080814Y-77400943D02*
G01*
X68114856Y-77425183D01*
X69019022Y-78329349D01*
X69053046Y-78391660D01*
X69047982Y-78462475D01*
X69005435Y-78519311D01*
X68962540Y-78540148D01*
X68868216Y-78565423D01*
X68868214Y-78565423D01*
X68868210Y-78565425D01*
X68731287Y-78644477D01*
X68731277Y-78644485D01*
X68619485Y-78756277D01*
X68619477Y-78756287D01*
X68540424Y-78893211D01*
X68527453Y-78941621D01*
X68499500Y-79045943D01*
X68499500Y-79204057D01*
X68518201Y-79273850D01*
X68540424Y-79356788D01*
X68619477Y-79493712D01*
X68619485Y-79493722D01*
X68731277Y-79605514D01*
X68731282Y-79605518D01*
X68731284Y-79605520D01*
X68731285Y-79605521D01*
X68731287Y-79605522D01*
X68868211Y-79684575D01*
X68868213Y-79684575D01*
X68868216Y-79684577D01*
X68980114Y-79714559D01*
X69040733Y-79751509D01*
X69071755Y-79815370D01*
X69073500Y-79836265D01*
X69073500Y-82238983D01*
X69053498Y-82307104D01*
X69036595Y-82328078D01*
X67997878Y-83366795D01*
X67935566Y-83400821D01*
X67908783Y-83403700D01*
X67664249Y-83403700D01*
X67605771Y-83415332D01*
X67605768Y-83415333D01*
X67539448Y-83459648D01*
X67495133Y-83525968D01*
X67495132Y-83525971D01*
X67483500Y-83584449D01*
X67483500Y-85401950D01*
X67491783Y-85443593D01*
X67495133Y-85460431D01*
X67539448Y-85526752D01*
X67605769Y-85571067D01*
X67664252Y-85582700D01*
X67664253Y-85582700D01*
X68465747Y-85582700D01*
X68465748Y-85582700D01*
X68524231Y-85571067D01*
X68590552Y-85526752D01*
X68595235Y-85519742D01*
X68649711Y-85474216D01*
X68720154Y-85465367D01*
X68784198Y-85496008D01*
X68804763Y-85519740D01*
X68809448Y-85526752D01*
X68875769Y-85571067D01*
X68934252Y-85582700D01*
X68965979Y-85582700D01*
X69735747Y-85582700D01*
X69735748Y-85582700D01*
X69794231Y-85571067D01*
X69860552Y-85526752D01*
X69865235Y-85519742D01*
X69890812Y-85498367D01*
X69915621Y-85476083D01*
X69917923Y-85475709D01*
X69919711Y-85474216D01*
X69952779Y-85470061D01*
X69985704Y-85464727D01*
X69987841Y-85465657D01*
X69990154Y-85465367D01*
X70020231Y-85479757D01*
X70050800Y-85493064D01*
X70052876Y-85495375D01*
X70054198Y-85496008D01*
X70074763Y-85519740D01*
X70079448Y-85526752D01*
X70145769Y-85571067D01*
X70178080Y-85577494D01*
X70240990Y-85610401D01*
X70276123Y-85672095D01*
X70279500Y-85701073D01*
X70279500Y-88585592D01*
X70259498Y-88653713D01*
X70205842Y-88700206D01*
X70135568Y-88710310D01*
X70070988Y-88680816D01*
X70044381Y-88648593D01*
X70005520Y-88581284D01*
X70005514Y-88581277D01*
X69893722Y-88469485D01*
X69893712Y-88469477D01*
X69756788Y-88390424D01*
X69693876Y-88373567D01*
X69604057Y-88349500D01*
X69445943Y-88349500D01*
X69356124Y-88373567D01*
X69293211Y-88390424D01*
X69156287Y-88469477D01*
X69156277Y-88469485D01*
X69044485Y-88581277D01*
X69044477Y-88581287D01*
X68965424Y-88718211D01*
X68951329Y-88770814D01*
X68924500Y-88870943D01*
X68924500Y-89029057D01*
X68952714Y-89134352D01*
X68965424Y-89181788D01*
X69044477Y-89318712D01*
X69044479Y-89318715D01*
X69044480Y-89318716D01*
X69112596Y-89386832D01*
X69146620Y-89449142D01*
X69149500Y-89475926D01*
X69149500Y-90632147D01*
X69149500Y-90717853D01*
X69171682Y-90800639D01*
X69171683Y-90800641D01*
X69171684Y-90800643D01*
X69214532Y-90874858D01*
X69214534Y-90874860D01*
X69214535Y-90874862D01*
X70262596Y-91922922D01*
X70296620Y-91985233D01*
X70299500Y-92012016D01*
X70299500Y-93239182D01*
X70279498Y-93307303D01*
X70260958Y-93327475D01*
X70262123Y-93328640D01*
X70144485Y-93446277D01*
X70144477Y-93446287D01*
X70077960Y-93561500D01*
X70026578Y-93610493D01*
X69968841Y-93624500D01*
X67578700Y-93624500D01*
X67510579Y-93604498D01*
X67464086Y-93550842D01*
X67452700Y-93498500D01*
X67452700Y-93414253D01*
X67452699Y-93414249D01*
X67452488Y-93413189D01*
X67441067Y-93355769D01*
X67396752Y-93289448D01*
X67389742Y-93284764D01*
X67344216Y-93230289D01*
X67335367Y-93159846D01*
X67366008Y-93095802D01*
X67389740Y-93075236D01*
X67396752Y-93070552D01*
X67441067Y-93004231D01*
X67452700Y-92945748D01*
X67452700Y-92144252D01*
X67441067Y-92085769D01*
X67396752Y-92019448D01*
X67389742Y-92014764D01*
X67344216Y-91960289D01*
X67335367Y-91889846D01*
X67366008Y-91825802D01*
X67389740Y-91805236D01*
X67396752Y-91800552D01*
X67441067Y-91734231D01*
X67452700Y-91675748D01*
X67452700Y-90874252D01*
X67441067Y-90815769D01*
X67396752Y-90749448D01*
X67389742Y-90744764D01*
X67344216Y-90690289D01*
X67335367Y-90619846D01*
X67366008Y-90555802D01*
X67389740Y-90535236D01*
X67396752Y-90530552D01*
X67441067Y-90464231D01*
X67452700Y-90405748D01*
X67452700Y-89604252D01*
X67441067Y-89545769D01*
X67396752Y-89479448D01*
X67389742Y-89474764D01*
X67344216Y-89420289D01*
X67335367Y-89349846D01*
X67366008Y-89285802D01*
X67389740Y-89265236D01*
X67396752Y-89260552D01*
X67441067Y-89194231D01*
X67452700Y-89135748D01*
X67452700Y-88334252D01*
X67441067Y-88275769D01*
X67396752Y-88209448D01*
X67389742Y-88204764D01*
X67344216Y-88150289D01*
X67335367Y-88079846D01*
X67352020Y-88034644D01*
X67366511Y-88010758D01*
X67396752Y-87990552D01*
X67441067Y-87924231D01*
X67451827Y-87870134D01*
X67463349Y-87851144D01*
X67473828Y-87841578D01*
X67480404Y-87829008D01*
X67499529Y-87818117D01*
X67515785Y-87803279D01*
X67529770Y-87800897D01*
X67542099Y-87793877D01*
X67571074Y-87790500D01*
X68627851Y-87790500D01*
X68627853Y-87790500D01*
X68710639Y-87768318D01*
X68784862Y-87725465D01*
X69085465Y-87424862D01*
X69128318Y-87350639D01*
X69150500Y-87267853D01*
X69150500Y-87182147D01*
X69150500Y-87000817D01*
X69170502Y-86932696D01*
X69189053Y-86912536D01*
X69187877Y-86911360D01*
X69305514Y-86793722D01*
X69305520Y-86793716D01*
X69362802Y-86694500D01*
X69384575Y-86656788D01*
X69384575Y-86656787D01*
X69384577Y-86656784D01*
X69425500Y-86504057D01*
X69425500Y-86345943D01*
X69384577Y-86193216D01*
X69384575Y-86193213D01*
X69384575Y-86193211D01*
X69305522Y-86056287D01*
X69305514Y-86056277D01*
X69193722Y-85944485D01*
X69193712Y-85944477D01*
X69056788Y-85865424D01*
X68954712Y-85838073D01*
X68904057Y-85824500D01*
X68745943Y-85824500D01*
X68657579Y-85848177D01*
X68593211Y-85865424D01*
X68456287Y-85944477D01*
X68456277Y-85944485D01*
X68344485Y-86056277D01*
X68344477Y-86056287D01*
X68265424Y-86193211D01*
X68244786Y-86270233D01*
X68224500Y-86345943D01*
X68224500Y-86504057D01*
X68260048Y-86636724D01*
X68265424Y-86656788D01*
X68344477Y-86793712D01*
X68344485Y-86793722D01*
X68462123Y-86911360D01*
X68460659Y-86912823D01*
X68473246Y-86932410D01*
X68492061Y-86958164D01*
X68492903Y-86962997D01*
X68494396Y-86965319D01*
X68499500Y-87000817D01*
X68499500Y-87013500D01*
X68479498Y-87081621D01*
X68425842Y-87128114D01*
X68373500Y-87139500D01*
X67571074Y-87139500D01*
X67502953Y-87119498D01*
X67456460Y-87065842D01*
X67447495Y-87038083D01*
X67441067Y-87005771D01*
X67441067Y-87005769D01*
X67396752Y-86939448D01*
X67389742Y-86934764D01*
X67344216Y-86880289D01*
X67335367Y-86809846D01*
X67366008Y-86745802D01*
X67389740Y-86725236D01*
X67396752Y-86720552D01*
X67441067Y-86654231D01*
X67452700Y-86595748D01*
X67452700Y-85794252D01*
X67441067Y-85735769D01*
X67396752Y-85669448D01*
X67330431Y-85625133D01*
X67313593Y-85621783D01*
X67271950Y-85613500D01*
X67271948Y-85613500D01*
X66764927Y-85613500D01*
X66696806Y-85593498D01*
X66650313Y-85539842D01*
X66640209Y-85469568D01*
X66669703Y-85404988D01*
X66675832Y-85398405D01*
X66730514Y-85343722D01*
X66730520Y-85343716D01*
X66809577Y-85206784D01*
X66850500Y-85054057D01*
X66850500Y-84895943D01*
X66809577Y-84743216D01*
X66809575Y-84743213D01*
X66809575Y-84743211D01*
X66730522Y-84606287D01*
X66730514Y-84606277D01*
X66618722Y-84494485D01*
X66618712Y-84494477D01*
X66613498Y-84491467D01*
X66564506Y-84440083D01*
X66550500Y-84382349D01*
X66550500Y-78005746D01*
X66570502Y-77937625D01*
X66624158Y-77891132D01*
X66694432Y-77881028D01*
X66759012Y-77910522D01*
X66785619Y-77942747D01*
X66829475Y-78018709D01*
X66829485Y-78018722D01*
X66941277Y-78130514D01*
X66941282Y-78130518D01*
X66941284Y-78130520D01*
X66941285Y-78130521D01*
X66941287Y-78130522D01*
X67078211Y-78209575D01*
X67078213Y-78209575D01*
X67078216Y-78209577D01*
X67230943Y-78250500D01*
X67230945Y-78250500D01*
X67389055Y-78250500D01*
X67389057Y-78250500D01*
X67541784Y-78209577D01*
X67541787Y-78209575D01*
X67541788Y-78209575D01*
X67632679Y-78157099D01*
X67678716Y-78130520D01*
X67790520Y-78018716D01*
X67836959Y-77938281D01*
X67869575Y-77881788D01*
X67869575Y-77881787D01*
X67869577Y-77881784D01*
X67910500Y-77729057D01*
X67910500Y-77570943D01*
X67904055Y-77546890D01*
X67905743Y-77475916D01*
X67945536Y-77417119D01*
X68010800Y-77389170D01*
X68080814Y-77400943D01*
G37*
%TD.AperFunction*%
%TA.AperFunction,Conductor*%
G36*
X89503296Y-83558413D02*
G01*
X89511675Y-83558600D01*
X89534585Y-83574053D01*
X89559305Y-83586409D01*
X89563585Y-83593614D01*
X89570534Y-83598301D01*
X89581453Y-83623689D01*
X89595568Y-83647447D01*
X89597180Y-83660255D01*
X89598585Y-83663521D01*
X89598019Y-83666917D01*
X89599500Y-83678678D01*
X89599500Y-90657147D01*
X89599500Y-90742853D01*
X89621682Y-90825639D01*
X89621683Y-90825641D01*
X89621684Y-90825643D01*
X89664532Y-90899858D01*
X89664534Y-90899860D01*
X89664535Y-90899862D01*
X90069534Y-91304861D01*
X90069535Y-91304862D01*
X90130138Y-91365465D01*
X90130139Y-91365466D01*
X90130141Y-91365467D01*
X90204357Y-91408316D01*
X90204359Y-91408316D01*
X90204362Y-91408318D01*
X90287147Y-91430500D01*
X90372852Y-91430500D01*
X92536793Y-91430500D01*
X92604914Y-91450502D01*
X92651407Y-91504158D01*
X92660372Y-91531920D01*
X92660633Y-91533231D01*
X92704948Y-91599552D01*
X92771269Y-91643867D01*
X92829752Y-91655500D01*
X92829753Y-91655500D01*
X94579983Y-91655500D01*
X94648104Y-91675502D01*
X94694597Y-91729158D01*
X94704701Y-91799432D01*
X94675207Y-91864012D01*
X94669078Y-91870595D01*
X93755078Y-92784595D01*
X93727709Y-92799539D01*
X93701481Y-92816396D01*
X93695182Y-92817301D01*
X93692766Y-92818621D01*
X93665983Y-92821500D01*
X93644688Y-92821500D01*
X93576567Y-92801498D01*
X93535568Y-92758499D01*
X93517172Y-92726636D01*
X93483478Y-92668275D01*
X93483475Y-92668272D01*
X93483472Y-92668268D01*
X93371680Y-92556476D01*
X93371670Y-92556468D01*
X93234746Y-92477415D01*
X93192790Y-92466173D01*
X93082015Y-92436491D01*
X92923901Y-92436491D01*
X92830428Y-92461536D01*
X92771169Y-92477415D01*
X92634245Y-92556468D01*
X92634235Y-92556476D01*
X92522443Y-92668268D01*
X92522435Y-92668278D01*
X92443382Y-92805202D01*
X92432602Y-92845433D01*
X92402458Y-92957934D01*
X92402458Y-93116048D01*
X92427512Y-93209550D01*
X92443382Y-93268779D01*
X92511349Y-93386500D01*
X92528087Y-93455495D01*
X92504867Y-93522587D01*
X92449060Y-93566474D01*
X92402230Y-93575500D01*
X86428679Y-93575500D01*
X86360558Y-93555498D01*
X86314065Y-93501842D01*
X86303961Y-93431568D01*
X86308237Y-93415974D01*
X86307439Y-93415761D01*
X86309575Y-93407785D01*
X86309577Y-93407784D01*
X86350500Y-93255057D01*
X86350500Y-93096943D01*
X86309577Y-92944216D01*
X86309575Y-92944213D01*
X86309575Y-92944211D01*
X86230522Y-92807287D01*
X86230514Y-92807277D01*
X86118722Y-92695485D01*
X86118712Y-92695477D01*
X85981788Y-92616424D01*
X85950401Y-92608014D01*
X85829057Y-92575500D01*
X85670943Y-92575500D01*
X85662685Y-92575500D01*
X85662685Y-92573429D01*
X85639823Y-92568456D01*
X85608239Y-92563487D01*
X85604331Y-92560735D01*
X85601709Y-92560165D01*
X85572999Y-92538672D01*
X85537405Y-92503078D01*
X85503379Y-92440766D01*
X85500500Y-92413983D01*
X85500500Y-91954174D01*
X85520502Y-91886053D01*
X85574158Y-91839560D01*
X85598924Y-91835999D01*
X86176407Y-91835999D01*
X86176408Y-91836000D01*
X87099592Y-91836000D01*
X87099592Y-91835999D01*
X86638001Y-91374408D01*
X86637999Y-91374408D01*
X86176407Y-91835999D01*
X85598924Y-91835999D01*
X85643775Y-91829550D01*
X85644173Y-91829418D01*
X85756251Y-91717340D01*
X86331688Y-91141904D01*
X86394000Y-91107879D01*
X86420783Y-91105000D01*
X86855218Y-91105000D01*
X86923339Y-91125002D01*
X86944313Y-91141905D01*
X87631826Y-91829418D01*
X87631827Y-91829418D01*
X87660715Y-91825209D01*
X87660718Y-91825208D01*
X87774950Y-91769364D01*
X87774952Y-91769363D01*
X87864863Y-91679452D01*
X87864864Y-91679450D01*
X87920708Y-91565218D01*
X87920709Y-91565216D01*
X87931499Y-91491159D01*
X87931500Y-91491151D01*
X87931500Y-90718848D01*
X87931499Y-90718840D01*
X87920709Y-90644783D01*
X87920708Y-90644781D01*
X87864864Y-90530549D01*
X87864863Y-90530547D01*
X87774953Y-90440637D01*
X87770020Y-90437115D01*
X87726203Y-90381252D01*
X87719544Y-90310569D01*
X87738473Y-90264567D01*
X87739367Y-90263231D01*
X87751000Y-90204748D01*
X87751000Y-89465252D01*
X87739367Y-89406769D01*
X87695052Y-89340448D01*
X87641648Y-89304764D01*
X87596121Y-89250288D01*
X87587273Y-89179845D01*
X87612229Y-89122596D01*
X87626458Y-89104319D01*
X87628731Y-89103867D01*
X87695052Y-89059552D01*
X87739367Y-88993231D01*
X87748434Y-88947645D01*
X87766769Y-88924096D01*
X87772339Y-88920088D01*
X87775520Y-88914008D01*
X87800791Y-88899617D01*
X87824400Y-88882632D01*
X87831252Y-88882272D01*
X87837215Y-88878877D01*
X87866191Y-88875500D01*
X88517851Y-88875500D01*
X88517853Y-88875500D01*
X88600639Y-88853318D01*
X88674862Y-88810465D01*
X89185465Y-88299862D01*
X89228318Y-88225639D01*
X89250500Y-88142853D01*
X89250500Y-88057147D01*
X89250500Y-83704834D01*
X89258444Y-83677776D01*
X89263077Y-83649959D01*
X89268307Y-83644187D01*
X89270502Y-83636713D01*
X89291816Y-83618244D01*
X89310751Y-83597349D01*
X89321013Y-83592944D01*
X89324158Y-83590220D01*
X89343684Y-83583183D01*
X89431784Y-83559577D01*
X89432274Y-83559293D01*
X89440696Y-83557023D01*
X89468325Y-83557636D01*
X89495800Y-83554667D01*
X89503296Y-83558413D01*
G37*
%TD.AperFunction*%
%TA.AperFunction,Conductor*%
G36*
X71251531Y-85466450D02*
G01*
X71260154Y-85465367D01*
X71284816Y-85477166D01*
X71310840Y-85485545D01*
X71316358Y-85492257D01*
X71324198Y-85496008D01*
X71344763Y-85519740D01*
X71349448Y-85526752D01*
X71415769Y-85571067D01*
X71474252Y-85582700D01*
X71474253Y-85582700D01*
X72275747Y-85582700D01*
X72275748Y-85582700D01*
X72334231Y-85571067D01*
X72400552Y-85526752D01*
X72405235Y-85519742D01*
X72459711Y-85474216D01*
X72530154Y-85465367D01*
X72594198Y-85496008D01*
X72614763Y-85519740D01*
X72619448Y-85526752D01*
X72685769Y-85571067D01*
X72744252Y-85582700D01*
X72744253Y-85582700D01*
X73545747Y-85582700D01*
X73545748Y-85582700D01*
X73604231Y-85571067D01*
X73670552Y-85526752D01*
X73675235Y-85519742D01*
X73729711Y-85474216D01*
X73800154Y-85465367D01*
X73864198Y-85496008D01*
X73884763Y-85519740D01*
X73889448Y-85526752D01*
X73955769Y-85571067D01*
X74014252Y-85582700D01*
X74014253Y-85582700D01*
X74815747Y-85582700D01*
X74815748Y-85582700D01*
X74874231Y-85571067D01*
X74940552Y-85526752D01*
X74945235Y-85519742D01*
X74970812Y-85498367D01*
X74995621Y-85476083D01*
X74997923Y-85475709D01*
X74999711Y-85474216D01*
X75032779Y-85470061D01*
X75065704Y-85464727D01*
X75067841Y-85465657D01*
X75070154Y-85465367D01*
X75100231Y-85479757D01*
X75130800Y-85493064D01*
X75132876Y-85495375D01*
X75134198Y-85496008D01*
X75154763Y-85519740D01*
X75159448Y-85526752D01*
X75225769Y-85571067D01*
X75284252Y-85582700D01*
X75284253Y-85582700D01*
X76085747Y-85582700D01*
X76085748Y-85582700D01*
X76144231Y-85571067D01*
X76144237Y-85571062D01*
X76144350Y-85571017D01*
X76144638Y-85570985D01*
X76156402Y-85568646D01*
X76156611Y-85569697D01*
X76214939Y-85563422D01*
X76278429Y-85595197D01*
X76314661Y-85656252D01*
X76315002Y-85717224D01*
X76311378Y-85732109D01*
X76308933Y-85735769D01*
X76301986Y-85770691D01*
X76301351Y-85773302D01*
X76284860Y-85801812D01*
X76269596Y-85830992D01*
X76267190Y-85832361D01*
X76265804Y-85834759D01*
X76236509Y-85849832D01*
X76207901Y-85866123D01*
X76203956Y-85866582D01*
X76202675Y-85867242D01*
X76200279Y-85867011D01*
X76178926Y-85869500D01*
X76152147Y-85869500D01*
X76069362Y-85891682D01*
X76069361Y-85891682D01*
X76069359Y-85891683D01*
X76030184Y-85914300D01*
X75999288Y-85932139D01*
X75999286Y-85932139D01*
X75999286Y-85932140D01*
X75995141Y-85934532D01*
X75995131Y-85934540D01*
X75689540Y-86240131D01*
X75689532Y-86240141D01*
X75646684Y-86314356D01*
X75646679Y-86314368D01*
X75632071Y-86368888D01*
X75624500Y-86397142D01*
X75624500Y-90800172D01*
X75604498Y-90868293D01*
X75587595Y-90889267D01*
X74195105Y-92281756D01*
X74132793Y-92315782D01*
X74061977Y-92310717D01*
X74043010Y-92301780D01*
X73958717Y-92253113D01*
X73940672Y-92248278D01*
X73805986Y-92212189D01*
X73647872Y-92212189D01*
X73554399Y-92237234D01*
X73495140Y-92253113D01*
X73358216Y-92332166D01*
X73358206Y-92332174D01*
X73246414Y-92443966D01*
X73246408Y-92443974D01*
X73210384Y-92506369D01*
X73159000Y-92555362D01*
X73089287Y-92568797D01*
X73038265Y-92552487D01*
X72997512Y-92528958D01*
X72979467Y-92524123D01*
X72844781Y-92488034D01*
X72686667Y-92488034D01*
X72588704Y-92514283D01*
X72517727Y-92512593D01*
X72466998Y-92481671D01*
X70967405Y-90982078D01*
X70933379Y-90919766D01*
X70930500Y-90892983D01*
X70930500Y-85701073D01*
X70950502Y-85632952D01*
X70991144Y-85593348D01*
X71010132Y-85581827D01*
X71064231Y-85571067D01*
X71130552Y-85526752D01*
X71150758Y-85496511D01*
X71174644Y-85482020D01*
X71183043Y-85479787D01*
X71189711Y-85474216D01*
X71216835Y-85470808D01*
X71243260Y-85463787D01*
X71251531Y-85466450D01*
G37*
%TD.AperFunction*%
%TA.AperFunction,Conductor*%
G36*
X81953510Y-86720502D02*
G01*
X82000003Y-86774158D01*
X82010107Y-86844432D01*
X81980613Y-86909012D01*
X81974484Y-86915595D01*
X81832863Y-87057215D01*
X81832858Y-87057222D01*
X81723368Y-87221085D01*
X81647950Y-87403161D01*
X81647949Y-87403164D01*
X81609500Y-87596455D01*
X81609500Y-87793544D01*
X81647949Y-87986835D01*
X81647950Y-87986838D01*
X81667198Y-88033306D01*
X81723368Y-88168914D01*
X81832861Y-88332782D01*
X81832863Y-88332784D01*
X81959484Y-88459405D01*
X81993510Y-88521717D01*
X81988445Y-88592532D01*
X81945898Y-88649368D01*
X81879378Y-88674179D01*
X81870389Y-88674500D01*
X81492853Y-88674500D01*
X81407147Y-88674500D01*
X81324361Y-88696682D01*
X81324359Y-88696683D01*
X81324356Y-88696684D01*
X81250141Y-88739532D01*
X81250131Y-88739540D01*
X78691395Y-91298277D01*
X78629083Y-91332303D01*
X78558268Y-91327238D01*
X78501432Y-91284691D01*
X78476621Y-91218171D01*
X78476300Y-91209182D01*
X78476300Y-90874253D01*
X78476299Y-90874249D01*
X78476007Y-90872782D01*
X78464667Y-90815769D01*
X78420352Y-90749448D01*
X78413342Y-90744764D01*
X78367816Y-90690289D01*
X78358967Y-90619846D01*
X78389608Y-90555802D01*
X78413340Y-90535236D01*
X78420352Y-90530552D01*
X78464667Y-90464231D01*
X78476300Y-90405748D01*
X78476300Y-89604252D01*
X78464667Y-89545769D01*
X78420352Y-89479448D01*
X78413342Y-89474764D01*
X78367816Y-89420289D01*
X78358967Y-89349846D01*
X78389608Y-89285802D01*
X78413340Y-89265236D01*
X78420352Y-89260552D01*
X78464667Y-89194231D01*
X78476300Y-89135748D01*
X78476300Y-88886217D01*
X78496302Y-88818096D01*
X78513205Y-88797122D01*
X80572922Y-86737405D01*
X80635234Y-86703379D01*
X80662017Y-86700500D01*
X81885389Y-86700500D01*
X81953510Y-86720502D01*
G37*
%TD.AperFunction*%
%TA.AperFunction,Conductor*%
G36*
X90376912Y-81419492D02*
G01*
X90403904Y-81424031D01*
X90413452Y-81430830D01*
X90418582Y-81432422D01*
X90422891Y-81437551D01*
X90437942Y-81448269D01*
X91231145Y-82241471D01*
X91265169Y-82303782D01*
X91266458Y-82334677D01*
X91267508Y-82334677D01*
X91267508Y-82342935D01*
X91267508Y-82501049D01*
X91289935Y-82584746D01*
X91308432Y-82653780D01*
X91387485Y-82790704D01*
X91387493Y-82790714D01*
X91499285Y-82902506D01*
X91499290Y-82902510D01*
X91499292Y-82902512D01*
X91499293Y-82902513D01*
X91499295Y-82902514D01*
X91636219Y-82981567D01*
X91636221Y-82981567D01*
X91636224Y-82981569D01*
X91788951Y-83022492D01*
X91788953Y-83022492D01*
X91947063Y-83022492D01*
X91947065Y-83022492D01*
X92099792Y-82981569D01*
X92099795Y-82981567D01*
X92099796Y-82981567D01*
X92196176Y-82925922D01*
X92236724Y-82902512D01*
X92348528Y-82790708D01*
X92350029Y-82789207D01*
X92350130Y-82788988D01*
X92350463Y-82788773D01*
X92354368Y-82784869D01*
X92355217Y-82785718D01*
X92376959Y-82771745D01*
X92402739Y-82752925D01*
X92407548Y-82752087D01*
X92409856Y-82750604D01*
X92445354Y-82745500D01*
X92656172Y-82745500D01*
X92724293Y-82765502D01*
X92770786Y-82819158D01*
X92780890Y-82889432D01*
X92751396Y-82954012D01*
X92726178Y-82976262D01*
X92704948Y-82990448D01*
X92704947Y-82990449D01*
X92660633Y-83056768D01*
X92660632Y-83056771D01*
X92649000Y-83115249D01*
X92649000Y-83854750D01*
X92660632Y-83913228D01*
X92660633Y-83913231D01*
X92704948Y-83979552D01*
X92758351Y-84015236D01*
X92803878Y-84069713D01*
X92812725Y-84140156D01*
X92785497Y-84200237D01*
X92772584Y-84215871D01*
X92771269Y-84216133D01*
X92704948Y-84260448D01*
X92660633Y-84326769D01*
X92654174Y-84359240D01*
X92633942Y-84383737D01*
X92629789Y-84386546D01*
X92627465Y-84390990D01*
X92600675Y-84406246D01*
X92575141Y-84423523D01*
X92570128Y-84423641D01*
X92565771Y-84426123D01*
X92536793Y-84429500D01*
X92399647Y-84429500D01*
X92316862Y-84451682D01*
X92316861Y-84451682D01*
X92316859Y-84451683D01*
X92285267Y-84469923D01*
X92260350Y-84484309D01*
X92251494Y-84489422D01*
X92242639Y-84494534D01*
X92242631Y-84494540D01*
X90564540Y-86172631D01*
X90564532Y-86172641D01*
X90521681Y-86246861D01*
X90519022Y-86256786D01*
X90498207Y-86334472D01*
X90461257Y-86395096D01*
X90397396Y-86426118D01*
X90326902Y-86417691D01*
X90272154Y-86372489D01*
X90250536Y-86304863D01*
X90250500Y-86301863D01*
X90250500Y-81761061D01*
X90250500Y-81742856D01*
X90250501Y-81742853D01*
X90250501Y-81657147D01*
X90228318Y-81574361D01*
X90226060Y-81570450D01*
X90223873Y-81553391D01*
X90228182Y-81526359D01*
X90228833Y-81499003D01*
X90233685Y-81491833D01*
X90235049Y-81483280D01*
X90253286Y-81462871D01*
X90268626Y-81440207D01*
X90276587Y-81436797D01*
X90282357Y-81430341D01*
X90308728Y-81423033D01*
X90333890Y-81412258D01*
X90342430Y-81413694D01*
X90350775Y-81411382D01*
X90376912Y-81419492D01*
G37*
%TD.AperFunction*%
%TA.AperFunction,Conductor*%
G36*
X78456104Y-78370502D02*
G01*
X78477078Y-78387405D01*
X78962595Y-78872922D01*
X78996621Y-78935234D01*
X78999500Y-78962017D01*
X78999500Y-79079057D01*
X79031494Y-79198462D01*
X79040424Y-79231788D01*
X79119477Y-79368712D01*
X79119485Y-79368722D01*
X79231277Y-79480514D01*
X79231282Y-79480518D01*
X79231284Y-79480520D01*
X79231285Y-79480521D01*
X79231287Y-79480522D01*
X79368211Y-79559575D01*
X79368213Y-79559575D01*
X79368216Y-79559577D01*
X79520943Y-79600500D01*
X79520945Y-79600500D01*
X79637983Y-79600500D01*
X79706104Y-79620502D01*
X79727078Y-79637405D01*
X79979151Y-79889478D01*
X80013177Y-79951790D01*
X80008112Y-80022605D01*
X79965565Y-80079441D01*
X79899045Y-80104252D01*
X79840295Y-80091472D01*
X79839420Y-80093585D01*
X79831791Y-80090425D01*
X79831784Y-80090423D01*
X79679057Y-80049500D01*
X79520943Y-80049500D01*
X79446112Y-80069551D01*
X79368211Y-80090424D01*
X79231287Y-80169477D01*
X79231277Y-80169485D01*
X79119485Y-80281277D01*
X79119477Y-80281287D01*
X79040424Y-80418211D01*
X79032040Y-80449500D01*
X78999500Y-80570943D01*
X78999500Y-80729057D01*
X79017141Y-80794893D01*
X79040424Y-80881788D01*
X79119477Y-81018712D01*
X79119485Y-81018722D01*
X79231277Y-81130514D01*
X79231282Y-81130518D01*
X79231284Y-81130520D01*
X79231285Y-81130521D01*
X79231287Y-81130522D01*
X79368211Y-81209575D01*
X79368213Y-81209575D01*
X79368216Y-81209577D01*
X79520943Y-81250500D01*
X79520945Y-81250500D01*
X79679055Y-81250500D01*
X79679057Y-81250500D01*
X79831784Y-81209577D01*
X79831787Y-81209575D01*
X79831788Y-81209575D01*
X79957298Y-81137112D01*
X79968716Y-81130520D01*
X80023737Y-81075499D01*
X80086360Y-81012877D01*
X80087823Y-81014340D01*
X80107410Y-81001753D01*
X80133164Y-80982939D01*
X80137997Y-80982096D01*
X80140319Y-80980604D01*
X80175817Y-80975500D01*
X80312983Y-80975500D01*
X80381104Y-80995502D01*
X80402078Y-81012405D01*
X81087595Y-81697922D01*
X81121621Y-81760234D01*
X81124500Y-81787017D01*
X81124500Y-83147882D01*
X81104498Y-83216003D01*
X81050842Y-83262496D01*
X80980568Y-83272600D01*
X80935501Y-83257002D01*
X80906787Y-83240424D01*
X80906784Y-83240423D01*
X80754057Y-83199500D01*
X80595943Y-83199500D01*
X80502470Y-83224545D01*
X80443211Y-83240424D01*
X80306287Y-83319477D01*
X80306277Y-83319485D01*
X80194485Y-83431277D01*
X80194477Y-83431287D01*
X80115424Y-83568211D01*
X80102753Y-83615500D01*
X80078817Y-83704834D01*
X80074500Y-83720944D01*
X80074500Y-83887315D01*
X80072428Y-83887315D01*
X80067466Y-83910126D01*
X80062523Y-83941684D01*
X80059741Y-83945636D01*
X80059165Y-83948288D01*
X80037673Y-83976998D01*
X79877078Y-84137595D01*
X79814766Y-84171620D01*
X79787982Y-84174500D01*
X79419900Y-84174500D01*
X79387291Y-84170207D01*
X79377935Y-84167700D01*
X79377933Y-84167700D01*
X76392500Y-84167700D01*
X76324379Y-84147698D01*
X76277886Y-84094042D01*
X76266500Y-84041700D01*
X76266500Y-83584453D01*
X76266499Y-83584449D01*
X76266246Y-83583179D01*
X76254867Y-83525969D01*
X76210552Y-83459648D01*
X76144231Y-83415333D01*
X76144228Y-83415332D01*
X76085750Y-83403700D01*
X76085748Y-83403700D01*
X75284252Y-83403700D01*
X75284249Y-83403700D01*
X75225771Y-83415332D01*
X75225768Y-83415333D01*
X75159448Y-83459647D01*
X75154764Y-83466658D01*
X75100286Y-83512185D01*
X75029843Y-83521031D01*
X74965799Y-83490389D01*
X74945236Y-83466658D01*
X74940551Y-83459647D01*
X74874231Y-83415333D01*
X74874228Y-83415332D01*
X74815750Y-83403700D01*
X74815748Y-83403700D01*
X74014252Y-83403700D01*
X74014249Y-83403700D01*
X73955771Y-83415332D01*
X73955768Y-83415333D01*
X73889448Y-83459647D01*
X73884764Y-83466658D01*
X73830286Y-83512185D01*
X73759843Y-83521031D01*
X73714644Y-83504379D01*
X73690757Y-83489887D01*
X73670552Y-83459648D01*
X73604231Y-83415333D01*
X73550134Y-83404572D01*
X73531144Y-83393051D01*
X73521577Y-83382571D01*
X73509008Y-83375996D01*
X73498118Y-83356872D01*
X73483279Y-83340616D01*
X73480897Y-83326629D01*
X73473877Y-83314301D01*
X73470500Y-83285326D01*
X73470500Y-82825817D01*
X73490502Y-82757696D01*
X73509053Y-82737536D01*
X73507877Y-82736360D01*
X73523294Y-82720943D01*
X76249500Y-82720943D01*
X76249500Y-82879057D01*
X76283522Y-83006028D01*
X76290424Y-83031788D01*
X76369477Y-83168712D01*
X76369485Y-83168722D01*
X76481277Y-83280514D01*
X76481282Y-83280518D01*
X76481284Y-83280520D01*
X76481285Y-83280521D01*
X76481287Y-83280522D01*
X76618211Y-83359575D01*
X76618213Y-83359575D01*
X76618216Y-83359577D01*
X76770943Y-83400500D01*
X76770945Y-83400500D01*
X76929055Y-83400500D01*
X76929057Y-83400500D01*
X77081784Y-83359577D01*
X77081787Y-83359575D01*
X77081788Y-83359575D01*
X77182547Y-83301402D01*
X77218716Y-83280520D01*
X77271354Y-83227882D01*
X77336360Y-83162877D01*
X77338818Y-83165335D01*
X77383164Y-83132939D01*
X77409887Y-83128278D01*
X77409664Y-83126578D01*
X77417850Y-83125500D01*
X77417853Y-83125500D01*
X77500639Y-83103318D01*
X77574862Y-83060465D01*
X78435465Y-82199862D01*
X78478318Y-82125639D01*
X78500500Y-82042853D01*
X78500500Y-81957147D01*
X78500500Y-80275817D01*
X78520502Y-80207696D01*
X78539053Y-80187536D01*
X78537877Y-80186360D01*
X78655514Y-80068722D01*
X78655520Y-80068716D01*
X78705863Y-79981518D01*
X78734575Y-79931788D01*
X78734575Y-79931787D01*
X78734577Y-79931784D01*
X78775500Y-79779057D01*
X78775500Y-79620943D01*
X78734577Y-79468216D01*
X78734575Y-79468213D01*
X78734575Y-79468211D01*
X78655522Y-79331287D01*
X78655514Y-79331277D01*
X78543722Y-79219485D01*
X78543712Y-79219477D01*
X78406788Y-79140424D01*
X78379361Y-79133075D01*
X78254057Y-79099500D01*
X78095943Y-79099500D01*
X78036514Y-79115424D01*
X77943211Y-79140424D01*
X77806287Y-79219477D01*
X77806277Y-79219485D01*
X77694485Y-79331277D01*
X77694477Y-79331287D01*
X77615424Y-79468211D01*
X77596525Y-79538746D01*
X77574500Y-79620943D01*
X77574500Y-79779057D01*
X77601810Y-79880980D01*
X77615424Y-79931788D01*
X77694477Y-80068712D01*
X77694485Y-80068722D01*
X77812123Y-80186360D01*
X77809664Y-80188818D01*
X77842061Y-80233164D01*
X77849500Y-80275817D01*
X77849500Y-81812981D01*
X77829498Y-81881102D01*
X77812595Y-81902076D01*
X77396049Y-82318622D01*
X77333737Y-82352648D01*
X77262922Y-82347583D01*
X77225845Y-82323754D01*
X77225268Y-82324508D01*
X77218712Y-82319477D01*
X77081788Y-82240424D01*
X77063743Y-82235589D01*
X76929057Y-82199500D01*
X76770943Y-82199500D01*
X76709954Y-82215842D01*
X76618211Y-82240424D01*
X76481287Y-82319477D01*
X76481277Y-82319485D01*
X76369485Y-82431277D01*
X76369477Y-82431287D01*
X76290424Y-82568211D01*
X76273526Y-82631277D01*
X76249500Y-82720943D01*
X73523294Y-82720943D01*
X73620647Y-82623590D01*
X73625514Y-82618722D01*
X73625520Y-82618716D01*
X73682811Y-82519485D01*
X73704575Y-82481788D01*
X73704575Y-82481787D01*
X73704577Y-82481784D01*
X73745500Y-82329057D01*
X73745500Y-82170943D01*
X73704577Y-82018216D01*
X73704575Y-82018213D01*
X73704575Y-82018211D01*
X73625522Y-81881287D01*
X73625514Y-81881277D01*
X73507877Y-81763640D01*
X73510317Y-81761199D01*
X73477882Y-81716677D01*
X73470500Y-81674182D01*
X73470500Y-79680929D01*
X73490502Y-79612808D01*
X73544158Y-79566315D01*
X73614432Y-79556211D01*
X73659498Y-79571809D01*
X73678758Y-79582929D01*
X73768211Y-79634575D01*
X73768213Y-79634575D01*
X73768216Y-79634577D01*
X73920943Y-79675500D01*
X73920945Y-79675500D01*
X74079055Y-79675500D01*
X74079057Y-79675500D01*
X74231784Y-79634577D01*
X74231787Y-79634575D01*
X74231788Y-79634575D01*
X74321242Y-79582929D01*
X74368716Y-79555520D01*
X74480520Y-79443716D01*
X74529500Y-79358879D01*
X74559575Y-79306788D01*
X74559575Y-79306787D01*
X74559577Y-79306784D01*
X74600500Y-79154057D01*
X74600500Y-78995943D01*
X74600500Y-78987684D01*
X74603983Y-78987684D01*
X74612410Y-78933453D01*
X74637324Y-78898001D01*
X75147923Y-78387404D01*
X75210235Y-78353379D01*
X75237018Y-78350500D01*
X78387983Y-78350500D01*
X78456104Y-78370502D01*
G37*
%TD.AperFunction*%
%TA.AperFunction,Conductor*%
G36*
X72424199Y-76732415D02*
G01*
X72444763Y-76756147D01*
X72480448Y-76809552D01*
X72546769Y-76853867D01*
X72605252Y-76865500D01*
X72605253Y-76865500D01*
X73143262Y-76865500D01*
X73211383Y-76885502D01*
X73257876Y-76939158D01*
X73267980Y-77009432D01*
X73238486Y-77074012D01*
X73232357Y-77080595D01*
X72884540Y-77428411D01*
X72884532Y-77428421D01*
X72841684Y-77502636D01*
X72841679Y-77502648D01*
X72829389Y-77548513D01*
X72829390Y-77548514D01*
X72819500Y-77585424D01*
X72819500Y-81674182D01*
X72799498Y-81742303D01*
X72780958Y-81762475D01*
X72782123Y-81763640D01*
X72664485Y-81881277D01*
X72664477Y-81881287D01*
X72585424Y-82018211D01*
X72576635Y-82051012D01*
X72544500Y-82170943D01*
X72544500Y-82329057D01*
X72573138Y-82435935D01*
X72585424Y-82481788D01*
X72664477Y-82618712D01*
X72664485Y-82618722D01*
X72782123Y-82736360D01*
X72779664Y-82738818D01*
X72812061Y-82783164D01*
X72819500Y-82825817D01*
X72819500Y-83285326D01*
X72799498Y-83353447D01*
X72758856Y-83393051D01*
X72739865Y-83404572D01*
X72685769Y-83415333D01*
X72619448Y-83459648D01*
X72599242Y-83489887D01*
X72575356Y-83504379D01*
X72566955Y-83506611D01*
X72560286Y-83512185D01*
X72533161Y-83515591D01*
X72506740Y-83522612D01*
X72498466Y-83519948D01*
X72489843Y-83521031D01*
X72465182Y-83509232D01*
X72439160Y-83500854D01*
X72433640Y-83494140D01*
X72425799Y-83490389D01*
X72405236Y-83466658D01*
X72400551Y-83459647D01*
X72334231Y-83415333D01*
X72334228Y-83415332D01*
X72275750Y-83403700D01*
X72275748Y-83403700D01*
X71474252Y-83403700D01*
X71474249Y-83403700D01*
X71415771Y-83415332D01*
X71415768Y-83415333D01*
X71349448Y-83459647D01*
X71344764Y-83466658D01*
X71290286Y-83512185D01*
X71219843Y-83521031D01*
X71175502Y-83504894D01*
X71151048Y-83490322D01*
X71130552Y-83459648D01*
X71064231Y-83415333D01*
X71005748Y-83403700D01*
X71005679Y-83403700D01*
X70987002Y-83392571D01*
X70977018Y-83381807D01*
X70964007Y-83375001D01*
X70953356Y-83356295D01*
X70938722Y-83340518D01*
X70936142Y-83326064D01*
X70928877Y-83313305D01*
X70925500Y-83284331D01*
X70925500Y-78050927D01*
X70945502Y-77982806D01*
X70962405Y-77961832D01*
X71055514Y-77868722D01*
X71055520Y-77868716D01*
X71134577Y-77731784D01*
X71175500Y-77579057D01*
X71175500Y-77420943D01*
X71134577Y-77268216D01*
X71134575Y-77268213D01*
X71134575Y-77268211D01*
X71055522Y-77131287D01*
X71055514Y-77131277D01*
X70943722Y-77019485D01*
X70943718Y-77019482D01*
X70943716Y-77019480D01*
X70943046Y-77019093D01*
X70942596Y-77018621D01*
X70937164Y-77014453D01*
X70937814Y-77013605D01*
X70894055Y-76967710D01*
X70880621Y-76897996D01*
X70905874Y-76833552D01*
X70918601Y-76816869D01*
X70929552Y-76809552D01*
X70967427Y-76752868D01*
X70969824Y-76749727D01*
X70995377Y-76730957D01*
X71019712Y-76710621D01*
X71023757Y-76710112D01*
X71027044Y-76707699D01*
X71058685Y-76705725D01*
X71090155Y-76701773D01*
X71093834Y-76703533D01*
X71097903Y-76703280D01*
X71125588Y-76718726D01*
X71154199Y-76732415D01*
X71158013Y-76736816D01*
X71159903Y-76737871D01*
X71161472Y-76740809D01*
X71174763Y-76756147D01*
X71210448Y-76809552D01*
X71276769Y-76853867D01*
X71335252Y-76865500D01*
X71335253Y-76865500D01*
X72074747Y-76865500D01*
X72074748Y-76865500D01*
X72133231Y-76853867D01*
X72199552Y-76809552D01*
X72235235Y-76756148D01*
X72289712Y-76710621D01*
X72360155Y-76701773D01*
X72424199Y-76732415D01*
G37*
%TD.AperFunction*%
%TA.AperFunction,Conductor*%
G36*
X85109012Y-70129685D02*
G01*
X85147396Y-70189411D01*
X85150949Y-70205198D01*
X85170828Y-70330712D01*
X85228269Y-70507497D01*
X85228272Y-70507503D01*
X85312665Y-70673133D01*
X85363875Y-70743617D01*
X85939215Y-70168277D01*
X85950006Y-70208549D01*
X86002667Y-70299761D01*
X86077141Y-70374235D01*
X86168353Y-70426896D01*
X86208623Y-70437686D01*
X85633283Y-71013025D01*
X85703768Y-71064236D01*
X85869398Y-71148629D01*
X85869404Y-71148632D01*
X86046189Y-71206073D01*
X86229803Y-71235155D01*
X86415691Y-71235155D01*
X86599304Y-71206073D01*
X86776089Y-71148632D01*
X86776095Y-71148629D01*
X86941727Y-71064235D01*
X86941729Y-71064234D01*
X87012209Y-71013026D01*
X87012210Y-71013025D01*
X86436871Y-70437686D01*
X86477141Y-70426896D01*
X86568353Y-70374235D01*
X86642827Y-70299761D01*
X86695488Y-70208549D01*
X86706278Y-70168278D01*
X87267595Y-70729595D01*
X87301621Y-70791907D01*
X87304500Y-70818690D01*
X87304500Y-71331147D01*
X87304500Y-71416853D01*
X87326682Y-71499639D01*
X87326683Y-71499641D01*
X87326684Y-71499643D01*
X87369532Y-71573858D01*
X87369540Y-71573868D01*
X89299595Y-73503922D01*
X89333620Y-73566234D01*
X89336500Y-73593017D01*
X89336500Y-74506957D01*
X89336500Y-74592663D01*
X89358682Y-74675449D01*
X89358683Y-74675451D01*
X89358684Y-74675453D01*
X89401532Y-74749668D01*
X89401534Y-74749670D01*
X89401535Y-74749672D01*
X89812724Y-75160861D01*
X89812725Y-75160862D01*
X89873328Y-75221465D01*
X89873329Y-75221466D01*
X89873331Y-75221467D01*
X89947547Y-75264316D01*
X89947549Y-75264316D01*
X89947552Y-75264318D01*
X90030337Y-75286500D01*
X90051863Y-75286500D01*
X90119984Y-75306502D01*
X90166477Y-75360158D01*
X90176581Y-75430432D01*
X90160982Y-75475500D01*
X90118424Y-75549211D01*
X90116531Y-75556277D01*
X90079839Y-75693216D01*
X90077500Y-75701944D01*
X90077500Y-75868315D01*
X90074039Y-75868315D01*
X90065523Y-75922684D01*
X90040673Y-75957998D01*
X89939537Y-76059135D01*
X89939532Y-76059141D01*
X89896684Y-76133356D01*
X89896679Y-76133368D01*
X89885390Y-76175497D01*
X89885391Y-76175498D01*
X89874500Y-76216144D01*
X89874500Y-76972131D01*
X89854498Y-77040252D01*
X89800842Y-77086745D01*
X89730568Y-77096849D01*
X89665988Y-77067355D01*
X89643736Y-77042134D01*
X89639891Y-77036379D01*
X89639883Y-77036370D01*
X89500531Y-76897018D01*
X89500529Y-76897016D01*
X89336661Y-76787523D01*
X89302995Y-76773578D01*
X89154585Y-76712105D01*
X89154582Y-76712104D01*
X88961291Y-76673655D01*
X88961288Y-76673655D01*
X88764206Y-76673655D01*
X88764202Y-76673655D01*
X88570911Y-76712104D01*
X88570908Y-76712105D01*
X88388832Y-76787523D01*
X88224969Y-76897013D01*
X88224962Y-76897018D01*
X88085610Y-77036370D01*
X88085605Y-77036377D01*
X87976115Y-77200240D01*
X87900697Y-77382316D01*
X87900696Y-77382319D01*
X87862247Y-77575610D01*
X87862247Y-77772699D01*
X87900696Y-77965990D01*
X87900697Y-77965993D01*
X87946981Y-78077732D01*
X87976115Y-78148069D01*
X88085608Y-78311937D01*
X88224965Y-78451294D01*
X88388833Y-78560787D01*
X88459466Y-78590043D01*
X88475281Y-78602788D01*
X88493759Y-78611227D01*
X88502358Y-78624607D01*
X88514745Y-78634589D01*
X88521161Y-78653864D01*
X88532143Y-78670953D01*
X88536169Y-78698953D01*
X88537167Y-78701952D01*
X88537247Y-78706451D01*
X88537247Y-78873500D01*
X88517245Y-78941621D01*
X88463589Y-78988114D01*
X88411248Y-78999500D01*
X88318483Y-78999500D01*
X88224697Y-79014353D01*
X88111657Y-79071949D01*
X88021949Y-79161657D01*
X87964786Y-79273848D01*
X87964354Y-79274696D01*
X87951353Y-79356784D01*
X87949500Y-79368484D01*
X87949500Y-79981516D01*
X87964353Y-80075302D01*
X88021949Y-80188342D01*
X88065012Y-80231405D01*
X88099038Y-80293717D01*
X88093973Y-80364532D01*
X88051426Y-80421368D01*
X87984906Y-80446179D01*
X87975917Y-80446500D01*
X87574083Y-80446500D01*
X87505962Y-80426498D01*
X87459469Y-80372842D01*
X87449365Y-80302568D01*
X87478859Y-80237988D01*
X87484988Y-80231405D01*
X87528048Y-80188344D01*
X87528050Y-80188342D01*
X87529060Y-80186360D01*
X87585646Y-80075304D01*
X87600500Y-79981519D01*
X87600499Y-79368482D01*
X87585646Y-79274696D01*
X87549878Y-79204498D01*
X87528050Y-79161657D01*
X87438342Y-79071949D01*
X87360849Y-79032465D01*
X87325304Y-79014354D01*
X87231519Y-78999500D01*
X87231515Y-78999500D01*
X86768483Y-78999500D01*
X86674697Y-79014353D01*
X86561657Y-79071949D01*
X86471949Y-79161657D01*
X86414786Y-79273848D01*
X86414354Y-79274696D01*
X86401353Y-79356784D01*
X86399500Y-79368484D01*
X86399500Y-79981516D01*
X86414353Y-80075302D01*
X86471949Y-80188342D01*
X86561654Y-80278047D01*
X86561658Y-80278050D01*
X86605703Y-80300492D01*
X86657317Y-80349238D01*
X86674500Y-80412758D01*
X86674500Y-80438853D01*
X86696682Y-80521639D01*
X86696683Y-80521641D01*
X86696684Y-80521643D01*
X86739532Y-80595858D01*
X86739540Y-80595868D01*
X86883077Y-80739405D01*
X86917103Y-80801717D01*
X86912038Y-80872532D01*
X86869491Y-80929368D01*
X86802971Y-80954179D01*
X86793982Y-80954500D01*
X85764530Y-80954500D01*
X85696409Y-80934498D01*
X85675435Y-80917595D01*
X85323434Y-80565594D01*
X85289408Y-80503282D01*
X85294473Y-80432467D01*
X85337020Y-80375631D01*
X85403540Y-80350820D01*
X85412518Y-80350499D01*
X85581518Y-80350499D01*
X85675304Y-80335646D01*
X85788342Y-80278050D01*
X85878050Y-80188342D01*
X85935646Y-80075304D01*
X85950500Y-79981519D01*
X85950499Y-79368482D01*
X85935646Y-79274696D01*
X85899878Y-79204498D01*
X85878050Y-79161657D01*
X85788344Y-79071951D01*
X85744296Y-79049507D01*
X85733053Y-79038888D01*
X85718988Y-79032465D01*
X85707769Y-79015008D01*
X85692681Y-79000758D01*
X85688371Y-78984824D01*
X85680604Y-78972739D01*
X85675500Y-78937241D01*
X85675500Y-78833919D01*
X85695502Y-78765798D01*
X85712405Y-78744824D01*
X85822966Y-78634263D01*
X85885278Y-78600237D01*
X85956093Y-78605302D01*
X85960274Y-78606947D01*
X86030912Y-78636206D01*
X86224206Y-78674655D01*
X86421288Y-78674655D01*
X86614582Y-78636206D01*
X86796661Y-78560787D01*
X86960529Y-78451294D01*
X87099886Y-78311937D01*
X87209379Y-78148069D01*
X87284798Y-77965990D01*
X87323247Y-77772696D01*
X87323247Y-77575614D01*
X87284798Y-77382320D01*
X87209379Y-77200241D01*
X87099886Y-77036373D01*
X86960529Y-76897016D01*
X86796661Y-76787523D01*
X86726027Y-76758265D01*
X86670748Y-76713717D01*
X86648327Y-76646354D01*
X86648247Y-76641857D01*
X86648247Y-73207216D01*
X86665128Y-73144216D01*
X86684230Y-73111131D01*
X86725153Y-72958404D01*
X86725153Y-72800290D01*
X86684230Y-72647563D01*
X86684228Y-72647560D01*
X86684228Y-72647558D01*
X86605175Y-72510634D01*
X86605167Y-72510624D01*
X86493375Y-72398832D01*
X86493365Y-72398824D01*
X86356441Y-72319771D01*
X86338396Y-72314936D01*
X86203710Y-72278847D01*
X86045596Y-72278847D01*
X85952123Y-72303892D01*
X85892864Y-72319771D01*
X85755940Y-72398824D01*
X85755930Y-72398832D01*
X85644138Y-72510624D01*
X85644130Y-72510634D01*
X85565077Y-72647558D01*
X85563534Y-72653317D01*
X85524153Y-72800290D01*
X85524153Y-72958404D01*
X85553130Y-73066547D01*
X85565077Y-73111135D01*
X85644130Y-73248059D01*
X85644138Y-73248069D01*
X85755930Y-73359861D01*
X85755935Y-73359865D01*
X85755937Y-73359867D01*
X85755938Y-73359868D01*
X85755940Y-73359869D01*
X85892865Y-73438922D01*
X85892866Y-73438922D01*
X85892869Y-73438924D01*
X85903854Y-73441867D01*
X85964478Y-73478817D01*
X85995502Y-73542676D01*
X85997247Y-73563575D01*
X85997247Y-76641857D01*
X85977245Y-76709978D01*
X85923589Y-76756471D01*
X85919470Y-76758263D01*
X85882500Y-76773578D01*
X85848831Y-76787524D01*
X85684969Y-76897013D01*
X85684962Y-76897018D01*
X85545610Y-77036370D01*
X85545605Y-77036377D01*
X85436115Y-77200240D01*
X85360697Y-77382316D01*
X85360696Y-77382319D01*
X85322247Y-77575610D01*
X85322247Y-77772699D01*
X85351294Y-77918722D01*
X85360696Y-77965990D01*
X85382535Y-78018716D01*
X85389952Y-78036621D01*
X85397541Y-78107211D01*
X85365762Y-78170698D01*
X85362639Y-78173934D01*
X85089537Y-78447037D01*
X85089532Y-78447043D01*
X85046684Y-78521258D01*
X85046680Y-78521269D01*
X85039115Y-78549498D01*
X85039116Y-78549499D01*
X85024500Y-78604048D01*
X85024500Y-78937241D01*
X85004498Y-79005362D01*
X84955704Y-79049507D01*
X84911655Y-79071951D01*
X84821949Y-79161657D01*
X84764786Y-79273848D01*
X84764354Y-79274696D01*
X84751353Y-79356784D01*
X84749500Y-79368484D01*
X84749500Y-79981512D01*
X84749501Y-79981516D01*
X84749501Y-79981518D01*
X84750098Y-79985291D01*
X84741000Y-80055699D01*
X84695278Y-80110014D01*
X84627450Y-80130987D01*
X84625650Y-80131000D01*
X84464000Y-80131000D01*
X84395879Y-80110998D01*
X84349386Y-80057342D01*
X84338000Y-80005000D01*
X84338000Y-76794648D01*
X84332569Y-76774378D01*
X84315818Y-76711862D01*
X84315816Y-76711859D01*
X84315816Y-76711857D01*
X84272967Y-76637641D01*
X84272963Y-76637636D01*
X84244966Y-76609639D01*
X84212362Y-76577035D01*
X84098994Y-76463667D01*
X84064968Y-76401355D01*
X84070033Y-76330540D01*
X84112580Y-76273704D01*
X84125083Y-76265456D01*
X84253716Y-76191191D01*
X84365520Y-76079387D01*
X84414170Y-75995122D01*
X84444575Y-75942459D01*
X84444575Y-75942458D01*
X84444577Y-75942455D01*
X84485500Y-75789728D01*
X84485500Y-75631614D01*
X84473361Y-75586314D01*
X84469599Y-75542154D01*
X84470583Y-75531462D01*
X84484501Y-75479523D01*
X84484501Y-75393818D01*
X84484500Y-75393814D01*
X84484500Y-70978016D01*
X84504502Y-70909895D01*
X84521405Y-70888921D01*
X84525717Y-70884609D01*
X84774859Y-70635466D01*
X84774862Y-70635465D01*
X84835465Y-70574862D01*
X84862481Y-70528069D01*
X84878318Y-70500639D01*
X84900500Y-70417853D01*
X84900500Y-70332147D01*
X84900500Y-70224909D01*
X84920502Y-70156788D01*
X84974158Y-70110295D01*
X85044432Y-70100191D01*
X85109012Y-70129685D01*
G37*
%TD.AperFunction*%
%TA.AperFunction,Conductor*%
G36*
X78444294Y-65471502D02*
G01*
X78465268Y-65488405D01*
X79598314Y-66621450D01*
X79598335Y-66621473D01*
X79663321Y-66686459D01*
X79663325Y-66686462D01*
X79663328Y-66686465D01*
X79663331Y-66686466D01*
X79663334Y-66686469D01*
X79720510Y-66719479D01*
X79720512Y-66719480D01*
X79737552Y-66729318D01*
X79737554Y-66729318D01*
X79737555Y-66729319D01*
X79820333Y-66751500D01*
X79820337Y-66751501D01*
X79913761Y-66751501D01*
X79913777Y-66751500D01*
X81473983Y-66751500D01*
X81503898Y-66760283D01*
X81534368Y-66766912D01*
X81539463Y-66770726D01*
X81542104Y-66771502D01*
X81563078Y-66788405D01*
X81649891Y-66875218D01*
X81683917Y-66937530D01*
X81678852Y-67008345D01*
X81677206Y-67012529D01*
X81647951Y-67083159D01*
X81647949Y-67083164D01*
X81609500Y-67276455D01*
X81609500Y-67473544D01*
X81647949Y-67666835D01*
X81647950Y-67666838D01*
X81678940Y-67741654D01*
X81723368Y-67848914D01*
X81832861Y-68012782D01*
X81972218Y-68152139D01*
X82136086Y-68261632D01*
X82318165Y-68337051D01*
X82511459Y-68375500D01*
X82708541Y-68375500D01*
X82901835Y-68337051D01*
X82901841Y-68337048D01*
X82901843Y-68337048D01*
X82966118Y-68310424D01*
X82972468Y-68307793D01*
X83043056Y-68300204D01*
X83106544Y-68331982D01*
X83109753Y-68335080D01*
X83650172Y-68875498D01*
X84212595Y-69437921D01*
X84246621Y-69500233D01*
X84249500Y-69527016D01*
X84249500Y-70187982D01*
X84229498Y-70256103D01*
X84212595Y-70277077D01*
X83898540Y-70591131D01*
X83898532Y-70591141D01*
X83855684Y-70665356D01*
X83855679Y-70665368D01*
X83844926Y-70705498D01*
X83844927Y-70705499D01*
X83833500Y-70748146D01*
X83833500Y-72198257D01*
X83813498Y-72266378D01*
X83759842Y-72312871D01*
X83689568Y-72322975D01*
X83624988Y-72293481D01*
X83586604Y-72233755D01*
X83583921Y-72222839D01*
X83579031Y-72198257D01*
X83572051Y-72163165D01*
X83496632Y-71981086D01*
X83387139Y-71817218D01*
X83247782Y-71677861D01*
X83083914Y-71568368D01*
X82950936Y-71513287D01*
X82901838Y-71492950D01*
X82901835Y-71492949D01*
X82708544Y-71454500D01*
X82708541Y-71454500D01*
X82511459Y-71454500D01*
X82511455Y-71454500D01*
X82318164Y-71492949D01*
X82318161Y-71492950D01*
X82136085Y-71568368D01*
X81972222Y-71677858D01*
X81972215Y-71677863D01*
X81832863Y-71817215D01*
X81832858Y-71817222D01*
X81723368Y-71981085D01*
X81647950Y-72163161D01*
X81647949Y-72163164D01*
X81609500Y-72356455D01*
X81609500Y-72553544D01*
X81647949Y-72746835D01*
X81647950Y-72746838D01*
X81680047Y-72824328D01*
X81723368Y-72928914D01*
X81832861Y-73092782D01*
X81972218Y-73232139D01*
X82136086Y-73341632D01*
X82318165Y-73417051D01*
X82511459Y-73455500D01*
X82708541Y-73455500D01*
X82901835Y-73417051D01*
X83083914Y-73341632D01*
X83247782Y-73232139D01*
X83387139Y-73092782D01*
X83496632Y-72928914D01*
X83572051Y-72746835D01*
X83583921Y-72687159D01*
X83616829Y-72624251D01*
X83678524Y-72589119D01*
X83749419Y-72592919D01*
X83807005Y-72634445D01*
X83832999Y-72700512D01*
X83833500Y-72711742D01*
X83833500Y-74738257D01*
X83813498Y-74806378D01*
X83759842Y-74852871D01*
X83689568Y-74862975D01*
X83624988Y-74833481D01*
X83586604Y-74773755D01*
X83583921Y-74762839D01*
X83579621Y-74741221D01*
X83572051Y-74703165D01*
X83496632Y-74521086D01*
X83387139Y-74357218D01*
X83247782Y-74217861D01*
X83083914Y-74108368D01*
X83011161Y-74078233D01*
X82901838Y-74032950D01*
X82901835Y-74032949D01*
X82708544Y-73994500D01*
X82708541Y-73994500D01*
X82511459Y-73994500D01*
X82511455Y-73994500D01*
X82318164Y-74032949D01*
X82318161Y-74032950D01*
X82136085Y-74108368D01*
X81972222Y-74217858D01*
X81972215Y-74217863D01*
X81832863Y-74357215D01*
X81832858Y-74357222D01*
X81723368Y-74521085D01*
X81647950Y-74703161D01*
X81647949Y-74703164D01*
X81609500Y-74896455D01*
X81609500Y-75093544D01*
X81647949Y-75286835D01*
X81647950Y-75286838D01*
X81713246Y-75444477D01*
X81723368Y-75468914D01*
X81832861Y-75632782D01*
X81972218Y-75772139D01*
X81972221Y-75772141D01*
X81977008Y-75776070D01*
X81975197Y-75778275D01*
X82012820Y-75823602D01*
X82021430Y-75894075D01*
X81990572Y-75958015D01*
X81930045Y-75995122D01*
X81897121Y-75999500D01*
X79312017Y-75999500D01*
X79243896Y-75979498D01*
X79222922Y-75962595D01*
X78862405Y-75602078D01*
X78828379Y-75539766D01*
X78825500Y-75512983D01*
X78825500Y-72895943D01*
X79249500Y-72895943D01*
X79249500Y-73054057D01*
X79276414Y-73154500D01*
X79290424Y-73206788D01*
X79369477Y-73343712D01*
X79369485Y-73343722D01*
X79481277Y-73455514D01*
X79481282Y-73455518D01*
X79481284Y-73455520D01*
X79481285Y-73455521D01*
X79481287Y-73455522D01*
X79618211Y-73534575D01*
X79618213Y-73534575D01*
X79618216Y-73534577D01*
X79770943Y-73575500D01*
X79770945Y-73575500D01*
X79929055Y-73575500D01*
X79929057Y-73575500D01*
X80081784Y-73534577D01*
X80081787Y-73534575D01*
X80081788Y-73534575D01*
X80178364Y-73478817D01*
X80218716Y-73455520D01*
X80330520Y-73343716D01*
X80385747Y-73248059D01*
X80409575Y-73206788D01*
X80409575Y-73206787D01*
X80409577Y-73206784D01*
X80450500Y-73054057D01*
X80450500Y-72895943D01*
X80409577Y-72743216D01*
X80409574Y-72743210D01*
X80396622Y-72720776D01*
X80379883Y-72651781D01*
X80403103Y-72584689D01*
X80416639Y-72568686D01*
X82110220Y-70875105D01*
X82172530Y-70841081D01*
X82243345Y-70846146D01*
X82247479Y-70847772D01*
X82318165Y-70877051D01*
X82511459Y-70915500D01*
X82708541Y-70915500D01*
X82901835Y-70877051D01*
X83083914Y-70801632D01*
X83247782Y-70692139D01*
X83387139Y-70552782D01*
X83496632Y-70388914D01*
X83572051Y-70206835D01*
X83610500Y-70013541D01*
X83610500Y-69816459D01*
X83572051Y-69623165D01*
X83496632Y-69441086D01*
X83387139Y-69277218D01*
X83247782Y-69137861D01*
X83083914Y-69028368D01*
X83063103Y-69019748D01*
X82901838Y-68952950D01*
X82901835Y-68952949D01*
X82708544Y-68914500D01*
X82708541Y-68914500D01*
X82511459Y-68914500D01*
X82511455Y-68914500D01*
X82318164Y-68952949D01*
X82318161Y-68952950D01*
X82136085Y-69028368D01*
X81972222Y-69137858D01*
X81972215Y-69137863D01*
X81832863Y-69277215D01*
X81832858Y-69277222D01*
X81723368Y-69441085D01*
X81647950Y-69623161D01*
X81647949Y-69623164D01*
X81609500Y-69816455D01*
X81609500Y-70013544D01*
X81647949Y-70206835D01*
X81647952Y-70206844D01*
X81677205Y-70277468D01*
X81684794Y-70348058D01*
X81653014Y-70411544D01*
X81649891Y-70414780D01*
X79684482Y-72380189D01*
X79628004Y-72412799D01*
X79618220Y-72415421D01*
X79618216Y-72415422D01*
X79618216Y-72415423D01*
X79617785Y-72415672D01*
X79481285Y-72494479D01*
X79481277Y-72494485D01*
X79369485Y-72606277D01*
X79369477Y-72606287D01*
X79290424Y-72743211D01*
X79268785Y-72823971D01*
X79249500Y-72895943D01*
X78825500Y-72895943D01*
X78825500Y-71832147D01*
X78824790Y-71829500D01*
X78824784Y-71829477D01*
X78803320Y-71749366D01*
X78803317Y-71749360D01*
X78788935Y-71724450D01*
X78777092Y-71703936D01*
X78760467Y-71675141D01*
X78760459Y-71675131D01*
X78474868Y-71389540D01*
X78474858Y-71389532D01*
X78400643Y-71346684D01*
X78400641Y-71346683D01*
X78400639Y-71346682D01*
X78317853Y-71324500D01*
X78317851Y-71324500D01*
X78302707Y-71324500D01*
X78234586Y-71304498D01*
X78205558Y-71278737D01*
X78185326Y-71254240D01*
X78178867Y-71221769D01*
X78134552Y-71155448D01*
X78068231Y-71111133D01*
X78066914Y-71110871D01*
X78054002Y-71095237D01*
X78047009Y-71078915D01*
X78035621Y-71065288D01*
X78033318Y-71046957D01*
X78026044Y-71029977D01*
X78028986Y-71012464D01*
X78026773Y-70994845D01*
X78034746Y-70978180D01*
X78037807Y-70959962D01*
X78049750Y-70946819D01*
X78057415Y-70930801D01*
X78081149Y-70910235D01*
X78113048Y-70888921D01*
X78134552Y-70874552D01*
X78134552Y-70874551D01*
X78137271Y-70872735D01*
X78205023Y-70851520D01*
X78207273Y-70851500D01*
X79093571Y-70851500D01*
X79093573Y-70851500D01*
X79176359Y-70829318D01*
X79250582Y-70786465D01*
X80610465Y-69426582D01*
X80640614Y-69374362D01*
X80653318Y-69352358D01*
X80675500Y-69269573D01*
X80675500Y-68300817D01*
X80695502Y-68232696D01*
X80714053Y-68212536D01*
X80712877Y-68211360D01*
X80830514Y-68093722D01*
X80830520Y-68093716D01*
X80878199Y-68011133D01*
X80909575Y-67956788D01*
X80909575Y-67956787D01*
X80909577Y-67956784D01*
X80950500Y-67804057D01*
X80950500Y-67645943D01*
X80909577Y-67493216D01*
X80909575Y-67493213D01*
X80909575Y-67493211D01*
X80830522Y-67356287D01*
X80830514Y-67356277D01*
X80718722Y-67244485D01*
X80718712Y-67244477D01*
X80581788Y-67165424D01*
X80561153Y-67159895D01*
X80429057Y-67124500D01*
X80270943Y-67124500D01*
X80177470Y-67149545D01*
X80118211Y-67165424D01*
X79981287Y-67244477D01*
X79981277Y-67244485D01*
X79869485Y-67356277D01*
X79869477Y-67356287D01*
X79790424Y-67493211D01*
X79785622Y-67511132D01*
X79756034Y-67621560D01*
X79747363Y-67653920D01*
X79744162Y-67653062D01*
X79721649Y-67703850D01*
X79662355Y-67742897D01*
X79591362Y-67743688D01*
X79531212Y-67705973D01*
X79516393Y-67685406D01*
X79510465Y-67675138D01*
X79212325Y-67376998D01*
X79178302Y-67314688D01*
X79177172Y-67287316D01*
X79175500Y-67287316D01*
X79175500Y-67120944D01*
X79165376Y-67083161D01*
X79134577Y-66968216D01*
X79134575Y-66968213D01*
X79134575Y-66968211D01*
X79055522Y-66831287D01*
X79055514Y-66831277D01*
X78943722Y-66719485D01*
X78943712Y-66719477D01*
X78806788Y-66640424D01*
X78788743Y-66635589D01*
X78654057Y-66599500D01*
X78495943Y-66599500D01*
X78402470Y-66624545D01*
X78343211Y-66640424D01*
X78206287Y-66719477D01*
X78206277Y-66719485D01*
X78094485Y-66831277D01*
X78094477Y-66831287D01*
X78015424Y-66968211D01*
X78007403Y-66998147D01*
X77974500Y-67120943D01*
X77974500Y-67279057D01*
X77995191Y-67356277D01*
X78015424Y-67431788D01*
X78094477Y-67568712D01*
X78094485Y-67568722D01*
X78206277Y-67680514D01*
X78206282Y-67680518D01*
X78206284Y-67680520D01*
X78206285Y-67680521D01*
X78206287Y-67680522D01*
X78343211Y-67759575D01*
X78343213Y-67759575D01*
X78343216Y-67759577D01*
X78495943Y-67800500D01*
X78495945Y-67800500D01*
X78662316Y-67800500D01*
X78662316Y-67802570D01*
X78685043Y-67807514D01*
X78716521Y-67812398D01*
X78720568Y-67815242D01*
X78723290Y-67815834D01*
X78752000Y-67837327D01*
X78887595Y-67972922D01*
X78921621Y-68035234D01*
X78924500Y-68062017D01*
X78924500Y-68925552D01*
X78904498Y-68993673D01*
X78850842Y-69040166D01*
X78830014Y-69046161D01*
X78830336Y-69047362D01*
X78822360Y-69049499D01*
X78822359Y-69049499D01*
X78745874Y-69069993D01*
X78669627Y-69090423D01*
X78532703Y-69169476D01*
X78532693Y-69169484D01*
X78420896Y-69281281D01*
X78416460Y-69287063D01*
X78359121Y-69328929D01*
X78288250Y-69333148D01*
X78226348Y-69298382D01*
X78193069Y-69235668D01*
X78190500Y-69210356D01*
X78190500Y-68740253D01*
X78190499Y-68740249D01*
X78183398Y-68704552D01*
X78178867Y-68681769D01*
X78134552Y-68615448D01*
X78068231Y-68571133D01*
X78068228Y-68571132D01*
X78009750Y-68559500D01*
X78009748Y-68559500D01*
X76191500Y-68559500D01*
X76123379Y-68539498D01*
X76076886Y-68485842D01*
X76065500Y-68433500D01*
X76065500Y-66615253D01*
X76065499Y-66615249D01*
X76062366Y-66599500D01*
X76053867Y-66556769D01*
X76009552Y-66490448D01*
X75943231Y-66446133D01*
X75943228Y-66446132D01*
X75884750Y-66434500D01*
X75884748Y-66434500D01*
X75145252Y-66434500D01*
X75145249Y-66434500D01*
X75086771Y-66446132D01*
X75086768Y-66446133D01*
X75020447Y-66490448D01*
X74984764Y-66543851D01*
X74930287Y-66589378D01*
X74859844Y-66598225D01*
X74795800Y-66567584D01*
X74775236Y-66543851D01*
X74739552Y-66490448D01*
X74673231Y-66446133D01*
X74673228Y-66446132D01*
X74614750Y-66434500D01*
X74614748Y-66434500D01*
X73875252Y-66434500D01*
X73875249Y-66434500D01*
X73816771Y-66446132D01*
X73816768Y-66446133D01*
X73750447Y-66490448D01*
X73714764Y-66543851D01*
X73660287Y-66589378D01*
X73589844Y-66598225D01*
X73525800Y-66567584D01*
X73505236Y-66543851D01*
X73469552Y-66490448D01*
X73403231Y-66446133D01*
X73403228Y-66446132D01*
X73344750Y-66434500D01*
X73344748Y-66434500D01*
X72605252Y-66434500D01*
X72605249Y-66434500D01*
X72546771Y-66446132D01*
X72546768Y-66446133D01*
X72480447Y-66490448D01*
X72444764Y-66543851D01*
X72390287Y-66589378D01*
X72319844Y-66598225D01*
X72255800Y-66567584D01*
X72235236Y-66543851D01*
X72199552Y-66490448D01*
X72133231Y-66446133D01*
X72133228Y-66446132D01*
X72074750Y-66434500D01*
X72074748Y-66434500D01*
X71335252Y-66434500D01*
X71335249Y-66434500D01*
X71276771Y-66446132D01*
X71276768Y-66446133D01*
X71210447Y-66490448D01*
X71174764Y-66543851D01*
X71120287Y-66589378D01*
X71049844Y-66598225D01*
X70985800Y-66567584D01*
X70965236Y-66543851D01*
X70929552Y-66490448D01*
X70863231Y-66446133D01*
X70863228Y-66446132D01*
X70804750Y-66434500D01*
X70804748Y-66434500D01*
X70065252Y-66434500D01*
X70065249Y-66434500D01*
X70006771Y-66446132D01*
X70006768Y-66446133D01*
X69940448Y-66490448D01*
X69896133Y-66556768D01*
X69896132Y-66556771D01*
X69884500Y-66615249D01*
X69884500Y-67318739D01*
X69876784Y-67357530D01*
X69877561Y-67357739D01*
X69875424Y-67365714D01*
X69875423Y-67365716D01*
X69834500Y-67518443D01*
X69834500Y-67676557D01*
X69871819Y-67815834D01*
X69877561Y-67837262D01*
X69876784Y-67837470D01*
X69884500Y-67876261D01*
X69884500Y-68433500D01*
X69864498Y-68501621D01*
X69810842Y-68548114D01*
X69758500Y-68559500D01*
X69201261Y-68559500D01*
X69162469Y-68551784D01*
X69162261Y-68552561D01*
X69154285Y-68550424D01*
X69154284Y-68550423D01*
X69001557Y-68509500D01*
X68843443Y-68509500D01*
X68690716Y-68550423D01*
X68690714Y-68550424D01*
X68682739Y-68552561D01*
X68682530Y-68551784D01*
X68643739Y-68559500D01*
X68085500Y-68559500D01*
X68017379Y-68539498D01*
X67970886Y-68485842D01*
X67959500Y-68433500D01*
X67959500Y-67228016D01*
X67968283Y-67198100D01*
X67974912Y-67167631D01*
X67978726Y-67162534D01*
X67979502Y-67159895D01*
X67996400Y-67138925D01*
X68125632Y-67009692D01*
X68151719Y-66989674D01*
X68200582Y-66961465D01*
X68625859Y-66536186D01*
X68625862Y-66536185D01*
X68686465Y-66475582D01*
X68719769Y-66417895D01*
X68726212Y-66410010D01*
X68728918Y-66408157D01*
X68734690Y-66400635D01*
X69646923Y-65488402D01*
X69709233Y-65454379D01*
X69736016Y-65451500D01*
X78376173Y-65451500D01*
X78444294Y-65471502D01*
G37*
%TD.AperFunction*%
%TA.AperFunction,Conductor*%
G36*
X74964199Y-68627415D02*
G01*
X74984763Y-68651147D01*
X75020448Y-68704552D01*
X75086769Y-68748867D01*
X75145252Y-68760500D01*
X75738500Y-68760500D01*
X75806621Y-68780502D01*
X75853114Y-68834158D01*
X75864500Y-68886500D01*
X75864500Y-69261073D01*
X75844498Y-69329194D01*
X75790842Y-69375687D01*
X75720568Y-69385791D01*
X75655988Y-69356297D01*
X75649405Y-69350168D01*
X75618722Y-69319485D01*
X75618712Y-69319477D01*
X75481788Y-69240424D01*
X75448382Y-69231473D01*
X75329057Y-69199500D01*
X75170943Y-69199500D01*
X75077470Y-69224545D01*
X75018211Y-69240424D01*
X74881287Y-69319477D01*
X74881277Y-69319485D01*
X74769485Y-69431277D01*
X74769477Y-69431287D01*
X74690424Y-69568211D01*
X74675700Y-69623164D01*
X74649500Y-69720943D01*
X74649500Y-69879057D01*
X74673135Y-69967264D01*
X74690424Y-70031788D01*
X74769477Y-70168712D01*
X74769485Y-70168722D01*
X74881277Y-70280514D01*
X74881282Y-70280518D01*
X74881284Y-70280520D01*
X74881285Y-70280521D01*
X74881287Y-70280522D01*
X75018211Y-70359575D01*
X75018213Y-70359575D01*
X75018216Y-70359577D01*
X75170943Y-70400500D01*
X75170945Y-70400500D01*
X75174947Y-70401027D01*
X75178073Y-70402410D01*
X75178920Y-70402637D01*
X75178884Y-70402768D01*
X75239874Y-70429750D01*
X75278965Y-70489015D01*
X75284500Y-70525949D01*
X75284500Y-72699050D01*
X75264498Y-72767171D01*
X75210842Y-72813664D01*
X75174957Y-72823971D01*
X75170947Y-72824499D01*
X75018211Y-72865424D01*
X74881287Y-72944477D01*
X74881277Y-72944485D01*
X74769485Y-73056277D01*
X74769477Y-73056287D01*
X74749148Y-73091500D01*
X74697766Y-73140493D01*
X74640029Y-73154500D01*
X70211500Y-73154500D01*
X70143379Y-73134498D01*
X70096886Y-73080842D01*
X70085500Y-73028500D01*
X70085500Y-72550253D01*
X70085499Y-72550249D01*
X70085421Y-72549859D01*
X70073867Y-72491769D01*
X70029552Y-72425448D01*
X69976148Y-72389764D01*
X69930621Y-72335288D01*
X69921773Y-72264845D01*
X69952415Y-72200801D01*
X69976149Y-72180235D01*
X70029552Y-72144552D01*
X70073867Y-72078231D01*
X70085500Y-72019748D01*
X70085500Y-71280252D01*
X70073867Y-71221769D01*
X70029552Y-71155448D01*
X69976148Y-71119764D01*
X69930621Y-71065288D01*
X69921773Y-70994845D01*
X69952415Y-70930801D01*
X69976149Y-70910235D01*
X69976658Y-70909895D01*
X70029552Y-70874552D01*
X70073867Y-70808231D01*
X70085500Y-70749748D01*
X70085500Y-70010252D01*
X70073867Y-69951769D01*
X70029552Y-69885448D01*
X69976148Y-69849764D01*
X69930621Y-69795288D01*
X69921773Y-69724845D01*
X69952415Y-69660801D01*
X69976149Y-69640235D01*
X69998068Y-69625589D01*
X70029552Y-69604552D01*
X70073867Y-69538231D01*
X70085500Y-69479748D01*
X70085500Y-68886500D01*
X70105502Y-68818379D01*
X70159158Y-68771886D01*
X70211500Y-68760500D01*
X70804747Y-68760500D01*
X70804748Y-68760500D01*
X70863231Y-68748867D01*
X70929552Y-68704552D01*
X70965235Y-68651148D01*
X71019712Y-68605621D01*
X71090155Y-68596773D01*
X71154199Y-68627415D01*
X71174763Y-68651147D01*
X71210448Y-68704552D01*
X71276769Y-68748867D01*
X71335252Y-68760500D01*
X71335253Y-68760500D01*
X72074747Y-68760500D01*
X72074748Y-68760500D01*
X72133231Y-68748867D01*
X72199552Y-68704552D01*
X72235235Y-68651148D01*
X72289712Y-68605621D01*
X72360155Y-68596773D01*
X72424199Y-68627415D01*
X72444763Y-68651147D01*
X72480448Y-68704552D01*
X72546769Y-68748867D01*
X72605252Y-68760500D01*
X72605253Y-68760500D01*
X73344747Y-68760500D01*
X73344748Y-68760500D01*
X73403231Y-68748867D01*
X73469552Y-68704552D01*
X73505235Y-68651148D01*
X73559712Y-68605621D01*
X73630155Y-68596773D01*
X73694199Y-68627415D01*
X73714763Y-68651147D01*
X73750448Y-68704552D01*
X73816769Y-68748867D01*
X73875252Y-68760500D01*
X73875253Y-68760500D01*
X74614747Y-68760500D01*
X74614748Y-68760500D01*
X74673231Y-68748867D01*
X74739552Y-68704552D01*
X74775235Y-68651148D01*
X74829712Y-68605621D01*
X74900155Y-68596773D01*
X74964199Y-68627415D01*
G37*
%TD.AperFunction*%
%TA.AperFunction,Conductor*%
G36*
X83991621Y-66320502D02*
G01*
X84038114Y-66374158D01*
X84049500Y-66426500D01*
X84049500Y-67251150D01*
X84059316Y-67300500D01*
X84061133Y-67309631D01*
X84105448Y-67375952D01*
X84171769Y-67420267D01*
X84230252Y-67431900D01*
X84643200Y-67431900D01*
X84711321Y-67451902D01*
X84757814Y-67505558D01*
X84769200Y-67557900D01*
X84769200Y-67976339D01*
X84769200Y-68062045D01*
X84791382Y-68144831D01*
X84791383Y-68144833D01*
X84791384Y-68144835D01*
X84834232Y-68219050D01*
X84834234Y-68219052D01*
X84834235Y-68219054D01*
X85282876Y-68667695D01*
X85597840Y-68982658D01*
X85631865Y-69044971D01*
X85634357Y-69081640D01*
X85633283Y-69095283D01*
X86208624Y-69670623D01*
X86168353Y-69681414D01*
X86077141Y-69734075D01*
X86002667Y-69808549D01*
X85950006Y-69899761D01*
X85939215Y-69940030D01*
X85363876Y-69364691D01*
X85363874Y-69364691D01*
X85312667Y-69435172D01*
X85228272Y-69600806D01*
X85228269Y-69600812D01*
X85170828Y-69777597D01*
X85150949Y-69903111D01*
X85120536Y-69967264D01*
X85060268Y-70004791D01*
X84989279Y-70003777D01*
X84930107Y-69964544D01*
X84901539Y-69899549D01*
X84900500Y-69883400D01*
X84900500Y-69393016D01*
X84900501Y-69393003D01*
X84900501Y-69297147D01*
X84900500Y-69297143D01*
X84878318Y-69214362D01*
X84874370Y-69207523D01*
X84874368Y-69207521D01*
X84869737Y-69199499D01*
X84835465Y-69140138D01*
X84774862Y-69079535D01*
X84774859Y-69079533D01*
X83570105Y-67874778D01*
X83536081Y-67812469D01*
X83541146Y-67741654D01*
X83542794Y-67737467D01*
X83572048Y-67666843D01*
X83572048Y-67666841D01*
X83572051Y-67666835D01*
X83610500Y-67473541D01*
X83610500Y-67276459D01*
X83572051Y-67083165D01*
X83496632Y-66901086D01*
X83387139Y-66737218D01*
X83247782Y-66597861D01*
X83148114Y-66531265D01*
X83102586Y-66476788D01*
X83093738Y-66406345D01*
X83124379Y-66342301D01*
X83184781Y-66304990D01*
X83218116Y-66300500D01*
X83923500Y-66300500D01*
X83991621Y-66320502D01*
G37*
%TD.AperFunction*%
%TA.AperFunction,Conductor*%
G36*
X98314504Y-62809982D02*
G01*
X98474358Y-62823968D01*
X98495986Y-62827780D01*
X98645678Y-62867891D01*
X98666309Y-62875400D01*
X98806765Y-62940896D01*
X98825776Y-62951872D01*
X98905324Y-63007572D01*
X98952723Y-63040761D01*
X98969547Y-63054879D01*
X99079120Y-63164452D01*
X99093238Y-63181276D01*
X99182124Y-63308218D01*
X99193106Y-63327239D01*
X99258597Y-63467686D01*
X99266109Y-63488324D01*
X99306218Y-63638011D01*
X99310032Y-63659641D01*
X99324022Y-63819547D01*
X99324501Y-63830481D01*
X99339290Y-102311630D01*
X99335018Y-102344211D01*
X99323080Y-102388878D01*
X99323080Y-102381580D01*
X99323080Y-102381080D01*
X99322080Y-102381080D01*
X99322080Y-102381580D01*
X99320644Y-102397992D01*
X99320642Y-102398000D01*
X99307611Y-102546938D01*
X99303798Y-102568568D01*
X99263689Y-102718255D01*
X99256177Y-102738893D01*
X99190686Y-102879340D01*
X99179704Y-102898361D01*
X99090818Y-103025303D01*
X99076700Y-103042127D01*
X98967127Y-103151700D01*
X98950303Y-103165818D01*
X98823361Y-103254704D01*
X98804340Y-103265686D01*
X98663893Y-103331177D01*
X98643255Y-103338689D01*
X98493568Y-103378798D01*
X98471938Y-103382611D01*
X98313355Y-103396486D01*
X98313293Y-103396492D01*
X98306580Y-103397080D01*
X98306080Y-103397080D01*
X98306080Y-103397270D01*
X98261689Y-103402054D01*
X98259160Y-103401598D01*
X98248166Y-103402779D01*
X62688956Y-103396209D01*
X62677997Y-103395730D01*
X62528062Y-103382612D01*
X62506433Y-103378798D01*
X62356745Y-103338689D01*
X62336106Y-103331177D01*
X62195659Y-103265686D01*
X62176638Y-103254704D01*
X62123395Y-103217423D01*
X62049696Y-103165818D01*
X62032872Y-103151700D01*
X61923299Y-103042127D01*
X61909181Y-103025303D01*
X61868250Y-102966847D01*
X61820292Y-102898356D01*
X61809316Y-102879345D01*
X61743820Y-102738889D01*
X61736310Y-102718255D01*
X61716864Y-102645684D01*
X61696200Y-102568566D01*
X61692387Y-102546938D01*
X61678399Y-102387054D01*
X61677920Y-102376072D01*
X61677920Y-102329400D01*
X61677860Y-102328843D01*
X61677391Y-97977743D01*
X67464500Y-97977743D01*
X67464500Y-98135857D01*
X67475010Y-98175080D01*
X67479207Y-98190743D01*
X67483500Y-98223354D01*
X67483500Y-98965548D01*
X67495133Y-99024031D01*
X67539448Y-99090352D01*
X67605769Y-99134667D01*
X67664252Y-99146300D01*
X67664253Y-99146300D01*
X68465747Y-99146300D01*
X68465748Y-99146300D01*
X68524231Y-99134667D01*
X68590552Y-99090352D01*
X68595235Y-99083342D01*
X68649711Y-99037816D01*
X68720154Y-99028967D01*
X68784198Y-99059608D01*
X68804763Y-99083340D01*
X68809448Y-99090352D01*
X68875769Y-99134667D01*
X68934252Y-99146300D01*
X68934253Y-99146300D01*
X69735747Y-99146300D01*
X69735748Y-99146300D01*
X69735749Y-99146299D01*
X69735755Y-99146299D01*
X69762951Y-99140889D01*
X69794231Y-99134667D01*
X69794232Y-99134666D01*
X69794751Y-99134563D01*
X69865465Y-99140889D01*
X69908430Y-99169046D01*
X69999547Y-99260163D01*
X69999549Y-99260164D01*
X70113781Y-99316008D01*
X70113783Y-99316009D01*
X70187840Y-99326799D01*
X70187848Y-99326800D01*
X70414500Y-99326800D01*
X70414500Y-96786800D01*
X70187840Y-96786800D01*
X70113783Y-96797590D01*
X70113781Y-96797591D01*
X69999549Y-96853434D01*
X69908430Y-96944554D01*
X69846118Y-96978579D01*
X69794753Y-96979037D01*
X69794231Y-96978933D01*
X69777258Y-96975556D01*
X69735750Y-96967300D01*
X69735748Y-96967300D01*
X68934252Y-96967300D01*
X68934249Y-96967300D01*
X68875771Y-96978932D01*
X68875768Y-96978933D01*
X68809448Y-97023247D01*
X68804764Y-97030258D01*
X68750286Y-97075785D01*
X68679843Y-97084631D01*
X68615799Y-97053989D01*
X68595236Y-97030258D01*
X68590551Y-97023247D01*
X68524231Y-96978933D01*
X68524228Y-96978932D01*
X68465750Y-96967300D01*
X68465748Y-96967300D01*
X67664252Y-96967300D01*
X67664249Y-96967300D01*
X67622604Y-96975584D01*
X67622603Y-96975584D01*
X67605769Y-96978933D01*
X67539448Y-97023248D01*
X67495133Y-97089569D01*
X67491784Y-97106403D01*
X67491784Y-97106404D01*
X67483500Y-97148049D01*
X67483500Y-97890244D01*
X67479207Y-97922854D01*
X67466322Y-97970944D01*
X67464500Y-97977743D01*
X61677391Y-97977743D01*
X61675500Y-80449793D01*
X61675499Y-80449792D01*
X61675497Y-80431034D01*
X61673080Y-80418884D01*
X61673082Y-80354487D01*
X61642198Y-80179324D01*
X61581366Y-80012184D01*
X61492435Y-79858148D01*
X61378105Y-79721895D01*
X61241852Y-79607565D01*
X61087816Y-79518634D01*
X61087814Y-79518633D01*
X60998984Y-79486303D01*
X60920676Y-79457802D01*
X60920673Y-79457801D01*
X60920672Y-79457801D01*
X60811074Y-79438477D01*
X60745513Y-79426918D01*
X60745512Y-79426918D01*
X60656580Y-79426920D01*
X60650261Y-79426920D01*
X57721555Y-79422705D01*
X57719438Y-79422080D01*
X57673924Y-79422080D01*
X57662944Y-79421601D01*
X57503057Y-79407615D01*
X57481428Y-79403801D01*
X57331745Y-79363696D01*
X57311105Y-79356184D01*
X57232220Y-79319400D01*
X57170656Y-79290692D01*
X57151638Y-79279712D01*
X57024689Y-79190822D01*
X57007864Y-79176704D01*
X56898295Y-79067135D01*
X56884177Y-79050310D01*
X56795287Y-78923361D01*
X56784308Y-78904346D01*
X56718813Y-78763890D01*
X56711304Y-78743259D01*
X56671197Y-78593565D01*
X56667385Y-78571947D01*
X56653399Y-78412055D01*
X56652920Y-78401076D01*
X56652920Y-78373981D01*
X56650500Y-78351469D01*
X56650500Y-75080249D01*
X58249501Y-75080249D01*
X58249501Y-77219750D01*
X58259141Y-77268216D01*
X58261134Y-77278231D01*
X58305449Y-77344552D01*
X58371770Y-77388867D01*
X58430253Y-77400500D01*
X58430254Y-77400500D01*
X61469748Y-77400500D01*
X61469749Y-77400500D01*
X61528232Y-77388867D01*
X61594553Y-77344552D01*
X61638868Y-77278231D01*
X61650501Y-77219748D01*
X61650501Y-75153928D01*
X61670503Y-75085807D01*
X61724159Y-75039314D01*
X61794433Y-75029210D01*
X61859013Y-75058704D01*
X61865596Y-75064833D01*
X61909277Y-75108514D01*
X61909282Y-75108518D01*
X61909284Y-75108520D01*
X61909285Y-75108521D01*
X61909287Y-75108522D01*
X62046211Y-75187575D01*
X62046213Y-75187575D01*
X62046216Y-75187577D01*
X62198943Y-75228500D01*
X62198945Y-75228500D01*
X62365316Y-75228500D01*
X62365316Y-75230570D01*
X62388057Y-75235517D01*
X62419547Y-75240410D01*
X62423579Y-75243244D01*
X62426291Y-75243834D01*
X62455001Y-75265327D01*
X62537595Y-75347921D01*
X62571621Y-75410233D01*
X62574500Y-75437016D01*
X62574500Y-94158867D01*
X62574500Y-94244573D01*
X62596682Y-94327359D01*
X62596683Y-94327361D01*
X62596684Y-94327363D01*
X62639532Y-94401578D01*
X62639540Y-94401588D01*
X64262350Y-96024396D01*
X64792813Y-96554859D01*
X64792815Y-96554862D01*
X64853418Y-96615465D01*
X64890530Y-96636891D01*
X64899793Y-96642239D01*
X64927637Y-96658316D01*
X64927638Y-96658316D01*
X64927641Y-96658318D01*
X65010427Y-96680500D01*
X65155326Y-96680500D01*
X65223447Y-96700502D01*
X65269940Y-96754158D01*
X65278905Y-96781917D01*
X65281983Y-96797393D01*
X65285333Y-96814231D01*
X65329648Y-96880552D01*
X65395969Y-96924867D01*
X65454452Y-96936500D01*
X66196645Y-96936500D01*
X66229255Y-96940792D01*
X66284143Y-96955500D01*
X66284144Y-96955500D01*
X66442255Y-96955500D01*
X66442257Y-96955500D01*
X66497144Y-96940792D01*
X66529755Y-96936500D01*
X67271947Y-96936500D01*
X67271948Y-96936500D01*
X67330431Y-96924867D01*
X67396752Y-96880552D01*
X67441067Y-96814231D01*
X67452700Y-96755748D01*
X67452700Y-95954252D01*
X67441067Y-95895769D01*
X67396752Y-95829448D01*
X67389742Y-95824764D01*
X67344216Y-95770289D01*
X67335367Y-95699846D01*
X67349955Y-95658177D01*
X67364720Y-95631955D01*
X67396752Y-95610552D01*
X67441067Y-95544231D01*
X67452700Y-95485748D01*
X67452700Y-95475714D01*
X67465652Y-95452713D01*
X67477258Y-95441405D01*
X67484770Y-95427045D01*
X67502167Y-95417137D01*
X67516505Y-95403170D01*
X67532381Y-95399932D01*
X67546465Y-95391913D01*
X67566455Y-95392984D01*
X67586070Y-95388985D01*
X67601177Y-95394845D01*
X67617360Y-95395713D01*
X67633598Y-95407422D01*
X67652261Y-95414662D01*
X67661801Y-95427759D01*
X67674946Y-95437238D01*
X67684561Y-95451536D01*
X67694477Y-95468712D01*
X67694485Y-95468722D01*
X67806277Y-95580514D01*
X67806282Y-95580518D01*
X67806284Y-95580520D01*
X67806285Y-95580521D01*
X67806287Y-95580522D01*
X67943211Y-95659575D01*
X67943213Y-95659575D01*
X67943216Y-95659577D01*
X68095943Y-95700500D01*
X68095945Y-95700500D01*
X68254055Y-95700500D01*
X68254057Y-95700500D01*
X68406784Y-95659577D01*
X68406787Y-95659575D01*
X68406788Y-95659575D01*
X68483589Y-95615234D01*
X68543716Y-95580520D01*
X68584450Y-95539786D01*
X68661360Y-95462877D01*
X68663818Y-95465335D01*
X68708164Y-95432939D01*
X68750817Y-95425500D01*
X72517851Y-95425500D01*
X72517853Y-95425500D01*
X72600639Y-95403318D01*
X72674862Y-95360465D01*
X74509632Y-93525693D01*
X74571943Y-93491670D01*
X74642758Y-93496734D01*
X74699594Y-93539281D01*
X74720431Y-93582175D01*
X74740423Y-93656784D01*
X74740424Y-93656786D01*
X74740425Y-93656789D01*
X74819477Y-93793712D01*
X74819485Y-93793722D01*
X74931277Y-93905514D01*
X74931282Y-93905518D01*
X74931284Y-93905520D01*
X74936498Y-93908530D01*
X74985491Y-93959909D01*
X74999500Y-94017650D01*
X74999500Y-95649182D01*
X74979498Y-95717303D01*
X74960958Y-95737475D01*
X74962123Y-95738640D01*
X74844485Y-95856277D01*
X74844477Y-95856287D01*
X74765424Y-95993211D01*
X74749997Y-96050785D01*
X74724500Y-96145943D01*
X74724500Y-96304057D01*
X74739356Y-96359500D01*
X74765424Y-96456788D01*
X74844477Y-96593712D01*
X74844485Y-96593722D01*
X74956277Y-96705514D01*
X74956282Y-96705518D01*
X74956284Y-96705520D01*
X74956285Y-96705521D01*
X74956287Y-96705522D01*
X75093211Y-96784575D01*
X75093213Y-96784575D01*
X75093216Y-96784577D01*
X75126834Y-96793585D01*
X75187456Y-96830536D01*
X75218477Y-96894396D01*
X75210049Y-96964891D01*
X75184055Y-97003643D01*
X75174981Y-97012868D01*
X75159448Y-97023248D01*
X75148164Y-97040135D01*
X75139833Y-97048606D01*
X75118778Y-97060330D01*
X75100286Y-97075785D01*
X75088331Y-97077286D01*
X75077805Y-97083148D01*
X75053754Y-97081628D01*
X75029843Y-97084631D01*
X75018974Y-97079430D01*
X75006950Y-97078671D01*
X74987540Y-97064391D01*
X74965799Y-97053989D01*
X74952429Y-97038559D01*
X74949763Y-97036598D01*
X74948999Y-97034600D01*
X74945236Y-97030258D01*
X74940551Y-97023247D01*
X74874231Y-96978933D01*
X74874228Y-96978932D01*
X74815750Y-96967300D01*
X74815748Y-96967300D01*
X74014252Y-96967300D01*
X74014249Y-96967300D01*
X73955771Y-96978932D01*
X73955768Y-96978933D01*
X73889448Y-97023247D01*
X73884764Y-97030258D01*
X73830286Y-97075785D01*
X73759843Y-97084631D01*
X73695799Y-97053989D01*
X73675236Y-97030258D01*
X73670551Y-97023247D01*
X73604231Y-96978933D01*
X73604228Y-96978932D01*
X73545750Y-96967300D01*
X73545748Y-96967300D01*
X72744252Y-96967300D01*
X72744249Y-96967300D01*
X72685771Y-96978932D01*
X72685768Y-96978933D01*
X72619448Y-97023247D01*
X72614764Y-97030258D01*
X72560286Y-97075785D01*
X72489843Y-97084631D01*
X72425799Y-97053989D01*
X72405236Y-97030258D01*
X72400551Y-97023247D01*
X72334231Y-96978933D01*
X72334228Y-96978932D01*
X72275750Y-96967300D01*
X72275748Y-96967300D01*
X71474252Y-96967300D01*
X71474249Y-96967300D01*
X71415246Y-96979037D01*
X71344532Y-96972709D01*
X71301569Y-96944553D01*
X71210452Y-96853436D01*
X71210450Y-96853435D01*
X71096218Y-96797591D01*
X71096216Y-96797590D01*
X71022159Y-96786800D01*
X70795500Y-96786800D01*
X70795500Y-99326800D01*
X71022152Y-99326800D01*
X71022159Y-99326799D01*
X71096216Y-99316009D01*
X71096218Y-99316008D01*
X71210449Y-99260165D01*
X71301568Y-99169046D01*
X71363880Y-99135021D01*
X71415248Y-99134562D01*
X71415766Y-99134665D01*
X71415769Y-99134667D01*
X71474252Y-99146300D01*
X71474254Y-99146300D01*
X72275747Y-99146300D01*
X72275748Y-99146300D01*
X72334231Y-99134667D01*
X72400552Y-99090352D01*
X72405235Y-99083342D01*
X72459711Y-99037816D01*
X72530154Y-99028967D01*
X72594198Y-99059608D01*
X72614763Y-99083340D01*
X72619448Y-99090352D01*
X72685769Y-99134667D01*
X72744252Y-99146300D01*
X72858783Y-99146300D01*
X72926904Y-99166302D01*
X72947878Y-99183205D01*
X74028321Y-100263649D01*
X74028326Y-100263653D01*
X74028328Y-100263655D01*
X74102551Y-100306508D01*
X74185337Y-100328690D01*
X74185339Y-100328690D01*
X74644663Y-100328690D01*
X74652851Y-100327612D01*
X74652989Y-100328661D01*
X74669425Y-100326500D01*
X95241851Y-100326500D01*
X95241853Y-100326500D01*
X95324639Y-100304318D01*
X95398862Y-100261465D01*
X97031108Y-98629219D01*
X97093420Y-98595194D01*
X97164235Y-98600258D01*
X97209298Y-98629219D01*
X97212218Y-98632139D01*
X97376086Y-98741632D01*
X97558165Y-98817051D01*
X97751459Y-98855500D01*
X97948541Y-98855500D01*
X98141835Y-98817051D01*
X98323914Y-98741632D01*
X98487782Y-98632139D01*
X98627139Y-98492782D01*
X98736632Y-98328914D01*
X98812051Y-98146835D01*
X98850500Y-97953541D01*
X98850500Y-97756459D01*
X98812051Y-97563165D01*
X98736632Y-97381086D01*
X98627139Y-97217218D01*
X98487782Y-97077861D01*
X98323914Y-96968368D01*
X98273046Y-96947298D01*
X98141838Y-96892950D01*
X98141835Y-96892949D01*
X97948544Y-96854500D01*
X97948541Y-96854500D01*
X97751459Y-96854500D01*
X97751455Y-96854500D01*
X97558164Y-96892949D01*
X97558161Y-96892950D01*
X97376085Y-96968368D01*
X97212222Y-97077858D01*
X97212215Y-97077863D01*
X97072863Y-97217215D01*
X97072858Y-97217222D01*
X96963368Y-97381085D01*
X96887950Y-97563161D01*
X96887949Y-97563164D01*
X96849500Y-97756455D01*
X96849500Y-97837983D01*
X96829498Y-97906104D01*
X96812595Y-97927078D01*
X95101078Y-99638595D01*
X95038766Y-99672621D01*
X95011983Y-99675500D01*
X93201827Y-99675500D01*
X93133706Y-99655498D01*
X93087213Y-99601842D01*
X93077109Y-99531568D01*
X93106603Y-99466988D01*
X93112718Y-99460418D01*
X93736465Y-98836672D01*
X93745670Y-98820726D01*
X93765690Y-98794635D01*
X94060465Y-98499862D01*
X94103318Y-98425639D01*
X94125500Y-98342853D01*
X94125500Y-98257147D01*
X94125500Y-97271254D01*
X94145502Y-97203133D01*
X94199158Y-97156640D01*
X94269432Y-97146536D01*
X94334012Y-97176030D01*
X94363766Y-97214051D01*
X94372713Y-97231610D01*
X94401516Y-97271254D01*
X94493034Y-97397220D01*
X94637779Y-97541965D01*
X94730588Y-97609394D01*
X94803390Y-97662287D01*
X94985781Y-97755220D01*
X95180466Y-97818477D01*
X95382648Y-97850500D01*
X95382651Y-97850500D01*
X95587349Y-97850500D01*
X95587352Y-97850500D01*
X95789534Y-97818477D01*
X95984219Y-97755220D01*
X96166610Y-97662287D01*
X96332219Y-97541966D01*
X96476966Y-97397219D01*
X96597287Y-97231610D01*
X96690220Y-97049219D01*
X96753477Y-96854534D01*
X96785500Y-96652352D01*
X96785500Y-96447648D01*
X96753477Y-96245466D01*
X96690220Y-96050781D01*
X96597287Y-95868390D01*
X96588492Y-95856284D01*
X96476965Y-95702779D01*
X96332220Y-95558034D01*
X96166612Y-95437714D01*
X96159791Y-95434239D01*
X95984219Y-95344780D01*
X95984216Y-95344779D01*
X95984214Y-95344778D01*
X95789538Y-95281524D01*
X95789536Y-95281523D01*
X95789534Y-95281523D01*
X95587352Y-95249500D01*
X95382648Y-95249500D01*
X95180466Y-95281523D01*
X95180464Y-95281523D01*
X95180461Y-95281524D01*
X94985785Y-95344778D01*
X94985779Y-95344781D01*
X94803387Y-95437714D01*
X94637779Y-95558034D01*
X94493034Y-95702779D01*
X94372712Y-95868390D01*
X94363766Y-95885949D01*
X94315018Y-95937564D01*
X94246103Y-95954629D01*
X94178901Y-95931728D01*
X94134749Y-95876130D01*
X94125500Y-95828745D01*
X94125500Y-94951500D01*
X94145502Y-94883379D01*
X94199158Y-94836886D01*
X94251500Y-94825500D01*
X96781252Y-94825500D01*
X96849373Y-94845502D01*
X96895866Y-94899158D01*
X96905970Y-94969432D01*
X96897661Y-94999718D01*
X96887951Y-95023159D01*
X96887949Y-95023164D01*
X96849500Y-95216455D01*
X96849500Y-95413544D01*
X96887949Y-95606835D01*
X96887950Y-95606838D01*
X96923091Y-95691677D01*
X96963368Y-95788914D01*
X97072861Y-95952782D01*
X97212218Y-96092139D01*
X97376086Y-96201632D01*
X97558165Y-96277051D01*
X97751459Y-96315500D01*
X97948541Y-96315500D01*
X98141835Y-96277051D01*
X98323914Y-96201632D01*
X98487782Y-96092139D01*
X98627139Y-95952782D01*
X98736632Y-95788914D01*
X98812051Y-95606835D01*
X98850500Y-95413541D01*
X98850500Y-95216459D01*
X98812051Y-95023165D01*
X98736632Y-94841086D01*
X98627139Y-94677218D01*
X98487782Y-94537861D01*
X98323914Y-94428368D01*
X98274355Y-94407840D01*
X98141838Y-94352950D01*
X98141835Y-94352949D01*
X97948544Y-94314500D01*
X97948541Y-94314500D01*
X97751459Y-94314500D01*
X97751455Y-94314500D01*
X97558164Y-94352949D01*
X97558159Y-94352951D01*
X97487529Y-94382206D01*
X97416939Y-94389794D01*
X97353453Y-94358013D01*
X97350245Y-94354918D01*
X97234862Y-94239535D01*
X97234861Y-94239534D01*
X97234858Y-94239532D01*
X97160643Y-94196684D01*
X97160641Y-94196683D01*
X97160639Y-94196682D01*
X97156920Y-94195685D01*
X97154140Y-94193991D01*
X97153008Y-94193522D01*
X97153081Y-94193345D01*
X97096299Y-94158732D01*
X97065280Y-94094871D01*
X97073711Y-94024376D01*
X97100439Y-93984886D01*
X97350218Y-93735107D01*
X97412530Y-93701082D01*
X97483345Y-93706147D01*
X97487531Y-93707794D01*
X97518497Y-93720620D01*
X97558165Y-93737051D01*
X97751459Y-93775500D01*
X97948541Y-93775500D01*
X98141835Y-93737051D01*
X98323914Y-93661632D01*
X98487782Y-93552139D01*
X98627139Y-93412782D01*
X98736632Y-93248914D01*
X98812051Y-93066835D01*
X98850500Y-92873541D01*
X98850500Y-92676459D01*
X98812051Y-92483165D01*
X98736632Y-92301086D01*
X98627139Y-92137218D01*
X98487782Y-91997861D01*
X98323914Y-91888368D01*
X98265113Y-91864012D01*
X98141838Y-91812950D01*
X98141835Y-91812949D01*
X97948544Y-91774500D01*
X97948541Y-91774500D01*
X97751459Y-91774500D01*
X97751455Y-91774500D01*
X97558164Y-91812949D01*
X97558161Y-91812950D01*
X97376085Y-91888368D01*
X97212222Y-91997858D01*
X97212215Y-91997863D01*
X97072863Y-92137215D01*
X97072858Y-92137222D01*
X96963368Y-92301085D01*
X96887950Y-92483161D01*
X96887949Y-92483164D01*
X96849500Y-92676455D01*
X96849500Y-92873544D01*
X96887949Y-93066835D01*
X96887951Y-93066840D01*
X96917205Y-93137466D01*
X96924794Y-93208056D01*
X96893015Y-93271543D01*
X96889892Y-93274779D01*
X96478078Y-93686595D01*
X96415766Y-93720620D01*
X96388982Y-93723500D01*
X94766017Y-93723500D01*
X94697896Y-93703498D01*
X94651403Y-93649842D01*
X94641299Y-93579568D01*
X94670793Y-93514988D01*
X94676922Y-93508405D01*
X95884242Y-92301085D01*
X97115704Y-91069622D01*
X97178014Y-91035599D01*
X97248829Y-91040663D01*
X97274797Y-91053953D01*
X97376086Y-91121632D01*
X97558165Y-91197051D01*
X97751459Y-91235500D01*
X97948541Y-91235500D01*
X98141835Y-91197051D01*
X98323914Y-91121632D01*
X98487782Y-91012139D01*
X98627139Y-90872782D01*
X98736632Y-90708914D01*
X98812051Y-90526835D01*
X98850500Y-90333541D01*
X98850500Y-90136459D01*
X98812051Y-89943165D01*
X98736632Y-89761086D01*
X98627139Y-89597218D01*
X98487782Y-89457861D01*
X98323914Y-89348368D01*
X98269480Y-89325821D01*
X98141838Y-89272950D01*
X98141835Y-89272949D01*
X97948544Y-89234500D01*
X97948541Y-89234500D01*
X97805016Y-89234500D01*
X97736895Y-89214498D01*
X97690402Y-89160842D01*
X97680298Y-89090568D01*
X97709792Y-89025988D01*
X97715906Y-89019419D01*
X98035468Y-88699857D01*
X98097777Y-88665835D01*
X98099913Y-88665389D01*
X98141835Y-88657051D01*
X98323914Y-88581632D01*
X98487782Y-88472139D01*
X98627139Y-88332782D01*
X98736632Y-88168914D01*
X98812051Y-87986835D01*
X98850500Y-87793541D01*
X98850500Y-87596459D01*
X98812051Y-87403165D01*
X98736632Y-87221086D01*
X98627139Y-87057218D01*
X98487782Y-86917861D01*
X98323914Y-86808368D01*
X98234889Y-86771493D01*
X98141838Y-86732950D01*
X98141835Y-86732949D01*
X97948544Y-86694500D01*
X97948541Y-86694500D01*
X97895015Y-86694500D01*
X97826894Y-86674498D01*
X97780401Y-86620842D01*
X97770297Y-86550568D01*
X97799791Y-86485988D01*
X97805905Y-86479419D01*
X98049859Y-86235466D01*
X98049862Y-86235465D01*
X98110465Y-86174862D01*
X98129191Y-86142425D01*
X98137206Y-86133227D01*
X98157249Y-86120423D01*
X98174464Y-86104007D01*
X98183972Y-86099596D01*
X98323914Y-86041632D01*
X98487782Y-85932139D01*
X98627139Y-85792782D01*
X98736632Y-85628914D01*
X98812051Y-85446835D01*
X98850500Y-85253541D01*
X98850500Y-85056459D01*
X98812051Y-84863165D01*
X98736632Y-84681086D01*
X98627139Y-84517218D01*
X98487782Y-84377861D01*
X98323914Y-84268368D01*
X98304791Y-84260447D01*
X98141838Y-84192950D01*
X98141835Y-84192949D01*
X97948544Y-84154500D01*
X97948541Y-84154500D01*
X97751459Y-84154500D01*
X97751455Y-84154500D01*
X97558164Y-84192949D01*
X97558161Y-84192950D01*
X97376085Y-84268368D01*
X97212222Y-84377858D01*
X97212215Y-84377863D01*
X97072863Y-84517215D01*
X97072858Y-84517222D01*
X97021015Y-84594811D01*
X96966538Y-84640339D01*
X96896095Y-84649187D01*
X96832051Y-84618546D01*
X96794740Y-84558144D01*
X96790250Y-84524809D01*
X96790250Y-84187267D01*
X96810252Y-84119146D01*
X96827150Y-84098176D01*
X97350219Y-83575106D01*
X97412530Y-83541083D01*
X97483345Y-83546147D01*
X97487531Y-83547794D01*
X97513620Y-83558600D01*
X97558165Y-83577051D01*
X97751459Y-83615500D01*
X97948541Y-83615500D01*
X98141835Y-83577051D01*
X98323914Y-83501632D01*
X98487782Y-83392139D01*
X98627139Y-83252782D01*
X98736632Y-83088914D01*
X98812051Y-82906835D01*
X98850500Y-82713541D01*
X98850500Y-82516459D01*
X98812051Y-82323165D01*
X98736632Y-82141086D01*
X98627139Y-81977218D01*
X98487782Y-81837861D01*
X98323914Y-81728368D01*
X98295689Y-81716677D01*
X98141838Y-81652950D01*
X98141835Y-81652949D01*
X97948544Y-81614500D01*
X97948541Y-81614500D01*
X97751459Y-81614500D01*
X97751455Y-81614500D01*
X97558164Y-81652949D01*
X97558161Y-81652950D01*
X97376085Y-81728368D01*
X97212222Y-81837858D01*
X97212215Y-81837863D01*
X97190595Y-81859484D01*
X97128283Y-81893510D01*
X97057468Y-81888445D01*
X97000632Y-81845898D01*
X96975821Y-81779378D01*
X96975500Y-81770389D01*
X96975500Y-80919611D01*
X96995502Y-80851490D01*
X97049158Y-80804997D01*
X97119432Y-80794893D01*
X97184012Y-80824387D01*
X97190595Y-80830516D01*
X97212218Y-80852139D01*
X97376086Y-80961632D01*
X97558165Y-81037051D01*
X97751459Y-81075500D01*
X97948541Y-81075500D01*
X98141835Y-81037051D01*
X98323914Y-80961632D01*
X98487782Y-80852139D01*
X98627139Y-80712782D01*
X98736632Y-80548914D01*
X98812051Y-80366835D01*
X98850500Y-80173541D01*
X98850500Y-79976459D01*
X98812051Y-79783165D01*
X98736632Y-79601086D01*
X98627139Y-79437218D01*
X98487782Y-79297861D01*
X98323914Y-79188368D01*
X98259430Y-79161658D01*
X98141838Y-79112950D01*
X98141835Y-79112949D01*
X97948544Y-79074500D01*
X97948541Y-79074500D01*
X97751459Y-79074500D01*
X97751455Y-79074500D01*
X97558164Y-79112949D01*
X97558161Y-79112950D01*
X97376085Y-79188368D01*
X97212222Y-79297858D01*
X97212215Y-79297863D01*
X97190595Y-79319484D01*
X97128283Y-79353510D01*
X97057468Y-79348445D01*
X97000632Y-79305898D01*
X96975821Y-79239378D01*
X96975500Y-79230389D01*
X96975500Y-78922017D01*
X96995502Y-78853896D01*
X97012400Y-78832926D01*
X97350219Y-78495106D01*
X97412530Y-78461083D01*
X97483345Y-78466147D01*
X97487531Y-78467794D01*
X97503953Y-78474596D01*
X97558165Y-78497051D01*
X97751459Y-78535500D01*
X97948541Y-78535500D01*
X98141835Y-78497051D01*
X98323914Y-78421632D01*
X98487782Y-78312139D01*
X98627139Y-78172782D01*
X98736632Y-78008914D01*
X98812051Y-77826835D01*
X98850500Y-77633541D01*
X98850500Y-77436459D01*
X98812051Y-77243165D01*
X98736632Y-77061086D01*
X98627139Y-76897218D01*
X98487782Y-76757861D01*
X98323914Y-76648368D01*
X98298009Y-76637638D01*
X98141838Y-76572950D01*
X98141835Y-76572949D01*
X97948544Y-76534500D01*
X97948541Y-76534500D01*
X97751459Y-76534500D01*
X97751455Y-76534500D01*
X97558164Y-76572949D01*
X97558161Y-76572950D01*
X97376085Y-76648368D01*
X97212222Y-76757858D01*
X97212215Y-76757863D01*
X97115595Y-76854484D01*
X97053283Y-76888510D01*
X96982468Y-76883445D01*
X96925632Y-76840898D01*
X96900821Y-76774378D01*
X96900500Y-76765389D01*
X96900500Y-76457017D01*
X96920502Y-76388896D01*
X96937400Y-76367926D01*
X97350219Y-75955106D01*
X97412530Y-75921083D01*
X97483345Y-75926147D01*
X97487531Y-75927794D01*
X97503200Y-75934284D01*
X97558165Y-75957051D01*
X97751459Y-75995500D01*
X97948541Y-75995500D01*
X98141835Y-75957051D01*
X98323914Y-75881632D01*
X98487782Y-75772139D01*
X98627139Y-75632782D01*
X98736632Y-75468914D01*
X98812051Y-75286835D01*
X98850500Y-75093541D01*
X98850500Y-74896459D01*
X98812051Y-74703165D01*
X98736632Y-74521086D01*
X98627139Y-74357218D01*
X98487782Y-74217861D01*
X98323914Y-74108368D01*
X98251161Y-74078233D01*
X98141838Y-74032950D01*
X98141835Y-74032949D01*
X97948544Y-73994500D01*
X97948541Y-73994500D01*
X97751459Y-73994500D01*
X97751455Y-73994500D01*
X97558164Y-74032949D01*
X97558161Y-74032950D01*
X97376085Y-74108368D01*
X97212222Y-74217858D01*
X97212215Y-74217863D01*
X97072863Y-74357215D01*
X97072858Y-74357222D01*
X96963368Y-74521085D01*
X96887950Y-74703161D01*
X96887949Y-74703164D01*
X96849500Y-74896455D01*
X96849500Y-75093544D01*
X96880821Y-75251000D01*
X96887949Y-75286835D01*
X96916716Y-75356287D01*
X96917205Y-75357466D01*
X96924794Y-75428056D01*
X96893015Y-75491543D01*
X96889892Y-75494779D01*
X96314537Y-76070135D01*
X96314532Y-76070141D01*
X96271684Y-76144356D01*
X96271679Y-76144368D01*
X96259133Y-76191192D01*
X96249500Y-76227142D01*
X96249500Y-77272223D01*
X96229498Y-77340344D01*
X96175842Y-77386837D01*
X96105568Y-77396941D01*
X96060502Y-77381343D01*
X96030231Y-77363867D01*
X96030228Y-77363866D01*
X96030226Y-77363865D01*
X95877499Y-77322942D01*
X95719385Y-77322942D01*
X95625912Y-77347987D01*
X95566653Y-77363866D01*
X95429729Y-77442919D01*
X95429719Y-77442927D01*
X95317927Y-77554719D01*
X95317919Y-77554729D01*
X95238866Y-77691653D01*
X95228844Y-77729057D01*
X95197942Y-77844385D01*
X95197942Y-78002499D01*
X95227927Y-78114404D01*
X95238866Y-78155230D01*
X95317919Y-78292154D01*
X95317921Y-78292157D01*
X95317922Y-78292158D01*
X95337595Y-78311831D01*
X95371620Y-78374140D01*
X95374500Y-78400926D01*
X95374500Y-79381528D01*
X95354498Y-79449649D01*
X95300842Y-79496142D01*
X95230568Y-79506246D01*
X95165988Y-79476752D01*
X95127604Y-79417026D01*
X95124921Y-79406110D01*
X95117484Y-79368722D01*
X95113117Y-79346769D01*
X95068802Y-79280448D01*
X95002481Y-79236133D01*
X95002478Y-79236132D01*
X94944000Y-79224500D01*
X94943998Y-79224500D01*
X94448767Y-79224500D01*
X94418851Y-79215716D01*
X94388382Y-79209088D01*
X94383286Y-79205273D01*
X94380646Y-79204498D01*
X94359672Y-79187595D01*
X94305152Y-79133075D01*
X94271126Y-79070763D01*
X94268247Y-79043980D01*
X94268247Y-78706451D01*
X94288249Y-78638330D01*
X94341905Y-78591837D01*
X94345991Y-78590058D01*
X94416661Y-78560787D01*
X94580529Y-78451294D01*
X94719886Y-78311937D01*
X94829379Y-78148069D01*
X94904798Y-77965990D01*
X94943247Y-77772696D01*
X94943247Y-77575614D01*
X94904798Y-77382320D01*
X94829379Y-77200241D01*
X94719886Y-77036373D01*
X94580529Y-76897016D01*
X94416661Y-76787523D01*
X94346027Y-76758265D01*
X94290748Y-76713717D01*
X94268327Y-76646354D01*
X94268247Y-76641857D01*
X94268247Y-75896382D01*
X94288249Y-75828261D01*
X94312940Y-75801423D01*
X94312877Y-75801360D01*
X94314406Y-75799830D01*
X94317548Y-75796416D01*
X94318711Y-75795522D01*
X94318716Y-75795520D01*
X94430520Y-75683716D01*
X94498960Y-75565173D01*
X94509575Y-75546788D01*
X94509575Y-75546787D01*
X94509577Y-75546784D01*
X94550500Y-75394057D01*
X94550500Y-75235943D01*
X94509577Y-75083216D01*
X94509575Y-75083213D01*
X94509575Y-75083211D01*
X94430522Y-74946287D01*
X94430514Y-74946277D01*
X94318722Y-74834485D01*
X94318712Y-74834477D01*
X94181788Y-74755424D01*
X94151987Y-74747439D01*
X94029057Y-74714500D01*
X93870943Y-74714500D01*
X93782281Y-74738257D01*
X93718211Y-74755424D01*
X93581287Y-74834477D01*
X93581277Y-74834485D01*
X93469485Y-74946277D01*
X93469477Y-74946287D01*
X93390424Y-75083211D01*
X93379398Y-75124361D01*
X93349500Y-75235943D01*
X93349500Y-75394057D01*
X93361011Y-75437016D01*
X93390424Y-75546788D01*
X93469477Y-75683712D01*
X93469485Y-75683722D01*
X93580342Y-75794579D01*
X93614368Y-75856891D01*
X93617247Y-75883674D01*
X93617247Y-76584137D01*
X93597245Y-76652258D01*
X93543589Y-76698751D01*
X93473315Y-76708855D01*
X93408735Y-76679361D01*
X93402152Y-76673232D01*
X91429460Y-74700540D01*
X91429450Y-74700532D01*
X91355235Y-74657684D01*
X91355233Y-74657683D01*
X91355231Y-74657682D01*
X91272445Y-74635500D01*
X91257923Y-74635500D01*
X90260207Y-74635500D01*
X90192086Y-74615498D01*
X90171112Y-74598595D01*
X90024405Y-74451888D01*
X89990379Y-74389576D01*
X89987500Y-74362793D01*
X89987500Y-73363148D01*
X89987500Y-73363147D01*
X89979242Y-73332327D01*
X89977403Y-73325463D01*
X89977402Y-73325461D01*
X89965320Y-73280367D01*
X89965318Y-73280364D01*
X89965318Y-73280361D01*
X89928418Y-73216448D01*
X89922467Y-73206141D01*
X89922459Y-73206131D01*
X87992405Y-71276077D01*
X87977460Y-71248708D01*
X87960604Y-71222480D01*
X87959698Y-71216181D01*
X87958379Y-71213765D01*
X87955500Y-71186982D01*
X87955500Y-71102085D01*
X87975502Y-71033964D01*
X88029158Y-70987471D01*
X88099432Y-70977367D01*
X88155562Y-71000150D01*
X88243764Y-71064234D01*
X88409399Y-71148629D01*
X88409405Y-71148632D01*
X88586190Y-71206073D01*
X88769804Y-71235155D01*
X88955692Y-71235155D01*
X89139305Y-71206073D01*
X89316090Y-71148632D01*
X89316096Y-71148629D01*
X89481728Y-71064235D01*
X89481730Y-71064234D01*
X89552210Y-71013026D01*
X88976870Y-70437686D01*
X89017142Y-70426896D01*
X89108354Y-70374235D01*
X89182828Y-70299761D01*
X89235489Y-70208549D01*
X89246279Y-70168279D01*
X89821618Y-70743618D01*
X89821619Y-70743617D01*
X89872827Y-70673137D01*
X89872828Y-70673135D01*
X89957222Y-70507503D01*
X89957225Y-70507497D01*
X90014666Y-70330712D01*
X90043748Y-70147098D01*
X90043748Y-69961211D01*
X90014666Y-69777597D01*
X89957225Y-69600812D01*
X89957222Y-69600806D01*
X89872829Y-69435176D01*
X89821618Y-69364691D01*
X89246279Y-69940030D01*
X89235489Y-69899761D01*
X89182828Y-69808549D01*
X89108354Y-69734075D01*
X89017142Y-69681414D01*
X88976871Y-69670623D01*
X89552210Y-69095283D01*
X89481726Y-69044073D01*
X89316096Y-68959680D01*
X89316090Y-68959677D01*
X89139305Y-68902236D01*
X88955692Y-68873155D01*
X88769804Y-68873155D01*
X88586190Y-68902236D01*
X88409405Y-68959677D01*
X88409399Y-68959680D01*
X88243765Y-69044075D01*
X88173284Y-69095282D01*
X88173284Y-69095284D01*
X88748623Y-69670623D01*
X88708354Y-69681414D01*
X88617142Y-69734075D01*
X88542668Y-69808549D01*
X88490007Y-69899761D01*
X88479216Y-69940032D01*
X87903876Y-69364691D01*
X87903875Y-69364691D01*
X87898912Y-69371523D01*
X87883867Y-69383123D01*
X87872485Y-69398329D01*
X87856337Y-69404351D01*
X87842689Y-69414876D01*
X87823763Y-69416501D01*
X87805965Y-69423140D01*
X87789123Y-69419476D01*
X87771953Y-69420951D01*
X87755153Y-69412087D01*
X87736591Y-69408049D01*
X87710540Y-69388546D01*
X87709161Y-69387819D01*
X87707881Y-69386556D01*
X86989020Y-68667695D01*
X86989010Y-68667687D01*
X86914795Y-68624839D01*
X86914793Y-68624838D01*
X86914791Y-68624837D01*
X86904598Y-68622105D01*
X86843978Y-68585156D01*
X86812956Y-68521295D01*
X86821384Y-68450801D01*
X86866587Y-68396054D01*
X86934212Y-68374436D01*
X86937211Y-68374400D01*
X88091900Y-68374400D01*
X88091900Y-67583300D01*
X88111902Y-67515179D01*
X88165558Y-67468686D01*
X88217900Y-67457300D01*
X89469747Y-67457300D01*
X89469748Y-67457300D01*
X89528231Y-67445667D01*
X89594552Y-67401352D01*
X89638867Y-67335031D01*
X89650500Y-67276548D01*
X89650500Y-66373452D01*
X89638867Y-66314969D01*
X89594552Y-66248648D01*
X89528231Y-66204333D01*
X89528228Y-66204332D01*
X89469750Y-66192700D01*
X89469748Y-66192700D01*
X88217900Y-66192700D01*
X88149779Y-66172698D01*
X88103286Y-66119042D01*
X88091900Y-66066700D01*
X88091900Y-65300501D01*
X88111902Y-65232380D01*
X88165558Y-65185887D01*
X88217900Y-65174501D01*
X90420651Y-65174501D01*
X90423629Y-65175375D01*
X90426645Y-65174644D01*
X90457463Y-65185310D01*
X90488772Y-65194503D01*
X90490805Y-65196849D01*
X90493737Y-65197864D01*
X90513900Y-65223502D01*
X90535265Y-65248159D01*
X90535706Y-65251230D01*
X90537625Y-65253670D01*
X90540725Y-65286135D01*
X90545369Y-65318433D01*
X90544079Y-65321257D01*
X90544374Y-65324345D01*
X90529429Y-65353333D01*
X90515875Y-65383013D01*
X90512835Y-65385522D01*
X90511842Y-65387450D01*
X90483652Y-65409620D01*
X90475138Y-65414535D01*
X90475130Y-65414541D01*
X90089540Y-65800131D01*
X90089532Y-65800141D01*
X90046683Y-65874358D01*
X90046680Y-65874364D01*
X90042151Y-65891271D01*
X90042151Y-65891273D01*
X90024500Y-65957147D01*
X90024500Y-68971147D01*
X90024500Y-69056853D01*
X90046682Y-69139639D01*
X90046683Y-69139641D01*
X90046684Y-69139643D01*
X90089532Y-69213858D01*
X90089534Y-69213860D01*
X90089535Y-69213862D01*
X90438951Y-69563278D01*
X90472975Y-69625589D01*
X90467911Y-69696404D01*
X90466265Y-69700588D01*
X90440698Y-69762314D01*
X90440696Y-69762319D01*
X90402247Y-69955610D01*
X90402247Y-70152699D01*
X90440696Y-70345990D01*
X90440697Y-70345993D01*
X90494360Y-70475547D01*
X90516115Y-70528069D01*
X90625608Y-70691937D01*
X90764965Y-70831294D01*
X90928833Y-70940787D01*
X91110912Y-71016206D01*
X91304206Y-71054655D01*
X91501288Y-71054655D01*
X91694582Y-71016206D01*
X91876661Y-70940787D01*
X92040529Y-70831294D01*
X92179886Y-70691937D01*
X92289379Y-70528069D01*
X92364798Y-70345990D01*
X92403247Y-70152696D01*
X92403247Y-69955614D01*
X92364798Y-69762320D01*
X92289379Y-69580241D01*
X92179886Y-69416373D01*
X92040529Y-69277016D01*
X91876661Y-69167523D01*
X91851898Y-69157266D01*
X91756879Y-69117908D01*
X91701598Y-69073360D01*
X91679177Y-69005996D01*
X91696735Y-68937205D01*
X91748697Y-68888827D01*
X91805097Y-68875499D01*
X93054747Y-68875499D01*
X93054748Y-68875499D01*
X93113231Y-68863866D01*
X93179552Y-68819551D01*
X93223867Y-68753230D01*
X93235500Y-68694747D01*
X93235500Y-67655251D01*
X93223867Y-67596768D01*
X93179552Y-67530447D01*
X93113231Y-67486132D01*
X93113228Y-67486131D01*
X93054750Y-67474499D01*
X93054748Y-67474499D01*
X91215252Y-67474499D01*
X91215249Y-67474499D01*
X91156771Y-67486131D01*
X91156768Y-67486132D01*
X91090448Y-67530447D01*
X91046133Y-67596767D01*
X91046132Y-67596770D01*
X91034500Y-67655248D01*
X91034500Y-68694749D01*
X91043551Y-68740253D01*
X91046133Y-68753230D01*
X91090448Y-68819551D01*
X91156548Y-68863718D01*
X91202075Y-68918194D01*
X91210923Y-68988637D01*
X91180281Y-69052681D01*
X91132164Y-69085934D01*
X91121912Y-69089915D01*
X91110912Y-69092104D01*
X91030108Y-69125573D01*
X91028775Y-69126091D01*
X90994754Y-69128985D01*
X90960782Y-69132637D01*
X90959481Y-69131985D01*
X90958034Y-69132109D01*
X90927838Y-69116145D01*
X90897296Y-69100856D01*
X90895331Y-69098959D01*
X90895269Y-69098927D01*
X90895235Y-69098867D01*
X90894061Y-69097734D01*
X90712405Y-68916078D01*
X90678379Y-68853766D01*
X90675500Y-68826983D01*
X90675500Y-66187017D01*
X90695502Y-66118896D01*
X90712405Y-66097922D01*
X90772921Y-66037406D01*
X90800289Y-66022461D01*
X90826518Y-66005605D01*
X90832816Y-66004699D01*
X90835233Y-66003380D01*
X90862016Y-66000501D01*
X90908500Y-66000501D01*
X90976621Y-66020503D01*
X91023114Y-66074159D01*
X91034500Y-66126501D01*
X91034500Y-66194751D01*
X91044406Y-66244553D01*
X91046133Y-66253232D01*
X91090448Y-66319553D01*
X91156769Y-66363868D01*
X91215252Y-66375501D01*
X91215253Y-66375501D01*
X93054747Y-66375501D01*
X93054748Y-66375501D01*
X93113231Y-66363868D01*
X93179552Y-66319553D01*
X93223867Y-66253232D01*
X93235500Y-66194749D01*
X93235500Y-65300501D01*
X93255502Y-65232380D01*
X93309158Y-65185887D01*
X93361500Y-65174501D01*
X94158500Y-65174501D01*
X94226621Y-65194503D01*
X94273114Y-65248159D01*
X94284500Y-65300501D01*
X94284500Y-66119749D01*
X94296133Y-66178232D01*
X94340448Y-66244553D01*
X94406769Y-66288868D01*
X94465252Y-66300501D01*
X94465253Y-66300501D01*
X95704747Y-66300501D01*
X95704748Y-66300501D01*
X95763231Y-66288868D01*
X95829552Y-66244553D01*
X95873867Y-66178232D01*
X95885500Y-66119749D01*
X95885500Y-64880253D01*
X95873867Y-64821770D01*
X95829552Y-64755449D01*
X95770910Y-64716265D01*
X95725383Y-64661789D01*
X95716536Y-64591346D01*
X95747177Y-64527302D01*
X95807579Y-64489990D01*
X95840913Y-64485501D01*
X96745887Y-64485501D01*
X96814008Y-64505503D01*
X96860501Y-64559159D01*
X96870605Y-64629433D01*
X96869466Y-64636083D01*
X96849500Y-64736455D01*
X96849500Y-64933544D01*
X96862819Y-65000500D01*
X96887949Y-65126835D01*
X96959883Y-65300501D01*
X96963368Y-65308913D01*
X96963368Y-65308914D01*
X96982981Y-65338268D01*
X97004194Y-65406022D01*
X96985409Y-65474488D01*
X96967309Y-65497362D01*
X95002079Y-67462594D01*
X94939767Y-67496619D01*
X94912984Y-67499499D01*
X94465249Y-67499499D01*
X94406771Y-67511131D01*
X94406768Y-67511132D01*
X94340448Y-67555447D01*
X94296133Y-67621767D01*
X94296132Y-67621770D01*
X94284500Y-67680248D01*
X94284500Y-68925937D01*
X94282049Y-68925937D01*
X94270827Y-68985072D01*
X94221980Y-69036594D01*
X94158669Y-69053655D01*
X93338480Y-69053655D01*
X93308046Y-69056509D01*
X93308042Y-69056510D01*
X93232405Y-69082976D01*
X93232349Y-69082997D01*
X93179865Y-69101362D01*
X93175883Y-69104300D01*
X93175877Y-69104303D01*
X93070596Y-69182004D01*
X92989955Y-69291269D01*
X92989953Y-69291273D01*
X92945102Y-69419450D01*
X92945101Y-69419454D01*
X92942247Y-69449888D01*
X92942247Y-70658421D01*
X92945101Y-70688855D01*
X92945102Y-70688859D01*
X92989953Y-70817036D01*
X92989955Y-70817040D01*
X93076204Y-70933903D01*
X93074287Y-70935317D01*
X93101912Y-70985907D01*
X93096847Y-71056722D01*
X93067886Y-71101785D01*
X91179540Y-72990131D01*
X91179534Y-72990139D01*
X91136681Y-73064360D01*
X91136680Y-73064364D01*
X91131382Y-73084139D01*
X91131381Y-73084144D01*
X91129067Y-73092782D01*
X91114500Y-73147147D01*
X91114500Y-73224081D01*
X91113593Y-73231600D01*
X91102452Y-73257540D01*
X91094498Y-73284630D01*
X91087595Y-73292133D01*
X91085576Y-73296835D01*
X91079486Y-73300946D01*
X91065207Y-73316469D01*
X91061282Y-73319480D01*
X90949485Y-73431277D01*
X90949477Y-73431287D01*
X90870424Y-73568211D01*
X90848205Y-73651133D01*
X90829500Y-73720943D01*
X90829500Y-73879057D01*
X90857774Y-73984577D01*
X90870424Y-74031788D01*
X90949477Y-74168712D01*
X90949485Y-74168722D01*
X91061277Y-74280514D01*
X91061282Y-74280518D01*
X91061284Y-74280520D01*
X91061285Y-74280521D01*
X91061287Y-74280522D01*
X91198211Y-74359575D01*
X91198213Y-74359575D01*
X91198216Y-74359577D01*
X91350943Y-74400500D01*
X91365466Y-74400500D01*
X91509055Y-74400500D01*
X91509057Y-74400500D01*
X91661784Y-74359577D01*
X91661787Y-74359575D01*
X91661788Y-74359575D01*
X91770085Y-74297050D01*
X91798716Y-74280520D01*
X91910520Y-74168716D01*
X91988904Y-74032950D01*
X91989575Y-74031788D01*
X91989575Y-74031787D01*
X91989577Y-74031784D01*
X92030500Y-73879057D01*
X92030500Y-73720943D01*
X91989577Y-73568216D01*
X91989575Y-73568213D01*
X91989575Y-73568211D01*
X91910522Y-73431287D01*
X91910514Y-73431277D01*
X91873876Y-73394639D01*
X91839850Y-73332327D01*
X91844915Y-73261512D01*
X91873872Y-73216453D01*
X92733871Y-72356455D01*
X96849500Y-72356455D01*
X96849500Y-72553544D01*
X96887949Y-72746835D01*
X96887950Y-72746838D01*
X96920047Y-72824328D01*
X96963368Y-72928914D01*
X97072861Y-73092782D01*
X97212218Y-73232139D01*
X97376086Y-73341632D01*
X97558165Y-73417051D01*
X97751459Y-73455500D01*
X97948541Y-73455500D01*
X98141835Y-73417051D01*
X98323914Y-73341632D01*
X98487782Y-73232139D01*
X98627139Y-73092782D01*
X98736632Y-72928914D01*
X98812051Y-72746835D01*
X98850500Y-72553541D01*
X98850500Y-72356459D01*
X98812051Y-72163165D01*
X98736632Y-71981086D01*
X98627139Y-71817218D01*
X98487782Y-71677861D01*
X98323914Y-71568368D01*
X98190936Y-71513287D01*
X98141838Y-71492950D01*
X98141835Y-71492949D01*
X97948544Y-71454500D01*
X97948541Y-71454500D01*
X97751459Y-71454500D01*
X97751455Y-71454500D01*
X97558164Y-71492949D01*
X97558161Y-71492950D01*
X97376085Y-71568368D01*
X97212222Y-71677858D01*
X97212215Y-71677863D01*
X97072863Y-71817215D01*
X97072858Y-71817222D01*
X96963368Y-71981085D01*
X96887950Y-72163161D01*
X96887949Y-72163164D01*
X96849500Y-72356455D01*
X92733871Y-72356455D01*
X93548769Y-71541557D01*
X93611079Y-71507534D01*
X93637862Y-71504655D01*
X94780698Y-71504655D01*
X94780700Y-71504655D01*
X94863486Y-71482473D01*
X94937709Y-71439620D01*
X95328212Y-71049117D01*
X95371065Y-70974894D01*
X95393247Y-70892108D01*
X95393247Y-70806402D01*
X95393247Y-70088830D01*
X95397540Y-70056219D01*
X95398093Y-70054156D01*
X95410500Y-70007853D01*
X95410500Y-69816455D01*
X96849500Y-69816455D01*
X96849500Y-70013544D01*
X96887949Y-70206835D01*
X96887950Y-70206838D01*
X96945588Y-70345990D01*
X96963368Y-70388914D01*
X97072861Y-70552782D01*
X97212218Y-70692139D01*
X97376086Y-70801632D01*
X97558165Y-70877051D01*
X97751459Y-70915500D01*
X97948541Y-70915500D01*
X98141835Y-70877051D01*
X98323914Y-70801632D01*
X98487782Y-70692139D01*
X98627139Y-70552782D01*
X98736632Y-70388914D01*
X98812051Y-70206835D01*
X98850500Y-70013541D01*
X98850500Y-69816459D01*
X98812051Y-69623165D01*
X98736632Y-69441086D01*
X98627139Y-69277218D01*
X98487782Y-69137861D01*
X98323914Y-69028368D01*
X98303103Y-69019748D01*
X98141838Y-68952950D01*
X98141835Y-68952949D01*
X97948544Y-68914500D01*
X97948541Y-68914500D01*
X97751459Y-68914500D01*
X97751455Y-68914500D01*
X97558164Y-68952949D01*
X97558161Y-68952950D01*
X97376085Y-69028368D01*
X97212222Y-69137858D01*
X97212215Y-69137863D01*
X97072863Y-69277215D01*
X97072858Y-69277222D01*
X96963368Y-69441085D01*
X96887950Y-69623161D01*
X96887949Y-69623164D01*
X96849500Y-69816455D01*
X95410500Y-69816455D01*
X95410500Y-69226499D01*
X95430502Y-69158378D01*
X95484158Y-69111885D01*
X95536500Y-69100499D01*
X95704747Y-69100499D01*
X95704748Y-69100499D01*
X95763231Y-69088866D01*
X95829552Y-69044551D01*
X95873867Y-68978230D01*
X95885500Y-68919747D01*
X95885500Y-67680251D01*
X95873867Y-67621768D01*
X95873863Y-67621763D01*
X95873780Y-67621560D01*
X95873726Y-67621060D01*
X95871446Y-67609597D01*
X95872470Y-67609393D01*
X95866184Y-67550971D01*
X95897957Y-67487481D01*
X95901061Y-67484264D01*
X96108870Y-67276455D01*
X96849500Y-67276455D01*
X96849500Y-67473544D01*
X96887949Y-67666835D01*
X96887950Y-67666838D01*
X96918940Y-67741654D01*
X96963368Y-67848914D01*
X97072861Y-68012782D01*
X97212218Y-68152139D01*
X97376086Y-68261632D01*
X97558165Y-68337051D01*
X97751459Y-68375500D01*
X97948541Y-68375500D01*
X98141835Y-68337051D01*
X98323914Y-68261632D01*
X98487782Y-68152139D01*
X98627139Y-68012782D01*
X98736632Y-67848914D01*
X98812051Y-67666835D01*
X98850500Y-67473541D01*
X98850500Y-67276459D01*
X98812051Y-67083165D01*
X98736632Y-66901086D01*
X98627139Y-66737218D01*
X98487782Y-66597861D01*
X98323914Y-66488368D01*
X98244621Y-66455524D01*
X98141838Y-66412950D01*
X98141835Y-66412949D01*
X97948544Y-66374500D01*
X97948541Y-66374500D01*
X97751459Y-66374500D01*
X97751455Y-66374500D01*
X97558164Y-66412949D01*
X97558161Y-66412950D01*
X97376085Y-66488368D01*
X97212222Y-66597858D01*
X97212215Y-66597863D01*
X97072863Y-66737215D01*
X97072858Y-66737222D01*
X96963368Y-66901085D01*
X96887950Y-67083161D01*
X96887949Y-67083164D01*
X96849500Y-67276455D01*
X96108870Y-67276455D01*
X97535658Y-65849667D01*
X97597968Y-65815643D01*
X97649332Y-65815185D01*
X97751459Y-65835500D01*
X97751464Y-65835500D01*
X97948541Y-65835500D01*
X98141835Y-65797051D01*
X98323914Y-65721632D01*
X98487782Y-65612139D01*
X98627139Y-65472782D01*
X98736632Y-65308914D01*
X98812051Y-65126835D01*
X98850500Y-64933541D01*
X98850500Y-64736459D01*
X98812051Y-64543165D01*
X98736632Y-64361086D01*
X98627139Y-64197218D01*
X98487782Y-64057861D01*
X98323914Y-63948368D01*
X98141838Y-63872950D01*
X98141835Y-63872949D01*
X97948544Y-63834500D01*
X97948541Y-63834500D01*
X97751459Y-63834500D01*
X97751455Y-63834500D01*
X97637218Y-63857224D01*
X97596599Y-63865303D01*
X97525886Y-63858976D01*
X97482924Y-63830821D01*
X97326615Y-63674512D01*
X97326612Y-63674510D01*
X97326611Y-63674509D01*
X97223892Y-63615204D01*
X97223890Y-63615203D01*
X97223888Y-63615202D01*
X97223881Y-63615200D01*
X97199674Y-63608713D01*
X97199674Y-63608714D01*
X97109310Y-63584501D01*
X83350690Y-63584501D01*
X83236113Y-63615202D01*
X83236112Y-63615202D01*
X83236110Y-63615203D01*
X83192695Y-63640269D01*
X83133388Y-63674509D01*
X83133383Y-63674513D01*
X83071843Y-63736054D01*
X83010300Y-63797596D01*
X82947991Y-63831620D01*
X82921207Y-63834500D01*
X82005733Y-63834500D01*
X81975299Y-63837354D01*
X81975295Y-63837355D01*
X81847118Y-63882206D01*
X81847114Y-63882208D01*
X81737849Y-63962849D01*
X81657208Y-64072114D01*
X81657206Y-64072118D01*
X81612355Y-64200295D01*
X81612354Y-64200300D01*
X81611420Y-64210263D01*
X81585146Y-64276219D01*
X81527384Y-64317500D01*
X81485970Y-64324500D01*
X79903381Y-64324500D01*
X79835260Y-64304498D01*
X79814290Y-64287599D01*
X79265202Y-63738511D01*
X79265199Y-63738509D01*
X79265198Y-63738508D01*
X79162479Y-63679203D01*
X79162477Y-63679202D01*
X79162475Y-63679201D01*
X79162468Y-63679199D01*
X79138261Y-63672712D01*
X79138261Y-63672713D01*
X79047897Y-63648500D01*
X68702103Y-63648500D01*
X68632762Y-63667080D01*
X68587525Y-63679201D01*
X68549926Y-63700907D01*
X68549927Y-63700908D01*
X68484800Y-63738509D01*
X68484796Y-63738512D01*
X68341103Y-63882206D01*
X67935712Y-64287596D01*
X67873402Y-64321620D01*
X67846619Y-64324500D01*
X67440690Y-64324500D01*
X67350325Y-64348713D01*
X67350324Y-64348712D01*
X67326115Y-64355199D01*
X67223387Y-64414509D01*
X67079513Y-64558383D01*
X67079508Y-64558389D01*
X67020203Y-64661108D01*
X67020200Y-64661116D01*
X66989501Y-64775691D01*
X66988423Y-64783881D01*
X66986379Y-64783611D01*
X66969499Y-64841102D01*
X66952596Y-64862076D01*
X66314540Y-65500131D01*
X66314534Y-65500139D01*
X66271681Y-65574360D01*
X66271681Y-65574362D01*
X66261560Y-65612137D01*
X66249500Y-65657146D01*
X66249500Y-69804182D01*
X66229498Y-69872303D01*
X66210958Y-69892475D01*
X66212123Y-69893640D01*
X66094485Y-70011277D01*
X66094477Y-70011287D01*
X66015424Y-70148211D01*
X66000155Y-70205198D01*
X65974500Y-70300943D01*
X65974500Y-70459057D01*
X65999614Y-70552784D01*
X66015424Y-70611788D01*
X66094477Y-70748712D01*
X66094485Y-70748722D01*
X66206277Y-70860514D01*
X66206282Y-70860518D01*
X66206284Y-70860520D01*
X66206285Y-70860521D01*
X66206287Y-70860522D01*
X66343211Y-70939575D01*
X66343213Y-70939575D01*
X66343216Y-70939577D01*
X66495943Y-70980500D01*
X66495945Y-70980500D01*
X66654055Y-70980500D01*
X66654057Y-70980500D01*
X66806784Y-70939577D01*
X66806787Y-70939575D01*
X66806788Y-70939575D01*
X66889007Y-70892106D01*
X66943716Y-70860520D01*
X67055520Y-70748716D01*
X67073381Y-70717780D01*
X67124763Y-70668787D01*
X67194477Y-70655351D01*
X67260388Y-70681737D01*
X67301570Y-70739569D01*
X67308500Y-70780780D01*
X67308500Y-71203321D01*
X67288498Y-71271442D01*
X67234842Y-71317935D01*
X67164568Y-71328039D01*
X67148974Y-71323762D01*
X67148761Y-71324561D01*
X67140785Y-71322424D01*
X67140784Y-71322423D01*
X66988057Y-71281500D01*
X66829943Y-71281500D01*
X66744113Y-71304498D01*
X66677211Y-71322424D01*
X66540287Y-71401477D01*
X66540277Y-71401485D01*
X66428485Y-71513277D01*
X66428477Y-71513287D01*
X66349424Y-71650211D01*
X66342015Y-71677863D01*
X66308500Y-71802943D01*
X66308500Y-71961057D01*
X66313867Y-71981086D01*
X66349424Y-72113788D01*
X66428477Y-72250712D01*
X66428485Y-72250722D01*
X66540277Y-72362514D01*
X66540282Y-72362518D01*
X66540284Y-72362520D01*
X66540285Y-72362521D01*
X66540287Y-72362522D01*
X66562498Y-72375345D01*
X66611492Y-72426727D01*
X66625500Y-72484465D01*
X66625500Y-75246735D01*
X66605498Y-75314856D01*
X66551842Y-75361349D01*
X66481568Y-75371453D01*
X66464940Y-75366892D01*
X66464761Y-75367561D01*
X66456785Y-75365424D01*
X66456784Y-75365423D01*
X66304057Y-75324500D01*
X66145943Y-75324500D01*
X66052470Y-75349545D01*
X65993211Y-75365424D01*
X65856287Y-75444477D01*
X65856277Y-75444485D01*
X65744485Y-75556277D01*
X65744477Y-75556287D01*
X65665424Y-75693211D01*
X65663084Y-75701944D01*
X65624500Y-75845943D01*
X65624500Y-76004057D01*
X65659147Y-76133361D01*
X65665424Y-76156788D01*
X65744477Y-76293712D01*
X65744485Y-76293722D01*
X65862123Y-76411360D01*
X65859664Y-76413818D01*
X65892061Y-76458164D01*
X65899500Y-76500817D01*
X65899500Y-84424073D01*
X65879498Y-84492194D01*
X65862595Y-84513168D01*
X65769485Y-84606277D01*
X65769477Y-84606287D01*
X65690424Y-84743211D01*
X65679505Y-84783961D01*
X65649500Y-84895943D01*
X65649500Y-85054057D01*
X65657280Y-85083091D01*
X65690424Y-85206788D01*
X65769477Y-85343712D01*
X65769485Y-85343722D01*
X65824168Y-85398405D01*
X65858194Y-85460717D01*
X65853129Y-85531532D01*
X65810582Y-85588368D01*
X65744062Y-85613179D01*
X65735073Y-85613500D01*
X65454449Y-85613500D01*
X65395971Y-85625132D01*
X65395968Y-85625133D01*
X65321502Y-85674891D01*
X65253749Y-85696106D01*
X65185282Y-85677323D01*
X65137839Y-85624506D01*
X65125500Y-85570126D01*
X65125500Y-70075817D01*
X65145502Y-70007696D01*
X65164053Y-69987536D01*
X65162877Y-69986360D01*
X65280514Y-69868722D01*
X65280520Y-69868716D01*
X65331968Y-69779605D01*
X65359575Y-69731788D01*
X65359575Y-69731787D01*
X65359577Y-69731784D01*
X65400500Y-69579057D01*
X65400500Y-69420943D01*
X65359577Y-69268216D01*
X65359575Y-69268213D01*
X65359575Y-69268211D01*
X65280522Y-69131287D01*
X65280514Y-69131277D01*
X65168722Y-69019485D01*
X65168712Y-69019477D01*
X65031788Y-68940424D01*
X64977721Y-68925937D01*
X64879057Y-68899500D01*
X64720943Y-68899500D01*
X64645380Y-68919747D01*
X64568211Y-68940424D01*
X64431287Y-69019477D01*
X64431277Y-69019485D01*
X64319485Y-69131277D01*
X64319477Y-69131287D01*
X64240424Y-69268211D01*
X64220424Y-69342853D01*
X64199500Y-69420943D01*
X64199500Y-69579057D01*
X64228957Y-69688991D01*
X64240424Y-69731788D01*
X64319477Y-69868712D01*
X64319485Y-69868722D01*
X64437123Y-69986360D01*
X64434664Y-69988818D01*
X64467061Y-70033164D01*
X64474500Y-70075817D01*
X64474500Y-94599073D01*
X64454498Y-94667194D01*
X64437595Y-94688168D01*
X64369485Y-94756277D01*
X64369477Y-94756287D01*
X64286293Y-94900368D01*
X64283713Y-94898878D01*
X64248112Y-94943022D01*
X64180740Y-94965416D01*
X64111956Y-94947832D01*
X64087197Y-94928590D01*
X63262405Y-94103798D01*
X63228379Y-94041486D01*
X63225500Y-94014703D01*
X63225500Y-75207148D01*
X63225500Y-75207147D01*
X63218360Y-75180500D01*
X63203318Y-75124361D01*
X63194169Y-75108514D01*
X63165621Y-75059068D01*
X63165621Y-75059069D01*
X63160465Y-75050138D01*
X63160459Y-75050131D01*
X63095473Y-74985145D01*
X63095450Y-74985124D01*
X62915327Y-74805001D01*
X62881301Y-74742689D01*
X62880168Y-74715316D01*
X62878500Y-74715316D01*
X62878500Y-74548944D01*
X62878500Y-74548943D01*
X62837577Y-74396216D01*
X62833743Y-74389576D01*
X62833701Y-74389502D01*
X62816962Y-74320507D01*
X62840181Y-74253415D01*
X62895988Y-74209526D01*
X62942819Y-74200500D01*
X63669747Y-74200500D01*
X63669748Y-74200500D01*
X63728231Y-74188867D01*
X63794552Y-74144552D01*
X63838867Y-74078231D01*
X63850500Y-74019748D01*
X63850500Y-73180252D01*
X63838867Y-73121769D01*
X63794552Y-73055448D01*
X63794551Y-73055447D01*
X63787657Y-73045129D01*
X63791456Y-73042589D01*
X63769174Y-73001783D01*
X63774239Y-72930968D01*
X63790051Y-72906470D01*
X63787658Y-72904871D01*
X63814016Y-72865424D01*
X63838868Y-72828231D01*
X63850501Y-72769748D01*
X63850501Y-71930252D01*
X63848387Y-71919624D01*
X63854713Y-71848910D01*
X63882871Y-71805943D01*
X63964364Y-71724450D01*
X64020208Y-71610218D01*
X64020209Y-71610216D01*
X64030999Y-71536159D01*
X64031000Y-71536151D01*
X64031000Y-70663848D01*
X64030999Y-70663840D01*
X64020209Y-70589783D01*
X64020208Y-70589781D01*
X63964364Y-70475549D01*
X63964363Y-70475547D01*
X63882870Y-70394054D01*
X63848844Y-70331742D01*
X63848387Y-70280375D01*
X63850501Y-70269748D01*
X63850501Y-69430252D01*
X63838868Y-69371769D01*
X63794553Y-69305448D01*
X63794552Y-69305447D01*
X63787658Y-69295129D01*
X63791457Y-69292590D01*
X63769174Y-69251782D01*
X63774239Y-69180967D01*
X63790050Y-69156470D01*
X63787657Y-69154871D01*
X63797837Y-69139636D01*
X63838867Y-69078231D01*
X63850500Y-69019748D01*
X63850500Y-68180252D01*
X63838867Y-68121769D01*
X63794552Y-68055448D01*
X63728231Y-68011133D01*
X63728228Y-68011132D01*
X63669750Y-67999500D01*
X63669748Y-67999500D01*
X62030252Y-67999500D01*
X62030249Y-67999500D01*
X61971771Y-68011132D01*
X61971768Y-68011133D01*
X61905448Y-68055448D01*
X61861133Y-68121768D01*
X61861132Y-68121771D01*
X61849500Y-68180249D01*
X61849500Y-69019750D01*
X61861132Y-69078228D01*
X61861133Y-69078231D01*
X61912343Y-69154871D01*
X61908543Y-69157410D01*
X61930826Y-69198217D01*
X61925761Y-69269032D01*
X61910045Y-69293593D01*
X61912344Y-69295129D01*
X61861134Y-69371768D01*
X61861133Y-69371771D01*
X61849501Y-69430249D01*
X61849501Y-70269746D01*
X61849502Y-70269758D01*
X61851615Y-70280383D01*
X61845284Y-70351096D01*
X61817131Y-70394053D01*
X61754596Y-70456589D01*
X61692284Y-70490614D01*
X61621468Y-70485550D01*
X61564632Y-70443004D01*
X61539821Y-70376484D01*
X61539500Y-70367494D01*
X61539500Y-69937147D01*
X61536677Y-69926613D01*
X61536676Y-69926610D01*
X61534758Y-69919451D01*
X61517318Y-69854361D01*
X61499978Y-69824328D01*
X61474467Y-69780141D01*
X61474462Y-69780135D01*
X61109203Y-69414876D01*
X60741325Y-69046998D01*
X60707302Y-68984688D01*
X60706172Y-68957316D01*
X60704500Y-68957316D01*
X60704500Y-68790944D01*
X60701702Y-68780502D01*
X60663577Y-68638216D01*
X60663575Y-68638213D01*
X60663575Y-68638211D01*
X60584522Y-68501287D01*
X60584514Y-68501277D01*
X60472722Y-68389485D01*
X60472712Y-68389477D01*
X60335788Y-68310424D01*
X60297646Y-68300204D01*
X60183057Y-68269500D01*
X60024943Y-68269500D01*
X59931470Y-68294545D01*
X59872211Y-68310424D01*
X59735287Y-68389477D01*
X59735277Y-68389485D01*
X59623485Y-68501277D01*
X59623477Y-68501287D01*
X59544424Y-68638211D01*
X59529275Y-68694749D01*
X59503500Y-68790943D01*
X59503500Y-68949057D01*
X59529200Y-69044971D01*
X59544424Y-69101788D01*
X59623477Y-69238712D01*
X59623485Y-69238722D01*
X59735277Y-69350514D01*
X59735282Y-69350518D01*
X59735284Y-69350520D01*
X59735285Y-69350521D01*
X59735287Y-69350522D01*
X59872211Y-69429575D01*
X59872213Y-69429575D01*
X59872216Y-69429577D01*
X60024943Y-69470500D01*
X60024945Y-69470500D01*
X60191316Y-69470500D01*
X60191316Y-69472570D01*
X60214043Y-69477514D01*
X60245521Y-69482398D01*
X60249568Y-69485242D01*
X60252290Y-69485834D01*
X60281000Y-69507327D01*
X60342476Y-69568803D01*
X60376502Y-69631115D01*
X60371437Y-69701930D01*
X60328890Y-69758766D01*
X60262370Y-69783577D01*
X60220771Y-69779605D01*
X60183057Y-69769500D01*
X60024943Y-69769500D01*
X59931470Y-69794545D01*
X59872211Y-69810424D01*
X59735287Y-69889477D01*
X59735277Y-69889485D01*
X59623485Y-70001277D01*
X59623477Y-70001287D01*
X59544424Y-70138211D01*
X59536249Y-70168722D01*
X59503500Y-70290943D01*
X59503500Y-70449057D01*
X59536028Y-70570452D01*
X59544424Y-70601788D01*
X59601619Y-70700851D01*
X59618500Y-70763851D01*
X59618500Y-73441145D01*
X59618500Y-73526851D01*
X59640682Y-73609637D01*
X59640683Y-73609639D01*
X59640684Y-73609641D01*
X59683532Y-73683856D01*
X59683534Y-73683858D01*
X59683535Y-73683860D01*
X60322673Y-74322998D01*
X60356697Y-74385309D01*
X60357856Y-74412683D01*
X60359500Y-74412683D01*
X60359500Y-74420941D01*
X60359500Y-74579055D01*
X60400423Y-74731782D01*
X60400424Y-74731783D01*
X60402561Y-74739759D01*
X60399379Y-74740611D01*
X60405319Y-74795877D01*
X60373537Y-74859363D01*
X60312477Y-74895588D01*
X60281322Y-74899500D01*
X58430250Y-74899500D01*
X58371772Y-74911132D01*
X58371769Y-74911133D01*
X58305449Y-74955448D01*
X58261134Y-75021768D01*
X58261133Y-75021771D01*
X58249501Y-75080249D01*
X56650500Y-75080249D01*
X56650500Y-72551004D01*
X57643500Y-72551004D01*
X57643500Y-72688995D01*
X57670420Y-72824328D01*
X57670421Y-72824331D01*
X57687442Y-72865423D01*
X57723225Y-72951811D01*
X57762863Y-73011133D01*
X57799885Y-73066541D01*
X57799890Y-73066547D01*
X57897452Y-73164109D01*
X57897458Y-73164114D01*
X58012189Y-73240775D01*
X58139672Y-73293580D01*
X58275007Y-73320500D01*
X58275008Y-73320500D01*
X58412992Y-73320500D01*
X58412993Y-73320500D01*
X58548328Y-73293580D01*
X58675811Y-73240775D01*
X58790542Y-73164114D01*
X58888114Y-73066542D01*
X58964775Y-72951811D01*
X59017580Y-72824328D01*
X59044500Y-72688993D01*
X59044500Y-72551007D01*
X59017580Y-72415672D01*
X58964775Y-72288189D01*
X58888114Y-72173458D01*
X58888109Y-72173452D01*
X58790547Y-72075890D01*
X58790541Y-72075885D01*
X58752471Y-72050447D01*
X58675811Y-71999225D01*
X58590439Y-71963863D01*
X58548331Y-71946421D01*
X58548328Y-71946420D01*
X58412995Y-71919500D01*
X58412993Y-71919500D01*
X58275007Y-71919500D01*
X58275004Y-71919500D01*
X58139671Y-71946420D01*
X58139668Y-71946421D01*
X58012189Y-71999225D01*
X57897458Y-72075885D01*
X57897452Y-72075890D01*
X57799890Y-72173452D01*
X57799885Y-72173458D01*
X57723225Y-72288189D01*
X57670421Y-72415668D01*
X57670420Y-72415671D01*
X57643500Y-72551004D01*
X56650500Y-72551004D01*
X56650500Y-69551004D01*
X57643500Y-69551004D01*
X57643500Y-69688995D01*
X57666413Y-69804182D01*
X57670420Y-69824328D01*
X57723225Y-69951811D01*
X57756277Y-70001277D01*
X57799885Y-70066541D01*
X57799890Y-70066547D01*
X57897452Y-70164109D01*
X57897458Y-70164114D01*
X58012189Y-70240775D01*
X58139672Y-70293580D01*
X58275007Y-70320500D01*
X58275008Y-70320500D01*
X58412992Y-70320500D01*
X58412993Y-70320500D01*
X58548328Y-70293580D01*
X58675811Y-70240775D01*
X58790542Y-70164114D01*
X58888114Y-70066542D01*
X58964775Y-69951811D01*
X59017580Y-69824328D01*
X59044500Y-69688993D01*
X59044500Y-69551007D01*
X59017580Y-69415672D01*
X58964775Y-69288189D01*
X58888114Y-69173458D01*
X58888109Y-69173452D01*
X58790547Y-69075890D01*
X58790541Y-69075885D01*
X58747313Y-69047001D01*
X58675811Y-68999225D01*
X58580341Y-68959680D01*
X58548331Y-68946421D01*
X58548328Y-68946420D01*
X58412995Y-68919500D01*
X58412993Y-68919500D01*
X58275007Y-68919500D01*
X58275004Y-68919500D01*
X58139671Y-68946420D01*
X58139668Y-68946421D01*
X58012189Y-68999225D01*
X57897458Y-69075885D01*
X57897452Y-69075890D01*
X57799890Y-69173452D01*
X57799885Y-69173458D01*
X57723225Y-69288189D01*
X57670421Y-69415668D01*
X57670420Y-69415671D01*
X57643500Y-69551004D01*
X56650500Y-69551004D01*
X56650500Y-64980249D01*
X58249501Y-64980249D01*
X58249501Y-67119750D01*
X58260655Y-67175826D01*
X58261134Y-67178231D01*
X58305449Y-67244552D01*
X58371770Y-67288867D01*
X58430253Y-67300500D01*
X58430254Y-67300500D01*
X61469748Y-67300500D01*
X61469749Y-67300500D01*
X61528232Y-67288867D01*
X61594553Y-67244552D01*
X61638868Y-67178231D01*
X61650501Y-67119748D01*
X61650501Y-64980252D01*
X61638868Y-64921769D01*
X61594553Y-64855448D01*
X61528232Y-64811133D01*
X61528229Y-64811132D01*
X61469751Y-64799500D01*
X61469749Y-64799500D01*
X58430253Y-64799500D01*
X58430250Y-64799500D01*
X58371772Y-64811132D01*
X58371769Y-64811133D01*
X58305449Y-64855448D01*
X58261134Y-64921768D01*
X58261133Y-64921771D01*
X58249501Y-64980249D01*
X56650500Y-64980249D01*
X56650500Y-63848927D01*
X56650979Y-63837945D01*
X56659678Y-63738511D01*
X56664967Y-63678057D01*
X56668781Y-63656431D01*
X56708892Y-63506737D01*
X56716399Y-63486113D01*
X56781898Y-63345649D01*
X56792869Y-63326648D01*
X56881766Y-63199689D01*
X56895873Y-63182878D01*
X57005458Y-63073293D01*
X57022269Y-63059186D01*
X57149228Y-62970289D01*
X57168229Y-62959318D01*
X57308693Y-62893819D01*
X57329317Y-62886312D01*
X57479015Y-62846200D01*
X57500637Y-62842387D01*
X57660525Y-62828398D01*
X57671440Y-62827920D01*
X57713845Y-62827897D01*
X98303476Y-62809502D01*
X98314504Y-62809982D01*
G37*
%TD.AperFunction*%
%TD*%
M02*
