%TF.GenerationSoftware,KiCad,Pcbnew,10.0.1*%
%TF.CreationDate,2026-08-31T16:03:19+02:00*%
%TF.ProjectId,QL_Minerva_MK2,514c5f4d-696e-4657-9276-615f4d4b322e,0.0*%
%TF.SameCoordinates,Original*%
%TF.FileFunction,Copper,L2,Bot*%
%TF.FilePolarity,Positive*%
%FSLAX46Y46*%
G04 Gerber Fmt 4.6, Leading zero omitted, Abs format (unit mm)*
G04 Created by KiCad (PCBNEW 10.0.1) date 2026-08-31 16:03:19*
%MOMM*%
%LPD*%
G01*
G04 APERTURE LIST*
G04 Aperture macros list*
%AMRoundRect*
0 Rectangle with rounded corners*
0 $1 Rounding radius*
0 $2 $3 $4 $5 $6 $7 $8 $9 X,Y pos of 4 corners*
0 Add a 4 corners polygon primitive as box body*
4,1,4,$2,$3,$4,$5,$6,$7,$8,$9,$2,$3,0*
0 Add four circle primitives for the rounded corners*
1,1,$1+$1,$2,$3*
1,1,$1+$1,$4,$5*
1,1,$1+$1,$6,$7*
1,1,$1+$1,$8,$9*
0 Add four rect primitives between the rounded corners*
20,1,$1+$1,$2,$3,$4,$5,0*
20,1,$1+$1,$4,$5,$6,$7,0*
20,1,$1+$1,$6,$7,$8,$9,0*
20,1,$1+$1,$8,$9,$2,$3,0*%
G04 Aperture macros list end*
%TA.AperFunction,SMDPad,CuDef*%
%ADD10RoundRect,0.250000X-0.475000X0.250000X-0.475000X-0.250000X0.475000X-0.250000X0.475000X0.250000X0*%
%TD*%
%TA.AperFunction,ComponentPad*%
%ADD11RoundRect,0.250000X-0.550000X-0.550000X0.550000X-0.550000X0.550000X0.550000X-0.550000X0.550000X0*%
%TD*%
%TA.AperFunction,ComponentPad*%
%ADD12C,1.600000*%
%TD*%
%TA.AperFunction,ComponentPad*%
%ADD13C,2.200000*%
%TD*%
%TA.AperFunction,ComponentPad*%
%ADD14RoundRect,0.250000X-0.550000X0.550000X-0.550000X-0.550000X0.550000X-0.550000X0.550000X0.550000X0*%
%TD*%
%TA.AperFunction,SMDPad,CuDef*%
%ADD15RoundRect,0.225000X0.250000X-0.225000X0.250000X0.225000X-0.250000X0.225000X-0.250000X-0.225000X0*%
%TD*%
%TA.AperFunction,SMDPad,CuDef*%
%ADD16R,0.800000X1.000000*%
%TD*%
%TA.AperFunction,SMDPad,CuDef*%
%ADD17R,1.500000X0.700000*%
%TD*%
%TA.AperFunction,SMDPad,CuDef*%
%ADD18RoundRect,0.225000X-0.017678X0.335876X-0.335876X0.017678X0.017678X-0.335876X0.335876X-0.017678X0*%
%TD*%
%TA.AperFunction,SMDPad,CuDef*%
%ADD19RoundRect,0.225000X-0.335876X-0.017678X-0.017678X-0.335876X0.335876X0.017678X0.017678X0.335876X0*%
%TD*%
%TA.AperFunction,ViaPad*%
%ADD20C,0.800000*%
%TD*%
%TA.AperFunction,Conductor*%
%ADD21C,0.250000*%
%TD*%
%TA.AperFunction,Conductor*%
%ADD22C,0.500000*%
%TD*%
G04 APERTURE END LIST*
D10*
%TO.P,C5,1*%
%TO.N,+5V*%
X94910000Y-64090001D03*
%TO.P,C5,2*%
%TO.N,GND*%
X94910000Y-65989999D03*
%TD*%
D11*
%TO.P,U1,1,A15_1*%
%TO.N,+5V*%
X82610000Y-64835000D03*
D12*
%TO.P,U1,2,A12_2*%
%TO.N,/A12*%
X82610000Y-67375000D03*
%TO.P,U1,3,A7_3*%
%TO.N,/A7*%
X82610000Y-69915000D03*
%TO.P,U1,4,A6_4*%
%TO.N,/A6*%
X82610000Y-72455000D03*
%TO.P,U1,5,A5_5*%
%TO.N,/A5*%
X82610000Y-74995000D03*
%TO.P,U1,6,A4_6*%
%TO.N,/A4*%
X82610000Y-77535000D03*
%TO.P,U1,7,A3_7*%
%TO.N,/A3*%
X82610000Y-80075000D03*
%TO.P,U1,8,A2_8*%
%TO.N,/A2*%
X82610000Y-82615000D03*
%TO.P,U1,9,A1_9*%
%TO.N,/A1*%
X82610000Y-85155000D03*
%TO.P,U1,10,A0_10*%
%TO.N,/A0*%
X82610000Y-87695000D03*
%TO.P,U1,11,D0_11*%
%TO.N,/D0*%
X82610000Y-90235000D03*
%TO.P,U1,12,D1_12*%
%TO.N,/D1*%
X82610000Y-92775000D03*
%TO.P,U1,13,D2_13*%
%TO.N,/D2*%
X82610000Y-95315000D03*
%TO.P,U1,14,GND_14*%
%TO.N,GND*%
X82610000Y-97855000D03*
%TO.P,U1,15,D3_15*%
%TO.N,/D3*%
X97850000Y-97855000D03*
%TO.P,U1,16,D4_16*%
%TO.N,/D4*%
X97850000Y-95315000D03*
%TO.P,U1,17,D5_17*%
%TO.N,/D5*%
X97850000Y-92775000D03*
%TO.P,U1,18,D6_18*%
%TO.N,/D6*%
X97850000Y-90235000D03*
%TO.P,U1,19,D7_19*%
%TO.N,/D7*%
X97850000Y-87695000D03*
%TO.P,U1,20,~{CE}_20*%
%TO.N,/A15*%
X97850000Y-85155000D03*
%TO.P,U1,21,A10_21*%
%TO.N,/A10*%
X97850000Y-82615000D03*
%TO.P,U1,22,~{OE/Vpp}_22*%
%TO.N,/QL_ROMOE*%
X97850000Y-80075000D03*
%TO.P,U1,23,A11_23*%
%TO.N,/A11*%
X97850000Y-77535000D03*
%TO.P,U1,24,A9_24*%
%TO.N,/A9*%
X97850000Y-74995000D03*
%TO.P,U1,25,A8_25*%
%TO.N,/A8*%
X97850000Y-72455000D03*
%TO.P,U1,26,A13_26*%
%TO.N,/A13*%
X97850000Y-69915000D03*
%TO.P,U1,27,A14_27*%
%TO.N,/A14*%
X97850000Y-67375000D03*
%TO.P,U1,28,VCC_28*%
%TO.N,+5V*%
X97850000Y-64835000D03*
%TD*%
D13*
%TO.P,J1,1,Pin_1_1*%
%TO.N,Net-(D2-A)*%
X84865000Y-96550000D03*
X95485000Y-96550000D03*
%TD*%
D14*
%TO.P,U3,1,OSCI_1*%
%TO.N,Net-(U3-OSCI)*%
X93942747Y-70054155D03*
D12*
%TO.P,U3,2,OSCO_2*%
%TO.N,Net-(U3-OSCO)*%
X91402747Y-70054155D03*
%TO.P,U3,3,A0_3*%
%TO.N,GND*%
X88862748Y-70054155D03*
%TO.P,U3,4,Vss_4*%
X86322747Y-70054155D03*
%TO.P,U3,5,SDA_5*%
%TO.N,/SDA*%
X86322747Y-77674155D03*
%TO.P,U3,6,SCL_6*%
%TO.N,/SCL*%
X88862747Y-77674155D03*
%TO.P,U3,7,~{INT}_7*%
%TO.N,unconnected-(U3-~{INT}-Pad7)*%
X91402747Y-77674155D03*
%TO.P,U3,8,Vdd_8*%
%TO.N,/K*%
X93942747Y-77674155D03*
%TD*%
D15*
%TO.P,C1,1*%
%TO.N,+5V*%
X73200000Y-82225000D03*
%TO.P,C1,2*%
%TO.N,GND*%
X73200000Y-80675000D03*
%TD*%
D16*
%TO.P,SW1,*%
%TO.N,*%
X57244000Y-74770000D03*
X59454000Y-74770000D03*
X57244000Y-67470000D03*
X59454000Y-67470000D03*
D17*
%TO.P,SW1,1,A_1*%
%TO.N,GND*%
X60104000Y-73370000D03*
%TO.P,SW1,2,B_2*%
%TO.N,Net-(SW1-B)*%
X60104000Y-70370000D03*
%TO.P,SW1,3,C_3*%
%TO.N,+5V*%
X60104000Y-68870000D03*
%TD*%
D18*
%TO.P,C3,1*%
%TO.N,+5V*%
X91868008Y-82421992D03*
%TO.P,C3,2*%
%TO.N,GND*%
X90771992Y-83518008D03*
%TD*%
D15*
%TO.P,C4,1*%
%TO.N,/K*%
X93950000Y-75315000D03*
%TO.P,C4,2*%
%TO.N,GND*%
X93950000Y-73765000D03*
%TD*%
D19*
%TO.P,C2,1*%
%TO.N,+5V*%
X72101992Y-71301992D03*
%TO.P,C2,2*%
%TO.N,GND*%
X73198008Y-72398008D03*
%TD*%
D20*
%TO.N,/A15*%
X68922500Y-71650000D03*
%TO.N,+5V*%
X94929999Y-64150000D03*
X74245000Y-75702500D03*
X62850001Y-72350000D03*
X73145000Y-82250000D03*
X89200000Y-83000000D03*
X60104000Y-68870000D03*
X91430000Y-73800000D03*
X66575000Y-70380000D03*
X68922500Y-70380000D03*
X90678000Y-75781000D03*
X91868008Y-82421992D03*
%TO.N,/SDA*%
X71705000Y-67597500D03*
X86124653Y-72879347D03*
X62850000Y-68600000D03*
%TO.N,/A12*%
X84950153Y-81699847D03*
X83885000Y-75710671D03*
%TO.N,/A7*%
X69100000Y-79125000D03*
X74000000Y-79075000D03*
X79600000Y-79000000D03*
X79850000Y-72975000D03*
%TO.N,/A6*%
X86638000Y-84755000D03*
X66363200Y-86195000D03*
%TO.N,/A5*%
X68875000Y-75725000D03*
X66363200Y-87465000D03*
X68825000Y-86425000D03*
X66250000Y-84975000D03*
X66225000Y-75925000D03*
%TO.N,/A4*%
X74250000Y-77550000D03*
X71705000Y-75702500D03*
X66363200Y-88735000D03*
%TO.N,/A3*%
X86638000Y-86025000D03*
X66363200Y-90005000D03*
%TO.N,/A2*%
X66363200Y-91275000D03*
%TO.N,/A1*%
X79600000Y-80650000D03*
X66363200Y-92545000D03*
X78875799Y-86048895D03*
X77050000Y-75925000D03*
%TO.N,/A0*%
X78175000Y-79700000D03*
X77027500Y-74190000D03*
X69525000Y-88950000D03*
X70625000Y-93815000D03*
X76850000Y-82800000D03*
%TO.N,/D0*%
X80350000Y-67725000D03*
X62278000Y-74628000D03*
X66363200Y-96355000D03*
%TO.N,/D1*%
X68065000Y-98056800D03*
%TO.N,/D2*%
X69335000Y-98056800D03*
%TO.N,GND*%
X79225000Y-92500000D03*
X68025000Y-81700000D03*
X77550000Y-65875000D03*
X77027500Y-72920000D03*
X74422000Y-63246000D03*
X57658000Y-64770000D03*
X86638000Y-91105000D03*
X95875000Y-101200000D03*
X71800000Y-86480000D03*
X73914000Y-69850000D03*
X65400000Y-100975000D03*
X63825000Y-96775000D03*
X87376000Y-76454000D03*
X74975000Y-101075000D03*
X78450000Y-101125000D03*
X58420000Y-68326000D03*
X79502000Y-71882000D03*
X79200000Y-89925000D03*
X93950000Y-73765000D03*
X63900000Y-90250000D03*
X66175000Y-63325000D03*
X80175000Y-63375000D03*
X62850000Y-71100000D03*
X71650000Y-81700000D03*
X63754000Y-63375000D03*
X82875000Y-101050000D03*
X63850000Y-86500000D03*
X68250000Y-101050000D03*
X63900000Y-93725000D03*
X63900000Y-99100000D03*
X71575000Y-101075000D03*
X70358000Y-63246000D03*
X70358000Y-65875000D03*
X93275000Y-101150000D03*
X73198008Y-72398008D03*
X90000000Y-101125000D03*
X70605000Y-98056800D03*
X87884000Y-73406000D03*
X90771992Y-83518008D03*
X74325000Y-65875000D03*
X63500000Y-66802000D03*
X59750000Y-63325000D03*
X65786000Y-66040000D03*
X65786000Y-68834000D03*
X82650000Y-63350000D03*
X86725000Y-101150000D03*
X77075000Y-81700000D03*
X97900000Y-63375000D03*
X59650000Y-78800000D03*
X58420000Y-71120000D03*
X63875000Y-82475000D03*
%TO.N,/D7*%
X84450000Y-91325000D03*
X93002958Y-93036991D03*
%TO.N,/A15*%
X66909000Y-71882000D03*
X93762000Y-89835000D03*
X67310000Y-77650000D03*
X72765724Y-93088534D03*
X70575000Y-77500000D03*
%TO.N,/A10*%
X84350000Y-88175000D03*
X93685847Y-88488847D03*
%TO.N,/QL_ROMOE*%
X68922500Y-74190000D03*
%TO.N,/A11*%
X93762000Y-87295000D03*
X83775000Y-86375000D03*
%TO.N,/A9*%
X83826000Y-84425000D03*
X93762000Y-86025000D03*
%TO.N,/A8*%
X95798442Y-77923442D03*
X86875000Y-95425000D03*
X84765761Y-89084476D03*
X75325000Y-96225000D03*
X90825000Y-89025000D03*
X85750000Y-93176000D03*
X73726929Y-92812689D03*
X75300000Y-93425000D03*
X86825000Y-98050000D03*
%TO.N,/A13*%
X93762000Y-83485000D03*
X80675000Y-83800000D03*
%TO.N,/A14*%
X74415000Y-84493200D03*
X78901416Y-69649999D03*
X75250000Y-73425000D03*
X75250000Y-69800000D03*
X78575000Y-67200000D03*
%TO.N,/SCL*%
X70435000Y-67597500D03*
X62850001Y-69850000D03*
%TO.N,/K*%
X67700000Y-65975000D03*
X62850000Y-73600000D03*
X93950000Y-75315000D03*
%TO.N,/IC_ROMOE*%
X68175000Y-95100000D03*
X64850000Y-95125000D03*
X68922500Y-69110000D03*
X64800000Y-69500000D03*
%TO.N,Net-(D2-A)*%
X92062750Y-79675000D03*
%TO.N,Net-(SW1-B)*%
X60960000Y-74499998D03*
X72975000Y-75702500D03*
X60104000Y-70370000D03*
%TO.N,Net-(U3-OSCI)*%
X92135000Y-68174999D03*
X88625300Y-66825000D03*
%TD*%
%TO.N,/A14*%
D21*
X91390000Y-66000000D02*
X92860000Y-67470000D01*
X80035639Y-66000000D02*
X91390000Y-66000000D01*
X97755000Y-67470000D02*
X97850000Y-67375000D01*
X79448639Y-66587000D02*
X80035639Y-66000000D01*
X79188000Y-66587000D02*
X79448639Y-66587000D01*
X92860000Y-67470000D02*
X97755000Y-67470000D01*
X78575000Y-67200000D02*
X79188000Y-66587000D01*
%TO.N,+5V*%
D22*
X97165000Y-64150000D02*
X94929999Y-64150000D01*
X97850000Y-64835000D02*
X97165000Y-64150000D01*
D21*
X90678000Y-75781000D02*
X90678000Y-74547000D01*
X72101992Y-71301992D02*
X71180000Y-70380000D01*
X89200000Y-83000000D02*
X89210000Y-83000000D01*
X89210000Y-83000000D02*
X89788008Y-82421992D01*
X89788008Y-82421992D02*
X91868008Y-82421992D01*
X90678000Y-74547000D02*
X91440000Y-73785000D01*
X71180000Y-70380000D02*
X68922500Y-70380000D01*
%TO.N,/SDA*%
X81661000Y-68789000D02*
X81525000Y-68925000D01*
X84582000Y-69857000D02*
X83514000Y-68789000D01*
X70979000Y-66871500D02*
X71705000Y-67597500D01*
X81525000Y-68925000D02*
X73032500Y-68925000D01*
X62850000Y-68600000D02*
X63462191Y-68600000D01*
X84582000Y-71336694D02*
X84582000Y-69857000D01*
X65190691Y-66871500D02*
X70979000Y-66871500D01*
X73032500Y-68925000D02*
X71705000Y-67597500D01*
X86124653Y-72879347D02*
X84582000Y-71336694D01*
X83514000Y-68789000D02*
X81661000Y-68789000D01*
X63462191Y-68600000D02*
X65190691Y-66871500D01*
%TO.N,/A12*%
X83885000Y-80634694D02*
X83885000Y-75710671D01*
X84950153Y-81699847D02*
X83885000Y-80634694D01*
%TO.N,/A7*%
X79850000Y-78750000D02*
X79600000Y-79000000D01*
X69100000Y-79125000D02*
X73950000Y-79125000D01*
X73950000Y-79125000D02*
X74000000Y-79075000D01*
X79850000Y-72975000D02*
X79850000Y-78750000D01*
%TO.N,/A6*%
X80325000Y-74740000D02*
X82610000Y-72455000D01*
X86505000Y-84755000D02*
X85650000Y-83900000D01*
X84350000Y-75148951D02*
X84350000Y-74195000D01*
X66557810Y-86195000D02*
X68226000Y-87863190D01*
X68226000Y-87863190D02*
X68226000Y-89526000D01*
X68575000Y-89875000D02*
X71437190Y-89875000D01*
X71437190Y-89875000D02*
X80325000Y-80987190D01*
X85676153Y-81399127D02*
X85250873Y-80973847D01*
X86638000Y-84755000D02*
X86505000Y-84755000D01*
X84350000Y-74195000D02*
X82610000Y-72455000D01*
X84861963Y-80973847D02*
X84350000Y-80461884D01*
X85650000Y-82026720D02*
X85676153Y-82000567D01*
X85250873Y-80973847D02*
X84861963Y-80973847D01*
X84350000Y-80461884D02*
X84350000Y-76272391D01*
X68226000Y-89526000D02*
X68575000Y-89875000D01*
X84611000Y-75409951D02*
X84350000Y-75148951D01*
X80325000Y-80987190D02*
X80325000Y-74740000D01*
X84350000Y-76272391D02*
X84611000Y-76011391D01*
X66363200Y-86195000D02*
X66557810Y-86195000D01*
X85676153Y-82000567D02*
X85676153Y-81399127D01*
X85650000Y-83900000D02*
X85650000Y-82026720D01*
X84611000Y-76011391D02*
X84611000Y-75409951D01*
%TO.N,/A5*%
X66425000Y-75725000D02*
X66225000Y-75925000D01*
X80800000Y-81150000D02*
X80800000Y-76805000D01*
X66363200Y-87465000D02*
X67190000Y-87465000D01*
X68825000Y-86425000D02*
X68825000Y-85500000D01*
X80800000Y-76805000D02*
X82610000Y-74995000D01*
X68825000Y-85500000D02*
X68300000Y-84975000D01*
X67775000Y-89775000D02*
X68374000Y-90374000D01*
X68374000Y-90374000D02*
X71576000Y-90374000D01*
X68875000Y-75725000D02*
X66425000Y-75725000D01*
X68300000Y-84975000D02*
X66250000Y-84975000D01*
X71576000Y-90374000D02*
X80800000Y-81150000D01*
X67775000Y-88050000D02*
X67775000Y-89775000D01*
X67190000Y-87465000D02*
X67775000Y-88050000D01*
%TO.N,/A4*%
X66363200Y-88735000D02*
X65510000Y-88735000D01*
X65750000Y-78375000D02*
X71725000Y-78375000D01*
X64925000Y-79200000D02*
X65750000Y-78375000D01*
X71725000Y-78375000D02*
X71725000Y-75722500D01*
X65510000Y-88735000D02*
X64925000Y-88150000D01*
X74250000Y-77550000D02*
X73425000Y-78375000D01*
X73425000Y-78375000D02*
X71725000Y-78375000D01*
X71725000Y-75722500D02*
X71705000Y-75702500D01*
X64925000Y-88150000D02*
X64925000Y-79200000D01*
%TO.N,/A3*%
X84850000Y-83784470D02*
X84850000Y-82825000D01*
X84850000Y-82825000D02*
X82610000Y-80585000D01*
X85003000Y-84827380D02*
X85003000Y-83937470D01*
X71860000Y-90825000D02*
X82610000Y-80075000D01*
X85210430Y-85022000D02*
X85197620Y-85022000D01*
X85210430Y-85022000D02*
X86214430Y-86026000D01*
X67183200Y-90825000D02*
X71860000Y-90825000D01*
X85197620Y-85022000D02*
X85003000Y-84827380D01*
X66363200Y-90005000D02*
X67183200Y-90825000D01*
X86637000Y-86026000D02*
X86214430Y-86026000D01*
X86638000Y-86025000D02*
X86637000Y-86026000D01*
X85003000Y-83937470D02*
X84850000Y-83784470D01*
%TO.N,/A2*%
X80707810Y-82615000D02*
X82610000Y-82615000D01*
X66363200Y-91275000D02*
X72047810Y-91275000D01*
X72047810Y-91275000D02*
X80707810Y-82615000D01*
%TO.N,/A1*%
X79600000Y-80650000D02*
X77625000Y-80650000D01*
X78160773Y-85799847D02*
X72234620Y-91726000D01*
X78626752Y-85799847D02*
X78160773Y-85799847D01*
X78875799Y-86048895D02*
X78626752Y-85799847D01*
X77625000Y-80650000D02*
X77050000Y-80075000D01*
X67182200Y-91726000D02*
X66363200Y-92545000D01*
X81390000Y-86375000D02*
X82610000Y-85155000D01*
X79201904Y-86375000D02*
X81390000Y-86375000D01*
X77050000Y-80075000D02*
X77050000Y-75925000D01*
X78875799Y-86048895D02*
X79201904Y-86375000D01*
X72234620Y-91726000D02*
X67182200Y-91726000D01*
%TO.N,/A0*%
X76850000Y-82800000D02*
X76825000Y-82825000D01*
X77965000Y-74190000D02*
X78300000Y-74525000D01*
X76825000Y-83849380D02*
X71374380Y-89300000D01*
X70625000Y-93815000D02*
X70810000Y-93815000D01*
X70810000Y-93815000D02*
X76930000Y-87695000D01*
X71374380Y-89300000D02*
X69875000Y-89300000D01*
X76825000Y-82825000D02*
X76825000Y-83849380D01*
X78300000Y-74525000D02*
X78300000Y-79575000D01*
X77027500Y-74190000D02*
X77965000Y-74190000D01*
X76930000Y-87695000D02*
X82610000Y-87695000D01*
X69875000Y-89300000D02*
X69525000Y-88950000D01*
X78300000Y-79575000D02*
X78175000Y-79700000D01*
%TO.N,/D0*%
X80125000Y-67950000D02*
X80350000Y-67725000D01*
X61468000Y-65532000D02*
X62325000Y-64675000D01*
X66363200Y-96355000D02*
X66393200Y-96325000D01*
X62278000Y-74628000D02*
X61468000Y-73818000D01*
X76100000Y-64675000D02*
X76500000Y-65075000D01*
X66393200Y-96325000D02*
X69158990Y-96325000D01*
X76500000Y-66950000D02*
X77500000Y-67950000D01*
X78559000Y-94266000D02*
X82590000Y-90235000D01*
X69835095Y-95648895D02*
X70575485Y-95648895D01*
X69158990Y-96325000D02*
X69835095Y-95648895D01*
X71958380Y-94266000D02*
X78559000Y-94266000D01*
X70575485Y-95648895D02*
X71958380Y-94266000D01*
X77500000Y-67950000D02*
X80125000Y-67950000D01*
X62325000Y-64675000D02*
X76100000Y-64675000D01*
X61468000Y-73818000D02*
X61468000Y-65532000D01*
X76500000Y-65075000D02*
X76500000Y-66950000D01*
%TO.N,/D1*%
X70587190Y-96275000D02*
X72145190Y-94717000D01*
X69846800Y-96275000D02*
X70587190Y-96275000D01*
X72145190Y-94717000D02*
X80668000Y-94717000D01*
X68065000Y-98056800D02*
X69846800Y-96275000D01*
X80668000Y-94717000D02*
X82610000Y-92775000D01*
%TO.N,/D2*%
X72332000Y-95168000D02*
X80854810Y-95168000D01*
X69443200Y-98056800D02*
X72332000Y-95168000D01*
X80872810Y-95150000D02*
X82445000Y-95150000D01*
X80854810Y-95168000D02*
X80872810Y-95150000D01*
X69335000Y-98056800D02*
X69443200Y-98056800D01*
%TO.N,GND*%
X60104000Y-72804000D02*
X58420000Y-71120000D01*
X68025000Y-81700000D02*
X71650000Y-81700000D01*
X79225000Y-92500000D02*
X79225000Y-89950000D01*
X71800000Y-84760000D02*
X71700000Y-84660000D01*
X77675000Y-65875000D02*
X77550000Y-65875000D01*
X79225000Y-89950000D02*
X79200000Y-89925000D01*
X71700000Y-84660000D02*
X71700000Y-81750000D01*
X76767500Y-72660000D02*
X77027500Y-72920000D01*
X73460000Y-72660000D02*
X76767500Y-72660000D01*
X60104000Y-73370000D02*
X60104000Y-72804000D01*
X78464000Y-72920000D02*
X79502000Y-71882000D01*
X73198008Y-72398008D02*
X73460000Y-72660000D01*
X80175000Y-63375000D02*
X77675000Y-65875000D01*
X71800000Y-86480000D02*
X71800000Y-84760000D01*
X77027500Y-72920000D02*
X78464000Y-72920000D01*
X71700000Y-81750000D02*
X71650000Y-81700000D01*
%TO.N,/D7*%
X85575000Y-92450000D02*
X84450000Y-91325000D01*
X93002958Y-93036991D02*
X92564949Y-93475000D01*
X92564949Y-93475000D02*
X87075720Y-93475000D01*
X87075720Y-93475000D02*
X86050720Y-92450000D01*
X86050720Y-92450000D02*
X85575000Y-92450000D01*
%TO.N,/A15*%
X83802405Y-89835000D02*
X83076405Y-89109000D01*
X67310000Y-77650000D02*
X67460000Y-77500000D01*
X72900000Y-92362810D02*
X72900000Y-92954258D01*
X67460000Y-77500000D02*
X70575000Y-77500000D01*
X93762000Y-89835000D02*
X83802405Y-89835000D01*
X76153810Y-89109000D02*
X72900000Y-92362810D01*
X72900000Y-92954258D02*
X72765724Y-93088534D01*
X83076405Y-89109000D02*
X76153810Y-89109000D01*
%TO.N,/A10*%
X92836097Y-88488847D02*
X92522250Y-88175000D01*
X84350000Y-88175000D02*
X92522250Y-88175000D01*
X93685847Y-88488847D02*
X92836097Y-88488847D01*
%TO.N,/QL_ROMOE*%
X62275000Y-102100000D02*
X63050000Y-102875000D01*
X68922500Y-74190000D02*
X65560000Y-74190000D01*
X98275000Y-102875000D02*
X98976000Y-102174000D01*
X62275000Y-77475000D02*
X62275000Y-102100000D01*
X63050000Y-102875000D02*
X98275000Y-102875000D01*
X65560000Y-74190000D02*
X62275000Y-77475000D01*
X98976000Y-102174000D02*
X98976000Y-81201000D01*
X98976000Y-81201000D02*
X97850000Y-80075000D01*
%TO.N,/A11*%
X84650000Y-86375000D02*
X83775000Y-86375000D01*
X92912250Y-87295000D02*
X92483250Y-87724000D01*
X92483250Y-87724000D02*
X85999000Y-87724000D01*
X93762000Y-87295000D02*
X92912250Y-87295000D01*
X85999000Y-87724000D02*
X84650000Y-86375000D01*
%TO.N,/A9*%
X93762000Y-86025000D02*
X92912000Y-86025000D01*
X91664000Y-87273000D02*
X86185810Y-87273000D01*
X84836810Y-85924000D02*
X84824000Y-85924000D01*
X84836810Y-85924000D02*
X86185810Y-87273000D01*
X84824000Y-85924000D02*
X83825000Y-84925000D01*
X83825000Y-84925000D02*
X83825000Y-84426000D01*
X83825000Y-84426000D02*
X83826000Y-84425000D01*
X92912000Y-86025000D02*
X91664000Y-87273000D01*
%TO.N,/A8*%
X77150000Y-99525000D02*
X75325000Y-97700000D01*
X73814771Y-92724847D02*
X75074847Y-92724847D01*
X84825237Y-89025000D02*
X84765761Y-89084476D01*
X85750000Y-93176000D02*
X86875000Y-94301000D01*
X84825237Y-89025000D02*
X90825000Y-89025000D01*
X96225000Y-74080000D02*
X97850000Y-72455000D01*
X86825000Y-98050000D02*
X85350000Y-99525000D01*
X73726929Y-92812689D02*
X73814771Y-92724847D01*
X95798442Y-77923442D02*
X96225000Y-77496884D01*
X75325000Y-97700000D02*
X75325000Y-96225000D01*
X85350000Y-99525000D02*
X77150000Y-99525000D01*
X96225000Y-77496884D02*
X96225000Y-74080000D01*
X75300000Y-92950000D02*
X75300000Y-93425000D01*
X86875000Y-94301000D02*
X86875000Y-95425000D01*
X75074847Y-92724847D02*
X75300000Y-92950000D01*
%TO.N,/A13*%
X82143595Y-83741000D02*
X82101595Y-83699000D01*
X86301620Y-86751000D02*
X85023620Y-85473000D01*
X84552000Y-84124280D02*
X84126720Y-83699000D01*
X93762000Y-83485000D02*
X94165000Y-83485000D01*
X83118405Y-83699000D02*
X84126720Y-83699000D01*
X82101595Y-83699000D02*
X80776000Y-83699000D01*
X84552000Y-85014190D02*
X84552000Y-84124280D01*
X95210720Y-76506000D02*
X95636000Y-76080720D01*
X83118405Y-83699000D02*
X83076405Y-83741000D01*
X93762000Y-83485000D02*
X92912001Y-83485000D01*
X94575000Y-83075000D02*
X94575000Y-82075000D01*
X94575000Y-82075000D02*
X94030000Y-81530000D01*
X89646001Y-86751000D02*
X86301620Y-86751000D01*
X90170000Y-79610000D02*
X90170000Y-76708000D01*
X90372000Y-76506000D02*
X95210720Y-76506000D01*
X92090000Y-81530000D02*
X90170000Y-79610000D01*
X95636000Y-76080720D02*
X95636000Y-72129000D01*
X94165000Y-83485000D02*
X94575000Y-83075000D01*
X94030000Y-81530000D02*
X92090000Y-81530000D01*
X95636000Y-72129000D02*
X97850000Y-69915000D01*
X85010810Y-85473000D02*
X84552000Y-85014190D01*
X90170000Y-76708000D02*
X90372000Y-76506000D01*
X92912001Y-83485000D02*
X89646001Y-86751000D01*
X85023620Y-85473000D02*
X85010810Y-85473000D01*
X83076405Y-83741000D02*
X82143595Y-83741000D01*
X80776000Y-83699000D02*
X80675000Y-83800000D01*
%TO.N,/A14*%
X78751415Y-69800000D02*
X75250000Y-69800000D01*
X78901416Y-69649999D02*
X78751415Y-69800000D01*
X75250000Y-73425000D02*
X75250000Y-83658200D01*
X75250000Y-83658200D02*
X74415000Y-84493200D01*
%TO.N,/SCL*%
X73975000Y-71075000D02*
X70497500Y-67597500D01*
X88862747Y-76642747D02*
X83295000Y-71075000D01*
X65377501Y-67322500D02*
X70160000Y-67322500D01*
X62850001Y-69850000D02*
X65377501Y-67322500D01*
X70497500Y-67597500D02*
X70435000Y-67597500D01*
X70160000Y-67322500D02*
X70435000Y-67597500D01*
X88862747Y-77674155D02*
X88862747Y-76642747D01*
X83295000Y-71075000D02*
X73975000Y-71075000D01*
%TO.N,/K*%
X61976000Y-65786000D02*
X62636000Y-65126000D01*
X62850000Y-73600000D02*
X62000000Y-73600000D01*
X66851000Y-65126000D02*
X67700000Y-65975000D01*
X62000000Y-73600000D02*
X61976000Y-73576000D01*
X62636000Y-65126000D02*
X66851000Y-65126000D01*
X61976000Y-73576000D02*
X61976000Y-65786000D01*
%TO.N,/IC_ROMOE*%
X68598500Y-67773500D02*
X65564311Y-67773500D01*
X68922500Y-69110000D02*
X68922500Y-68097500D01*
X68150000Y-95125000D02*
X64875000Y-95125000D01*
X65564311Y-67773500D02*
X64800000Y-68537811D01*
X64875000Y-95125000D02*
X64850000Y-95100000D01*
X64800000Y-68537811D02*
X64800000Y-69500000D01*
X68922500Y-68097500D02*
X68598500Y-67773500D01*
X68175000Y-95100000D02*
X68150000Y-95125000D01*
%TO.N,Net-(D2-A)*%
X92062750Y-79675000D02*
X92062750Y-80550250D01*
X84865000Y-96550000D02*
X95485000Y-96550000D01*
X92062750Y-80550250D02*
X92562500Y-81050000D01*
X95485000Y-81635000D02*
X95485000Y-96550000D01*
X92562500Y-81050000D02*
X94900000Y-81050000D01*
X94900000Y-81050000D02*
X95485000Y-81635000D01*
%TO.N,Net-(SW1-B)*%
X61814002Y-75354000D02*
X60960000Y-74499998D01*
X64468720Y-73464000D02*
X62578720Y-75354000D01*
X72975000Y-75702500D02*
X70736500Y-73464000D01*
X62578720Y-75354000D02*
X61814002Y-75354000D01*
X70736500Y-73464000D02*
X64468720Y-73464000D01*
%TO.N,Net-(U3-OSCI)*%
X92135000Y-68174999D02*
X92135000Y-68246408D01*
X91600000Y-66875000D02*
X88675300Y-66875000D01*
X88675300Y-66875000D02*
X88625300Y-66825000D01*
X92135000Y-68174999D02*
X92135000Y-67410000D01*
X92135000Y-68246408D02*
X93942747Y-70054155D01*
X92135000Y-67410000D02*
X91600000Y-66875000D01*
%TO.N,+5V*%
X65795000Y-70380000D02*
X66575000Y-70380000D01*
X62850001Y-72350000D02*
X63825000Y-72350000D01*
X63825000Y-72350000D02*
X65795000Y-70380000D01*
X71870000Y-73450000D02*
X74122500Y-75702500D01*
X74122500Y-75702500D02*
X74245000Y-75702500D01*
X72101992Y-71301992D02*
X71870000Y-71533984D01*
X71870000Y-71533984D02*
X71870000Y-73450000D01*
%TO.N,/A15*%
X67141000Y-71650000D02*
X68922500Y-71650000D01*
X66909000Y-71882000D02*
X67141000Y-71650000D01*
%TO.N,+5V*%
X66575000Y-70380000D02*
X68922500Y-70380000D01*
%TD*%
%TA.AperFunction,Conductor*%
%TO.N,GND*%
G36*
X98314504Y-62809982D02*
G01*
X98474358Y-62823968D01*
X98495986Y-62827780D01*
X98645678Y-62867891D01*
X98666309Y-62875400D01*
X98806765Y-62940896D01*
X98825776Y-62951872D01*
X98905324Y-63007572D01*
X98952723Y-63040761D01*
X98969547Y-63054879D01*
X99079120Y-63164452D01*
X99093238Y-63181276D01*
X99182124Y-63308218D01*
X99193106Y-63327239D01*
X99258597Y-63467686D01*
X99266109Y-63488324D01*
X99306218Y-63638011D01*
X99310032Y-63659641D01*
X99324022Y-63819547D01*
X99324501Y-63830481D01*
X99331020Y-80791455D01*
X99311044Y-80859583D01*
X99257406Y-80906097D01*
X99187136Y-80916227D01*
X99122544Y-80886759D01*
X99115925Y-80880598D01*
X98810107Y-80574780D01*
X98776081Y-80512468D01*
X98781146Y-80441653D01*
X98782772Y-80437520D01*
X98812051Y-80366835D01*
X98850500Y-80173541D01*
X98850500Y-79976459D01*
X98812051Y-79783165D01*
X98736632Y-79601086D01*
X98627139Y-79437218D01*
X98487782Y-79297861D01*
X98323914Y-79188368D01*
X98248537Y-79157146D01*
X98141838Y-79112950D01*
X98141835Y-79112949D01*
X97948544Y-79074500D01*
X97948541Y-79074500D01*
X97751459Y-79074500D01*
X97751455Y-79074500D01*
X97558164Y-79112949D01*
X97558161Y-79112950D01*
X97376085Y-79188368D01*
X97212222Y-79297858D01*
X97212215Y-79297863D01*
X97072863Y-79437215D01*
X97072858Y-79437222D01*
X96963368Y-79601085D01*
X96887950Y-79783161D01*
X96887949Y-79783164D01*
X96849500Y-79976455D01*
X96849500Y-80173544D01*
X96887949Y-80366835D01*
X96887950Y-80366838D01*
X96940559Y-80493847D01*
X96963368Y-80548914D01*
X97072861Y-80712782D01*
X97212218Y-80852139D01*
X97376086Y-80961632D01*
X97558165Y-81037051D01*
X97751459Y-81075500D01*
X97948541Y-81075500D01*
X98141835Y-81037051D01*
X98212468Y-81007793D01*
X98283055Y-81000204D01*
X98346542Y-81031982D01*
X98349780Y-81035107D01*
X98613595Y-81298922D01*
X98647621Y-81361234D01*
X98650500Y-81388017D01*
X98650500Y-81710856D01*
X98630498Y-81778977D01*
X98576842Y-81825470D01*
X98506568Y-81835574D01*
X98454498Y-81815621D01*
X98323914Y-81728368D01*
X98141838Y-81652950D01*
X98141835Y-81652949D01*
X97948544Y-81614500D01*
X97948541Y-81614500D01*
X97751459Y-81614500D01*
X97751455Y-81614500D01*
X97558164Y-81652949D01*
X97558161Y-81652950D01*
X97376085Y-81728368D01*
X97212222Y-81837858D01*
X97212215Y-81837863D01*
X97072863Y-81977215D01*
X97072858Y-81977222D01*
X96963368Y-82141085D01*
X96887950Y-82323161D01*
X96887949Y-82323164D01*
X96849500Y-82516455D01*
X96849500Y-82713544D01*
X96887949Y-82906835D01*
X96887950Y-82906838D01*
X96946184Y-83047428D01*
X96963368Y-83088914D01*
X97072861Y-83252782D01*
X97212218Y-83392139D01*
X97376086Y-83501632D01*
X97558165Y-83577051D01*
X97751459Y-83615500D01*
X97948541Y-83615500D01*
X98141835Y-83577051D01*
X98323914Y-83501632D01*
X98454499Y-83414377D01*
X98522251Y-83393163D01*
X98590718Y-83411946D01*
X98638161Y-83464763D01*
X98650500Y-83519143D01*
X98650500Y-84250856D01*
X98630498Y-84318977D01*
X98576842Y-84365470D01*
X98506568Y-84375574D01*
X98454498Y-84355621D01*
X98323914Y-84268368D01*
X98141838Y-84192950D01*
X98141835Y-84192949D01*
X97948544Y-84154500D01*
X97948541Y-84154500D01*
X97751459Y-84154500D01*
X97751455Y-84154500D01*
X97558164Y-84192949D01*
X97558161Y-84192950D01*
X97376085Y-84268368D01*
X97212222Y-84377858D01*
X97212215Y-84377863D01*
X97072863Y-84517215D01*
X97072858Y-84517222D01*
X96963368Y-84681085D01*
X96887950Y-84863161D01*
X96887949Y-84863164D01*
X96849500Y-85056455D01*
X96849500Y-85253544D01*
X96866594Y-85339478D01*
X96887948Y-85446832D01*
X96887949Y-85446833D01*
X96887950Y-85446838D01*
X96935277Y-85561097D01*
X96963368Y-85628914D01*
X97072861Y-85792782D01*
X97212218Y-85932139D01*
X97376086Y-86041632D01*
X97558165Y-86117051D01*
X97751459Y-86155500D01*
X97948541Y-86155500D01*
X98141835Y-86117051D01*
X98323914Y-86041632D01*
X98454499Y-85954377D01*
X98522251Y-85933163D01*
X98590718Y-85951946D01*
X98638161Y-86004763D01*
X98650500Y-86059143D01*
X98650500Y-86790856D01*
X98630498Y-86858977D01*
X98576842Y-86905470D01*
X98506568Y-86915574D01*
X98454498Y-86895621D01*
X98323914Y-86808368D01*
X98141838Y-86732950D01*
X98141835Y-86732949D01*
X97948544Y-86694500D01*
X97948541Y-86694500D01*
X97751459Y-86694500D01*
X97751455Y-86694500D01*
X97558164Y-86732949D01*
X97558161Y-86732950D01*
X97376085Y-86808368D01*
X97212222Y-86917858D01*
X97212215Y-86917863D01*
X97072863Y-87057215D01*
X97072858Y-87057222D01*
X96963368Y-87221085D01*
X96887950Y-87403161D01*
X96887949Y-87403164D01*
X96849500Y-87596455D01*
X96849500Y-87793544D01*
X96887949Y-87986835D01*
X96887950Y-87986838D01*
X96928513Y-88084765D01*
X96963368Y-88168914D01*
X97072861Y-88332782D01*
X97212218Y-88472139D01*
X97376086Y-88581632D01*
X97558165Y-88657051D01*
X97751459Y-88695500D01*
X97948541Y-88695500D01*
X98141835Y-88657051D01*
X98323914Y-88581632D01*
X98454499Y-88494377D01*
X98522251Y-88473163D01*
X98590718Y-88491946D01*
X98638161Y-88544763D01*
X98650500Y-88599143D01*
X98650500Y-89330856D01*
X98630498Y-89398977D01*
X98576842Y-89445470D01*
X98506568Y-89455574D01*
X98454498Y-89435621D01*
X98323914Y-89348368D01*
X98141838Y-89272950D01*
X98141835Y-89272949D01*
X97948544Y-89234500D01*
X97948541Y-89234500D01*
X97751459Y-89234500D01*
X97751455Y-89234500D01*
X97558164Y-89272949D01*
X97558161Y-89272950D01*
X97376085Y-89348368D01*
X97212222Y-89457858D01*
X97212215Y-89457863D01*
X97072863Y-89597215D01*
X97072858Y-89597222D01*
X96963368Y-89761085D01*
X96887950Y-89943161D01*
X96887949Y-89943164D01*
X96849500Y-90136455D01*
X96849500Y-90333544D01*
X96878533Y-90479498D01*
X96887949Y-90526835D01*
X96963368Y-90708914D01*
X97072861Y-90872782D01*
X97212218Y-91012139D01*
X97376086Y-91121632D01*
X97558165Y-91197051D01*
X97751459Y-91235500D01*
X97948541Y-91235500D01*
X98141835Y-91197051D01*
X98323914Y-91121632D01*
X98454499Y-91034377D01*
X98522251Y-91013163D01*
X98590718Y-91031946D01*
X98638161Y-91084763D01*
X98650500Y-91139143D01*
X98650500Y-91870856D01*
X98630498Y-91938977D01*
X98576842Y-91985470D01*
X98506568Y-91995574D01*
X98454498Y-91975621D01*
X98323914Y-91888368D01*
X98141838Y-91812950D01*
X98141835Y-91812949D01*
X97948544Y-91774500D01*
X97948541Y-91774500D01*
X97751459Y-91774500D01*
X97751455Y-91774500D01*
X97558164Y-91812949D01*
X97558161Y-91812950D01*
X97376085Y-91888368D01*
X97212222Y-91997858D01*
X97212215Y-91997863D01*
X97072863Y-92137215D01*
X97072858Y-92137222D01*
X96963368Y-92301085D01*
X96887950Y-92483161D01*
X96887949Y-92483164D01*
X96849500Y-92676455D01*
X96849500Y-92873544D01*
X96887949Y-93066835D01*
X96887950Y-93066838D01*
X96936151Y-93183205D01*
X96963368Y-93248914D01*
X97072861Y-93412782D01*
X97212218Y-93552139D01*
X97376086Y-93661632D01*
X97558165Y-93737051D01*
X97751459Y-93775500D01*
X97948541Y-93775500D01*
X98141835Y-93737051D01*
X98323914Y-93661632D01*
X98454499Y-93574377D01*
X98522251Y-93553163D01*
X98590718Y-93571946D01*
X98638161Y-93624763D01*
X98650500Y-93679143D01*
X98650500Y-94410856D01*
X98630498Y-94478977D01*
X98576842Y-94525470D01*
X98506568Y-94535574D01*
X98454498Y-94515621D01*
X98323914Y-94428368D01*
X98141838Y-94352950D01*
X98141835Y-94352949D01*
X97948544Y-94314500D01*
X97948541Y-94314500D01*
X97751459Y-94314500D01*
X97751455Y-94314500D01*
X97558164Y-94352949D01*
X97558161Y-94352950D01*
X97376085Y-94428368D01*
X97212222Y-94537858D01*
X97212215Y-94537863D01*
X97072863Y-94677215D01*
X97072858Y-94677222D01*
X96963368Y-94841085D01*
X96887950Y-95023161D01*
X96887949Y-95023164D01*
X96849500Y-95216455D01*
X96849500Y-95413544D01*
X96887949Y-95606835D01*
X96887950Y-95606838D01*
X96926746Y-95700500D01*
X96963368Y-95788914D01*
X97072861Y-95952782D01*
X97212218Y-96092139D01*
X97376086Y-96201632D01*
X97558165Y-96277051D01*
X97751459Y-96315500D01*
X97948541Y-96315500D01*
X98141835Y-96277051D01*
X98323914Y-96201632D01*
X98454499Y-96114377D01*
X98522251Y-96093163D01*
X98590718Y-96111946D01*
X98638161Y-96164763D01*
X98650500Y-96219143D01*
X98650500Y-96950856D01*
X98630498Y-97018977D01*
X98576842Y-97065470D01*
X98506568Y-97075574D01*
X98454498Y-97055621D01*
X98323914Y-96968368D01*
X98141838Y-96892950D01*
X98141835Y-96892949D01*
X97948544Y-96854500D01*
X97948541Y-96854500D01*
X97751459Y-96854500D01*
X97751455Y-96854500D01*
X97558164Y-96892949D01*
X97558161Y-96892950D01*
X97376085Y-96968368D01*
X97212222Y-97077858D01*
X97212215Y-97077863D01*
X97072863Y-97217215D01*
X97072858Y-97217222D01*
X96963368Y-97381085D01*
X96887950Y-97563161D01*
X96887949Y-97563164D01*
X96849500Y-97756455D01*
X96849500Y-97953544D01*
X96874061Y-98077017D01*
X96887949Y-98146835D01*
X96963368Y-98328914D01*
X97072861Y-98492782D01*
X97212218Y-98632139D01*
X97376086Y-98741632D01*
X97558165Y-98817051D01*
X97751459Y-98855500D01*
X97948541Y-98855500D01*
X98141835Y-98817051D01*
X98323914Y-98741632D01*
X98454499Y-98654377D01*
X98522251Y-98633163D01*
X98590718Y-98651946D01*
X98638161Y-98704763D01*
X98650500Y-98759143D01*
X98650500Y-101986983D01*
X98630498Y-102055104D01*
X98613595Y-102076078D01*
X98177078Y-102512595D01*
X98114766Y-102546621D01*
X98087983Y-102549500D01*
X63237017Y-102549500D01*
X63168896Y-102529498D01*
X63147921Y-102512595D01*
X62637404Y-102002077D01*
X62603379Y-101939765D01*
X62600500Y-101912982D01*
X62600500Y-95045943D01*
X64249500Y-95045943D01*
X64249500Y-95204057D01*
X64283724Y-95331784D01*
X64290424Y-95356788D01*
X64369477Y-95493712D01*
X64369485Y-95493722D01*
X64481277Y-95605514D01*
X64481282Y-95605518D01*
X64481284Y-95605520D01*
X64481285Y-95605521D01*
X64481287Y-95605522D01*
X64618211Y-95684575D01*
X64618213Y-95684575D01*
X64618216Y-95684577D01*
X64770943Y-95725500D01*
X64770945Y-95725500D01*
X64929055Y-95725500D01*
X64929057Y-95725500D01*
X65081784Y-95684577D01*
X65081787Y-95684575D01*
X65081788Y-95684575D01*
X65185841Y-95624500D01*
X65218716Y-95605520D01*
X65275078Y-95549158D01*
X65336360Y-95487877D01*
X65338818Y-95490335D01*
X65383164Y-95457939D01*
X65425817Y-95450500D01*
X67624073Y-95450500D01*
X67692194Y-95470502D01*
X67713168Y-95487405D01*
X67806277Y-95580514D01*
X67806282Y-95580518D01*
X67806284Y-95580520D01*
X67806285Y-95580521D01*
X67806287Y-95580522D01*
X67943211Y-95659575D01*
X67943213Y-95659575D01*
X67943216Y-95659577D01*
X68095943Y-95700500D01*
X68095945Y-95700500D01*
X68254055Y-95700500D01*
X68254057Y-95700500D01*
X68406784Y-95659577D01*
X68406787Y-95659575D01*
X68406788Y-95659575D01*
X68498131Y-95606838D01*
X68543716Y-95580520D01*
X68655520Y-95468716D01*
X68701873Y-95388430D01*
X68734575Y-95331788D01*
X68734575Y-95331787D01*
X68734577Y-95331784D01*
X68775500Y-95179057D01*
X68775500Y-95020943D01*
X68734577Y-94868216D01*
X68734575Y-94868213D01*
X68734575Y-94868211D01*
X68655522Y-94731287D01*
X68655514Y-94731277D01*
X68543722Y-94619485D01*
X68543712Y-94619477D01*
X68406788Y-94540424D01*
X68388687Y-94535574D01*
X68254057Y-94499500D01*
X68095943Y-94499500D01*
X68002642Y-94524500D01*
X67943211Y-94540424D01*
X67806287Y-94619477D01*
X67806277Y-94619485D01*
X67694485Y-94731277D01*
X67694477Y-94731287D01*
X67691467Y-94736502D01*
X67640083Y-94785494D01*
X67582349Y-94799500D01*
X65425817Y-94799500D01*
X65357696Y-94779498D01*
X65337536Y-94760946D01*
X65336360Y-94762123D01*
X65218722Y-94644485D01*
X65218712Y-94644477D01*
X65081788Y-94565424D01*
X65063743Y-94560589D01*
X64929057Y-94524500D01*
X64770943Y-94524500D01*
X64711514Y-94540424D01*
X64618211Y-94565424D01*
X64481287Y-94644477D01*
X64481277Y-94644485D01*
X64369485Y-94756277D01*
X64369477Y-94756287D01*
X64290424Y-94893211D01*
X64290423Y-94893216D01*
X64249500Y-95045943D01*
X62600500Y-95045943D01*
X62600500Y-77662016D01*
X62620502Y-77593895D01*
X62637405Y-77572921D01*
X64364383Y-75845943D01*
X65624500Y-75845943D01*
X65624500Y-76004057D01*
X65647275Y-76089053D01*
X65665424Y-76156788D01*
X65744477Y-76293712D01*
X65744485Y-76293722D01*
X65856277Y-76405514D01*
X65856282Y-76405518D01*
X65856284Y-76405520D01*
X65856285Y-76405521D01*
X65856287Y-76405522D01*
X65993211Y-76484575D01*
X65993213Y-76484575D01*
X65993216Y-76484577D01*
X66145943Y-76525500D01*
X66145945Y-76525500D01*
X66304055Y-76525500D01*
X66304057Y-76525500D01*
X66456784Y-76484577D01*
X66456787Y-76484575D01*
X66456788Y-76484575D01*
X66550501Y-76430470D01*
X66593716Y-76405520D01*
X66705520Y-76293716D01*
X66784577Y-76156784D01*
X66788033Y-76143887D01*
X66824985Y-76083265D01*
X66888846Y-76052244D01*
X66909739Y-76050500D01*
X68299183Y-76050500D01*
X68367304Y-76070502D01*
X68387463Y-76089053D01*
X68388640Y-76087877D01*
X68506277Y-76205514D01*
X68506282Y-76205518D01*
X68506284Y-76205520D01*
X68506285Y-76205521D01*
X68506287Y-76205522D01*
X68643211Y-76284575D01*
X68643213Y-76284575D01*
X68643216Y-76284577D01*
X68795943Y-76325500D01*
X68795945Y-76325500D01*
X68954055Y-76325500D01*
X68954057Y-76325500D01*
X69106784Y-76284577D01*
X69106787Y-76284575D01*
X69106788Y-76284575D01*
X69219472Y-76219517D01*
X69243716Y-76205520D01*
X69355520Y-76093716D01*
X69431667Y-75961824D01*
X69434575Y-75956788D01*
X69434575Y-75956787D01*
X69434577Y-75956784D01*
X69475500Y-75804057D01*
X69475500Y-75645943D01*
X69434577Y-75493216D01*
X69434575Y-75493213D01*
X69434575Y-75493211D01*
X69355522Y-75356287D01*
X69355514Y-75356277D01*
X69243722Y-75244485D01*
X69243712Y-75244477D01*
X69106788Y-75165424D01*
X69047306Y-75149486D01*
X68954057Y-75124500D01*
X68795943Y-75124500D01*
X68727184Y-75142924D01*
X68643211Y-75165424D01*
X68506287Y-75244477D01*
X68506277Y-75244485D01*
X68388640Y-75362123D01*
X68386181Y-75359664D01*
X68341836Y-75392061D01*
X68299183Y-75399500D01*
X66549569Y-75399500D01*
X66486569Y-75382619D01*
X66456786Y-75365424D01*
X66456785Y-75365423D01*
X66456784Y-75365423D01*
X66304057Y-75324500D01*
X66145943Y-75324500D01*
X66057389Y-75348228D01*
X65993211Y-75365424D01*
X65856287Y-75444477D01*
X65856277Y-75444485D01*
X65744485Y-75556277D01*
X65744477Y-75556287D01*
X65665424Y-75693211D01*
X65663084Y-75701944D01*
X65624500Y-75845943D01*
X64364383Y-75845943D01*
X65657921Y-74552405D01*
X65720233Y-74518379D01*
X65747016Y-74515500D01*
X68346683Y-74515500D01*
X68414804Y-74535502D01*
X68434963Y-74554053D01*
X68436140Y-74552877D01*
X68553777Y-74670514D01*
X68553782Y-74670518D01*
X68553784Y-74670520D01*
X68553785Y-74670521D01*
X68553787Y-74670522D01*
X68690711Y-74749575D01*
X68690713Y-74749575D01*
X68690716Y-74749577D01*
X68843443Y-74790500D01*
X68843445Y-74790500D01*
X69001555Y-74790500D01*
X69001557Y-74790500D01*
X69154284Y-74749577D01*
X69154287Y-74749575D01*
X69154288Y-74749575D01*
X69274309Y-74680281D01*
X69291216Y-74670520D01*
X69403020Y-74558716D01*
X69447228Y-74482144D01*
X69482075Y-74421788D01*
X69482075Y-74421787D01*
X69482077Y-74421784D01*
X69523000Y-74269057D01*
X69523000Y-74110943D01*
X69482077Y-73958216D01*
X69482075Y-73958214D01*
X69479939Y-73950239D01*
X69482820Y-73949466D01*
X69476771Y-73893106D01*
X69508562Y-73829625D01*
X69569626Y-73793408D01*
X69600765Y-73789500D01*
X70549483Y-73789500D01*
X70617604Y-73809502D01*
X70638578Y-73826405D01*
X71699974Y-74887801D01*
X71734000Y-74950113D01*
X71728935Y-75020928D01*
X71686388Y-75077764D01*
X71633743Y-75099204D01*
X71633920Y-75099863D01*
X71628676Y-75101268D01*
X71627326Y-75101818D01*
X71625945Y-75101999D01*
X71473211Y-75142924D01*
X71336287Y-75221977D01*
X71336277Y-75221985D01*
X71224485Y-75333777D01*
X71224477Y-75333787D01*
X71145424Y-75470711D01*
X71139842Y-75491544D01*
X71104500Y-75623443D01*
X71104500Y-75781557D01*
X71125534Y-75860057D01*
X71145424Y-75934288D01*
X71224477Y-76071212D01*
X71224485Y-76071222D01*
X71336276Y-76183013D01*
X71336279Y-76183015D01*
X71336284Y-76183020D01*
X71336496Y-76183142D01*
X71336637Y-76183290D01*
X71342833Y-76188044D01*
X71342091Y-76189010D01*
X71385491Y-76234523D01*
X71399500Y-76292263D01*
X71399500Y-77299858D01*
X71379498Y-77367979D01*
X71325842Y-77414472D01*
X71255568Y-77424576D01*
X71190988Y-77395082D01*
X71152604Y-77335356D01*
X71151803Y-77332508D01*
X71134577Y-77268216D01*
X71134575Y-77268213D01*
X71134575Y-77268211D01*
X71055522Y-77131287D01*
X71055514Y-77131277D01*
X70943722Y-77019485D01*
X70943712Y-77019477D01*
X70806788Y-76940424D01*
X70788743Y-76935589D01*
X70654057Y-76899500D01*
X70495943Y-76899500D01*
X70402470Y-76924545D01*
X70343211Y-76940424D01*
X70206287Y-77019477D01*
X70206277Y-77019485D01*
X70088640Y-77137123D01*
X70086181Y-77134664D01*
X70041836Y-77167061D01*
X69999183Y-77174500D01*
X67721172Y-77174500D01*
X67658172Y-77157619D01*
X67541788Y-77090424D01*
X67523743Y-77085589D01*
X67389057Y-77049500D01*
X67230943Y-77049500D01*
X67137470Y-77074545D01*
X67078211Y-77090424D01*
X66941287Y-77169477D01*
X66941277Y-77169485D01*
X66829485Y-77281277D01*
X66829477Y-77281287D01*
X66750424Y-77418211D01*
X66733502Y-77481367D01*
X66709500Y-77570943D01*
X66709500Y-77729057D01*
X66750423Y-77881784D01*
X66750424Y-77881785D01*
X66752561Y-77889761D01*
X66749381Y-77890612D01*
X66755315Y-77945894D01*
X66723525Y-78009375D01*
X66662460Y-78045592D01*
X66631321Y-78049500D01*
X65792853Y-78049500D01*
X65707147Y-78049500D01*
X65624361Y-78071682D01*
X65624359Y-78071683D01*
X65624356Y-78071684D01*
X65550141Y-78114532D01*
X65550131Y-78114540D01*
X64664540Y-79000131D01*
X64664532Y-79000141D01*
X64621681Y-79074361D01*
X64621681Y-79074365D01*
X64607282Y-79128105D01*
X64599500Y-79157147D01*
X64599500Y-88107147D01*
X64599500Y-88192853D01*
X64621682Y-88275639D01*
X64621683Y-88275641D01*
X64621684Y-88275643D01*
X64664532Y-88349858D01*
X64664540Y-88349868D01*
X65310131Y-88995459D01*
X65310136Y-88995463D01*
X65310138Y-88995465D01*
X65310139Y-88995466D01*
X65310141Y-88995467D01*
X65327380Y-89005420D01*
X65384361Y-89038318D01*
X65467147Y-89060500D01*
X65552853Y-89060500D01*
X65787383Y-89060500D01*
X65855504Y-89080502D01*
X65875663Y-89099053D01*
X65876840Y-89097877D01*
X65994477Y-89215514D01*
X65994482Y-89215518D01*
X65994484Y-89215520D01*
X65994485Y-89215521D01*
X65994487Y-89215522D01*
X66073051Y-89260881D01*
X66122044Y-89312264D01*
X66135480Y-89381977D01*
X66109094Y-89447888D01*
X66073051Y-89479119D01*
X65994487Y-89524477D01*
X65994477Y-89524485D01*
X65882685Y-89636277D01*
X65882677Y-89636287D01*
X65803624Y-89773211D01*
X65780744Y-89858599D01*
X65762700Y-89925943D01*
X65762700Y-90084057D01*
X65794764Y-90203722D01*
X65803624Y-90236788D01*
X65882677Y-90373712D01*
X65882685Y-90373722D01*
X65994477Y-90485514D01*
X65994482Y-90485518D01*
X65994484Y-90485520D01*
X65994485Y-90485521D01*
X65994487Y-90485522D01*
X66073051Y-90530881D01*
X66122044Y-90582264D01*
X66135480Y-90651977D01*
X66109094Y-90717888D01*
X66073051Y-90749119D01*
X65994487Y-90794477D01*
X65994477Y-90794485D01*
X65882685Y-90906277D01*
X65882677Y-90906287D01*
X65803624Y-91043211D01*
X65782612Y-91121631D01*
X65762700Y-91195943D01*
X65762700Y-91354057D01*
X65785645Y-91439688D01*
X65803624Y-91506788D01*
X65882677Y-91643712D01*
X65882685Y-91643722D01*
X65994477Y-91755514D01*
X65994482Y-91755518D01*
X65994484Y-91755520D01*
X65994485Y-91755521D01*
X65994487Y-91755522D01*
X66073051Y-91800881D01*
X66122044Y-91852264D01*
X66135480Y-91921977D01*
X66109094Y-91987888D01*
X66073051Y-92019119D01*
X65994487Y-92064477D01*
X65994477Y-92064485D01*
X65882685Y-92176277D01*
X65882677Y-92176287D01*
X65803624Y-92313211D01*
X65798543Y-92332174D01*
X65762700Y-92465943D01*
X65762700Y-92624057D01*
X65774549Y-92668278D01*
X65803624Y-92776788D01*
X65882677Y-92913712D01*
X65882685Y-92913722D01*
X65994477Y-93025514D01*
X65994482Y-93025518D01*
X65994484Y-93025520D01*
X65994485Y-93025521D01*
X65994487Y-93025522D01*
X66131411Y-93104575D01*
X66131413Y-93104575D01*
X66131416Y-93104577D01*
X66284143Y-93145500D01*
X66284145Y-93145500D01*
X66442255Y-93145500D01*
X66442257Y-93145500D01*
X66594984Y-93104577D01*
X66594987Y-93104575D01*
X66594988Y-93104575D01*
X66676519Y-93057503D01*
X66731916Y-93025520D01*
X66843720Y-92913716D01*
X66906370Y-92805202D01*
X66922775Y-92776788D01*
X66922775Y-92776787D01*
X66922777Y-92776784D01*
X66963700Y-92624057D01*
X66963700Y-92465943D01*
X66963700Y-92457684D01*
X66967183Y-92457684D01*
X66975610Y-92403453D01*
X67000524Y-92368001D01*
X67280123Y-92088404D01*
X67342435Y-92054379D01*
X67369218Y-92051500D01*
X71808983Y-92051500D01*
X71877104Y-92071502D01*
X71923597Y-92125158D01*
X71933701Y-92195432D01*
X71904207Y-92260012D01*
X71898093Y-92266578D01*
X71155195Y-93009477D01*
X70949601Y-93215071D01*
X70887289Y-93249096D01*
X70827895Y-93247682D01*
X70770665Y-93232347D01*
X70704057Y-93214500D01*
X70545943Y-93214500D01*
X70452470Y-93239545D01*
X70393211Y-93255424D01*
X70256287Y-93334477D01*
X70256277Y-93334485D01*
X70144485Y-93446277D01*
X70144477Y-93446287D01*
X70065424Y-93583211D01*
X70050880Y-93637491D01*
X70024500Y-93735943D01*
X70024500Y-93894057D01*
X70040370Y-93953283D01*
X70065424Y-94046788D01*
X70144477Y-94183712D01*
X70144485Y-94183722D01*
X70256277Y-94295514D01*
X70256282Y-94295518D01*
X70256284Y-94295520D01*
X70256285Y-94295521D01*
X70256287Y-94295522D01*
X70393211Y-94374575D01*
X70393213Y-94374575D01*
X70393216Y-94374577D01*
X70545943Y-94415500D01*
X70545945Y-94415500D01*
X70704055Y-94415500D01*
X70704057Y-94415500D01*
X70856784Y-94374577D01*
X70856787Y-94374575D01*
X70856788Y-94374575D01*
X70960841Y-94314500D01*
X70993716Y-94295520D01*
X71105520Y-94183716D01*
X71184577Y-94046784D01*
X71225500Y-93894057D01*
X71225500Y-93894055D01*
X71227637Y-93886080D01*
X71229713Y-93886636D01*
X71253815Y-93832131D01*
X71260933Y-93824394D01*
X71958606Y-93126721D01*
X72020918Y-93092695D01*
X72091733Y-93097760D01*
X72148569Y-93140307D01*
X72169407Y-93183203D01*
X72188759Y-93255424D01*
X72206148Y-93320322D01*
X72285201Y-93457246D01*
X72285209Y-93457256D01*
X72397001Y-93569048D01*
X72397006Y-93569052D01*
X72397008Y-93569054D01*
X72397009Y-93569055D01*
X72397011Y-93569056D01*
X72533935Y-93648109D01*
X72533937Y-93648109D01*
X72533940Y-93648111D01*
X72686667Y-93689034D01*
X72844781Y-93689034D01*
X72997508Y-93648111D01*
X72997511Y-93648109D01*
X72997512Y-93648109D01*
X73125218Y-93574378D01*
X73134440Y-93569054D01*
X73246244Y-93457250D01*
X73282267Y-93394854D01*
X73333650Y-93345861D01*
X73403363Y-93332424D01*
X73454387Y-93348735D01*
X73495140Y-93372264D01*
X73495142Y-93372264D01*
X73495145Y-93372266D01*
X73647872Y-93413189D01*
X73647874Y-93413189D01*
X73805984Y-93413189D01*
X73805986Y-93413189D01*
X73958713Y-93372266D01*
X73958716Y-93372264D01*
X73958717Y-93372264D01*
X74078241Y-93303257D01*
X74095645Y-93293209D01*
X74207449Y-93181405D01*
X74246742Y-93113346D01*
X74298124Y-93064354D01*
X74355861Y-93050347D01*
X74614499Y-93050347D01*
X74638872Y-93057503D01*
X74664099Y-93060520D01*
X74672351Y-93067333D01*
X74682620Y-93070349D01*
X74699256Y-93089548D01*
X74718846Y-93105723D01*
X74722104Y-93115916D01*
X74729113Y-93124005D01*
X74732728Y-93149153D01*
X74740463Y-93173349D01*
X74738531Y-93189508D01*
X74739217Y-93194279D01*
X74736210Y-93208938D01*
X74699500Y-93345943D01*
X74699500Y-93504057D01*
X74720709Y-93583211D01*
X74740424Y-93656788D01*
X74795106Y-93751500D01*
X74811844Y-93820496D01*
X74788623Y-93887588D01*
X74732816Y-93931475D01*
X74685987Y-93940500D01*
X72001233Y-93940500D01*
X71915527Y-93940500D01*
X71832741Y-93962682D01*
X71832739Y-93962683D01*
X71832736Y-93962684D01*
X71758521Y-94005532D01*
X71758511Y-94005540D01*
X70477563Y-95286490D01*
X70415251Y-95320515D01*
X70388468Y-95323395D01*
X69877948Y-95323395D01*
X69792242Y-95323395D01*
X69709456Y-95345577D01*
X69709454Y-95345578D01*
X69709451Y-95345579D01*
X69635236Y-95388427D01*
X69635230Y-95388432D01*
X69482051Y-95541612D01*
X69061066Y-95962596D01*
X68998756Y-95996620D01*
X68971973Y-95999500D01*
X66909126Y-95999500D01*
X66841005Y-95979498D01*
X66820035Y-95962599D01*
X66731916Y-95874480D01*
X66731915Y-95874479D01*
X66731912Y-95874477D01*
X66594988Y-95795424D01*
X66570692Y-95788914D01*
X66442257Y-95754500D01*
X66284143Y-95754500D01*
X66190670Y-95779545D01*
X66131411Y-95795424D01*
X65994487Y-95874477D01*
X65994477Y-95874485D01*
X65882685Y-95986277D01*
X65882677Y-95986287D01*
X65803624Y-96123211D01*
X65784109Y-96196042D01*
X65762700Y-96275943D01*
X65762700Y-96434057D01*
X65768790Y-96456784D01*
X65803624Y-96586788D01*
X65882677Y-96723712D01*
X65882685Y-96723722D01*
X65994477Y-96835514D01*
X65994482Y-96835518D01*
X65994484Y-96835520D01*
X65994485Y-96835521D01*
X65994487Y-96835522D01*
X66131411Y-96914575D01*
X66131413Y-96914575D01*
X66131416Y-96914577D01*
X66284143Y-96955500D01*
X66284145Y-96955500D01*
X66442255Y-96955500D01*
X66442257Y-96955500D01*
X66594984Y-96914577D01*
X66594987Y-96914575D01*
X66594988Y-96914575D01*
X66691226Y-96859012D01*
X66731916Y-96835520D01*
X66843720Y-96723716D01*
X66849617Y-96713501D01*
X66900998Y-96664508D01*
X66958737Y-96650500D01*
X68706782Y-96650500D01*
X68774903Y-96670502D01*
X68821396Y-96724158D01*
X68831500Y-96794432D01*
X68802006Y-96859012D01*
X68795877Y-96865596D01*
X68241998Y-97419473D01*
X68179686Y-97453498D01*
X68152315Y-97454647D01*
X68152315Y-97456300D01*
X68144057Y-97456300D01*
X67985943Y-97456300D01*
X67907010Y-97477450D01*
X67833211Y-97497224D01*
X67696287Y-97576277D01*
X67696277Y-97576285D01*
X67584485Y-97688077D01*
X67584477Y-97688087D01*
X67505424Y-97825011D01*
X67485369Y-97899858D01*
X67464500Y-97977743D01*
X67464500Y-98135857D01*
X67489120Y-98227741D01*
X67505424Y-98288588D01*
X67584477Y-98425512D01*
X67584485Y-98425522D01*
X67696277Y-98537314D01*
X67696282Y-98537318D01*
X67696284Y-98537320D01*
X67696285Y-98537321D01*
X67696287Y-98537322D01*
X67833211Y-98616375D01*
X67833213Y-98616375D01*
X67833216Y-98616377D01*
X67985943Y-98657300D01*
X67985945Y-98657300D01*
X68144055Y-98657300D01*
X68144057Y-98657300D01*
X68296784Y-98616377D01*
X68296787Y-98616375D01*
X68296788Y-98616375D01*
X68365250Y-98576848D01*
X68433716Y-98537320D01*
X68545520Y-98425516D01*
X68590881Y-98346948D01*
X68642263Y-98297955D01*
X68711977Y-98284518D01*
X68777888Y-98310905D01*
X68809119Y-98346948D01*
X68854477Y-98425512D01*
X68854485Y-98425522D01*
X68966277Y-98537314D01*
X68966282Y-98537318D01*
X68966284Y-98537320D01*
X68966285Y-98537321D01*
X68966287Y-98537322D01*
X69103211Y-98616375D01*
X69103213Y-98616375D01*
X69103216Y-98616377D01*
X69255943Y-98657300D01*
X69255945Y-98657300D01*
X69414055Y-98657300D01*
X69414057Y-98657300D01*
X69566784Y-98616377D01*
X69566787Y-98616375D01*
X69566788Y-98616375D01*
X69635250Y-98576848D01*
X69703716Y-98537320D01*
X69815520Y-98425516D01*
X69881690Y-98310905D01*
X69894575Y-98288588D01*
X69894575Y-98288587D01*
X69894577Y-98288584D01*
X69935500Y-98135857D01*
X69935500Y-98077017D01*
X69955502Y-98008896D01*
X69972405Y-97987922D01*
X72429922Y-95530405D01*
X72492234Y-95496379D01*
X72519017Y-95493500D01*
X74920756Y-95493500D01*
X74988877Y-95513502D01*
X75035370Y-95567158D01*
X75045474Y-95637432D01*
X75015980Y-95702012D01*
X74983756Y-95728619D01*
X74956287Y-95744477D01*
X74956277Y-95744485D01*
X74844485Y-95856277D01*
X74844477Y-95856287D01*
X74765424Y-95993211D01*
X74749998Y-96050784D01*
X74724500Y-96145943D01*
X74724500Y-96304057D01*
X74759333Y-96434055D01*
X74765424Y-96456788D01*
X74844477Y-96593712D01*
X74844485Y-96593722D01*
X74962123Y-96711360D01*
X74959664Y-96713818D01*
X74992061Y-96758164D01*
X74999500Y-96800817D01*
X74999500Y-97657147D01*
X74999500Y-97742853D01*
X75021682Y-97825639D01*
X75021683Y-97825641D01*
X75021684Y-97825643D01*
X75064532Y-97899858D01*
X75064534Y-97899860D01*
X75064535Y-97899862D01*
X76889533Y-99724859D01*
X76889535Y-99724862D01*
X76950138Y-99785465D01*
X76987250Y-99806891D01*
X77024361Y-99828318D01*
X77024363Y-99828318D01*
X77024364Y-99828319D01*
X77107143Y-99850500D01*
X77107147Y-99850501D01*
X77200571Y-99850501D01*
X77200587Y-99850500D01*
X85392851Y-99850500D01*
X85392853Y-99850500D01*
X85475639Y-99828318D01*
X85549862Y-99785465D01*
X86648001Y-98687324D01*
X86710310Y-98653302D01*
X86737684Y-98652165D01*
X86737684Y-98650500D01*
X86904055Y-98650500D01*
X86904057Y-98650500D01*
X87056784Y-98609577D01*
X87056787Y-98609575D01*
X87056788Y-98609575D01*
X87125250Y-98570048D01*
X87193716Y-98530520D01*
X87305520Y-98418716D01*
X87367764Y-98310905D01*
X87384575Y-98281788D01*
X87384575Y-98281787D01*
X87384577Y-98281784D01*
X87425500Y-98129057D01*
X87425500Y-97970943D01*
X87384577Y-97818216D01*
X87384575Y-97818213D01*
X87384575Y-97818211D01*
X87305522Y-97681287D01*
X87305514Y-97681277D01*
X87193722Y-97569485D01*
X87193712Y-97569477D01*
X87056788Y-97490424D01*
X87008368Y-97477450D01*
X86904057Y-97449500D01*
X86745943Y-97449500D01*
X86652470Y-97474545D01*
X86593211Y-97490424D01*
X86456287Y-97569477D01*
X86456277Y-97569485D01*
X86344485Y-97681277D01*
X86344477Y-97681287D01*
X86265424Y-97818211D01*
X86224500Y-97970944D01*
X86224500Y-98137315D01*
X86221044Y-98137315D01*
X86212511Y-98191710D01*
X86187672Y-98226999D01*
X85252076Y-99162596D01*
X85189766Y-99196620D01*
X85162983Y-99199500D01*
X83089384Y-99199500D01*
X83021263Y-99179498D01*
X82974770Y-99125842D01*
X82964666Y-99055568D01*
X82994160Y-98990988D01*
X83050447Y-98953667D01*
X83063345Y-98949475D01*
X83063348Y-98949474D01*
X83228980Y-98865080D01*
X83228982Y-98865079D01*
X83299462Y-98813871D01*
X83299463Y-98813870D01*
X82724124Y-98238531D01*
X82764394Y-98227741D01*
X82855606Y-98175080D01*
X82930080Y-98100606D01*
X82982741Y-98009394D01*
X82993531Y-97969124D01*
X83568870Y-98544463D01*
X83568871Y-98544462D01*
X83620079Y-98473982D01*
X83620080Y-98473980D01*
X83704474Y-98308348D01*
X83704477Y-98308342D01*
X83761918Y-98131557D01*
X83791000Y-97947943D01*
X83791000Y-97762056D01*
X83767566Y-97614102D01*
X83776666Y-97543691D01*
X83822387Y-97489377D01*
X83890215Y-97468404D01*
X83958615Y-97487431D01*
X83981110Y-97505296D01*
X84017779Y-97541965D01*
X84110588Y-97609394D01*
X84183390Y-97662287D01*
X84365781Y-97755220D01*
X84560466Y-97818477D01*
X84762648Y-97850500D01*
X84762651Y-97850500D01*
X84967349Y-97850500D01*
X84967352Y-97850500D01*
X85169534Y-97818477D01*
X85364219Y-97755220D01*
X85546610Y-97662287D01*
X85712219Y-97541966D01*
X85856966Y-97397219D01*
X85977287Y-97231610D01*
X86070220Y-97049219D01*
X86098376Y-96962563D01*
X86138449Y-96903958D01*
X86203846Y-96876321D01*
X86218209Y-96875500D01*
X94131791Y-96875500D01*
X94199912Y-96895502D01*
X94246405Y-96949158D01*
X94251624Y-96962564D01*
X94279778Y-97049215D01*
X94372713Y-97231610D01*
X94493034Y-97397220D01*
X94637779Y-97541965D01*
X94730588Y-97609394D01*
X94803390Y-97662287D01*
X94985781Y-97755220D01*
X95180466Y-97818477D01*
X95382648Y-97850500D01*
X95382651Y-97850500D01*
X95587349Y-97850500D01*
X95587352Y-97850500D01*
X95789534Y-97818477D01*
X95984219Y-97755220D01*
X96166610Y-97662287D01*
X96332219Y-97541966D01*
X96476966Y-97397219D01*
X96597287Y-97231610D01*
X96690220Y-97049219D01*
X96753477Y-96854534D01*
X96785500Y-96652352D01*
X96785500Y-96447648D01*
X96753477Y-96245466D01*
X96690220Y-96050781D01*
X96597287Y-95868390D01*
X96588492Y-95856284D01*
X96476965Y-95702779D01*
X96332220Y-95558034D01*
X96166612Y-95437714D01*
X95986503Y-95345944D01*
X95984219Y-95344780D01*
X95984218Y-95344779D01*
X95984217Y-95344779D01*
X95897563Y-95316623D01*
X95838957Y-95276549D01*
X95811321Y-95211152D01*
X95810500Y-95196790D01*
X95810500Y-81592149D01*
X95810499Y-81592144D01*
X95792767Y-81525963D01*
X95788318Y-81509362D01*
X95788318Y-81509361D01*
X95746955Y-81437718D01*
X95745467Y-81435141D01*
X95745459Y-81435131D01*
X95099868Y-80789540D01*
X95099858Y-80789532D01*
X95025643Y-80746684D01*
X95025641Y-80746683D01*
X95025639Y-80746682D01*
X94942853Y-80724500D01*
X94942851Y-80724500D01*
X92749517Y-80724500D01*
X92681396Y-80704498D01*
X92660422Y-80687595D01*
X92425155Y-80452328D01*
X92410210Y-80424959D01*
X92393354Y-80398731D01*
X92392448Y-80392432D01*
X92391129Y-80390016D01*
X92388250Y-80363233D01*
X92388250Y-80250817D01*
X92408252Y-80182696D01*
X92426803Y-80162536D01*
X92425627Y-80161360D01*
X92543264Y-80043722D01*
X92543270Y-80043716D01*
X92607891Y-79931788D01*
X92622325Y-79906788D01*
X92622325Y-79906787D01*
X92622327Y-79906784D01*
X92663250Y-79754057D01*
X92663250Y-79595943D01*
X92622327Y-79443216D01*
X92622325Y-79443213D01*
X92622325Y-79443211D01*
X92543272Y-79306287D01*
X92543264Y-79306277D01*
X92431472Y-79194485D01*
X92431462Y-79194477D01*
X92294538Y-79115424D01*
X92276493Y-79110589D01*
X92141807Y-79074500D01*
X91983693Y-79074500D01*
X91890220Y-79099545D01*
X91830961Y-79115424D01*
X91694037Y-79194477D01*
X91694027Y-79194485D01*
X91582235Y-79306277D01*
X91582227Y-79306287D01*
X91503174Y-79443211D01*
X91482965Y-79518633D01*
X91462250Y-79595943D01*
X91462250Y-79754057D01*
X91490141Y-79858147D01*
X91503174Y-79906788D01*
X91582227Y-80043712D01*
X91582235Y-80043722D01*
X91699873Y-80161360D01*
X91697414Y-80163818D01*
X91729811Y-80208164D01*
X91737250Y-80250817D01*
X91737250Y-80412733D01*
X91717248Y-80480854D01*
X91663592Y-80527347D01*
X91593318Y-80537451D01*
X91528738Y-80507957D01*
X91522155Y-80501828D01*
X90532405Y-79512078D01*
X90498379Y-79449766D01*
X90495500Y-79422983D01*
X90495500Y-78486019D01*
X90515502Y-78417898D01*
X90569158Y-78371405D01*
X90639432Y-78361301D01*
X90704012Y-78390795D01*
X90710595Y-78396924D01*
X90764965Y-78451294D01*
X90928833Y-78560787D01*
X91110912Y-78636206D01*
X91304206Y-78674655D01*
X91501288Y-78674655D01*
X91694582Y-78636206D01*
X91876661Y-78560787D01*
X92040529Y-78451294D01*
X92179886Y-78311937D01*
X92289379Y-78148069D01*
X92364798Y-77965990D01*
X92403247Y-77772696D01*
X92403247Y-77575614D01*
X92364798Y-77382320D01*
X92289379Y-77200241D01*
X92179886Y-77036373D01*
X92176447Y-77031226D01*
X92177752Y-77030353D01*
X92153004Y-76972102D01*
X92164977Y-76902122D01*
X92212883Y-76849725D01*
X92278155Y-76831500D01*
X93067339Y-76831500D01*
X93135460Y-76851502D01*
X93181953Y-76905158D01*
X93192057Y-76975432D01*
X93167828Y-77030411D01*
X93169047Y-77031226D01*
X93056115Y-77200240D01*
X92980697Y-77382316D01*
X92980696Y-77382319D01*
X92942247Y-77575610D01*
X92942247Y-77772699D01*
X92980696Y-77965990D01*
X92980697Y-77965993D01*
X93035500Y-78098299D01*
X93056115Y-78148069D01*
X93165608Y-78311937D01*
X93304965Y-78451294D01*
X93468833Y-78560787D01*
X93650912Y-78636206D01*
X93844206Y-78674655D01*
X94041288Y-78674655D01*
X94234582Y-78636206D01*
X94416661Y-78560787D01*
X94580529Y-78451294D01*
X94719886Y-78311937D01*
X94829379Y-78148069D01*
X94904798Y-77965990D01*
X94943247Y-77772696D01*
X94943247Y-77575614D01*
X94904798Y-77382320D01*
X94829379Y-77200241D01*
X94719886Y-77036373D01*
X94716447Y-77031226D01*
X94717752Y-77030353D01*
X94693004Y-76972102D01*
X94704977Y-76902122D01*
X94752883Y-76849725D01*
X94818155Y-76831500D01*
X95253571Y-76831500D01*
X95253573Y-76831500D01*
X95336359Y-76809318D01*
X95410582Y-76766465D01*
X95684405Y-76492640D01*
X95746716Y-76458616D01*
X95817532Y-76463680D01*
X95874368Y-76506227D01*
X95899179Y-76572747D01*
X95899500Y-76581736D01*
X95899500Y-77196942D01*
X95879498Y-77265063D01*
X95825842Y-77311556D01*
X95773500Y-77322942D01*
X95719385Y-77322942D01*
X95625912Y-77347987D01*
X95566653Y-77363866D01*
X95429729Y-77442919D01*
X95429719Y-77442927D01*
X95317927Y-77554719D01*
X95317919Y-77554729D01*
X95238866Y-77691653D01*
X95228844Y-77729057D01*
X95197942Y-77844385D01*
X95197942Y-78002499D01*
X95227961Y-78114532D01*
X95238866Y-78155230D01*
X95317919Y-78292154D01*
X95317927Y-78292164D01*
X95429719Y-78403956D01*
X95429724Y-78403960D01*
X95429726Y-78403962D01*
X95429727Y-78403963D01*
X95429729Y-78403964D01*
X95566653Y-78483017D01*
X95566655Y-78483017D01*
X95566658Y-78483019D01*
X95719385Y-78523942D01*
X95719387Y-78523942D01*
X95877497Y-78523942D01*
X95877499Y-78523942D01*
X96030226Y-78483019D01*
X96030229Y-78483017D01*
X96030230Y-78483017D01*
X96161757Y-78407080D01*
X96167158Y-78403962D01*
X96278962Y-78292158D01*
X96339486Y-78187327D01*
X96358017Y-78155230D01*
X96358017Y-78155229D01*
X96358019Y-78155226D01*
X96398942Y-78002499D01*
X96398942Y-77844385D01*
X96398942Y-77836126D01*
X96402430Y-77836126D01*
X96410840Y-77781921D01*
X96435767Y-77746442D01*
X96485465Y-77696746D01*
X96528318Y-77622523D01*
X96550500Y-77539737D01*
X96550500Y-77454031D01*
X96550500Y-77436455D01*
X96849500Y-77436455D01*
X96849500Y-77633544D01*
X96887949Y-77826835D01*
X96887950Y-77826838D01*
X96937264Y-77945894D01*
X96963368Y-78008914D01*
X97072861Y-78172782D01*
X97212218Y-78312139D01*
X97376086Y-78421632D01*
X97558165Y-78497051D01*
X97751459Y-78535500D01*
X97948541Y-78535500D01*
X98141835Y-78497051D01*
X98323914Y-78421632D01*
X98487782Y-78312139D01*
X98627139Y-78172782D01*
X98736632Y-78008914D01*
X98812051Y-77826835D01*
X98850500Y-77633541D01*
X98850500Y-77436459D01*
X98812051Y-77243165D01*
X98736632Y-77061086D01*
X98627139Y-76897218D01*
X98487782Y-76757861D01*
X98323914Y-76648368D01*
X98206889Y-76599895D01*
X98141838Y-76572950D01*
X98141835Y-76572949D01*
X97948544Y-76534500D01*
X97948541Y-76534500D01*
X97751459Y-76534500D01*
X97751455Y-76534500D01*
X97558164Y-76572949D01*
X97558161Y-76572950D01*
X97376085Y-76648368D01*
X97212222Y-76757858D01*
X97212215Y-76757863D01*
X97072863Y-76897215D01*
X97072858Y-76897222D01*
X96963368Y-77061085D01*
X96887950Y-77243161D01*
X96887949Y-77243164D01*
X96849500Y-77436455D01*
X96550500Y-77436455D01*
X96550500Y-74896455D01*
X96849500Y-74896455D01*
X96849500Y-75093544D01*
X96887949Y-75286835D01*
X96887950Y-75286838D01*
X96940850Y-75414551D01*
X96963368Y-75468914D01*
X97072861Y-75632782D01*
X97212218Y-75772139D01*
X97376086Y-75881632D01*
X97558165Y-75957051D01*
X97751459Y-75995500D01*
X97948541Y-75995500D01*
X98141835Y-75957051D01*
X98323914Y-75881632D01*
X98487782Y-75772139D01*
X98627139Y-75632782D01*
X98736632Y-75468914D01*
X98812051Y-75286835D01*
X98850500Y-75093541D01*
X98850500Y-74896459D01*
X98812051Y-74703165D01*
X98736632Y-74521086D01*
X98627139Y-74357218D01*
X98487782Y-74217861D01*
X98323914Y-74108368D01*
X98306128Y-74101001D01*
X98141838Y-74032950D01*
X98141835Y-74032949D01*
X97948544Y-73994500D01*
X97948541Y-73994500D01*
X97751459Y-73994500D01*
X97751455Y-73994500D01*
X97558164Y-74032949D01*
X97558161Y-74032950D01*
X97376085Y-74108368D01*
X97212222Y-74217858D01*
X97212215Y-74217863D01*
X97072863Y-74357215D01*
X97072858Y-74357222D01*
X96963368Y-74521085D01*
X96887950Y-74703161D01*
X96887949Y-74703164D01*
X96849500Y-74896455D01*
X96550500Y-74896455D01*
X96550500Y-74267017D01*
X96570502Y-74198896D01*
X96587400Y-74177926D01*
X97350219Y-73415106D01*
X97412530Y-73381083D01*
X97483345Y-73386147D01*
X97487531Y-73387794D01*
X97521613Y-73401911D01*
X97558165Y-73417051D01*
X97751459Y-73455500D01*
X97948541Y-73455500D01*
X98141835Y-73417051D01*
X98323914Y-73341632D01*
X98487782Y-73232139D01*
X98627139Y-73092782D01*
X98736632Y-72928914D01*
X98812051Y-72746835D01*
X98850500Y-72553541D01*
X98850500Y-72356459D01*
X98812051Y-72163165D01*
X98736632Y-71981086D01*
X98627139Y-71817218D01*
X98487782Y-71677861D01*
X98323914Y-71568368D01*
X98266127Y-71544432D01*
X98141838Y-71492950D01*
X98141835Y-71492949D01*
X97948544Y-71454500D01*
X97948541Y-71454500D01*
X97751459Y-71454500D01*
X97751455Y-71454500D01*
X97558164Y-71492949D01*
X97558161Y-71492950D01*
X97376085Y-71568368D01*
X97212222Y-71677858D01*
X97212215Y-71677863D01*
X97072863Y-71817215D01*
X97072858Y-71817222D01*
X96963368Y-71981085D01*
X96887950Y-72163161D01*
X96887949Y-72163164D01*
X96849500Y-72356455D01*
X96849500Y-72553544D01*
X96887949Y-72746835D01*
X96887952Y-72746844D01*
X96917205Y-72817468D01*
X96924794Y-72888058D01*
X96893014Y-72951544D01*
X96889892Y-72954780D01*
X96458526Y-73386147D01*
X96176596Y-73668077D01*
X96114283Y-73702102D01*
X96043468Y-73697038D01*
X95986632Y-73654491D01*
X95961821Y-73587971D01*
X95961500Y-73578982D01*
X95961500Y-72316016D01*
X95981502Y-72247895D01*
X95998405Y-72226921D01*
X96663817Y-71561509D01*
X97350220Y-70875105D01*
X97412530Y-70841082D01*
X97483345Y-70846146D01*
X97487479Y-70847772D01*
X97558165Y-70877051D01*
X97751459Y-70915500D01*
X97948541Y-70915500D01*
X98141835Y-70877051D01*
X98323914Y-70801632D01*
X98487782Y-70692139D01*
X98627139Y-70552782D01*
X98736632Y-70388914D01*
X98812051Y-70206835D01*
X98850500Y-70013541D01*
X98850500Y-69816459D01*
X98812051Y-69623165D01*
X98736632Y-69441086D01*
X98627139Y-69277218D01*
X98487782Y-69137861D01*
X98323914Y-69028368D01*
X98302456Y-69019480D01*
X98141838Y-68952950D01*
X98141835Y-68952949D01*
X97948544Y-68914500D01*
X97948541Y-68914500D01*
X97751459Y-68914500D01*
X97751455Y-68914500D01*
X97558164Y-68952949D01*
X97558161Y-68952950D01*
X97376085Y-69028368D01*
X97212222Y-69137858D01*
X97212215Y-69137863D01*
X97072863Y-69277215D01*
X97072858Y-69277222D01*
X96963368Y-69441085D01*
X96887950Y-69623161D01*
X96887949Y-69623164D01*
X96849500Y-69816455D01*
X96849500Y-70013544D01*
X96887949Y-70206835D01*
X96887952Y-70206844D01*
X96917205Y-70277468D01*
X96924794Y-70348058D01*
X96893014Y-70411544D01*
X96889891Y-70414780D01*
X95375540Y-71929131D01*
X95375532Y-71929141D01*
X95332684Y-72003356D01*
X95332682Y-72003361D01*
X95314880Y-72069799D01*
X95313249Y-72075886D01*
X95310500Y-72086146D01*
X95310500Y-75893703D01*
X95301716Y-75923618D01*
X95295088Y-75954088D01*
X95291273Y-75959183D01*
X95290498Y-75961824D01*
X95273595Y-75982798D01*
X95112798Y-76143595D01*
X95050486Y-76177621D01*
X95023703Y-76180500D01*
X94405021Y-76180500D01*
X94336900Y-76160498D01*
X94290407Y-76106842D01*
X94280303Y-76036568D01*
X94309797Y-75971988D01*
X94347818Y-75942233D01*
X94363411Y-75934288D01*
X94453220Y-75888528D01*
X94548528Y-75793220D01*
X94609719Y-75673126D01*
X94625500Y-75573488D01*
X94625500Y-75056512D01*
X94609719Y-74956874D01*
X94548528Y-74836780D01*
X94453220Y-74741472D01*
X94446208Y-74734460D01*
X94448681Y-74731986D01*
X94416179Y-74689823D01*
X94410115Y-74619085D01*
X94443257Y-74556299D01*
X94485386Y-74527718D01*
X94505613Y-74519340D01*
X94505621Y-74519335D01*
X94632204Y-74422204D01*
X94729335Y-74295621D01*
X94729340Y-74295613D01*
X94790402Y-74148196D01*
X94805999Y-74029721D01*
X94806000Y-74029712D01*
X94806000Y-73955500D01*
X93094001Y-73955500D01*
X93094001Y-74029726D01*
X93109598Y-74148196D01*
X93109598Y-74148197D01*
X93170659Y-74295613D01*
X93170664Y-74295621D01*
X93267795Y-74422204D01*
X93394378Y-74519335D01*
X93394388Y-74519341D01*
X93414615Y-74527719D01*
X93469896Y-74572266D01*
X93492318Y-74639629D01*
X93474761Y-74708421D01*
X93452353Y-74733021D01*
X93453792Y-74734460D01*
X93351473Y-74836778D01*
X93351471Y-74836780D01*
X93305494Y-74927016D01*
X93290281Y-74956874D01*
X93274500Y-75056512D01*
X93274500Y-75573488D01*
X93290281Y-75673126D01*
X93304964Y-75701943D01*
X93349692Y-75789728D01*
X93351472Y-75793220D01*
X93446780Y-75888528D01*
X93523842Y-75927793D01*
X93552182Y-75942233D01*
X93603797Y-75990982D01*
X93620863Y-76059896D01*
X93597962Y-76127098D01*
X93542364Y-76171250D01*
X93494979Y-76180500D01*
X91356679Y-76180500D01*
X91288558Y-76160498D01*
X91242065Y-76106842D01*
X91231961Y-76036568D01*
X91236237Y-76020974D01*
X91235439Y-76020761D01*
X91237575Y-76012785D01*
X91237577Y-76012784D01*
X91278500Y-75860057D01*
X91278500Y-75701943D01*
X91237577Y-75549216D01*
X91237575Y-75549213D01*
X91237575Y-75549211D01*
X91158522Y-75412287D01*
X91158514Y-75412277D01*
X91040877Y-75294640D01*
X91043317Y-75292199D01*
X91010882Y-75247677D01*
X91003500Y-75205182D01*
X91003500Y-74734016D01*
X91023502Y-74665895D01*
X91040400Y-74644925D01*
X91248581Y-74436743D01*
X91310891Y-74402720D01*
X91342684Y-74401396D01*
X91342684Y-74400500D01*
X91509055Y-74400500D01*
X91509057Y-74400500D01*
X91661784Y-74359577D01*
X91661787Y-74359575D01*
X91661788Y-74359575D01*
X91772574Y-74295613D01*
X91798716Y-74280520D01*
X91910520Y-74168716D01*
X91963768Y-74076487D01*
X91989575Y-74031788D01*
X91989575Y-74031787D01*
X91989577Y-74031784D01*
X92030500Y-73879057D01*
X92030500Y-73720943D01*
X91989577Y-73568216D01*
X91989575Y-73568213D01*
X91989575Y-73568211D01*
X91984347Y-73559156D01*
X91950354Y-73500278D01*
X93094000Y-73500278D01*
X93094000Y-73574500D01*
X93759500Y-73574500D01*
X94140500Y-73574500D01*
X94805999Y-73574500D01*
X94805999Y-73500282D01*
X94805998Y-73500273D01*
X94790401Y-73381803D01*
X94790401Y-73381802D01*
X94729340Y-73234386D01*
X94729335Y-73234378D01*
X94632204Y-73107795D01*
X94505621Y-73010664D01*
X94505613Y-73010659D01*
X94358196Y-72949597D01*
X94239721Y-72934000D01*
X94140500Y-72934000D01*
X94140500Y-73574500D01*
X93759500Y-73574500D01*
X93759500Y-72933999D01*
X93660291Y-72934000D01*
X93660277Y-72934001D01*
X93541803Y-72949597D01*
X93541802Y-72949598D01*
X93394386Y-73010659D01*
X93394378Y-73010664D01*
X93267795Y-73107795D01*
X93170664Y-73234378D01*
X93170659Y-73234386D01*
X93109597Y-73381803D01*
X93094000Y-73500278D01*
X91950354Y-73500278D01*
X91910522Y-73431287D01*
X91910514Y-73431277D01*
X91798722Y-73319485D01*
X91798712Y-73319477D01*
X91661788Y-73240424D01*
X91630875Y-73232141D01*
X91509057Y-73199500D01*
X91350943Y-73199500D01*
X91257470Y-73224545D01*
X91198211Y-73240424D01*
X91061287Y-73319477D01*
X91061277Y-73319485D01*
X90949485Y-73431277D01*
X90949477Y-73431287D01*
X90870424Y-73568211D01*
X90864720Y-73589500D01*
X90832572Y-73709480D01*
X90829500Y-73720944D01*
X90829500Y-73882981D01*
X90809498Y-73951102D01*
X90792596Y-73972076D01*
X90417537Y-74347135D01*
X90417532Y-74347141D01*
X90374682Y-74421360D01*
X90374679Y-74421366D01*
X90356366Y-74489719D01*
X90356365Y-74489724D01*
X90352500Y-74504147D01*
X90352500Y-75205182D01*
X90332498Y-75273303D01*
X90313958Y-75293475D01*
X90315123Y-75294640D01*
X90197485Y-75412277D01*
X90197477Y-75412287D01*
X90118424Y-75549211D01*
X90118423Y-75549216D01*
X90077500Y-75701943D01*
X90077500Y-75860057D01*
X90104061Y-75959183D01*
X90118424Y-76012788D01*
X90174934Y-76110666D01*
X90191672Y-76179662D01*
X90168451Y-76246753D01*
X90154911Y-76262761D01*
X89909537Y-76508135D01*
X89909532Y-76508141D01*
X89866681Y-76582361D01*
X89866681Y-76582365D01*
X89844500Y-76665146D01*
X89844500Y-76936797D01*
X89824498Y-77004918D01*
X89770842Y-77051411D01*
X89700568Y-77061515D01*
X89635988Y-77032021D01*
X89629405Y-77025892D01*
X89500531Y-76897018D01*
X89500529Y-76897016D01*
X89336661Y-76787523D01*
X89266027Y-76758265D01*
X89210748Y-76713717D01*
X89188327Y-76646354D01*
X89188247Y-76641857D01*
X89188247Y-76599895D01*
X89183549Y-76582361D01*
X89166065Y-76517109D01*
X89166063Y-76517106D01*
X89166063Y-76517104D01*
X89123214Y-76442888D01*
X89123210Y-76442883D01*
X89094145Y-76413818D01*
X89062609Y-76382282D01*
X86322062Y-73641735D01*
X86288036Y-73579423D01*
X86293101Y-73508608D01*
X86335648Y-73451772D01*
X86349699Y-73443772D01*
X86349285Y-73443054D01*
X86478908Y-73368216D01*
X86493369Y-73359867D01*
X86605173Y-73248063D01*
X86653643Y-73164109D01*
X86684228Y-73111135D01*
X86684228Y-73111134D01*
X86684230Y-73111131D01*
X86725153Y-72958404D01*
X86725153Y-72800290D01*
X86684230Y-72647563D01*
X86684228Y-72647560D01*
X86684228Y-72647558D01*
X86605175Y-72510634D01*
X86605167Y-72510624D01*
X86493375Y-72398832D01*
X86493365Y-72398824D01*
X86356441Y-72319771D01*
X86338396Y-72314936D01*
X86203710Y-72278847D01*
X86045596Y-72278847D01*
X86037338Y-72278847D01*
X86037338Y-72275404D01*
X85982866Y-72266823D01*
X85947651Y-72242019D01*
X84944405Y-71238772D01*
X84929460Y-71211403D01*
X84912604Y-71185175D01*
X84911698Y-71178876D01*
X84910379Y-71176460D01*
X84907500Y-71149677D01*
X84907500Y-70269105D01*
X84927502Y-70200984D01*
X84981158Y-70154491D01*
X85051432Y-70144387D01*
X85116012Y-70173881D01*
X85154396Y-70233607D01*
X85157949Y-70249394D01*
X85170828Y-70330712D01*
X85228269Y-70507497D01*
X85228272Y-70507503D01*
X85312665Y-70673133D01*
X85363875Y-70743617D01*
X85939215Y-70168277D01*
X85950006Y-70208549D01*
X86002667Y-70299761D01*
X86077141Y-70374235D01*
X86168353Y-70426896D01*
X86208623Y-70437686D01*
X85633283Y-71013025D01*
X85703768Y-71064236D01*
X85869398Y-71148629D01*
X85869404Y-71148632D01*
X86046189Y-71206073D01*
X86229803Y-71235155D01*
X86415691Y-71235155D01*
X86599304Y-71206073D01*
X86776089Y-71148632D01*
X86776095Y-71148629D01*
X86941727Y-71064235D01*
X86941729Y-71064234D01*
X87012209Y-71013026D01*
X87012210Y-71013025D01*
X86436871Y-70437686D01*
X86477141Y-70426896D01*
X86568353Y-70374235D01*
X86642827Y-70299761D01*
X86695488Y-70208549D01*
X86706278Y-70168279D01*
X87281617Y-70743618D01*
X87281618Y-70743617D01*
X87332826Y-70673137D01*
X87332827Y-70673135D01*
X87417221Y-70507503D01*
X87417224Y-70507497D01*
X87472914Y-70336101D01*
X87512987Y-70277495D01*
X87578384Y-70249858D01*
X87648341Y-70261965D01*
X87700647Y-70309971D01*
X87712580Y-70336100D01*
X87768272Y-70507501D01*
X87768273Y-70507503D01*
X87852666Y-70673133D01*
X87903876Y-70743617D01*
X88479216Y-70168277D01*
X88490007Y-70208549D01*
X88542668Y-70299761D01*
X88617142Y-70374235D01*
X88708354Y-70426896D01*
X88748624Y-70437686D01*
X88173284Y-71013025D01*
X88243769Y-71064236D01*
X88409399Y-71148629D01*
X88409405Y-71148632D01*
X88586190Y-71206073D01*
X88769804Y-71235155D01*
X88955692Y-71235155D01*
X89139305Y-71206073D01*
X89316090Y-71148632D01*
X89316096Y-71148629D01*
X89481728Y-71064235D01*
X89481730Y-71064234D01*
X89552210Y-71013026D01*
X89552211Y-71013025D01*
X88976872Y-70437686D01*
X89017142Y-70426896D01*
X89108354Y-70374235D01*
X89182828Y-70299761D01*
X89235489Y-70208549D01*
X89246279Y-70168279D01*
X89821618Y-70743618D01*
X89821619Y-70743617D01*
X89872827Y-70673137D01*
X89872828Y-70673135D01*
X89957222Y-70507503D01*
X89957225Y-70507497D01*
X90014666Y-70330712D01*
X90043748Y-70147098D01*
X90043748Y-69961211D01*
X90042861Y-69955610D01*
X90402247Y-69955610D01*
X90402247Y-70152699D01*
X90440696Y-70345990D01*
X90440697Y-70345993D01*
X90507596Y-70507503D01*
X90516115Y-70528069D01*
X90625608Y-70691937D01*
X90764965Y-70831294D01*
X90928833Y-70940787D01*
X91110912Y-71016206D01*
X91304206Y-71054655D01*
X91501288Y-71054655D01*
X91694582Y-71016206D01*
X91876661Y-70940787D01*
X92040529Y-70831294D01*
X92179886Y-70691937D01*
X92289379Y-70528069D01*
X92364798Y-70345990D01*
X92403247Y-70152696D01*
X92403247Y-69955614D01*
X92364798Y-69762320D01*
X92289379Y-69580241D01*
X92179886Y-69416373D01*
X92040529Y-69277016D01*
X91876661Y-69167523D01*
X91789155Y-69131277D01*
X91694585Y-69092105D01*
X91694582Y-69092104D01*
X91501291Y-69053655D01*
X91501288Y-69053655D01*
X91304206Y-69053655D01*
X91304202Y-69053655D01*
X91110911Y-69092104D01*
X91110908Y-69092105D01*
X90928832Y-69167523D01*
X90764969Y-69277013D01*
X90764962Y-69277018D01*
X90625610Y-69416370D01*
X90625605Y-69416377D01*
X90516115Y-69580240D01*
X90440697Y-69762316D01*
X90440696Y-69762319D01*
X90402247Y-69955610D01*
X90042861Y-69955610D01*
X90014666Y-69777597D01*
X89957225Y-69600812D01*
X89957222Y-69600806D01*
X89872829Y-69435176D01*
X89821618Y-69364691D01*
X89246279Y-69940030D01*
X89235489Y-69899761D01*
X89182828Y-69808549D01*
X89108354Y-69734075D01*
X89017142Y-69681414D01*
X88976871Y-69670623D01*
X89552210Y-69095283D01*
X89481726Y-69044073D01*
X89316096Y-68959680D01*
X89316090Y-68959677D01*
X89139305Y-68902236D01*
X88955692Y-68873155D01*
X88769804Y-68873155D01*
X88586190Y-68902236D01*
X88409405Y-68959677D01*
X88409399Y-68959680D01*
X88243765Y-69044075D01*
X88173284Y-69095282D01*
X88173284Y-69095284D01*
X88748623Y-69670623D01*
X88708354Y-69681414D01*
X88617142Y-69734075D01*
X88542668Y-69808549D01*
X88490007Y-69899761D01*
X88479216Y-69940030D01*
X87903877Y-69364691D01*
X87903875Y-69364691D01*
X87852668Y-69435172D01*
X87768273Y-69600806D01*
X87768272Y-69600809D01*
X87712580Y-69772209D01*
X87672506Y-69830814D01*
X87607109Y-69858451D01*
X87537153Y-69846344D01*
X87484847Y-69798338D01*
X87472914Y-69772208D01*
X87417224Y-69600812D01*
X87417221Y-69600806D01*
X87332828Y-69435176D01*
X87281617Y-69364691D01*
X86706278Y-69940030D01*
X86695488Y-69899761D01*
X86642827Y-69808549D01*
X86568353Y-69734075D01*
X86477141Y-69681414D01*
X86436870Y-69670623D01*
X87012209Y-69095283D01*
X86941725Y-69044073D01*
X86776095Y-68959680D01*
X86776089Y-68959677D01*
X86599304Y-68902236D01*
X86415691Y-68873155D01*
X86229803Y-68873155D01*
X86046189Y-68902236D01*
X85869404Y-68959677D01*
X85869398Y-68959680D01*
X85703764Y-69044075D01*
X85633283Y-69095282D01*
X85633283Y-69095284D01*
X86208622Y-69670623D01*
X86168353Y-69681414D01*
X86077141Y-69734075D01*
X86002667Y-69808549D01*
X85950006Y-69899761D01*
X85939215Y-69940030D01*
X85363876Y-69364691D01*
X85363874Y-69364691D01*
X85312667Y-69435172D01*
X85228272Y-69600806D01*
X85228269Y-69600812D01*
X85170828Y-69777597D01*
X85157949Y-69858915D01*
X85127536Y-69923068D01*
X85067268Y-69960595D01*
X84996279Y-69959581D01*
X84937107Y-69920348D01*
X84908539Y-69855353D01*
X84907500Y-69839204D01*
X84907500Y-69814149D01*
X84907499Y-69814142D01*
X84903264Y-69798338D01*
X84900859Y-69789361D01*
X84885318Y-69731361D01*
X84860857Y-69688993D01*
X84842467Y-69657141D01*
X84842459Y-69657131D01*
X83713868Y-68528540D01*
X83713858Y-68528532D01*
X83639643Y-68485684D01*
X83639641Y-68485683D01*
X83639639Y-68485682D01*
X83556853Y-68463500D01*
X83197163Y-68463500D01*
X83129042Y-68443498D01*
X83082549Y-68389842D01*
X83072445Y-68319568D01*
X83101939Y-68254988D01*
X83127161Y-68232735D01*
X83129333Y-68231284D01*
X83247782Y-68152139D01*
X83387139Y-68012782D01*
X83496632Y-67848914D01*
X83572051Y-67666835D01*
X83610500Y-67473541D01*
X83610500Y-67276459D01*
X83572051Y-67083165D01*
X83496632Y-66901086D01*
X83387139Y-66737218D01*
X83247782Y-66597861D01*
X83185528Y-66556264D01*
X83140001Y-66501788D01*
X83131153Y-66431345D01*
X83161794Y-66367301D01*
X83222196Y-66329990D01*
X83255531Y-66325500D01*
X88002050Y-66325500D01*
X88070171Y-66345502D01*
X88116664Y-66399158D01*
X88126768Y-66469432D01*
X88111169Y-66514500D01*
X88065724Y-66593211D01*
X88042844Y-66678599D01*
X88024800Y-66745943D01*
X88024800Y-66904057D01*
X88046485Y-66984987D01*
X88065724Y-67056788D01*
X88144777Y-67193712D01*
X88144785Y-67193722D01*
X88256577Y-67305514D01*
X88256582Y-67305518D01*
X88256584Y-67305520D01*
X88256585Y-67305521D01*
X88256587Y-67305522D01*
X88393511Y-67384575D01*
X88393513Y-67384575D01*
X88393516Y-67384577D01*
X88546243Y-67425500D01*
X88546245Y-67425500D01*
X88704355Y-67425500D01*
X88704357Y-67425500D01*
X88857084Y-67384577D01*
X88857087Y-67384575D01*
X88857088Y-67384575D01*
X88925550Y-67345048D01*
X88994016Y-67305520D01*
X89062132Y-67237403D01*
X89124442Y-67203380D01*
X89151226Y-67200500D01*
X91412983Y-67200500D01*
X91481104Y-67220502D01*
X91502078Y-67237405D01*
X91772595Y-67507922D01*
X91787539Y-67535290D01*
X91804396Y-67561519D01*
X91805301Y-67567817D01*
X91806621Y-67570234D01*
X91809500Y-67597017D01*
X91809500Y-67599181D01*
X91789498Y-67667302D01*
X91770958Y-67687474D01*
X91772123Y-67688639D01*
X91654485Y-67806276D01*
X91654477Y-67806286D01*
X91575424Y-67943210D01*
X91558857Y-68005039D01*
X91534500Y-68095942D01*
X91534500Y-68254056D01*
X91567041Y-68375500D01*
X91575424Y-68406787D01*
X91654477Y-68543711D01*
X91654485Y-68543721D01*
X91766277Y-68655513D01*
X91766282Y-68655517D01*
X91766284Y-68655519D01*
X91766285Y-68655520D01*
X91766287Y-68655521D01*
X91903211Y-68734574D01*
X91903213Y-68734574D01*
X91903216Y-68734576D01*
X92055943Y-68775499D01*
X92151574Y-68775499D01*
X92219695Y-68795501D01*
X92240669Y-68812404D01*
X92905342Y-69477077D01*
X92939368Y-69539389D01*
X92942247Y-69566172D01*
X92942247Y-70658421D01*
X92945101Y-70688855D01*
X92945102Y-70688859D01*
X92989953Y-70817036D01*
X92989955Y-70817040D01*
X93070596Y-70926305D01*
X93179861Y-71006946D01*
X93179865Y-71006948D01*
X93308048Y-71051801D01*
X93338481Y-71054655D01*
X93338483Y-71054655D01*
X94547011Y-71054655D01*
X94547013Y-71054655D01*
X94577446Y-71051801D01*
X94705629Y-71006948D01*
X94795275Y-70940787D01*
X94814897Y-70926305D01*
X94895538Y-70817040D01*
X94895540Y-70817036D01*
X94896414Y-70814540D01*
X94940393Y-70688854D01*
X94943247Y-70658421D01*
X94943247Y-69449889D01*
X94940393Y-69419456D01*
X94940106Y-69418637D01*
X94895540Y-69291273D01*
X94895538Y-69291269D01*
X94814897Y-69182004D01*
X94705632Y-69101363D01*
X94705628Y-69101361D01*
X94577451Y-69056510D01*
X94577447Y-69056509D01*
X94547013Y-69053655D01*
X93454764Y-69053655D01*
X93386643Y-69033653D01*
X93365669Y-69016750D01*
X92758933Y-68410014D01*
X92724907Y-68347702D01*
X92726321Y-68288308D01*
X92735500Y-68254056D01*
X92735500Y-68095942D01*
X92697496Y-67954109D01*
X92699186Y-67883135D01*
X92738980Y-67824339D01*
X92804244Y-67796391D01*
X92819203Y-67795500D01*
X96860330Y-67795500D01*
X96928451Y-67815502D01*
X96965093Y-67851496D01*
X97026156Y-67942884D01*
X97072857Y-68012777D01*
X97072861Y-68012782D01*
X97212218Y-68152139D01*
X97376086Y-68261632D01*
X97558165Y-68337051D01*
X97751459Y-68375500D01*
X97948541Y-68375500D01*
X98141835Y-68337051D01*
X98323914Y-68261632D01*
X98487782Y-68152139D01*
X98627139Y-68012782D01*
X98736632Y-67848914D01*
X98812051Y-67666835D01*
X98850500Y-67473541D01*
X98850500Y-67276459D01*
X98812051Y-67083165D01*
X98736632Y-66901086D01*
X98627139Y-66737218D01*
X98487782Y-66597861D01*
X98323914Y-66488368D01*
X98246456Y-66456284D01*
X98141838Y-66412950D01*
X98141835Y-66412949D01*
X97948544Y-66374500D01*
X97948541Y-66374500D01*
X97751459Y-66374500D01*
X97751455Y-66374500D01*
X97558164Y-66412949D01*
X97558161Y-66412950D01*
X97376085Y-66488368D01*
X97212222Y-66597858D01*
X97212215Y-66597863D01*
X97072863Y-66737215D01*
X97072858Y-66737222D01*
X96963368Y-66901085D01*
X96894761Y-67066718D01*
X96850213Y-67121999D01*
X96782849Y-67144420D01*
X96778352Y-67144500D01*
X93047017Y-67144500D01*
X92978896Y-67124498D01*
X92957926Y-67107599D01*
X92154050Y-66303723D01*
X93804001Y-66303723D01*
X93806814Y-66339492D01*
X93851294Y-66492592D01*
X93932449Y-66629816D01*
X93932452Y-66629820D01*
X94045178Y-66742546D01*
X94045182Y-66742549D01*
X94182406Y-66823704D01*
X94335507Y-66868184D01*
X94371275Y-66870998D01*
X94719500Y-66870998D01*
X95100500Y-66870998D01*
X95448724Y-66870998D01*
X95484493Y-66868184D01*
X95637593Y-66823704D01*
X95774817Y-66742549D01*
X95774821Y-66742546D01*
X95887547Y-66629820D01*
X95887550Y-66629816D01*
X95968705Y-66492592D01*
X96013185Y-66339491D01*
X96016000Y-66303723D01*
X96016000Y-66180499D01*
X95100500Y-66180499D01*
X95100500Y-66870998D01*
X94719500Y-66870998D01*
X94719500Y-66180499D01*
X93804001Y-66180499D01*
X93804001Y-66303723D01*
X92154050Y-66303723D01*
X92067730Y-66217403D01*
X92067728Y-66217400D01*
X91589868Y-65739540D01*
X91589858Y-65739532D01*
X91515643Y-65696684D01*
X91515641Y-65696683D01*
X91515639Y-65696682D01*
X91439474Y-65676274D01*
X93804000Y-65676274D01*
X93804000Y-65799499D01*
X94719500Y-65799499D01*
X95100500Y-65799499D01*
X96015999Y-65799499D01*
X96015999Y-65676274D01*
X96013185Y-65640505D01*
X95968705Y-65487405D01*
X95887550Y-65350181D01*
X95887547Y-65350177D01*
X95774821Y-65237451D01*
X95774817Y-65237448D01*
X95637593Y-65156293D01*
X95484492Y-65111813D01*
X95448724Y-65108999D01*
X95100500Y-65108999D01*
X95100500Y-65799499D01*
X94719500Y-65799499D01*
X94719500Y-65108999D01*
X94371276Y-65108999D01*
X94335506Y-65111813D01*
X94182406Y-65156293D01*
X94045182Y-65237448D01*
X94045178Y-65237451D01*
X93932452Y-65350177D01*
X93932449Y-65350181D01*
X93851294Y-65487405D01*
X93806814Y-65640506D01*
X93804000Y-65676274D01*
X91439474Y-65676274D01*
X91432853Y-65674500D01*
X91432851Y-65674500D01*
X83713564Y-65674500D01*
X83645443Y-65654498D01*
X83598950Y-65600842D01*
X83588846Y-65530568D01*
X83594634Y-65506886D01*
X83600841Y-65489146D01*
X83607646Y-65469699D01*
X83610500Y-65439266D01*
X83610500Y-64230734D01*
X83607646Y-64200301D01*
X83562793Y-64072118D01*
X83562791Y-64072114D01*
X83482151Y-63962851D01*
X83482148Y-63962849D01*
X83447267Y-63937106D01*
X83375552Y-63884177D01*
X83375542Y-63884170D01*
X83372883Y-63882208D01*
X83372882Y-63882207D01*
X83372880Y-63882206D01*
X83372881Y-63882206D01*
X83244704Y-63837355D01*
X83244700Y-63837354D01*
X83214266Y-63834500D01*
X82005734Y-63834500D01*
X82005733Y-63834500D01*
X81975299Y-63837354D01*
X81975295Y-63837355D01*
X81847118Y-63882206D01*
X81847114Y-63882208D01*
X81737849Y-63962849D01*
X81657208Y-64072114D01*
X81657206Y-64072118D01*
X81612355Y-64200295D01*
X81612354Y-64200299D01*
X81609500Y-64230733D01*
X81609500Y-65439266D01*
X81612354Y-65469699D01*
X81625366Y-65506886D01*
X81628984Y-65577790D01*
X81593695Y-65639395D01*
X81530701Y-65672141D01*
X81506436Y-65674500D01*
X79992786Y-65674500D01*
X79948424Y-65686386D01*
X79910003Y-65696681D01*
X79909996Y-65696684D01*
X79891870Y-65707150D01*
X79866788Y-65721631D01*
X79835778Y-65739534D01*
X79835774Y-65739537D01*
X79691390Y-65883922D01*
X79350715Y-66224596D01*
X79288405Y-66258620D01*
X79261622Y-66261500D01*
X79230853Y-66261500D01*
X79145147Y-66261500D01*
X79062361Y-66283682D01*
X79062359Y-66283683D01*
X79062356Y-66283684D01*
X78988141Y-66326532D01*
X78988135Y-66326537D01*
X78751998Y-66562673D01*
X78689686Y-66596698D01*
X78662315Y-66597847D01*
X78662315Y-66599500D01*
X78654057Y-66599500D01*
X78495943Y-66599500D01*
X78402470Y-66624545D01*
X78343211Y-66640424D01*
X78206287Y-66719477D01*
X78206277Y-66719485D01*
X78094485Y-66831277D01*
X78094477Y-66831287D01*
X78015424Y-66968211D01*
X77996745Y-67037923D01*
X77974500Y-67120943D01*
X77974500Y-67279057D01*
X77986111Y-67322389D01*
X78015423Y-67431785D01*
X78017567Y-67435497D01*
X78018425Y-67439033D01*
X78018585Y-67439420D01*
X78018524Y-67439444D01*
X78019022Y-67441494D01*
X78023063Y-67446158D01*
X78027295Y-67475597D01*
X78034306Y-67504492D01*
X78032288Y-67510321D01*
X78033167Y-67516432D01*
X78020811Y-67543486D01*
X78011087Y-67571585D01*
X78006236Y-67575399D01*
X78003673Y-67581012D01*
X77978658Y-67597088D01*
X77955281Y-67615473D01*
X77947810Y-67616912D01*
X77943947Y-67619396D01*
X77908449Y-67624500D01*
X77687017Y-67624500D01*
X77618896Y-67604498D01*
X77597921Y-67587595D01*
X76862404Y-66852077D01*
X76828379Y-66789765D01*
X76825500Y-66762982D01*
X76825500Y-65032148D01*
X76823754Y-65025632D01*
X76803318Y-64949362D01*
X76803316Y-64949359D01*
X76803316Y-64949357D01*
X76760467Y-64875141D01*
X76760463Y-64875136D01*
X76699862Y-64814535D01*
X76299862Y-64414535D01*
X76299860Y-64414534D01*
X76299858Y-64414532D01*
X76225643Y-64371684D01*
X76225641Y-64371683D01*
X76225639Y-64371682D01*
X76142853Y-64349500D01*
X62367853Y-64349500D01*
X62282147Y-64349500D01*
X62199361Y-64371682D01*
X62199359Y-64371683D01*
X62199356Y-64371684D01*
X62125141Y-64414532D01*
X62125131Y-64414540D01*
X61207540Y-65332131D01*
X61207534Y-65332139D01*
X61164681Y-65406360D01*
X61164680Y-65406363D01*
X61162254Y-65415421D01*
X61162254Y-65415422D01*
X61142500Y-65489146D01*
X61142500Y-68235901D01*
X61122498Y-68304022D01*
X61068842Y-68350515D01*
X60998568Y-68360619D01*
X60946499Y-68340667D01*
X60932231Y-68331133D01*
X60932228Y-68331132D01*
X60873750Y-68319500D01*
X60873748Y-68319500D01*
X60382761Y-68319500D01*
X60343969Y-68311784D01*
X60343761Y-68312561D01*
X60335785Y-68310424D01*
X60335784Y-68310423D01*
X60183057Y-68269500D01*
X60130749Y-68269500D01*
X60062628Y-68249498D01*
X60016135Y-68195842D01*
X60006031Y-68125568D01*
X60025984Y-68073498D01*
X60027648Y-68071006D01*
X60042867Y-68048231D01*
X60054500Y-67989748D01*
X60054500Y-66950252D01*
X60042867Y-66891769D01*
X59998552Y-66825448D01*
X59932231Y-66781133D01*
X59932228Y-66781132D01*
X59873750Y-66769500D01*
X59873748Y-66769500D01*
X59034252Y-66769500D01*
X59034249Y-66769500D01*
X58975771Y-66781132D01*
X58975768Y-66781133D01*
X58909448Y-66825448D01*
X58865133Y-66891768D01*
X58865132Y-66891771D01*
X58853500Y-66950249D01*
X58853500Y-67989750D01*
X58863579Y-68040423D01*
X58865133Y-68048231D01*
X58909448Y-68114552D01*
X58975769Y-68158867D01*
X59034252Y-68170500D01*
X59034253Y-68170500D01*
X59110661Y-68170500D01*
X59178782Y-68190502D01*
X59225275Y-68244158D01*
X59235379Y-68314432D01*
X59215426Y-68366503D01*
X59209449Y-68375446D01*
X59209448Y-68375448D01*
X59178544Y-68421699D01*
X59165132Y-68441771D01*
X59153500Y-68500249D01*
X59153500Y-69155269D01*
X59133498Y-69223390D01*
X59079842Y-69269883D01*
X59009568Y-69279987D01*
X58944988Y-69250493D01*
X58922735Y-69225272D01*
X58888114Y-69173458D01*
X58888113Y-69173457D01*
X58888111Y-69173454D01*
X58790547Y-69075890D01*
X58790541Y-69075885D01*
X58752471Y-69050447D01*
X58675811Y-68999225D01*
X58580341Y-68959680D01*
X58548331Y-68946421D01*
X58548328Y-68946420D01*
X58412995Y-68919500D01*
X58412993Y-68919500D01*
X58275007Y-68919500D01*
X58275004Y-68919500D01*
X58139671Y-68946420D01*
X58139668Y-68946421D01*
X58012189Y-68999225D01*
X57897458Y-69075885D01*
X57897452Y-69075890D01*
X57799890Y-69173452D01*
X57799885Y-69173458D01*
X57723225Y-69288189D01*
X57670421Y-69415668D01*
X57670420Y-69415671D01*
X57643500Y-69551004D01*
X57643500Y-69688995D01*
X57670420Y-69824328D01*
X57670421Y-69824331D01*
X57673238Y-69831132D01*
X57723225Y-69951811D01*
X57756422Y-70001494D01*
X57799885Y-70066541D01*
X57799890Y-70066547D01*
X57897452Y-70164109D01*
X57897458Y-70164114D01*
X58012189Y-70240775D01*
X58139672Y-70293580D01*
X58275007Y-70320500D01*
X58275008Y-70320500D01*
X58412992Y-70320500D01*
X58412993Y-70320500D01*
X58548328Y-70293580D01*
X58675811Y-70240775D01*
X58790542Y-70164114D01*
X58888114Y-70066542D01*
X58922735Y-70014727D01*
X58977212Y-69969200D01*
X59047655Y-69960352D01*
X59111699Y-69990993D01*
X59149010Y-70051395D01*
X59153500Y-70084730D01*
X59153500Y-70739750D01*
X59155439Y-70749500D01*
X59165133Y-70798231D01*
X59209448Y-70864552D01*
X59275769Y-70908867D01*
X59334252Y-70920500D01*
X59825239Y-70920500D01*
X59864030Y-70928215D01*
X59864239Y-70927439D01*
X59872214Y-70929575D01*
X59872216Y-70929577D01*
X60024943Y-70970500D01*
X60024945Y-70970500D01*
X60183055Y-70970500D01*
X60183057Y-70970500D01*
X60335784Y-70929577D01*
X60335785Y-70929575D01*
X60343761Y-70927439D01*
X60343969Y-70928215D01*
X60382761Y-70920500D01*
X60873747Y-70920500D01*
X60873748Y-70920500D01*
X60932231Y-70908867D01*
X60946499Y-70899332D01*
X61014248Y-70878118D01*
X61082715Y-70896900D01*
X61130160Y-70949716D01*
X61142500Y-71004098D01*
X61142500Y-72535099D01*
X61122498Y-72603220D01*
X61068842Y-72649713D01*
X60998568Y-72659817D01*
X60973723Y-72652165D01*
X60973565Y-72652679D01*
X60964216Y-72649790D01*
X60890159Y-72639000D01*
X60294500Y-72639000D01*
X60294500Y-74101001D01*
X60300063Y-74106564D01*
X60349234Y-74121002D01*
X60395727Y-74174658D01*
X60405831Y-74244932D01*
X60401698Y-74260005D01*
X60402561Y-74260237D01*
X60400424Y-74268212D01*
X60400423Y-74268214D01*
X60359500Y-74420941D01*
X60359500Y-74579055D01*
X60387037Y-74681826D01*
X60400424Y-74731786D01*
X60479477Y-74868710D01*
X60479485Y-74868720D01*
X60591277Y-74980512D01*
X60591282Y-74980516D01*
X60591284Y-74980518D01*
X60591285Y-74980519D01*
X60591287Y-74980520D01*
X60728211Y-75059573D01*
X60728213Y-75059573D01*
X60728216Y-75059575D01*
X60880943Y-75100498D01*
X60880945Y-75100498D01*
X61047316Y-75100498D01*
X61047316Y-75103985D01*
X61101521Y-75112396D01*
X61136997Y-75137322D01*
X61614140Y-75614465D01*
X61688363Y-75657318D01*
X61771149Y-75679500D01*
X61771151Y-75679500D01*
X62621571Y-75679500D01*
X62621573Y-75679500D01*
X62704359Y-75657318D01*
X62778582Y-75614465D01*
X64566642Y-73826403D01*
X64628953Y-73792380D01*
X64655736Y-73789500D01*
X65195983Y-73789500D01*
X65264104Y-73809502D01*
X65310597Y-73863158D01*
X65320701Y-73933432D01*
X65291207Y-73998012D01*
X65285078Y-74004595D01*
X62014540Y-77275131D01*
X62014532Y-77275141D01*
X61971684Y-77349356D01*
X61971680Y-77349367D01*
X61964982Y-77374364D01*
X61949500Y-77432144D01*
X61949500Y-77432147D01*
X61949500Y-102057147D01*
X61949500Y-102142853D01*
X61971682Y-102225639D01*
X61971683Y-102225641D01*
X61971684Y-102225643D01*
X62014532Y-102299858D01*
X62014537Y-102299864D01*
X62785129Y-103070455D01*
X62785133Y-103070462D01*
X62785134Y-103070462D01*
X62850131Y-103135459D01*
X62850136Y-103135463D01*
X62850138Y-103135465D01*
X62850139Y-103135466D01*
X62850141Y-103135467D01*
X62891766Y-103159499D01*
X62891765Y-103159499D01*
X62891769Y-103159500D01*
X62894577Y-103161122D01*
X62943565Y-103212506D01*
X62956997Y-103282221D01*
X62930605Y-103348130D01*
X62872770Y-103389308D01*
X62831545Y-103396235D01*
X62688956Y-103396209D01*
X62677997Y-103395730D01*
X62528062Y-103382612D01*
X62506433Y-103378798D01*
X62356745Y-103338689D01*
X62336106Y-103331177D01*
X62195659Y-103265686D01*
X62176638Y-103254704D01*
X62166792Y-103247810D01*
X62049696Y-103165818D01*
X62032872Y-103151700D01*
X61923299Y-103042127D01*
X61909181Y-103025303D01*
X61868250Y-102966847D01*
X61820292Y-102898356D01*
X61809316Y-102879345D01*
X61743820Y-102738889D01*
X61736310Y-102718255D01*
X61721994Y-102664829D01*
X61696200Y-102568566D01*
X61692387Y-102546938D01*
X61689519Y-102514162D01*
X61680696Y-102413309D01*
X61678399Y-102387054D01*
X61677920Y-102376232D01*
X61677860Y-102328989D01*
X61677871Y-102328949D01*
X61677860Y-102328843D01*
X61677831Y-102057147D01*
X61675500Y-80449793D01*
X61675499Y-80449792D01*
X61675497Y-80431034D01*
X61673080Y-80418884D01*
X61673082Y-80354487D01*
X61642198Y-80179324D01*
X61581366Y-80012184D01*
X61492435Y-79858148D01*
X61378105Y-79721895D01*
X61241852Y-79607565D01*
X61087816Y-79518634D01*
X61087814Y-79518633D01*
X61019341Y-79493712D01*
X60920676Y-79457802D01*
X60920673Y-79457801D01*
X60920672Y-79457801D01*
X60811074Y-79438477D01*
X60745513Y-79426918D01*
X60745512Y-79426918D01*
X60656580Y-79426920D01*
X60650261Y-79426920D01*
X57721555Y-79422705D01*
X57719438Y-79422080D01*
X57673924Y-79422080D01*
X57662944Y-79421601D01*
X57503057Y-79407615D01*
X57481428Y-79403801D01*
X57331745Y-79363696D01*
X57311105Y-79356184D01*
X57231139Y-79318896D01*
X57170656Y-79290692D01*
X57151638Y-79279712D01*
X57024689Y-79190822D01*
X57007864Y-79176704D01*
X56898295Y-79067135D01*
X56884177Y-79050310D01*
X56795287Y-78923361D01*
X56784308Y-78904346D01*
X56718813Y-78763890D01*
X56711304Y-78743259D01*
X56671197Y-78593565D01*
X56667385Y-78571947D01*
X56653399Y-78412055D01*
X56652920Y-78401076D01*
X56652920Y-78373981D01*
X56650500Y-78351469D01*
X56650500Y-75589470D01*
X56670502Y-75521349D01*
X56724158Y-75474856D01*
X56794432Y-75464752D01*
X56801068Y-75465888D01*
X56824252Y-75470500D01*
X56824253Y-75470500D01*
X57663747Y-75470500D01*
X57663748Y-75470500D01*
X57722231Y-75458867D01*
X57788552Y-75414552D01*
X57832867Y-75348231D01*
X57844500Y-75289748D01*
X57844500Y-74250252D01*
X57844499Y-74250249D01*
X58853500Y-74250249D01*
X58853500Y-75289750D01*
X58864129Y-75343187D01*
X58865133Y-75348231D01*
X58909448Y-75414552D01*
X58975769Y-75458867D01*
X59034252Y-75470500D01*
X59034253Y-75470500D01*
X59873747Y-75470500D01*
X59873748Y-75470500D01*
X59932231Y-75458867D01*
X59998552Y-75414552D01*
X60042867Y-75348231D01*
X60054500Y-75289748D01*
X60054500Y-74250252D01*
X60042867Y-74191769D01*
X59998552Y-74125448D01*
X59997855Y-74124982D01*
X59969497Y-74106033D01*
X59923970Y-74051556D01*
X59913500Y-74001269D01*
X59913500Y-73560500D01*
X58973000Y-73560500D01*
X58973000Y-73756159D01*
X58983790Y-73830216D01*
X59025915Y-73916385D01*
X59037863Y-73986369D01*
X59010078Y-74051703D01*
X58982721Y-74076487D01*
X58909447Y-74125448D01*
X58865133Y-74191768D01*
X58865132Y-74191771D01*
X58853500Y-74250249D01*
X57844499Y-74250249D01*
X57832867Y-74191769D01*
X57788552Y-74125448D01*
X57722231Y-74081133D01*
X57722228Y-74081132D01*
X57663750Y-74069500D01*
X57663748Y-74069500D01*
X56824252Y-74069500D01*
X56824251Y-74069500D01*
X56824241Y-74069501D01*
X56801079Y-74074108D01*
X56730365Y-74067779D01*
X56674299Y-74024224D01*
X56650680Y-73957271D01*
X56650500Y-73950529D01*
X56650500Y-72551004D01*
X57643500Y-72551004D01*
X57643500Y-72688995D01*
X57665639Y-72800291D01*
X57670420Y-72824328D01*
X57723225Y-72951811D01*
X57774447Y-73028471D01*
X57799885Y-73066541D01*
X57799890Y-73066547D01*
X57897452Y-73164109D01*
X57897458Y-73164114D01*
X58012189Y-73240775D01*
X58139672Y-73293580D01*
X58275007Y-73320500D01*
X58275008Y-73320500D01*
X58412992Y-73320500D01*
X58412993Y-73320500D01*
X58548328Y-73293580D01*
X58675811Y-73240775D01*
X58790542Y-73164114D01*
X58790549Y-73164106D01*
X58794021Y-73161258D01*
X58859366Y-73133500D01*
X58929345Y-73145477D01*
X58963056Y-73169557D01*
X58972999Y-73179500D01*
X59913500Y-73179500D01*
X59913500Y-72639000D01*
X59317840Y-72639000D01*
X59243783Y-72649790D01*
X59243780Y-72649791D01*
X59225837Y-72658563D01*
X59155853Y-72670511D01*
X59090519Y-72642726D01*
X59050579Y-72584029D01*
X59046335Y-72557041D01*
X59045106Y-72557163D01*
X59044500Y-72551014D01*
X59044500Y-72551007D01*
X59017580Y-72415672D01*
X58964775Y-72288189D01*
X58888114Y-72173458D01*
X58888109Y-72173452D01*
X58790547Y-72075890D01*
X58790541Y-72075885D01*
X58750511Y-72049138D01*
X58675811Y-71999225D01*
X58583660Y-71961055D01*
X58548331Y-71946421D01*
X58548328Y-71946420D01*
X58412995Y-71919500D01*
X58412993Y-71919500D01*
X58275007Y-71919500D01*
X58275004Y-71919500D01*
X58139671Y-71946420D01*
X58139668Y-71946421D01*
X58012189Y-71999225D01*
X57897458Y-72075885D01*
X57897452Y-72075890D01*
X57799890Y-72173452D01*
X57799885Y-72173458D01*
X57723225Y-72288189D01*
X57670421Y-72415668D01*
X57670420Y-72415671D01*
X57643500Y-72551004D01*
X56650500Y-72551004D01*
X56650500Y-68289470D01*
X56670502Y-68221349D01*
X56724158Y-68174856D01*
X56794432Y-68164752D01*
X56801068Y-68165888D01*
X56824252Y-68170500D01*
X56824253Y-68170500D01*
X57663747Y-68170500D01*
X57663748Y-68170500D01*
X57722231Y-68158867D01*
X57788552Y-68114552D01*
X57832867Y-68048231D01*
X57844500Y-67989748D01*
X57844500Y-66950252D01*
X57832867Y-66891769D01*
X57788552Y-66825448D01*
X57722231Y-66781133D01*
X57722228Y-66781132D01*
X57663750Y-66769500D01*
X57663748Y-66769500D01*
X56824252Y-66769500D01*
X56824251Y-66769500D01*
X56824241Y-66769501D01*
X56801079Y-66774108D01*
X56730365Y-66767779D01*
X56674299Y-66724224D01*
X56650680Y-66657271D01*
X56650500Y-66650529D01*
X56650500Y-63848927D01*
X56650979Y-63837945D01*
X56655216Y-63789516D01*
X56655547Y-63785734D01*
X93984500Y-63785734D01*
X93984500Y-64394267D01*
X93987354Y-64424701D01*
X93987355Y-64424705D01*
X94032206Y-64552882D01*
X94032208Y-64552886D01*
X94112849Y-64662151D01*
X94222114Y-64742792D01*
X94222118Y-64742794D01*
X94350301Y-64787647D01*
X94380734Y-64790501D01*
X94380736Y-64790501D01*
X95439264Y-64790501D01*
X95439266Y-64790501D01*
X95469699Y-64787647D01*
X95597882Y-64742794D01*
X95707150Y-64662151D01*
X95714877Y-64651680D01*
X95771422Y-64608747D01*
X95816258Y-64600500D01*
X96723871Y-64600500D01*
X96791992Y-64620502D01*
X96838485Y-64674158D01*
X96847836Y-64730269D01*
X96849500Y-64730269D01*
X96849500Y-64933544D01*
X96867818Y-65025632D01*
X96887949Y-65126835D01*
X96963368Y-65308914D01*
X97072861Y-65472782D01*
X97212218Y-65612139D01*
X97376086Y-65721632D01*
X97558165Y-65797051D01*
X97751459Y-65835500D01*
X97948541Y-65835500D01*
X98141835Y-65797051D01*
X98323914Y-65721632D01*
X98487782Y-65612139D01*
X98627139Y-65472782D01*
X98736632Y-65308914D01*
X98812051Y-65126835D01*
X98850500Y-64933541D01*
X98850500Y-64736459D01*
X98812051Y-64543165D01*
X98736632Y-64361086D01*
X98627139Y-64197218D01*
X98487782Y-64057861D01*
X98323914Y-63948368D01*
X98141838Y-63872950D01*
X98141835Y-63872949D01*
X97948544Y-63834500D01*
X97948541Y-63834500D01*
X97751459Y-63834500D01*
X97751453Y-63834500D01*
X97596599Y-63865303D01*
X97525885Y-63858975D01*
X97482923Y-63830819D01*
X97441620Y-63789516D01*
X97441610Y-63789508D01*
X97338891Y-63730203D01*
X97338889Y-63730202D01*
X97338887Y-63730201D01*
X97338880Y-63730199D01*
X97314673Y-63723712D01*
X97314673Y-63723713D01*
X97224309Y-63699500D01*
X97224308Y-63699500D01*
X95901970Y-63699500D01*
X95833849Y-63679498D01*
X95790570Y-63632373D01*
X95787791Y-63627115D01*
X95707150Y-63517850D01*
X95597885Y-63437209D01*
X95597881Y-63437207D01*
X95469704Y-63392356D01*
X95469700Y-63392355D01*
X95439266Y-63389501D01*
X94380734Y-63389501D01*
X94380733Y-63389501D01*
X94350299Y-63392355D01*
X94350295Y-63392356D01*
X94222118Y-63437207D01*
X94222114Y-63437209D01*
X94112849Y-63517850D01*
X94032208Y-63627115D01*
X94032206Y-63627119D01*
X93987355Y-63755296D01*
X93987354Y-63755300D01*
X93984500Y-63785734D01*
X56655547Y-63785734D01*
X56664967Y-63678057D01*
X56668781Y-63656431D01*
X56708892Y-63506737D01*
X56716399Y-63486113D01*
X56781898Y-63345649D01*
X56792869Y-63326648D01*
X56881766Y-63199689D01*
X56895873Y-63182878D01*
X57005458Y-63073293D01*
X57022269Y-63059186D01*
X57149228Y-62970289D01*
X57168229Y-62959318D01*
X57308693Y-62893819D01*
X57329317Y-62886312D01*
X57479015Y-62846200D01*
X57500637Y-62842387D01*
X57660525Y-62828398D01*
X57671440Y-62827920D01*
X57713845Y-62827897D01*
X98303476Y-62809502D01*
X98314504Y-62809982D01*
G37*
%TD.AperFunction*%
%TA.AperFunction,Conductor*%
G36*
X94781104Y-81395502D02*
G01*
X94802078Y-81412405D01*
X95122595Y-81732922D01*
X95156621Y-81795234D01*
X95159500Y-81822017D01*
X95159500Y-95196790D01*
X95139498Y-95264911D01*
X95085842Y-95311404D01*
X95072437Y-95316623D01*
X94985782Y-95344779D01*
X94803387Y-95437714D01*
X94637779Y-95558034D01*
X94493034Y-95702779D01*
X94372714Y-95868387D01*
X94279778Y-96050784D01*
X94251624Y-96137436D01*
X94211551Y-96196042D01*
X94146154Y-96223679D01*
X94131791Y-96224500D01*
X87161005Y-96224500D01*
X87092884Y-96204498D01*
X87046391Y-96150842D01*
X87036287Y-96080568D01*
X87065781Y-96015988D01*
X87100801Y-95990732D01*
X87099632Y-95988707D01*
X87222413Y-95917819D01*
X87243716Y-95905520D01*
X87355520Y-95793716D01*
X87422769Y-95677237D01*
X87434575Y-95656788D01*
X87434575Y-95656787D01*
X87434577Y-95656784D01*
X87475500Y-95504057D01*
X87475500Y-95345943D01*
X87434577Y-95193216D01*
X87434575Y-95193213D01*
X87434575Y-95193211D01*
X87355522Y-95056287D01*
X87355514Y-95056277D01*
X87237877Y-94938640D01*
X87240317Y-94936199D01*
X87207882Y-94891677D01*
X87200500Y-94849182D01*
X87200500Y-94258148D01*
X87200499Y-94258144D01*
X87191122Y-94223145D01*
X87191122Y-94223144D01*
X87178320Y-94175368D01*
X87178319Y-94175367D01*
X87178318Y-94175361D01*
X87135465Y-94101138D01*
X87135463Y-94101136D01*
X87135459Y-94101131D01*
X87049923Y-94015595D01*
X87015897Y-93953283D01*
X87020962Y-93882468D01*
X87063509Y-93825632D01*
X87130029Y-93800821D01*
X87139018Y-93800500D01*
X92607800Y-93800500D01*
X92607802Y-93800500D01*
X92690588Y-93778318D01*
X92764811Y-93735465D01*
X92825958Y-93674317D01*
X92888267Y-93640293D01*
X92915642Y-93639159D01*
X92915642Y-93637491D01*
X93082013Y-93637491D01*
X93082015Y-93637491D01*
X93234742Y-93596568D01*
X93234745Y-93596566D01*
X93234746Y-93596566D01*
X93309922Y-93553163D01*
X93371674Y-93517511D01*
X93483478Y-93405707D01*
X93559157Y-93274626D01*
X93562533Y-93268779D01*
X93562533Y-93268778D01*
X93562535Y-93268775D01*
X93603458Y-93116048D01*
X93603458Y-92957934D01*
X93562535Y-92805207D01*
X93562533Y-92805204D01*
X93562533Y-92805202D01*
X93483480Y-92668278D01*
X93483472Y-92668268D01*
X93371680Y-92556476D01*
X93371670Y-92556468D01*
X93234746Y-92477415D01*
X93191935Y-92465944D01*
X93082015Y-92436491D01*
X92923901Y-92436491D01*
X92830428Y-92461536D01*
X92771169Y-92477415D01*
X92634245Y-92556468D01*
X92634235Y-92556476D01*
X92522443Y-92668268D01*
X92522435Y-92668278D01*
X92443382Y-92805202D01*
X92402458Y-92957935D01*
X92402458Y-93023500D01*
X92382456Y-93091621D01*
X92328800Y-93138114D01*
X92276458Y-93149500D01*
X87262737Y-93149500D01*
X87194616Y-93129498D01*
X87173646Y-93112599D01*
X86250582Y-92189535D01*
X86250580Y-92189534D01*
X86250578Y-92189532D01*
X86176363Y-92146684D01*
X86176361Y-92146683D01*
X86176359Y-92146682D01*
X86093573Y-92124500D01*
X86093571Y-92124500D01*
X85762017Y-92124500D01*
X85693896Y-92104498D01*
X85672922Y-92087595D01*
X85087327Y-91502000D01*
X85053301Y-91439688D01*
X85052171Y-91412316D01*
X85050500Y-91412316D01*
X85050500Y-91245944D01*
X85047702Y-91235500D01*
X85009577Y-91093216D01*
X85009575Y-91093213D01*
X85009575Y-91093211D01*
X84930522Y-90956287D01*
X84930514Y-90956277D01*
X84818722Y-90844485D01*
X84818712Y-90844477D01*
X84681788Y-90765424D01*
X84663743Y-90760589D01*
X84529057Y-90724500D01*
X84370943Y-90724500D01*
X84277470Y-90749545D01*
X84218211Y-90765424D01*
X84081287Y-90844477D01*
X84081277Y-90844485D01*
X83969485Y-90956277D01*
X83969477Y-90956287D01*
X83890424Y-91093211D01*
X83867544Y-91178599D01*
X83849500Y-91245943D01*
X83849500Y-91404057D01*
X83862415Y-91452257D01*
X83890424Y-91556788D01*
X83969477Y-91693712D01*
X83969485Y-91693722D01*
X84081277Y-91805514D01*
X84081282Y-91805518D01*
X84081284Y-91805520D01*
X84081285Y-91805521D01*
X84081287Y-91805522D01*
X84218211Y-91884575D01*
X84218213Y-91884575D01*
X84218216Y-91884577D01*
X84370943Y-91925500D01*
X84370945Y-91925500D01*
X84537316Y-91925500D01*
X84537316Y-91928987D01*
X84591521Y-91937398D01*
X84627000Y-91962327D01*
X85281623Y-92616950D01*
X85315649Y-92679262D01*
X85310584Y-92750077D01*
X85281626Y-92795138D01*
X85269478Y-92807286D01*
X85190424Y-92944211D01*
X85190423Y-92944216D01*
X85149500Y-93096943D01*
X85149500Y-93255057D01*
X85180906Y-93372266D01*
X85190424Y-93407788D01*
X85269477Y-93544712D01*
X85269485Y-93544722D01*
X85381277Y-93656514D01*
X85381282Y-93656518D01*
X85381284Y-93656520D01*
X85381285Y-93656521D01*
X85381287Y-93656522D01*
X85518211Y-93735575D01*
X85518213Y-93735575D01*
X85518216Y-93735577D01*
X85670943Y-93776500D01*
X85670945Y-93776500D01*
X85837316Y-93776500D01*
X85837316Y-93779987D01*
X85891521Y-93788398D01*
X85927000Y-93813327D01*
X86512595Y-94398922D01*
X86546621Y-94461234D01*
X86549500Y-94488017D01*
X86549500Y-94849182D01*
X86529498Y-94917303D01*
X86510958Y-94937475D01*
X86512123Y-94938640D01*
X86394485Y-95056277D01*
X86394477Y-95056287D01*
X86315424Y-95193211D01*
X86312518Y-95204057D01*
X86274500Y-95345943D01*
X86274500Y-95504057D01*
X86302039Y-95606834D01*
X86315424Y-95656788D01*
X86394477Y-95793712D01*
X86394485Y-95793722D01*
X86506277Y-95905514D01*
X86506282Y-95905518D01*
X86506284Y-95905520D01*
X86506285Y-95905521D01*
X86506287Y-95905522D01*
X86650368Y-95988707D01*
X86648798Y-95991425D01*
X86692497Y-96026643D01*
X86714915Y-96094008D01*
X86697354Y-96162798D01*
X86645390Y-96211175D01*
X86588995Y-96224500D01*
X86218209Y-96224500D01*
X86150088Y-96204498D01*
X86103595Y-96150842D01*
X86098376Y-96137436D01*
X86070221Y-96050784D01*
X86070220Y-96050783D01*
X86070220Y-96050781D01*
X85977287Y-95868390D01*
X85968492Y-95856284D01*
X85856965Y-95702779D01*
X85712220Y-95558034D01*
X85546612Y-95437714D01*
X85499170Y-95413541D01*
X85364219Y-95344780D01*
X85364216Y-95344779D01*
X85364214Y-95344778D01*
X85169538Y-95281524D01*
X85169536Y-95281523D01*
X85169534Y-95281523D01*
X84967352Y-95249500D01*
X84762648Y-95249500D01*
X84560466Y-95281523D01*
X84560464Y-95281523D01*
X84560461Y-95281524D01*
X84365785Y-95344778D01*
X84365779Y-95344781D01*
X84183387Y-95437714D01*
X84017779Y-95558034D01*
X83873034Y-95702779D01*
X83752714Y-95868387D01*
X83659781Y-96050779D01*
X83659778Y-96050785D01*
X83596524Y-96245461D01*
X83596523Y-96245464D01*
X83596523Y-96245466D01*
X83564500Y-96447648D01*
X83564500Y-96652352D01*
X83596518Y-96854500D01*
X83596524Y-96854538D01*
X83642679Y-96996588D01*
X83644707Y-97067555D01*
X83608044Y-97128353D01*
X83604129Y-97130277D01*
X82993531Y-97740875D01*
X82982741Y-97700606D01*
X82930080Y-97609394D01*
X82855606Y-97534920D01*
X82764394Y-97482259D01*
X82724123Y-97471468D01*
X83299462Y-96896128D01*
X83228978Y-96844918D01*
X83063348Y-96760525D01*
X83063342Y-96760522D01*
X82886557Y-96703081D01*
X82702944Y-96674000D01*
X82517056Y-96674000D01*
X82333442Y-96703081D01*
X82156657Y-96760522D01*
X82156651Y-96760525D01*
X81991017Y-96844920D01*
X81920536Y-96896127D01*
X81920536Y-96896129D01*
X82495875Y-97471468D01*
X82455606Y-97482259D01*
X82364394Y-97534920D01*
X82289920Y-97609394D01*
X82237259Y-97700606D01*
X82226468Y-97740875D01*
X81651129Y-97165536D01*
X81651127Y-97165536D01*
X81599920Y-97236017D01*
X81515525Y-97401651D01*
X81515522Y-97401657D01*
X81458081Y-97578442D01*
X81429000Y-97762056D01*
X81429000Y-97947943D01*
X81458081Y-98131557D01*
X81515522Y-98308342D01*
X81515525Y-98308348D01*
X81599918Y-98473978D01*
X81651128Y-98544462D01*
X82226468Y-97969122D01*
X82237259Y-98009394D01*
X82289920Y-98100606D01*
X82364394Y-98175080D01*
X82455606Y-98227741D01*
X82495876Y-98238531D01*
X81920536Y-98813870D01*
X81991021Y-98865081D01*
X82156651Y-98949474D01*
X82156654Y-98949475D01*
X82169553Y-98953667D01*
X82228158Y-98993741D01*
X82255795Y-99059138D01*
X82243688Y-99129095D01*
X82195681Y-99181400D01*
X82130616Y-99199500D01*
X77337016Y-99199500D01*
X77268895Y-99179498D01*
X77247921Y-99162595D01*
X75931524Y-97846197D01*
X75687405Y-97602078D01*
X75653379Y-97539766D01*
X75650500Y-97512983D01*
X75650500Y-96800817D01*
X75670502Y-96732696D01*
X75689053Y-96712536D01*
X75687877Y-96711360D01*
X75805514Y-96593722D01*
X75805520Y-96593716D01*
X75884577Y-96456784D01*
X75925500Y-96304057D01*
X75925500Y-96145943D01*
X75884577Y-95993216D01*
X75884575Y-95993213D01*
X75884575Y-95993211D01*
X75805522Y-95856287D01*
X75805514Y-95856277D01*
X75693722Y-95744485D01*
X75693712Y-95744477D01*
X75666244Y-95728619D01*
X75617251Y-95677237D01*
X75603814Y-95607523D01*
X75630201Y-95541612D01*
X75688033Y-95500430D01*
X75729244Y-95493500D01*
X80897662Y-95493500D01*
X80897663Y-95493500D01*
X80938414Y-95482580D01*
X80948820Y-95479793D01*
X80981430Y-95475500D01*
X81518420Y-95475500D01*
X81586541Y-95495502D01*
X81633034Y-95549158D01*
X81641997Y-95576913D01*
X81647688Y-95605522D01*
X81647949Y-95606834D01*
X81647951Y-95606840D01*
X81686746Y-95700500D01*
X81723368Y-95788914D01*
X81832861Y-95952782D01*
X81972218Y-96092139D01*
X82136086Y-96201632D01*
X82318165Y-96277051D01*
X82511459Y-96315500D01*
X82708541Y-96315500D01*
X82901835Y-96277051D01*
X83083914Y-96201632D01*
X83247782Y-96092139D01*
X83387139Y-95952782D01*
X83496632Y-95788914D01*
X83572051Y-95606835D01*
X83610500Y-95413541D01*
X83610500Y-95216459D01*
X83572051Y-95023165D01*
X83496632Y-94841086D01*
X83387139Y-94677218D01*
X83247782Y-94537861D01*
X83083914Y-94428368D01*
X82954050Y-94374577D01*
X82901838Y-94352950D01*
X82901835Y-94352949D01*
X82708544Y-94314500D01*
X82708541Y-94314500D01*
X82511459Y-94314500D01*
X82511455Y-94314500D01*
X82318164Y-94352949D01*
X82318161Y-94352950D01*
X82136085Y-94428368D01*
X81972222Y-94537858D01*
X81972220Y-94537859D01*
X81832860Y-94677218D01*
X81771867Y-94768502D01*
X81717390Y-94814030D01*
X81667102Y-94824500D01*
X81325017Y-94824500D01*
X81256896Y-94804498D01*
X81210403Y-94750842D01*
X81200299Y-94680568D01*
X81229793Y-94615988D01*
X81235910Y-94609416D01*
X82110221Y-93735104D01*
X82172530Y-93701082D01*
X82243345Y-93706146D01*
X82247479Y-93707772D01*
X82318165Y-93737051D01*
X82511459Y-93775500D01*
X82708541Y-93775500D01*
X82901835Y-93737051D01*
X83083914Y-93661632D01*
X83247782Y-93552139D01*
X83387139Y-93412782D01*
X83496632Y-93248914D01*
X83572051Y-93066835D01*
X83610500Y-92873541D01*
X83610500Y-92676459D01*
X83572051Y-92483165D01*
X83496632Y-92301086D01*
X83387139Y-92137218D01*
X83247782Y-91997861D01*
X83083914Y-91888368D01*
X82954050Y-91834577D01*
X82901838Y-91812950D01*
X82901835Y-91812949D01*
X82708544Y-91774500D01*
X82708541Y-91774500D01*
X82511459Y-91774500D01*
X82511455Y-91774500D01*
X82318164Y-91812949D01*
X82318161Y-91812950D01*
X82136085Y-91888368D01*
X81972222Y-91997858D01*
X81972215Y-91997863D01*
X81832863Y-92137215D01*
X81832858Y-92137222D01*
X81723368Y-92301085D01*
X81647950Y-92483161D01*
X81647949Y-92483164D01*
X81609500Y-92676455D01*
X81609500Y-92873544D01*
X81647949Y-93066835D01*
X81647952Y-93066844D01*
X81677205Y-93137468D01*
X81684794Y-93208058D01*
X81653014Y-93271544D01*
X81649892Y-93274780D01*
X80570076Y-94354596D01*
X80507766Y-94388620D01*
X80480983Y-94391500D01*
X79198017Y-94391500D01*
X79129896Y-94371498D01*
X79083403Y-94317842D01*
X79073299Y-94247568D01*
X79102793Y-94182988D01*
X79108922Y-94176405D01*
X79839050Y-93446277D01*
X82096078Y-91189247D01*
X82158388Y-91155224D01*
X82229203Y-91160288D01*
X82233379Y-91161932D01*
X82252301Y-91169769D01*
X82318156Y-91197048D01*
X82318160Y-91197049D01*
X82318165Y-91197051D01*
X82511459Y-91235500D01*
X82708541Y-91235500D01*
X82901835Y-91197051D01*
X83083914Y-91121632D01*
X83247782Y-91012139D01*
X83387139Y-90872782D01*
X83496632Y-90708914D01*
X83572051Y-90526835D01*
X83610500Y-90333541D01*
X83610500Y-90284552D01*
X83630502Y-90216431D01*
X83684158Y-90169938D01*
X83752949Y-90159630D01*
X83759548Y-90160498D01*
X83759552Y-90160500D01*
X93186183Y-90160500D01*
X93254304Y-90180502D01*
X93274463Y-90199053D01*
X93275640Y-90197877D01*
X93393277Y-90315514D01*
X93393282Y-90315518D01*
X93393284Y-90315520D01*
X93393285Y-90315521D01*
X93393287Y-90315522D01*
X93530211Y-90394575D01*
X93530213Y-90394575D01*
X93530216Y-90394577D01*
X93682943Y-90435500D01*
X93682945Y-90435500D01*
X93841055Y-90435500D01*
X93841057Y-90435500D01*
X93993784Y-90394577D01*
X93993787Y-90394575D01*
X93993788Y-90394575D01*
X94099502Y-90333541D01*
X94130716Y-90315520D01*
X94242520Y-90203716D01*
X94282048Y-90135250D01*
X94321575Y-90066788D01*
X94321575Y-90066787D01*
X94321577Y-90066784D01*
X94362500Y-89914057D01*
X94362500Y-89755943D01*
X94321577Y-89603216D01*
X94321575Y-89603213D01*
X94321575Y-89603211D01*
X94242522Y-89466287D01*
X94242514Y-89466277D01*
X94130722Y-89354485D01*
X94130712Y-89354477D01*
X93993785Y-89275423D01*
X93967053Y-89268260D01*
X93906430Y-89231308D01*
X93875409Y-89167448D01*
X93883839Y-89096953D01*
X93929042Y-89042207D01*
X93936665Y-89037435D01*
X93992117Y-89005420D01*
X94054563Y-88969367D01*
X94166367Y-88857563D01*
X94226169Y-88753982D01*
X94245422Y-88720635D01*
X94245422Y-88720634D01*
X94245424Y-88720631D01*
X94286347Y-88567904D01*
X94286347Y-88409790D01*
X94245424Y-88257063D01*
X94245422Y-88257060D01*
X94245422Y-88257058D01*
X94166369Y-88120134D01*
X94166361Y-88120124D01*
X94050955Y-88004718D01*
X94016929Y-87942406D01*
X94021994Y-87871591D01*
X94064541Y-87814755D01*
X94077050Y-87806504D01*
X94104770Y-87790500D01*
X94130716Y-87775520D01*
X94242520Y-87663716D01*
X94282048Y-87595250D01*
X94321575Y-87526788D01*
X94321575Y-87526787D01*
X94321577Y-87526784D01*
X94362500Y-87374057D01*
X94362500Y-87215943D01*
X94321577Y-87063216D01*
X94321575Y-87063213D01*
X94321575Y-87063211D01*
X94242522Y-86926287D01*
X94242514Y-86926277D01*
X94130722Y-86814485D01*
X94130712Y-86814477D01*
X94052148Y-86769119D01*
X94003155Y-86717737D01*
X93989718Y-86648023D01*
X94016105Y-86582112D01*
X94052148Y-86550881D01*
X94089339Y-86529409D01*
X94130716Y-86505520D01*
X94242520Y-86393716D01*
X94307268Y-86281568D01*
X94321575Y-86256788D01*
X94321575Y-86256787D01*
X94321577Y-86256784D01*
X94362500Y-86104057D01*
X94362500Y-85945943D01*
X94321577Y-85793216D01*
X94321575Y-85793213D01*
X94321575Y-85793211D01*
X94242522Y-85656287D01*
X94242514Y-85656277D01*
X94130722Y-85544485D01*
X94130712Y-85544477D01*
X93993788Y-85465424D01*
X93951145Y-85453998D01*
X93841057Y-85424500D01*
X93682943Y-85424500D01*
X93589470Y-85449545D01*
X93530211Y-85465424D01*
X93393287Y-85544477D01*
X93393277Y-85544485D01*
X93275640Y-85662123D01*
X93274176Y-85660659D01*
X93254589Y-85673246D01*
X93228836Y-85692061D01*
X93224002Y-85692903D01*
X93221681Y-85694396D01*
X93186183Y-85699500D01*
X92962587Y-85699500D01*
X92962571Y-85699499D01*
X92954853Y-85699499D01*
X92869148Y-85699499D01*
X92869144Y-85699499D01*
X92813241Y-85714478D01*
X92813242Y-85714479D01*
X92786359Y-85721682D01*
X92712141Y-85764532D01*
X92712136Y-85764536D01*
X92692068Y-85784605D01*
X92651535Y-85825138D01*
X91566078Y-86910595D01*
X91503766Y-86944621D01*
X91476983Y-86947500D01*
X90214018Y-86947500D01*
X90145897Y-86927498D01*
X90099404Y-86873842D01*
X90089300Y-86803568D01*
X90118794Y-86738988D01*
X90124923Y-86732405D01*
X93009923Y-83847405D01*
X93037291Y-83832460D01*
X93063520Y-83815604D01*
X93069818Y-83814698D01*
X93072235Y-83813379D01*
X93099018Y-83810500D01*
X93186183Y-83810500D01*
X93254304Y-83830502D01*
X93274463Y-83849053D01*
X93275640Y-83847877D01*
X93393277Y-83965514D01*
X93393282Y-83965518D01*
X93393284Y-83965520D01*
X93393285Y-83965521D01*
X93393287Y-83965522D01*
X93530211Y-84044575D01*
X93530213Y-84044575D01*
X93530216Y-84044577D01*
X93682943Y-84085500D01*
X93682945Y-84085500D01*
X93841055Y-84085500D01*
X93841057Y-84085500D01*
X93993784Y-84044577D01*
X93993787Y-84044575D01*
X93993788Y-84044575D01*
X94105076Y-83980323D01*
X94130716Y-83965520D01*
X94242520Y-83853716D01*
X94258213Y-83826534D01*
X94304334Y-83780411D01*
X94330727Y-83765173D01*
X94364862Y-83745465D01*
X94764486Y-83345838D01*
X94764496Y-83345831D01*
X94835459Y-83274868D01*
X94835465Y-83274862D01*
X94878318Y-83200638D01*
X94880776Y-83191465D01*
X94900501Y-83117852D01*
X94900501Y-83032147D01*
X94900500Y-83032143D01*
X94900500Y-82032147D01*
X94878318Y-81949362D01*
X94878316Y-81949359D01*
X94878316Y-81949357D01*
X94835467Y-81875141D01*
X94835463Y-81875136D01*
X94815827Y-81855500D01*
X94774862Y-81814535D01*
X94550922Y-81590595D01*
X94540139Y-81570848D01*
X94525403Y-81553842D01*
X94523455Y-81540294D01*
X94516896Y-81528283D01*
X94518501Y-81505839D01*
X94515299Y-81483568D01*
X94520984Y-81471118D01*
X94521961Y-81457468D01*
X94535445Y-81439454D01*
X94544793Y-81418988D01*
X94556305Y-81411589D01*
X94564508Y-81400632D01*
X94585591Y-81392768D01*
X94604519Y-81380604D01*
X94626789Y-81377401D01*
X94631028Y-81375821D01*
X94640017Y-81375500D01*
X94712983Y-81375500D01*
X94781104Y-81395502D01*
G37*
%TD.AperFunction*%
%TA.AperFunction,Conductor*%
G36*
X81773977Y-89454502D02*
G01*
X81820470Y-89508158D01*
X81830574Y-89578432D01*
X81810621Y-89630502D01*
X81723368Y-89761085D01*
X81647950Y-89943161D01*
X81647949Y-89943164D01*
X81609500Y-90136455D01*
X81609500Y-90333544D01*
X81647949Y-90526835D01*
X81647952Y-90526845D01*
X81671347Y-90583326D01*
X81678936Y-90653916D01*
X81647156Y-90717403D01*
X81644033Y-90720638D01*
X78461078Y-93903595D01*
X78398766Y-93937620D01*
X78371983Y-93940500D01*
X75914013Y-93940500D01*
X75845892Y-93920498D01*
X75799399Y-93866842D01*
X75789295Y-93796568D01*
X75804894Y-93751500D01*
X75859575Y-93656788D01*
X75859575Y-93656787D01*
X75859577Y-93656784D01*
X75900500Y-93504057D01*
X75900500Y-93345943D01*
X75859577Y-93193216D01*
X75859575Y-93193213D01*
X75859575Y-93193211D01*
X75780522Y-93056287D01*
X75780514Y-93056277D01*
X75668722Y-92944485D01*
X75668717Y-92944481D01*
X75668716Y-92944480D01*
X75668713Y-92944478D01*
X75662164Y-92939453D01*
X75664130Y-92936889D01*
X75625623Y-92896494D01*
X75615917Y-92871386D01*
X75603318Y-92824362D01*
X75593459Y-92807286D01*
X75560467Y-92750141D01*
X75560463Y-92750136D01*
X75560404Y-92750077D01*
X75499862Y-92689535D01*
X75274709Y-92464382D01*
X75274707Y-92464381D01*
X75274705Y-92464379D01*
X75200490Y-92421531D01*
X75200488Y-92421530D01*
X75200486Y-92421529D01*
X75117700Y-92399347D01*
X75117698Y-92399347D01*
X74215014Y-92399347D01*
X74146893Y-92379345D01*
X74125919Y-92362442D01*
X74095651Y-92332174D01*
X74095641Y-92332166D01*
X73958717Y-92253113D01*
X73805979Y-92212187D01*
X73798579Y-92211213D01*
X73733654Y-92182487D01*
X73694566Y-92123219D01*
X73693725Y-92052228D01*
X73725936Y-91997199D01*
X76251732Y-89471405D01*
X76314044Y-89437379D01*
X76340827Y-89434500D01*
X81705856Y-89434500D01*
X81773977Y-89454502D01*
G37*
%TD.AperFunction*%
%TA.AperFunction,Conductor*%
G36*
X69798286Y-67668002D02*
G01*
X69844779Y-67721658D01*
X69851870Y-67741385D01*
X69869258Y-67806276D01*
X69875424Y-67829288D01*
X69954477Y-67966212D01*
X69954485Y-67966222D01*
X70066277Y-68078014D01*
X70066282Y-68078018D01*
X70066284Y-68078020D01*
X70066285Y-68078021D01*
X70066287Y-68078022D01*
X70203211Y-68157075D01*
X70203213Y-68157075D01*
X70203216Y-68157077D01*
X70355943Y-68198000D01*
X70355945Y-68198000D01*
X70514057Y-68198000D01*
X70541281Y-68190705D01*
X70612257Y-68192393D01*
X70662989Y-68223316D01*
X73710124Y-71270450D01*
X73710145Y-71270473D01*
X73775131Y-71335459D01*
X73775136Y-71335463D01*
X73775138Y-71335465D01*
X73775139Y-71335466D01*
X73775141Y-71335467D01*
X73840820Y-71373387D01*
X73849358Y-71378316D01*
X73849360Y-71378316D01*
X73849362Y-71378318D01*
X73849363Y-71378318D01*
X73849365Y-71378319D01*
X73917962Y-71396700D01*
X73932147Y-71400501D01*
X74025571Y-71400501D01*
X74025587Y-71400500D01*
X81971952Y-71400500D01*
X82040073Y-71420502D01*
X82086566Y-71474158D01*
X82096670Y-71544432D01*
X82067176Y-71609012D01*
X82041954Y-71631265D01*
X81972222Y-71677858D01*
X81972215Y-71677863D01*
X81832863Y-71817215D01*
X81832858Y-71817222D01*
X81723368Y-71981085D01*
X81647950Y-72163161D01*
X81647949Y-72163164D01*
X81609500Y-72356455D01*
X81609500Y-72553544D01*
X81647949Y-72746835D01*
X81647952Y-72746844D01*
X81677205Y-72817468D01*
X81684794Y-72888058D01*
X81653014Y-72951544D01*
X81649891Y-72954780D01*
X80390595Y-74214077D01*
X80328283Y-74248102D01*
X80257468Y-74243038D01*
X80200632Y-74200491D01*
X80175821Y-74133971D01*
X80175500Y-74124982D01*
X80175500Y-73550817D01*
X80195502Y-73482696D01*
X80214053Y-73462536D01*
X80212877Y-73461360D01*
X80330514Y-73343722D01*
X80330520Y-73343716D01*
X80385747Y-73248059D01*
X80409575Y-73206788D01*
X80409575Y-73206787D01*
X80409577Y-73206784D01*
X80450500Y-73054057D01*
X80450500Y-72895943D01*
X80409577Y-72743216D01*
X80409575Y-72743213D01*
X80409575Y-72743211D01*
X80330522Y-72606287D01*
X80330514Y-72606277D01*
X80218722Y-72494485D01*
X80218712Y-72494477D01*
X80081788Y-72415424D01*
X80019865Y-72398832D01*
X79929057Y-72374500D01*
X79770943Y-72374500D01*
X79683217Y-72398006D01*
X79618211Y-72415424D01*
X79481287Y-72494477D01*
X79481277Y-72494485D01*
X79369485Y-72606277D01*
X79369477Y-72606287D01*
X79290424Y-72743211D01*
X79270527Y-72817468D01*
X79249500Y-72895943D01*
X79249500Y-73054057D01*
X79278070Y-73160682D01*
X79290424Y-73206788D01*
X79369477Y-73343712D01*
X79369485Y-73343722D01*
X79487123Y-73461360D01*
X79484664Y-73463818D01*
X79517061Y-73508164D01*
X79524500Y-73550817D01*
X79524500Y-78301863D01*
X79504498Y-78369984D01*
X79450842Y-78416477D01*
X79431113Y-78423569D01*
X79368213Y-78440423D01*
X79231287Y-78519477D01*
X79231277Y-78519485D01*
X79119485Y-78631277D01*
X79119477Y-78631287D01*
X79040424Y-78768211D01*
X79040423Y-78768216D01*
X78999500Y-78920943D01*
X78999500Y-79079057D01*
X79030429Y-79194485D01*
X79040424Y-79231788D01*
X79119477Y-79368712D01*
X79119485Y-79368722D01*
X79231277Y-79480514D01*
X79231282Y-79480518D01*
X79231284Y-79480520D01*
X79231285Y-79480521D01*
X79231287Y-79480522D01*
X79368211Y-79559575D01*
X79368213Y-79559575D01*
X79368216Y-79559577D01*
X79520943Y-79600500D01*
X79520945Y-79600500D01*
X79679055Y-79600500D01*
X79679057Y-79600500D01*
X79831784Y-79559577D01*
X79831785Y-79559575D01*
X79839761Y-79557439D01*
X79840616Y-79560632D01*
X79895800Y-79554667D01*
X79959305Y-79586409D01*
X79995568Y-79647447D01*
X79999500Y-79678678D01*
X79999500Y-79971321D01*
X79979498Y-80039442D01*
X79925842Y-80085935D01*
X79855568Y-80096039D01*
X79839974Y-80091762D01*
X79839761Y-80092561D01*
X79831785Y-80090424D01*
X79831784Y-80090423D01*
X79679057Y-80049500D01*
X79520943Y-80049500D01*
X79427470Y-80074545D01*
X79368211Y-80090424D01*
X79231287Y-80169477D01*
X79231277Y-80169485D01*
X79113640Y-80287123D01*
X79111181Y-80284664D01*
X79066836Y-80317061D01*
X79024183Y-80324500D01*
X78703927Y-80324500D01*
X78635806Y-80304498D01*
X78589313Y-80250842D01*
X78579209Y-80180568D01*
X78608703Y-80115988D01*
X78614832Y-80109405D01*
X78655514Y-80068722D01*
X78655520Y-80068716D01*
X78708785Y-79976458D01*
X78734575Y-79931788D01*
X78734575Y-79931787D01*
X78734577Y-79931784D01*
X78775500Y-79779057D01*
X78775500Y-79620943D01*
X78734577Y-79468216D01*
X78734575Y-79468213D01*
X78734575Y-79468211D01*
X78679899Y-79373510D01*
X78655520Y-79331284D01*
X78655518Y-79331282D01*
X78655517Y-79331280D01*
X78651535Y-79326089D01*
X78625936Y-79259868D01*
X78625500Y-79249389D01*
X78625500Y-74578016D01*
X78625501Y-74578003D01*
X78625501Y-74482148D01*
X78625500Y-74482144D01*
X78603319Y-74399365D01*
X78603318Y-74399364D01*
X78603318Y-74399362D01*
X78594055Y-74383318D01*
X78560465Y-74325138D01*
X78560462Y-74325135D01*
X78560459Y-74325131D01*
X78495478Y-74260150D01*
X78495455Y-74260129D01*
X78164864Y-73929537D01*
X78164858Y-73929532D01*
X78090643Y-73886684D01*
X78090641Y-73886683D01*
X78090639Y-73886682D01*
X78007853Y-73864500D01*
X78007851Y-73864500D01*
X77603317Y-73864500D01*
X77535196Y-73844498D01*
X77515036Y-73825946D01*
X77513860Y-73827123D01*
X77396222Y-73709485D01*
X77396212Y-73709477D01*
X77259288Y-73630424D01*
X77241243Y-73625589D01*
X77106557Y-73589500D01*
X76948443Y-73589500D01*
X76854970Y-73614545D01*
X76795711Y-73630424D01*
X76658787Y-73709477D01*
X76658777Y-73709485D01*
X76546985Y-73821277D01*
X76546977Y-73821287D01*
X76467924Y-73958211D01*
X76459369Y-73990140D01*
X76427000Y-74110943D01*
X76427000Y-74269057D01*
X76457616Y-74383317D01*
X76467924Y-74421788D01*
X76546977Y-74558712D01*
X76546985Y-74558722D01*
X76658777Y-74670514D01*
X76658782Y-74670518D01*
X76658784Y-74670520D01*
X76658785Y-74670521D01*
X76658787Y-74670522D01*
X76795711Y-74749575D01*
X76795713Y-74749575D01*
X76795716Y-74749577D01*
X76948443Y-74790500D01*
X76948445Y-74790500D01*
X77106555Y-74790500D01*
X77106557Y-74790500D01*
X77259284Y-74749577D01*
X77259287Y-74749575D01*
X77259288Y-74749575D01*
X77379309Y-74680281D01*
X77396216Y-74670520D01*
X77447651Y-74619085D01*
X77513860Y-74552877D01*
X77515323Y-74554340D01*
X77534910Y-74541753D01*
X77560664Y-74522939D01*
X77565497Y-74522096D01*
X77567819Y-74520604D01*
X77603317Y-74515500D01*
X77777982Y-74515500D01*
X77846103Y-74535502D01*
X77867077Y-74552404D01*
X77937595Y-74622921D01*
X77971620Y-74685233D01*
X77974500Y-74712017D01*
X77974500Y-79049615D01*
X77954498Y-79117736D01*
X77911499Y-79158734D01*
X77806290Y-79219475D01*
X77806277Y-79219485D01*
X77694485Y-79331277D01*
X77694477Y-79331287D01*
X77611293Y-79475368D01*
X77608574Y-79473798D01*
X77573357Y-79517497D01*
X77505992Y-79539915D01*
X77437202Y-79522354D01*
X77388825Y-79470390D01*
X77375500Y-79413995D01*
X77375500Y-76500817D01*
X77395502Y-76432696D01*
X77414053Y-76412536D01*
X77412877Y-76411360D01*
X77530514Y-76293722D01*
X77530520Y-76293716D01*
X77583577Y-76201818D01*
X77609575Y-76156788D01*
X77609576Y-76156785D01*
X77609577Y-76156784D01*
X77650500Y-76004057D01*
X77650500Y-75845943D01*
X77609577Y-75693216D01*
X77609575Y-75693213D01*
X77609575Y-75693211D01*
X77530522Y-75556287D01*
X77530514Y-75556277D01*
X77418722Y-75444485D01*
X77418712Y-75444477D01*
X77281788Y-75365424D01*
X77247688Y-75356287D01*
X77129057Y-75324500D01*
X76970943Y-75324500D01*
X76882389Y-75348228D01*
X76818211Y-75365424D01*
X76681287Y-75444477D01*
X76681277Y-75444485D01*
X76569485Y-75556277D01*
X76569477Y-75556287D01*
X76490424Y-75693211D01*
X76488084Y-75701944D01*
X76449500Y-75845943D01*
X76449500Y-76004057D01*
X76472275Y-76089053D01*
X76490424Y-76156788D01*
X76569477Y-76293712D01*
X76569485Y-76293722D01*
X76687123Y-76411360D01*
X76684664Y-76413818D01*
X76717061Y-76458164D01*
X76724500Y-76500817D01*
X76724500Y-80032147D01*
X76724500Y-80117853D01*
X76746682Y-80200639D01*
X76746683Y-80200641D01*
X76746684Y-80200643D01*
X76789532Y-80274858D01*
X76789534Y-80274860D01*
X76789535Y-80274862D01*
X77364533Y-80849859D01*
X77364535Y-80849862D01*
X77425138Y-80910465D01*
X77462250Y-80931891D01*
X77471509Y-80937237D01*
X77471513Y-80937240D01*
X77499357Y-80953316D01*
X77499358Y-80953316D01*
X77499361Y-80953318D01*
X77582147Y-80975500D01*
X77667853Y-80975500D01*
X79024183Y-80975500D01*
X79092304Y-80995502D01*
X79112463Y-81014053D01*
X79113640Y-81012877D01*
X79231277Y-81130514D01*
X79231282Y-81130518D01*
X79231284Y-81130520D01*
X79231285Y-81130521D01*
X79231287Y-81130522D01*
X79368210Y-81209574D01*
X79368211Y-81209574D01*
X79368216Y-81209577D01*
X79373569Y-81211011D01*
X79434189Y-81247962D01*
X79465211Y-81311823D01*
X79456782Y-81382317D01*
X79430050Y-81421812D01*
X77525568Y-83326294D01*
X77463256Y-83360320D01*
X77392441Y-83355255D01*
X77335605Y-83312708D01*
X77310794Y-83246188D01*
X77325885Y-83176814D01*
X77327354Y-83174199D01*
X77335841Y-83159500D01*
X77387533Y-83069966D01*
X77409575Y-83031788D01*
X77409575Y-83031787D01*
X77409577Y-83031784D01*
X77450500Y-82879057D01*
X77450500Y-82720943D01*
X77409577Y-82568216D01*
X77409575Y-82568213D01*
X77409575Y-82568211D01*
X77330522Y-82431287D01*
X77330514Y-82431277D01*
X77218722Y-82319485D01*
X77218712Y-82319477D01*
X77081788Y-82240424D01*
X77029505Y-82226415D01*
X76929057Y-82199500D01*
X76770943Y-82199500D01*
X76709954Y-82215842D01*
X76618211Y-82240424D01*
X76481287Y-82319477D01*
X76481277Y-82319485D01*
X76369485Y-82431277D01*
X76369477Y-82431287D01*
X76290424Y-82568211D01*
X76275171Y-82625138D01*
X76249500Y-82720943D01*
X76249500Y-82879057D01*
X76269600Y-82954071D01*
X76290424Y-83031788D01*
X76369477Y-83168712D01*
X76369485Y-83168722D01*
X76462595Y-83261832D01*
X76496621Y-83324144D01*
X76499500Y-83350927D01*
X76499500Y-83662363D01*
X76479498Y-83730484D01*
X76462595Y-83751458D01*
X71276458Y-88937595D01*
X71214146Y-88971621D01*
X71187363Y-88974500D01*
X70249632Y-88974500D01*
X70181511Y-88954498D01*
X70135018Y-88900842D01*
X70128647Y-88878649D01*
X70127637Y-88878920D01*
X70121916Y-88857569D01*
X70084577Y-88718216D01*
X70084575Y-88718213D01*
X70084575Y-88718211D01*
X70005522Y-88581287D01*
X70005514Y-88581277D01*
X69893722Y-88469485D01*
X69893712Y-88469477D01*
X69756788Y-88390424D01*
X69729999Y-88383246D01*
X69604057Y-88349500D01*
X69445943Y-88349500D01*
X69361513Y-88372123D01*
X69293211Y-88390424D01*
X69156287Y-88469477D01*
X69156277Y-88469485D01*
X69044485Y-88581277D01*
X69044477Y-88581287D01*
X68965424Y-88718211D01*
X68953290Y-88763498D01*
X68924500Y-88870943D01*
X68924500Y-89029057D01*
X68944596Y-89104055D01*
X68965424Y-89181788D01*
X69044477Y-89318712D01*
X69044485Y-89318722D01*
X69060168Y-89334405D01*
X69070950Y-89354151D01*
X69085687Y-89371158D01*
X69087634Y-89384705D01*
X69094194Y-89396717D01*
X69092588Y-89419160D01*
X69095791Y-89441432D01*
X69090105Y-89453881D01*
X69089129Y-89467532D01*
X69075644Y-89485545D01*
X69066297Y-89506012D01*
X69054784Y-89513410D01*
X69046582Y-89524368D01*
X69025498Y-89532231D01*
X69006571Y-89544396D01*
X68984300Y-89547598D01*
X68980062Y-89549179D01*
X68971073Y-89549500D01*
X68762017Y-89549500D01*
X68693896Y-89529498D01*
X68672921Y-89512595D01*
X68588404Y-89428077D01*
X68554379Y-89365764D01*
X68551500Y-89338982D01*
X68551500Y-87820339D01*
X68551499Y-87820334D01*
X68548865Y-87810502D01*
X68543247Y-87789535D01*
X68529318Y-87737551D01*
X68504449Y-87694477D01*
X68486467Y-87663331D01*
X68486459Y-87663321D01*
X66996585Y-86173448D01*
X66963973Y-86116964D01*
X66963700Y-86115944D01*
X66963700Y-86115943D01*
X66922777Y-85963216D01*
X66922775Y-85963213D01*
X66922775Y-85963211D01*
X66843722Y-85826287D01*
X66843714Y-85826277D01*
X66731922Y-85714485D01*
X66731912Y-85714477D01*
X66638046Y-85660284D01*
X66620497Y-85641879D01*
X66600146Y-85626631D01*
X66596419Y-85616628D01*
X66589053Y-85608902D01*
X66584240Y-85583932D01*
X66575363Y-85560100D01*
X66577636Y-85549668D01*
X66575617Y-85539188D01*
X66585067Y-85515581D01*
X66590484Y-85490733D01*
X66598988Y-85480807D01*
X66602003Y-85473277D01*
X66611988Y-85462032D01*
X66618217Y-85455807D01*
X66618716Y-85455520D01*
X66730520Y-85343716D01*
X66730677Y-85343443D01*
X66736759Y-85337367D01*
X66760931Y-85324181D01*
X66783164Y-85307939D01*
X66794251Y-85306005D01*
X66799086Y-85303368D01*
X66806368Y-85303891D01*
X66825817Y-85300500D01*
X68112983Y-85300500D01*
X68181104Y-85320502D01*
X68202078Y-85337405D01*
X68462595Y-85597922D01*
X68496621Y-85660234D01*
X68499500Y-85687017D01*
X68499500Y-85849182D01*
X68479498Y-85917303D01*
X68460958Y-85937475D01*
X68462123Y-85938640D01*
X68344485Y-86056277D01*
X68344477Y-86056287D01*
X68265424Y-86193211D01*
X68248526Y-86256278D01*
X68224500Y-86345943D01*
X68224500Y-86504057D01*
X68259710Y-86635462D01*
X68265424Y-86656788D01*
X68344477Y-86793712D01*
X68344485Y-86793722D01*
X68456277Y-86905514D01*
X68456282Y-86905518D01*
X68456284Y-86905520D01*
X68456285Y-86905521D01*
X68456287Y-86905522D01*
X68593211Y-86984575D01*
X68593213Y-86984575D01*
X68593216Y-86984577D01*
X68745943Y-87025500D01*
X68745945Y-87025500D01*
X68904055Y-87025500D01*
X68904057Y-87025500D01*
X69056784Y-86984577D01*
X69056787Y-86984575D01*
X69056788Y-86984575D01*
X69147638Y-86932123D01*
X69193716Y-86905520D01*
X69305520Y-86793716D01*
X69364901Y-86690864D01*
X69384575Y-86656788D01*
X69384575Y-86656787D01*
X69384577Y-86656784D01*
X69425500Y-86504057D01*
X69425500Y-86345943D01*
X69384577Y-86193216D01*
X69384575Y-86193213D01*
X69384575Y-86193211D01*
X69305522Y-86056287D01*
X69305514Y-86056277D01*
X69187877Y-85938640D01*
X69190317Y-85936199D01*
X69157882Y-85891677D01*
X69150500Y-85849182D01*
X69150500Y-85457149D01*
X69150500Y-85457147D01*
X69147737Y-85446835D01*
X69128318Y-85374361D01*
X69104013Y-85332264D01*
X69085467Y-85300141D01*
X69085459Y-85300131D01*
X68499868Y-84714540D01*
X68499858Y-84714532D01*
X68425643Y-84671684D01*
X68425641Y-84671683D01*
X68425639Y-84671682D01*
X68342853Y-84649500D01*
X68342851Y-84649500D01*
X66825817Y-84649500D01*
X66757696Y-84629498D01*
X66737536Y-84610946D01*
X66736360Y-84612123D01*
X66618722Y-84494485D01*
X66618712Y-84494477D01*
X66481788Y-84415424D01*
X66446184Y-84405884D01*
X66329057Y-84374500D01*
X66170943Y-84374500D01*
X66077470Y-84399545D01*
X66018211Y-84415424D01*
X65881287Y-84494477D01*
X65881277Y-84494485D01*
X65769485Y-84606277D01*
X65769477Y-84606287D01*
X65690424Y-84743211D01*
X65675203Y-84800017D01*
X65649500Y-84895943D01*
X65649500Y-85054057D01*
X65668164Y-85123712D01*
X65690424Y-85206788D01*
X65769477Y-85343712D01*
X65769485Y-85343722D01*
X65881277Y-85455514D01*
X65881282Y-85455518D01*
X65881284Y-85455520D01*
X65881285Y-85455521D01*
X65881287Y-85455522D01*
X65975153Y-85509715D01*
X66024146Y-85561097D01*
X66037583Y-85630811D01*
X66011196Y-85696722D01*
X65999737Y-85708054D01*
X66000323Y-85708640D01*
X65882685Y-85826277D01*
X65882677Y-85826287D01*
X65803624Y-85963211D01*
X65792083Y-86006284D01*
X65762700Y-86115943D01*
X65762700Y-86274057D01*
X65794764Y-86393722D01*
X65803624Y-86426788D01*
X65882677Y-86563712D01*
X65882685Y-86563722D01*
X65994477Y-86675514D01*
X65994482Y-86675518D01*
X65994484Y-86675520D01*
X65994485Y-86675521D01*
X65994487Y-86675522D01*
X66073051Y-86720881D01*
X66122044Y-86772264D01*
X66135480Y-86841977D01*
X66109094Y-86907888D01*
X66073051Y-86939119D01*
X65994487Y-86984477D01*
X65994477Y-86984485D01*
X65882685Y-87096277D01*
X65882677Y-87096287D01*
X65803624Y-87233211D01*
X65803623Y-87233216D01*
X65762700Y-87385943D01*
X65762700Y-87544057D01*
X65794764Y-87663722D01*
X65803624Y-87696788D01*
X65882677Y-87833712D01*
X65882685Y-87833722D01*
X65994477Y-87945514D01*
X65994482Y-87945518D01*
X65994484Y-87945520D01*
X65994485Y-87945521D01*
X65994487Y-87945522D01*
X66073051Y-87990881D01*
X66122044Y-88042264D01*
X66135480Y-88111977D01*
X66109094Y-88177888D01*
X66073051Y-88209119D01*
X65994487Y-88254477D01*
X65994477Y-88254485D01*
X65876840Y-88372123D01*
X65875376Y-88370659D01*
X65855789Y-88383246D01*
X65830036Y-88402061D01*
X65825202Y-88402903D01*
X65822881Y-88404396D01*
X65787383Y-88409500D01*
X65697017Y-88409500D01*
X65628896Y-88389498D01*
X65607922Y-88372595D01*
X65287405Y-88052078D01*
X65253379Y-87989766D01*
X65250500Y-87962983D01*
X65250500Y-80939726D01*
X72344001Y-80939726D01*
X72359598Y-81058196D01*
X72359598Y-81058197D01*
X72420659Y-81205613D01*
X72420664Y-81205621D01*
X72517795Y-81332204D01*
X72644378Y-81429335D01*
X72644388Y-81429341D01*
X72664615Y-81437719D01*
X72719896Y-81482266D01*
X72742318Y-81549629D01*
X72724761Y-81618421D01*
X72702353Y-81643021D01*
X72703792Y-81644460D01*
X72601473Y-81746778D01*
X72601471Y-81746780D01*
X72561377Y-81825470D01*
X72540281Y-81866874D01*
X72524500Y-81966512D01*
X72524500Y-82483488D01*
X72540281Y-82583126D01*
X72601472Y-82703220D01*
X72696780Y-82798528D01*
X72816874Y-82859719D01*
X72916512Y-82875500D01*
X72916515Y-82875500D01*
X73483485Y-82875500D01*
X73483488Y-82875500D01*
X73583126Y-82859719D01*
X73703220Y-82798528D01*
X73798528Y-82703220D01*
X73859719Y-82583126D01*
X73875500Y-82483488D01*
X73875500Y-81966512D01*
X73859719Y-81866874D01*
X73798528Y-81746780D01*
X73703220Y-81651472D01*
X73696208Y-81644460D01*
X73698681Y-81641986D01*
X73666179Y-81599823D01*
X73660115Y-81529085D01*
X73693257Y-81466299D01*
X73735386Y-81437718D01*
X73755613Y-81429340D01*
X73755621Y-81429335D01*
X73882204Y-81332204D01*
X73979335Y-81205621D01*
X73979340Y-81205613D01*
X74040402Y-81058196D01*
X74055999Y-80939721D01*
X74056000Y-80939712D01*
X74056000Y-80865500D01*
X72344001Y-80865500D01*
X72344001Y-80939726D01*
X65250500Y-80939726D01*
X65250500Y-80410278D01*
X72344000Y-80410278D01*
X72344000Y-80484500D01*
X73009500Y-80484500D01*
X73390500Y-80484500D01*
X74055999Y-80484500D01*
X74055999Y-80410282D01*
X74055998Y-80410273D01*
X74040401Y-80291803D01*
X74040401Y-80291802D01*
X73979340Y-80144386D01*
X73979335Y-80144378D01*
X73882204Y-80017795D01*
X73755621Y-79920664D01*
X73755613Y-79920659D01*
X73608196Y-79859597D01*
X73489721Y-79844000D01*
X73390500Y-79844000D01*
X73390500Y-80484500D01*
X73009500Y-80484500D01*
X73009500Y-79843999D01*
X72910291Y-79844000D01*
X72910277Y-79844001D01*
X72791803Y-79859597D01*
X72791802Y-79859598D01*
X72644386Y-79920659D01*
X72644378Y-79920664D01*
X72517795Y-80017795D01*
X72420664Y-80144378D01*
X72420659Y-80144386D01*
X72359597Y-80291803D01*
X72344000Y-80410278D01*
X65250500Y-80410278D01*
X65250500Y-79387017D01*
X65270502Y-79318896D01*
X65287405Y-79297922D01*
X65847922Y-78737405D01*
X65910234Y-78703379D01*
X65937017Y-78700500D01*
X68433449Y-78700500D01*
X68501570Y-78720502D01*
X68548063Y-78774158D01*
X68558167Y-78844432D01*
X68542567Y-78889503D01*
X68540423Y-78893214D01*
X68513994Y-78991852D01*
X68499500Y-79045943D01*
X68499500Y-79204057D01*
X68527026Y-79306784D01*
X68540424Y-79356788D01*
X68619477Y-79493712D01*
X68619485Y-79493722D01*
X68731277Y-79605514D01*
X68731282Y-79605518D01*
X68731284Y-79605520D01*
X68731285Y-79605521D01*
X68731287Y-79605522D01*
X68868211Y-79684575D01*
X68868213Y-79684575D01*
X68868216Y-79684577D01*
X69020943Y-79725500D01*
X69020945Y-79725500D01*
X69179055Y-79725500D01*
X69179057Y-79725500D01*
X69331784Y-79684577D01*
X69331787Y-79684575D01*
X69331788Y-79684575D01*
X69418391Y-79634575D01*
X69468716Y-79605520D01*
X69519569Y-79554667D01*
X69586360Y-79487877D01*
X69588818Y-79490335D01*
X69633164Y-79457939D01*
X69675817Y-79450500D01*
X73474074Y-79450500D01*
X73542195Y-79470502D01*
X73563164Y-79487400D01*
X73631284Y-79555520D01*
X73631285Y-79555521D01*
X73631287Y-79555522D01*
X73768211Y-79634575D01*
X73768213Y-79634575D01*
X73768216Y-79634577D01*
X73920943Y-79675500D01*
X73920945Y-79675500D01*
X74079055Y-79675500D01*
X74079057Y-79675500D01*
X74231784Y-79634577D01*
X74231787Y-79634575D01*
X74231788Y-79634575D01*
X74315214Y-79586409D01*
X74368716Y-79555520D01*
X74480520Y-79443716D01*
X74528366Y-79360843D01*
X74559575Y-79306788D01*
X74559575Y-79306787D01*
X74559577Y-79306784D01*
X74600500Y-79154057D01*
X74600500Y-78995943D01*
X74559577Y-78843216D01*
X74559575Y-78843213D01*
X74559575Y-78843211D01*
X74480522Y-78706287D01*
X74480514Y-78706277D01*
X74368722Y-78594485D01*
X74368712Y-78594477D01*
X74231788Y-78515424D01*
X74079055Y-78474499D01*
X74073253Y-78473736D01*
X74060059Y-78467899D01*
X74045669Y-78466870D01*
X74028239Y-78453822D01*
X74008326Y-78445013D01*
X74000381Y-78432967D01*
X73988833Y-78424323D01*
X73981224Y-78403924D01*
X73969235Y-78385747D01*
X73969063Y-78371319D01*
X73964022Y-78357803D01*
X73968649Y-78336528D01*
X73968391Y-78314755D01*
X73976340Y-78301173D01*
X73979113Y-78288429D01*
X74000603Y-78259722D01*
X74073000Y-78187325D01*
X74135310Y-78153301D01*
X74162684Y-78152164D01*
X74162684Y-78150500D01*
X74329055Y-78150500D01*
X74329057Y-78150500D01*
X74481784Y-78109577D01*
X74481787Y-78109575D01*
X74481788Y-78109575D01*
X74585841Y-78049500D01*
X74618716Y-78030520D01*
X74646739Y-78002497D01*
X74709405Y-77939832D01*
X74771717Y-77905806D01*
X74842532Y-77910871D01*
X74899368Y-77953418D01*
X74924179Y-78019938D01*
X74924500Y-78028927D01*
X74924500Y-83471181D01*
X74904498Y-83539302D01*
X74887595Y-83560277D01*
X74591998Y-83855873D01*
X74529686Y-83889898D01*
X74502315Y-83891047D01*
X74502315Y-83892700D01*
X74494057Y-83892700D01*
X74335943Y-83892700D01*
X74242470Y-83917745D01*
X74183211Y-83933624D01*
X74046287Y-84012677D01*
X74046277Y-84012685D01*
X73934485Y-84124477D01*
X73934477Y-84124487D01*
X73855424Y-84261411D01*
X73833558Y-84343017D01*
X73814500Y-84414143D01*
X73814500Y-84572257D01*
X73841141Y-84671682D01*
X73855424Y-84724988D01*
X73934477Y-84861912D01*
X73934485Y-84861922D01*
X74046277Y-84973714D01*
X74046282Y-84973718D01*
X74046284Y-84973720D01*
X74046285Y-84973721D01*
X74046287Y-84973722D01*
X74183211Y-85052775D01*
X74183213Y-85052775D01*
X74183216Y-85052777D01*
X74335943Y-85093700D01*
X74335945Y-85093700D01*
X74494055Y-85093700D01*
X74494057Y-85093700D01*
X74646784Y-85052777D01*
X74646787Y-85052775D01*
X74646788Y-85052775D01*
X74761088Y-84986784D01*
X74783716Y-84973720D01*
X74895520Y-84861916D01*
X74953471Y-84761541D01*
X74974575Y-84724988D01*
X74974575Y-84724987D01*
X74974577Y-84724984D01*
X75015500Y-84572257D01*
X75015500Y-84414143D01*
X75015500Y-84405884D01*
X75018983Y-84405884D01*
X75027410Y-84351653D01*
X75052324Y-84316201D01*
X75510465Y-83858062D01*
X75528212Y-83827323D01*
X75553318Y-83783838D01*
X75575500Y-83701053D01*
X75575500Y-74000817D01*
X75595502Y-73932696D01*
X75614053Y-73912536D01*
X75612877Y-73911360D01*
X75730514Y-73793722D01*
X75730520Y-73793716D01*
X75796718Y-73679057D01*
X75809575Y-73656788D01*
X75809575Y-73656787D01*
X75809577Y-73656784D01*
X75850500Y-73504057D01*
X75850500Y-73345943D01*
X75809577Y-73193216D01*
X75809575Y-73193213D01*
X75809575Y-73193211D01*
X75730522Y-73056287D01*
X75730514Y-73056277D01*
X75618722Y-72944485D01*
X75618712Y-72944477D01*
X75481788Y-72865424D01*
X75463743Y-72860589D01*
X75329057Y-72824500D01*
X75170943Y-72824500D01*
X75077470Y-72849545D01*
X75018211Y-72865424D01*
X74881287Y-72944477D01*
X74881277Y-72944485D01*
X74769485Y-73056277D01*
X74769477Y-73056287D01*
X74690424Y-73193211D01*
X74671419Y-73264140D01*
X74649500Y-73345943D01*
X74649500Y-73504057D01*
X74678857Y-73613619D01*
X74690424Y-73656788D01*
X74769477Y-73793712D01*
X74769485Y-73793722D01*
X74887123Y-73911360D01*
X74884664Y-73913818D01*
X74917061Y-73958164D01*
X74924500Y-74000817D01*
X74924500Y-75228573D01*
X74904498Y-75296694D01*
X74850842Y-75343187D01*
X74780568Y-75353291D01*
X74715988Y-75323797D01*
X74709405Y-75317668D01*
X74613722Y-75221985D01*
X74613712Y-75221977D01*
X74476788Y-75142924D01*
X74405617Y-75123854D01*
X74324057Y-75102000D01*
X74165943Y-75102000D01*
X74165940Y-75102000D01*
X74091393Y-75121974D01*
X74020417Y-75120283D01*
X73969689Y-75089362D01*
X72232405Y-73352078D01*
X72217460Y-73324709D01*
X72200604Y-73298481D01*
X72199698Y-73292182D01*
X72198379Y-73289766D01*
X72195500Y-73262983D01*
X72195500Y-73137993D01*
X72727428Y-73137993D01*
X72727428Y-73137995D01*
X72779896Y-73190463D01*
X72779911Y-73190476D01*
X72874713Y-73263222D01*
X73022134Y-73324286D01*
X73180329Y-73345112D01*
X73180331Y-73345112D01*
X73338526Y-73324285D01*
X73338527Y-73324285D01*
X73485943Y-73263224D01*
X73485951Y-73263219D01*
X73580742Y-73190483D01*
X73580754Y-73190472D01*
X73650909Y-73120316D01*
X73198008Y-72667415D01*
X73198006Y-72667415D01*
X72727428Y-73137993D01*
X72195500Y-73137993D01*
X72195500Y-72910257D01*
X72215502Y-72842136D01*
X72269158Y-72795643D01*
X72339432Y-72785539D01*
X72404012Y-72815033D01*
X72410595Y-72821161D01*
X72458021Y-72868586D01*
X72928601Y-72398006D01*
X73467415Y-72398006D01*
X73467415Y-72398008D01*
X73920316Y-72850909D01*
X73920318Y-72850909D01*
X73990463Y-72780763D01*
X73990476Y-72780748D01*
X74063223Y-72685944D01*
X74124285Y-72538527D01*
X74124285Y-72538526D01*
X74145112Y-72380330D01*
X74145112Y-72380329D01*
X74124286Y-72222134D01*
X74063224Y-72074717D01*
X74063222Y-72074714D01*
X73990475Y-71979908D01*
X73990465Y-71979897D01*
X73937995Y-71927428D01*
X73937993Y-71927428D01*
X73467415Y-72398006D01*
X72928601Y-72398006D01*
X73063303Y-72263304D01*
X73063304Y-72263304D01*
X73069873Y-72256734D01*
X73668587Y-71658020D01*
X73616119Y-71605552D01*
X73616104Y-71605539D01*
X73521302Y-71532793D01*
X73373881Y-71471729D01*
X73215687Y-71450904D01*
X73215685Y-71450904D01*
X73057489Y-71471730D01*
X73057485Y-71471731D01*
X73037253Y-71480111D01*
X72966663Y-71487698D01*
X72903177Y-71455918D01*
X72866951Y-71394859D01*
X72865415Y-71361623D01*
X72863368Y-71361623D01*
X72863368Y-71216921D01*
X72821718Y-71088735D01*
X72796956Y-71054654D01*
X72762421Y-71007120D01*
X72762418Y-71007117D01*
X72762416Y-71007114D01*
X72396869Y-70641567D01*
X72396866Y-70641565D01*
X72396864Y-70641563D01*
X72324812Y-70589214D01*
X72315248Y-70582265D01*
X72208723Y-70547654D01*
X72187063Y-70540616D01*
X72052277Y-70540616D01*
X71936011Y-70578392D01*
X71865044Y-70580419D01*
X71807982Y-70547655D01*
X71379862Y-70119535D01*
X71379860Y-70119534D01*
X71379858Y-70119532D01*
X71305643Y-70076684D01*
X71305641Y-70076683D01*
X71305639Y-70076682D01*
X71222853Y-70054500D01*
X71222851Y-70054500D01*
X69498317Y-70054500D01*
X69430196Y-70034498D01*
X69410036Y-70015946D01*
X69408860Y-70017123D01*
X69291222Y-69899485D01*
X69291212Y-69899477D01*
X69212648Y-69854119D01*
X69163655Y-69802737D01*
X69150218Y-69733023D01*
X69176605Y-69667112D01*
X69212648Y-69635881D01*
X69239562Y-69620341D01*
X69291216Y-69590520D01*
X69403020Y-69478716D01*
X69458837Y-69382038D01*
X69482075Y-69341788D01*
X69482075Y-69341787D01*
X69482077Y-69341784D01*
X69523000Y-69189057D01*
X69523000Y-69030943D01*
X69482077Y-68878216D01*
X69482075Y-68878213D01*
X69482075Y-68878211D01*
X69403022Y-68741287D01*
X69403014Y-68741277D01*
X69285377Y-68623640D01*
X69287817Y-68621199D01*
X69255382Y-68576677D01*
X69248000Y-68534182D01*
X69248000Y-68054649D01*
X69247999Y-68054644D01*
X69237993Y-68017297D01*
X69237993Y-68017296D01*
X69225820Y-67971868D01*
X69225819Y-67971867D01*
X69225818Y-67971861D01*
X69182965Y-67897638D01*
X69182963Y-67897636D01*
X69182959Y-67897631D01*
X69148423Y-67863095D01*
X69114397Y-67800783D01*
X69119462Y-67729968D01*
X69162009Y-67673132D01*
X69228529Y-67648321D01*
X69237518Y-67648000D01*
X69730165Y-67648000D01*
X69798286Y-67668002D01*
G37*
%TD.AperFunction*%
%TA.AperFunction,Conductor*%
G36*
X83722613Y-71981788D02*
G01*
X83771919Y-72012246D01*
X88375201Y-76615528D01*
X88409227Y-76677840D01*
X88404162Y-76748655D01*
X88361615Y-76805491D01*
X88356108Y-76809388D01*
X88224969Y-76897012D01*
X88224962Y-76897018D01*
X88085610Y-77036370D01*
X88085605Y-77036377D01*
X87976115Y-77200240D01*
X87900697Y-77382316D01*
X87900696Y-77382319D01*
X87862247Y-77575610D01*
X87862247Y-77772699D01*
X87900696Y-77965990D01*
X87900697Y-77965993D01*
X87955500Y-78098299D01*
X87976115Y-78148069D01*
X88085608Y-78311937D01*
X88224965Y-78451294D01*
X88388833Y-78560787D01*
X88570912Y-78636206D01*
X88764206Y-78674655D01*
X88961288Y-78674655D01*
X89154582Y-78636206D01*
X89336661Y-78560787D01*
X89500529Y-78451294D01*
X89629405Y-78322418D01*
X89691717Y-78288392D01*
X89762532Y-78293457D01*
X89819368Y-78336004D01*
X89844179Y-78402524D01*
X89844500Y-78411513D01*
X89844500Y-79567147D01*
X89844500Y-79652853D01*
X89866682Y-79735639D01*
X89866683Y-79735641D01*
X89866684Y-79735643D01*
X89909532Y-79809858D01*
X89909540Y-79809868D01*
X91635683Y-81536010D01*
X91669708Y-81598322D01*
X91664644Y-81669137D01*
X91622097Y-81725973D01*
X91620652Y-81727039D01*
X91573135Y-81761563D01*
X91496841Y-81837858D01*
X91275110Y-82059588D01*
X91212800Y-82093612D01*
X91186017Y-82096492D01*
X89838595Y-82096492D01*
X89838579Y-82096491D01*
X89830861Y-82096491D01*
X89745155Y-82096491D01*
X89745151Y-82096491D01*
X89662371Y-82118672D01*
X89634323Y-82134866D01*
X89634321Y-82134867D01*
X89625258Y-82140100D01*
X89588146Y-82161527D01*
X89527543Y-82222130D01*
X89527541Y-82222132D01*
X89523262Y-82226410D01*
X89523257Y-82226415D01*
X89385835Y-82363836D01*
X89323522Y-82397861D01*
X89287315Y-82399370D01*
X89287315Y-82399500D01*
X89284213Y-82399500D01*
X89280304Y-82399663D01*
X89279065Y-82399500D01*
X89279057Y-82399500D01*
X89120943Y-82399500D01*
X89064858Y-82414528D01*
X88968211Y-82440424D01*
X88831287Y-82519477D01*
X88831277Y-82519485D01*
X88719485Y-82631277D01*
X88719477Y-82631287D01*
X88640424Y-82768211D01*
X88632301Y-82798528D01*
X88599500Y-82920943D01*
X88599500Y-83079057D01*
X88632979Y-83204004D01*
X88640424Y-83231788D01*
X88719477Y-83368712D01*
X88719485Y-83368722D01*
X88831277Y-83480514D01*
X88831282Y-83480518D01*
X88831284Y-83480520D01*
X88831285Y-83480521D01*
X88831287Y-83480522D01*
X88968211Y-83559575D01*
X88968213Y-83559575D01*
X88968216Y-83559577D01*
X89120943Y-83600500D01*
X89120945Y-83600500D01*
X89279055Y-83600500D01*
X89279057Y-83600500D01*
X89431784Y-83559577D01*
X89431787Y-83559575D01*
X89431788Y-83559575D01*
X89503788Y-83518006D01*
X89568716Y-83480520D01*
X89612114Y-83437121D01*
X89674424Y-83403098D01*
X89745239Y-83408162D01*
X89802075Y-83450708D01*
X89826130Y-83509772D01*
X89845713Y-83658526D01*
X89845714Y-83658527D01*
X89906775Y-83805943D01*
X89906780Y-83805951D01*
X89979516Y-83900742D01*
X89979535Y-83900763D01*
X90049681Y-83970909D01*
X90049683Y-83970909D01*
X90502584Y-83518008D01*
X90502584Y-83518006D01*
X90032006Y-83047428D01*
X90032005Y-83047428D01*
X90015596Y-83063837D01*
X89995848Y-83074620D01*
X89978842Y-83089356D01*
X89965294Y-83091303D01*
X89953284Y-83097862D01*
X89930843Y-83096257D01*
X89908568Y-83099460D01*
X89896118Y-83093774D01*
X89882469Y-83092798D01*
X89864455Y-83079313D01*
X89843988Y-83069966D01*
X89836589Y-83058453D01*
X89825633Y-83050252D01*
X89817768Y-83029168D01*
X89805604Y-83010240D01*
X89802402Y-82987970D01*
X89800821Y-82983732D01*
X89800500Y-82974742D01*
X89800500Y-82922016D01*
X89820502Y-82853895D01*
X89837405Y-82832920D01*
X89885930Y-82784396D01*
X89948243Y-82750371D01*
X89975025Y-82747492D01*
X90218692Y-82747492D01*
X90286813Y-82767494D01*
X90307787Y-82784396D01*
X90906696Y-83383304D01*
X90906697Y-83383305D01*
X91511978Y-83988587D01*
X91511979Y-83988587D01*
X91564448Y-83936118D01*
X91564460Y-83936105D01*
X91637206Y-83841302D01*
X91698270Y-83693881D01*
X91719096Y-83535686D01*
X91719096Y-83535685D01*
X91698270Y-83377490D01*
X91689889Y-83357257D01*
X91682300Y-83286667D01*
X91714079Y-83223180D01*
X91775137Y-83186952D01*
X91808377Y-83185413D01*
X91808377Y-83183368D01*
X91953078Y-83183368D01*
X91953079Y-83183368D01*
X92049431Y-83152061D01*
X92081264Y-83141718D01*
X92081264Y-83141717D01*
X92081266Y-83141717D01*
X92162880Y-83082421D01*
X92528437Y-82716864D01*
X92587733Y-82635250D01*
X92629384Y-82507063D01*
X92629384Y-82372277D01*
X92587733Y-82244089D01*
X92528437Y-82162475D01*
X92528434Y-82162472D01*
X92528432Y-82162469D01*
X92436558Y-82070595D01*
X92402532Y-82008283D01*
X92407597Y-81937468D01*
X92450144Y-81880632D01*
X92516664Y-81855821D01*
X92525653Y-81855500D01*
X93842983Y-81855500D01*
X93911104Y-81875502D01*
X93932078Y-81892405D01*
X94212595Y-82172922D01*
X94246621Y-82235234D01*
X94249500Y-82262017D01*
X94249500Y-82854821D01*
X94229498Y-82922942D01*
X94175842Y-82969435D01*
X94105568Y-82979539D01*
X94060501Y-82963941D01*
X93993787Y-82925424D01*
X93993784Y-82925423D01*
X93841057Y-82884500D01*
X93682943Y-82884500D01*
X93589470Y-82909545D01*
X93530211Y-82925424D01*
X93393287Y-83004477D01*
X93393277Y-83004485D01*
X93275640Y-83122123D01*
X93273181Y-83119664D01*
X93228836Y-83152061D01*
X93186183Y-83159500D01*
X92869148Y-83159500D01*
X92786363Y-83181682D01*
X92786362Y-83181682D01*
X92786360Y-83181683D01*
X92769418Y-83191465D01*
X92720342Y-83219799D01*
X92720048Y-83219969D01*
X92712139Y-83224534D01*
X92712132Y-83224540D01*
X89548079Y-86388595D01*
X89485767Y-86422621D01*
X89458984Y-86425500D01*
X87316265Y-86425500D01*
X87248144Y-86405498D01*
X87201651Y-86351842D01*
X87191547Y-86281568D01*
X87196107Y-86264940D01*
X87195439Y-86264761D01*
X87197575Y-86256785D01*
X87197577Y-86256784D01*
X87238500Y-86104057D01*
X87238500Y-85945943D01*
X87197577Y-85793216D01*
X87197575Y-85793213D01*
X87197575Y-85793211D01*
X87118522Y-85656287D01*
X87118514Y-85656277D01*
X87006722Y-85544485D01*
X87006712Y-85544477D01*
X86928148Y-85499119D01*
X86879155Y-85447737D01*
X86865718Y-85378023D01*
X86892105Y-85312112D01*
X86928148Y-85280881D01*
X86955464Y-85265110D01*
X87006716Y-85235520D01*
X87118520Y-85123716D01*
X87197577Y-84986784D01*
X87238500Y-84834057D01*
X87238500Y-84675943D01*
X87197577Y-84523216D01*
X87197575Y-84523213D01*
X87197575Y-84523211D01*
X87118522Y-84386287D01*
X87118514Y-84386277D01*
X87006722Y-84274485D01*
X87006712Y-84274477D01*
X86947543Y-84240316D01*
X90319090Y-84240316D01*
X90319090Y-84240317D01*
X90389244Y-84310470D01*
X90389251Y-84310476D01*
X90484055Y-84383223D01*
X90631472Y-84444285D01*
X90789669Y-84465112D01*
X90789671Y-84465112D01*
X90947865Y-84444286D01*
X91095282Y-84383224D01*
X91095285Y-84383222D01*
X91190091Y-84310474D01*
X91190093Y-84310473D01*
X91242571Y-84257993D01*
X90771993Y-83787415D01*
X90771991Y-83787415D01*
X90319090Y-84240316D01*
X86947543Y-84240316D01*
X86869788Y-84195424D01*
X86851743Y-84190589D01*
X86717057Y-84154500D01*
X86558943Y-84154500D01*
X86558940Y-84154500D01*
X86476112Y-84176693D01*
X86405136Y-84175003D01*
X86354408Y-84144081D01*
X86012405Y-83802078D01*
X85978379Y-83739766D01*
X85975500Y-83712983D01*
X85975500Y-82157614D01*
X85979793Y-82125003D01*
X85981489Y-82118674D01*
X86001653Y-82043420D01*
X86001653Y-81957714D01*
X86001653Y-81452143D01*
X86001654Y-81452130D01*
X86001654Y-81356274D01*
X86001653Y-81356270D01*
X85979473Y-81273494D01*
X85979472Y-81273492D01*
X85979471Y-81273488D01*
X85952447Y-81226682D01*
X85936618Y-81199265D01*
X85876015Y-81138662D01*
X85876012Y-81138660D01*
X85450735Y-80713382D01*
X85450733Y-80713381D01*
X85450731Y-80713379D01*
X85376516Y-80670531D01*
X85376514Y-80670530D01*
X85376512Y-80670529D01*
X85293726Y-80648347D01*
X85293724Y-80648347D01*
X85048980Y-80648347D01*
X84980859Y-80628345D01*
X84959885Y-80611442D01*
X84712405Y-80363962D01*
X84678379Y-80301650D01*
X84675500Y-80274867D01*
X84675500Y-77575610D01*
X85322247Y-77575610D01*
X85322247Y-77772699D01*
X85360696Y-77965990D01*
X85360697Y-77965993D01*
X85415500Y-78098299D01*
X85436115Y-78148069D01*
X85545608Y-78311937D01*
X85684965Y-78451294D01*
X85848833Y-78560787D01*
X86030912Y-78636206D01*
X86224206Y-78674655D01*
X86421288Y-78674655D01*
X86614582Y-78636206D01*
X86796661Y-78560787D01*
X86960529Y-78451294D01*
X87099886Y-78311937D01*
X87209379Y-78148069D01*
X87284798Y-77965990D01*
X87323247Y-77772696D01*
X87323247Y-77575614D01*
X87284798Y-77382320D01*
X87209379Y-77200241D01*
X87099886Y-77036373D01*
X86960529Y-76897016D01*
X86796661Y-76787523D01*
X86745822Y-76766465D01*
X86614585Y-76712105D01*
X86614582Y-76712104D01*
X86421291Y-76673655D01*
X86421288Y-76673655D01*
X86224206Y-76673655D01*
X86224202Y-76673655D01*
X86030911Y-76712104D01*
X86030908Y-76712105D01*
X85848832Y-76787523D01*
X85684969Y-76897013D01*
X85684962Y-76897018D01*
X85545610Y-77036370D01*
X85545605Y-77036377D01*
X85436115Y-77200240D01*
X85360697Y-77382316D01*
X85360696Y-77382319D01*
X85322247Y-77575610D01*
X84675500Y-77575610D01*
X84675500Y-76459407D01*
X84684283Y-76429491D01*
X84690912Y-76399022D01*
X84694726Y-76393925D01*
X84695502Y-76391286D01*
X84712399Y-76370317D01*
X84803683Y-76279033D01*
X84803690Y-76279028D01*
X84871459Y-76211259D01*
X84871465Y-76211253D01*
X84902913Y-76156784D01*
X84914318Y-76137030D01*
X84936501Y-76054244D01*
X84936501Y-75968538D01*
X84936501Y-75960821D01*
X84936500Y-75960803D01*
X84936500Y-75462967D01*
X84936501Y-75462954D01*
X84936501Y-75367098D01*
X84936500Y-75367094D01*
X84914319Y-75284315D01*
X84914315Y-75284305D01*
X84898126Y-75256267D01*
X84898124Y-75256264D01*
X84892891Y-75247201D01*
X84871465Y-75210089D01*
X84810862Y-75149486D01*
X84810860Y-75149484D01*
X84712405Y-75051029D01*
X84678379Y-74988717D01*
X84675500Y-74961934D01*
X84675500Y-74248016D01*
X84675501Y-74248003D01*
X84675501Y-74152147D01*
X84675500Y-74152143D01*
X84653319Y-74069365D01*
X84653318Y-74069364D01*
X84653318Y-74069362D01*
X84642428Y-74050500D01*
X84610465Y-73995138D01*
X84549862Y-73934535D01*
X84549859Y-73934533D01*
X83570105Y-72954778D01*
X83536081Y-72892469D01*
X83541146Y-72821654D01*
X83542794Y-72817467D01*
X83543803Y-72815033D01*
X83569875Y-72752088D01*
X83572048Y-72746843D01*
X83572048Y-72746841D01*
X83572051Y-72746835D01*
X83610500Y-72553541D01*
X83610500Y-72356459D01*
X83572051Y-72163165D01*
X83566415Y-72149560D01*
X83558826Y-72078971D01*
X83590604Y-72015484D01*
X83651662Y-71979255D01*
X83722613Y-71981788D01*
G37*
%TD.AperFunction*%
%TA.AperFunction,Conductor*%
G36*
X68479604Y-68119002D02*
G01*
X68500578Y-68135905D01*
X68560095Y-68195422D01*
X68594121Y-68257734D01*
X68597000Y-68284517D01*
X68597000Y-68534182D01*
X68576998Y-68602303D01*
X68558458Y-68622475D01*
X68559623Y-68623640D01*
X68441985Y-68741277D01*
X68441977Y-68741287D01*
X68362924Y-68878211D01*
X68342898Y-68952949D01*
X68322000Y-69030943D01*
X68322000Y-69189057D01*
X68348562Y-69288189D01*
X68362924Y-69341788D01*
X68441977Y-69478712D01*
X68441985Y-69478722D01*
X68553777Y-69590514D01*
X68553782Y-69590518D01*
X68553784Y-69590520D01*
X68553785Y-69590521D01*
X68553787Y-69590522D01*
X68632351Y-69635881D01*
X68681344Y-69687264D01*
X68694780Y-69756977D01*
X68668394Y-69822888D01*
X68632351Y-69854119D01*
X68553787Y-69899477D01*
X68553777Y-69899485D01*
X68436140Y-70017123D01*
X68433681Y-70014664D01*
X68389336Y-70047061D01*
X68346683Y-70054500D01*
X67150817Y-70054500D01*
X67082696Y-70034498D01*
X67062536Y-70015946D01*
X67061360Y-70017123D01*
X66943722Y-69899485D01*
X66943712Y-69899477D01*
X66806788Y-69820424D01*
X66783343Y-69814142D01*
X66654057Y-69779500D01*
X66495943Y-69779500D01*
X66402470Y-69804545D01*
X66343211Y-69820424D01*
X66206287Y-69899477D01*
X66206277Y-69899485D01*
X66088640Y-70017123D01*
X66087176Y-70015659D01*
X66067589Y-70028246D01*
X66041836Y-70047061D01*
X66037002Y-70047903D01*
X66034681Y-70049396D01*
X65999183Y-70054500D01*
X65845587Y-70054500D01*
X65845571Y-70054499D01*
X65837853Y-70054499D01*
X65752147Y-70054499D01*
X65752143Y-70054499D01*
X65669367Y-70076679D01*
X65669357Y-70076683D01*
X65648987Y-70088444D01*
X65648981Y-70088448D01*
X65640428Y-70093387D01*
X65595138Y-70119535D01*
X65534535Y-70180138D01*
X65534533Y-70180140D01*
X65529847Y-70184825D01*
X65529842Y-70184830D01*
X63727078Y-71987595D01*
X63664766Y-72021621D01*
X63637983Y-72024500D01*
X63425818Y-72024500D01*
X63357697Y-72004498D01*
X63337537Y-71985946D01*
X63336361Y-71987123D01*
X63218723Y-71869485D01*
X63218713Y-71869477D01*
X63081789Y-71790424D01*
X63063744Y-71785589D01*
X62929058Y-71749500D01*
X62770944Y-71749500D01*
X62677471Y-71774545D01*
X62618212Y-71790424D01*
X62490500Y-71864159D01*
X62421504Y-71880897D01*
X62354412Y-71857676D01*
X62310525Y-71801869D01*
X62301500Y-71755040D01*
X62301500Y-70444959D01*
X62321502Y-70376838D01*
X62375158Y-70330345D01*
X62445432Y-70320241D01*
X62490500Y-70335840D01*
X62618212Y-70409575D01*
X62618214Y-70409575D01*
X62618217Y-70409577D01*
X62770944Y-70450500D01*
X62770946Y-70450500D01*
X62929056Y-70450500D01*
X62929058Y-70450500D01*
X63081785Y-70409577D01*
X63081788Y-70409575D01*
X63081789Y-70409575D01*
X63188340Y-70348058D01*
X63218717Y-70330520D01*
X63330521Y-70218716D01*
X63384339Y-70125500D01*
X63409576Y-70081788D01*
X63409576Y-70081787D01*
X63409578Y-70081784D01*
X63450501Y-69929057D01*
X63450501Y-69770943D01*
X63450501Y-69762684D01*
X63453980Y-69762684D01*
X63462423Y-69708427D01*
X63487325Y-69673001D01*
X64039481Y-69120845D01*
X64101791Y-69086821D01*
X64172606Y-69091886D01*
X64229442Y-69134433D01*
X64254253Y-69200953D01*
X64241472Y-69259705D01*
X64243585Y-69260580D01*
X64240425Y-69268208D01*
X64228900Y-69311222D01*
X64199500Y-69420943D01*
X64199500Y-69579057D01*
X64228494Y-69687264D01*
X64240424Y-69731788D01*
X64319477Y-69868712D01*
X64319485Y-69868722D01*
X64431277Y-69980514D01*
X64431282Y-69980518D01*
X64431284Y-69980520D01*
X64431285Y-69980521D01*
X64431287Y-69980522D01*
X64568211Y-70059575D01*
X64568213Y-70059575D01*
X64568216Y-70059577D01*
X64720943Y-70100500D01*
X64720945Y-70100500D01*
X64879055Y-70100500D01*
X64879057Y-70100500D01*
X65031784Y-70059577D01*
X65031787Y-70059575D01*
X65031788Y-70059575D01*
X65115431Y-70011284D01*
X65168716Y-69980520D01*
X65280520Y-69868716D01*
X65328999Y-69784747D01*
X65359575Y-69731788D01*
X65359575Y-69731787D01*
X65359577Y-69731784D01*
X65400500Y-69579057D01*
X65400500Y-69420943D01*
X65359577Y-69268216D01*
X65359575Y-69268213D01*
X65359575Y-69268211D01*
X65280522Y-69131287D01*
X65280514Y-69131277D01*
X65162877Y-69013640D01*
X65164341Y-69012175D01*
X65151708Y-68992519D01*
X65132882Y-68966677D01*
X65132060Y-68961945D01*
X65130604Y-68959680D01*
X65125500Y-68924182D01*
X65125500Y-68724828D01*
X65145502Y-68656707D01*
X65162405Y-68635733D01*
X65662233Y-68135905D01*
X65724545Y-68101879D01*
X65751328Y-68099000D01*
X68411483Y-68099000D01*
X68479604Y-68119002D01*
G37*
%TD.AperFunction*%
%TA.AperFunction,Conductor*%
G36*
X72894110Y-69230466D02*
G01*
X72907824Y-69230041D01*
X72917232Y-69231096D01*
X72989648Y-69250501D01*
X73075353Y-69250501D01*
X73075357Y-69250500D01*
X74655617Y-69250500D01*
X74723738Y-69270502D01*
X74770231Y-69324158D01*
X74780335Y-69394432D01*
X74764736Y-69439500D01*
X74690424Y-69568211D01*
X74675700Y-69623164D01*
X74649500Y-69720943D01*
X74649500Y-69879057D01*
X74679493Y-69990993D01*
X74690424Y-70031788D01*
X74769477Y-70168712D01*
X74769485Y-70168722D01*
X74881277Y-70280514D01*
X74881282Y-70280518D01*
X74881284Y-70280520D01*
X74881285Y-70280521D01*
X74881287Y-70280522D01*
X75018211Y-70359575D01*
X75018213Y-70359575D01*
X75018216Y-70359577D01*
X75170943Y-70400500D01*
X75170945Y-70400500D01*
X75329055Y-70400500D01*
X75329057Y-70400500D01*
X75481784Y-70359577D01*
X75481787Y-70359575D01*
X75481788Y-70359575D01*
X75596097Y-70293579D01*
X75618716Y-70280520D01*
X75665629Y-70233607D01*
X75736360Y-70162877D01*
X75738818Y-70165335D01*
X75783164Y-70132939D01*
X75825817Y-70125500D01*
X78490245Y-70125500D01*
X78553245Y-70142381D01*
X78669627Y-70209574D01*
X78669629Y-70209574D01*
X78669632Y-70209576D01*
X78822359Y-70250499D01*
X78822361Y-70250499D01*
X78980471Y-70250499D01*
X78980473Y-70250499D01*
X79133200Y-70209576D01*
X79133203Y-70209574D01*
X79133204Y-70209574D01*
X79241416Y-70147098D01*
X79270132Y-70130519D01*
X79381936Y-70018715D01*
X79438728Y-69920348D01*
X79460991Y-69881787D01*
X79460991Y-69881786D01*
X79460993Y-69881783D01*
X79501916Y-69729056D01*
X79501916Y-69570942D01*
X79460993Y-69418215D01*
X79460991Y-69418213D01*
X79458855Y-69410238D01*
X79462040Y-69409384D01*
X79456094Y-69354145D01*
X79487865Y-69290654D01*
X79548918Y-69254418D01*
X79580095Y-69250500D01*
X81567850Y-69250500D01*
X81567853Y-69250500D01*
X81589036Y-69244824D01*
X81660010Y-69246514D01*
X81718806Y-69286308D01*
X81746754Y-69351572D01*
X81734981Y-69421586D01*
X81726412Y-69436530D01*
X81723368Y-69441084D01*
X81723368Y-69441085D01*
X81647950Y-69623161D01*
X81647949Y-69623164D01*
X81609500Y-69816455D01*
X81609500Y-70013544D01*
X81647949Y-70206835D01*
X81647950Y-70206838D01*
X81723368Y-70388914D01*
X81833339Y-70553498D01*
X81854554Y-70621251D01*
X81835771Y-70689718D01*
X81782953Y-70737161D01*
X81728574Y-70749500D01*
X74162016Y-70749500D01*
X74093895Y-70729498D01*
X74072921Y-70712595D01*
X72804677Y-69444350D01*
X72790636Y-69418637D01*
X72774036Y-69394489D01*
X72773830Y-69387859D01*
X72770651Y-69382038D01*
X72772741Y-69352809D01*
X72771832Y-69323527D01*
X72775242Y-69317838D01*
X72775716Y-69311222D01*
X72793276Y-69287764D01*
X72808343Y-69262638D01*
X72814288Y-69259696D01*
X72818263Y-69254387D01*
X72845715Y-69244147D01*
X72871978Y-69231154D01*
X72881330Y-69230863D01*
X72884783Y-69229576D01*
X72894110Y-69230466D01*
G37*
%TD.AperFunction*%
%TA.AperFunction,Conductor*%
G36*
X75981104Y-65020502D02*
G01*
X76002078Y-65037405D01*
X76137595Y-65172922D01*
X76171621Y-65235234D01*
X76174500Y-65262017D01*
X76174500Y-66907147D01*
X76174500Y-66992853D01*
X76196682Y-67075639D01*
X76196683Y-67075641D01*
X76196684Y-67075643D01*
X76239532Y-67149858D01*
X76239534Y-67149860D01*
X76239535Y-67149862D01*
X77235134Y-68145460D01*
X77235155Y-68145483D01*
X77300131Y-68210459D01*
X77300135Y-68210462D01*
X77300138Y-68210465D01*
X77374362Y-68253318D01*
X77374364Y-68253318D01*
X77374365Y-68253319D01*
X77457144Y-68275500D01*
X77457148Y-68275501D01*
X77550571Y-68275501D01*
X77550587Y-68275500D01*
X80071239Y-68275500D01*
X80110030Y-68283215D01*
X80110239Y-68282439D01*
X80118214Y-68284575D01*
X80118216Y-68284577D01*
X80270943Y-68325500D01*
X80270945Y-68325500D01*
X80429055Y-68325500D01*
X80429057Y-68325500D01*
X80581784Y-68284577D01*
X80581787Y-68284575D01*
X80581788Y-68284575D01*
X80691299Y-68221349D01*
X80718716Y-68205520D01*
X80830520Y-68093716D01*
X80890544Y-67989750D01*
X80909575Y-67956788D01*
X80909575Y-67956787D01*
X80909577Y-67956784D01*
X80950500Y-67804057D01*
X80950500Y-67645943D01*
X80909577Y-67493216D01*
X80909575Y-67493212D01*
X80909575Y-67493211D01*
X80830522Y-67356287D01*
X80830514Y-67356277D01*
X80718722Y-67244485D01*
X80718712Y-67244477D01*
X80581788Y-67165424D01*
X80563743Y-67160589D01*
X80429057Y-67124500D01*
X80270943Y-67124500D01*
X80196302Y-67144500D01*
X80118211Y-67165424D01*
X79981287Y-67244477D01*
X79981277Y-67244485D01*
X79869485Y-67356277D01*
X79869477Y-67356287D01*
X79790424Y-67493212D01*
X79790423Y-67493216D01*
X79780269Y-67531111D01*
X79743319Y-67591733D01*
X79679459Y-67622755D01*
X79658563Y-67624500D01*
X79241551Y-67624500D01*
X79173430Y-67604498D01*
X79126937Y-67550842D01*
X79116833Y-67480568D01*
X79132433Y-67435497D01*
X79134576Y-67431785D01*
X79134577Y-67431784D01*
X79175500Y-67279057D01*
X79175500Y-67120943D01*
X79175500Y-67112684D01*
X79177570Y-67112684D01*
X79182516Y-67089942D01*
X79187410Y-67058453D01*
X79190245Y-67054419D01*
X79190835Y-67051707D01*
X79212324Y-67023002D01*
X79285924Y-66949403D01*
X79348236Y-66915379D01*
X79375018Y-66912500D01*
X79491490Y-66912500D01*
X79491492Y-66912500D01*
X79574278Y-66890318D01*
X79648501Y-66847465D01*
X80133562Y-66362403D01*
X80195873Y-66328380D01*
X80222656Y-66325500D01*
X81964469Y-66325500D01*
X82032590Y-66345502D01*
X82079083Y-66399158D01*
X82089187Y-66469432D01*
X82059693Y-66534012D01*
X82034471Y-66556265D01*
X81972222Y-66597858D01*
X81972215Y-66597863D01*
X81832863Y-66737215D01*
X81832858Y-66737222D01*
X81723368Y-66901085D01*
X81647950Y-67083161D01*
X81647949Y-67083164D01*
X81609500Y-67276455D01*
X81609500Y-67473544D01*
X81647949Y-67666835D01*
X81647950Y-67666838D01*
X81701243Y-67795500D01*
X81723368Y-67848914D01*
X81832861Y-68012782D01*
X81972218Y-68152139D01*
X82075798Y-68221349D01*
X82092839Y-68232735D01*
X82138366Y-68287211D01*
X82147215Y-68357655D01*
X82116574Y-68421699D01*
X82056172Y-68459010D01*
X82022837Y-68463500D01*
X81703853Y-68463500D01*
X81618147Y-68463500D01*
X81535361Y-68485682D01*
X81535359Y-68485683D01*
X81535356Y-68485684D01*
X81461141Y-68528532D01*
X81461136Y-68528536D01*
X81445962Y-68543711D01*
X81427077Y-68562595D01*
X81364768Y-68596620D01*
X81337983Y-68599500D01*
X73219517Y-68599500D01*
X73151396Y-68579498D01*
X73130421Y-68562595D01*
X72342326Y-67774499D01*
X72308301Y-67712187D01*
X72307174Y-67684816D01*
X72305500Y-67684816D01*
X72305500Y-67518444D01*
X72304961Y-67516432D01*
X72264577Y-67365716D01*
X72264575Y-67365713D01*
X72264575Y-67365711D01*
X72185522Y-67228787D01*
X72185514Y-67228777D01*
X72073722Y-67116985D01*
X72073712Y-67116977D01*
X71936788Y-67037924D01*
X71881079Y-67022997D01*
X71784057Y-66997000D01*
X71625943Y-66997000D01*
X71617685Y-66997000D01*
X71617685Y-66993552D01*
X71563239Y-66984987D01*
X71528001Y-66960174D01*
X71178862Y-66611035D01*
X71178860Y-66611034D01*
X71178858Y-66611032D01*
X71104643Y-66568184D01*
X71104641Y-66568183D01*
X71104639Y-66568182D01*
X71021853Y-66546000D01*
X71021851Y-66546000D01*
X68280805Y-66546000D01*
X68212684Y-66525998D01*
X68166191Y-66472342D01*
X68156087Y-66402068D01*
X68177406Y-66351454D01*
X68176391Y-66350868D01*
X68259575Y-66206788D01*
X68259575Y-66206787D01*
X68259577Y-66206784D01*
X68300500Y-66054057D01*
X68300500Y-65895943D01*
X68259577Y-65743216D01*
X68259575Y-65743213D01*
X68259575Y-65743211D01*
X68180522Y-65606287D01*
X68180514Y-65606277D01*
X68068722Y-65494485D01*
X68068712Y-65494477D01*
X67931788Y-65415424D01*
X67913743Y-65410589D01*
X67779057Y-65374500D01*
X67620943Y-65374500D01*
X67612685Y-65374500D01*
X67612685Y-65371052D01*
X67558239Y-65362487D01*
X67522999Y-65337672D01*
X67400922Y-65215595D01*
X67366896Y-65153283D01*
X67371961Y-65082468D01*
X67414508Y-65025632D01*
X67481028Y-65000821D01*
X67490017Y-65000500D01*
X75912983Y-65000500D01*
X75981104Y-65020502D01*
G37*
%TD.AperFunction*%
%TA.AperFunction,Conductor*%
G36*
X66732104Y-65471502D02*
G01*
X66753078Y-65488405D01*
X67062672Y-65797999D01*
X67096698Y-65860311D01*
X67097857Y-65887685D01*
X67099500Y-65887685D01*
X67099500Y-65895943D01*
X67099500Y-66054057D01*
X67133380Y-66180499D01*
X67140424Y-66206788D01*
X67223609Y-66350868D01*
X67222363Y-66351587D01*
X67244758Y-66409520D01*
X67230492Y-66479068D01*
X67180889Y-66529863D01*
X67119195Y-66546000D01*
X65233544Y-66546000D01*
X65147838Y-66546000D01*
X65065052Y-66568182D01*
X65065050Y-66568183D01*
X65065047Y-66568184D01*
X64990832Y-66611032D01*
X64990822Y-66611040D01*
X63439645Y-68162218D01*
X63377333Y-68196244D01*
X63306518Y-68191179D01*
X63261455Y-68162218D01*
X63218722Y-68119485D01*
X63218712Y-68119477D01*
X63081788Y-68040424D01*
X63063743Y-68035589D01*
X62929057Y-67999500D01*
X62770943Y-67999500D01*
X62636256Y-68035589D01*
X62618212Y-68040424D01*
X62490499Y-68114159D01*
X62421504Y-68130896D01*
X62354412Y-68107675D01*
X62310525Y-68051868D01*
X62301500Y-68005039D01*
X62301500Y-65973017D01*
X62321502Y-65904896D01*
X62338405Y-65883922D01*
X62733922Y-65488405D01*
X62796234Y-65454379D01*
X62823017Y-65451500D01*
X66663983Y-65451500D01*
X66732104Y-65471502D01*
G37*
%TD.AperFunction*%
%TD*%
M02*
